<?xml version="1.0" encoding="UTF-8"?>
<svg id="Calque_2" xmlns="http://www.w3.org/2000/svg" viewBox="0 0 362.46 156.09">
  <defs>
    <style>
      .cls-1 {
        fill: #e2e2e2;
      }
    </style>
  </defs>
  <g id="Calque_1-2" data-name="Calque_1">
    <path class="cls-1" d="M274.51,156.09H29.03S-4.49,151.09.51,117.09s46-20,46-20c0,0-15.34-8.31-16.38-26.97-.68-12.21,6.09-23.83,17.42-28.43,4.6-1.87,10.32-2.94,17.25-2.15,4.93.56,9.64,2.29,13.84,4.93,3.38,2.12,7.38,5.12,9.88,8.62,0,0,5-51,63-53s68,31,68,31c0,0,16-21,41-11,0,0,26,14,20,43,0,0,26-11,38,11s-6,34-6,34c2.95-.73,25.51-5.97,40,7,2.03,1.82,7.06,6.32,9,14,.61,2.44,2.6,10.32-2.06,17.59-5.79,9.03-16.9,9.39-17.91,9.41h-67.03Z"/>
  </g>
</svg>