<?xml version="1.0" encoding="UTF-8"?>
<svg id="Calque_2" xmlns="http://www.w3.org/2000/svg" viewBox="0 0 294.33 121.13">
  <defs>
    <style>
      .cls-1 {
        fill: #e2e2e2;
      }
    </style>
  </defs>
  <g id="Calque_1-2" data-name="Calque_1">
    <path class="cls-1" d="M25.01,121.13h243.03s50.97-30,10.97-65c0,0-20-12-34-5,0,0,4-33-22-44s-38-6-38-6c0,0-17,2-27,15-2.45-1.59-15.87-9.98-33-6-21.02,4.88-29.23,24.12-30,26-1.15-.52-15.83-6.84-30,2-14.14,8.82-14.96,24.73-15,26,0,0-38-9-48,22-.55,1.7-4.38,11.1.25,20.63,6.16,12.66,21.63,14.27,22.75,14.37Z"/>
  </g>
</svg>