<?xml version="1.0" encoding="UTF-8"?>
<svg id="Calque_2" data-name="Calque 2" xmlns="http://www.w3.org/2000/svg" viewBox="0 0 63.27 54.09">
  <defs>
    <style>
      .cls-1 {
        fill: none;
        stroke: #fff;
        stroke-miterlimit: 10;
      }

      .cls-2 {
        fill: #fe6f2f;
      }

      .cls-3 {
        fill: #fff;
      }
    </style>
  </defs>
  <g id="Calque_1-2" data-name="Calque 1">
    <g>
      <ellipse class="cls-2" cx="26.3" cy="28.74" rx="15.9" ry="18.48" transform="translate(-9.5 44.1) rotate(-70.75)"/>
      <path class="cls-2" d="M14.71,18.17s-5.91-2.48-4.91-11.48h-2.57s-4.03,12.83,2.77,18.41l4.71-6.93Z"/>
      <path class="cls-2" d="M12.8,4.19c0,2.49-2.01,4.5-4.5,4.5S3.8,6.68,3.8,4.19c0-1.91,1.18-3.54,2.86-4.19l1.64,3.67,2.6-3.15c1.15.81,1.9,2.15,1.9,3.67Z"/>
      <path class="cls-2" d="M43.72,30.54s5.53,3.25,12.14-2.93l1.53,2.06s-7.87,10.9-16.42,8.79l2.74-7.92Z"/>
      <path class="cls-2" d="M56.07,23.71c-2,1.49-2.41,4.3-.92,6.3s4.3,2.41,6.3.92c1.53-1.14,2.13-3.06,1.65-4.8l-3.92.88.97-3.97c-1.34-.44-2.86-.24-4.08.67Z"/>
      <polygon class="cls-2" points="24.92 13.48 26.68 6.69 29.8 7.69 27.8 14.69 24.92 13.48"/>
      <circle class="cls-2" cx="28.8" cy="5.69" r="4"/>
      <circle class="cls-3" cx="29.01" cy="5.59" r="2.79"/>
      <circle cx="28.13" cy="5.62" r="1.67"/>
      <polygon class="cls-2" points="37.28 18.98 41.48 13.35 43.99 15.45 39.5 21.18 37.28 18.98"/>
      <circle class="cls-2" cx="43.82" cy="13.22" r="4"/>
      <circle class="cls-3" cx="44.05" cy="13.22" r="2.79"/>
      <circle cx="43.22" cy="12.91" r="1.67"/>
      <path class="cls-1" d="M26.68,19.7s.17,7.25,6.65,3.12"/>
      <polygon class="cls-2" points="30.8 43.75 33.8 47.69 32.3 52.87 34.1 54.09 35.8 46.69 32.8 42.69 30.8 42.69 30.8 43.75"/>
      <polygon class="cls-2" points="34.8 41.75 37.8 45.69 36.3 50.87 38.1 52.09 39.8 44.69 36.8 40.69 34.8 40.69 34.8 41.75"/>
      <polygon class="cls-2" points="12.08 36.69 7.22 37.62 4.87 42.47 2.72 42.18 6.4 35.54 11.3 34.56 12.79 35.9 12.08 36.69"/>
      <polygon class="cls-2" points="10.44 32.53 5.58 33.46 3.23 38.31 1.08 38.02 4.76 31.38 9.66 30.4 11.15 31.74 10.44 32.53"/>
      <polygon class="cls-2" points="8.3 27.61 2.72 27.32 0 24.09 1.65 22.82 3.8 25.72 8.8 25.69 8.3 27.61"/>
      <polygon class="cls-2" points="38.07 40.26 42.34 43.87 46.54 43.37 46.2 41.32 42.65 41.96 39.02 38.52 38.07 40.26"/>
    </g>
  </g>
</svg>