<?xml version="1.0" encoding="UTF-8"?>
<svg id="Calque_2" data-name="Calque 2" xmlns="http://www.w3.org/2000/svg" viewBox="0 0 76.43 120">
  <defs>
    <style>
      .cls-1 {
        fill: #ffd83e;
      }

      .cls-2 {
        fill: #a9e2f5;
      }

      .cls-3 {
        fill: #f08326;
      }

      .cls-4 {
        fill: #f89925;
      }
    </style>
  </defs>
  <g id="Calque_1-2" data-name="Calque 1">
    <g>
      <path class="cls-1" d="M11.87,70.84c-3.13-10.98-1.78-21.44,4.26-26.72.94-.82,3.8-3.33,8.08-3.59,7-.41,12.06,5.91,12.06,5.91,0,0,3.1,5.42,2.32,10.07l6.2,3.87s-1.55,1.55-1.55,3.1l-5.81-3.49s-8.52,3.87-14.72-1.55l-1.55-1.55s.77,6.97,7.75,10.07,9.29,7.75,9.29,7.75c0,0,3.1,7.75-3.1,14.72-6.2,6.97-8.52,8.52-8.52,8.52,0,0-8.52,4.65-4.65,12.39,0,0,4.65,5.42,9.29.77,0,0,.77-3.1-1.55-3.1s-1.55,1.55-1.55,1.55c0,0-2.32,1.55-2.32-.77s.77-3.1.77-3.1c.35-.31.91-.74,1.69-.98,2.26-.69,4.27.8,4.5.98,1.97,1.51,2.66,4.65,1.55,7.75,0,0-2.32,6.2-10.07,4.65-7.75-1.55-8.52-7.75-8.52-7.75,0,0-1.55-8.52,3.87-15.49,5.42-6.97-4.65-16.27-4.65-16.27-.52-1.29-1.03-2.58-1.55-3.87-.52-1.29-1.03-2.58-1.55-3.87Z"/>
      <path class="cls-4" d="M33.52,44.46l3.93-4.72s-6.88,1.53-7.64-4.59c0,0-3.45,6.11-9.37,0,0,0-.19,6.25-10.31,4.65,0,0,2.87,8.34-4.77,9.87,0,0,4.59,6.88-.76,11.46,0,0,4.59,3.06,2.29,9.94,0,0,4.59,1.53,4.59,7.64,0,0,3.82,3.06,3.82,6.88,0,0,5.35,6.11,0,9.94,0,0,1.53,5.35-3.06,7.64,0,0,2.29,4.59,0,8.41,0,0,5.35.76,4.59,5.35,0,0,4.59.76,5.35,3.06l1.13-2.31s-8.37-1.52-7.04-11.07,4-11.46,4-11.46c0,0,3.99-5.7-2.78-14.12-6.77-8.42-6.34-17.44-6.34-17.44,0,0-1.56-9.57,3.97-16.71s13.32-4.95,13.32-4.95c0,0,4.99,1.13,5.1,2.52Z"/>
      <path class="cls-3" d="M1.53,72.61s3.06,3.82,9.17,3.06,7.64.76,7.64.76c0,0,2.29,2.29.76,4.59,0,0-8.41,5.35-9.94,9.94,0,0,.76-4.59-5.35-4.59,0,0,3.06-6.11-3.82-6.88,0,0,3.82-.76,1.53-6.88Z"/>
      <path class="cls-4" d="M28.91,66.96s10.73,11,6.2,22.46c0,0,6.14-6.5,3.1-14.72,0,0-3.32-5.75-9.29-7.75Z"/>
      <circle cx="31.34" cy="49.68" r="2.29"/>
      <circle class="cls-2" cx="54.27" cy="43.57" r="6.11"/>
      <circle class="cls-2" cx="67.26" cy="22.17" r="9.17"/>
      <circle class="cls-2" cx="51.97" cy="3.82" r="3.82"/>
    </g>
  </g>
</svg>