<?xml version="1.0" encoding="UTF-8"?>
<svg id="Calque_2" xmlns="http://www.w3.org/2000/svg" viewBox="0 0 151.74 114.56">
  <defs>
    <style>
      .cls-1 {
        fill: #d8690e;
      }

      .cls-2 {
        fill: #ff8f33;
      }
    </style>
  </defs>
  <g id="Calque_1-2" data-name="Calque_1">
    <path class="cls-1" d="M50.37,23S1.01,32.83.01,75.91s50.35,2.59,50.35,2.59l-7.09-7.22s-39,29.16-32.08-1.39c1.82-8.05,5.75-15.47,11.21-21.66,6.16-6.98,15.83-15.24,27.96-16.67v-8.55Z"/>
    <path class="cls-1" d="M101.37,23.25s49.36,9.82,50.35,52.91c.99,43.09-50.35,2.59-50.35,2.59l7.09-7.22s39,29.16,32.08-1.39c-1.82-8.05-5.75-15.47-11.21-21.66-6.16-6.98-15.83-15.24-27.96-16.67v-8.55Z"/>
    <path class="cls-2" d="M42.68,114.56c-9.12,0-16.36-7.71-15.73-16.81,1.93-27.95,9.18-81.01,36.42-81.74h25.11c4.55,0,8.96,1.59,12.41,4.55,8.61,7.38,21.84,26.56,28.38,76.17,1.25,9.44-6.1,17.83-15.63,17.83H42.68Z"/>
    <path class="cls-1" d="M65.41,17s.96-12,9.96-12,9.58,12,9.58,12h5.42c-.24-2.03-1.02-6.09-4-10C84.93,5.12,81.1.1,75.37,0c-7.71-.13-12.37,8.75-13,10-1.39,2.75-1.84,5.31-2,7h5.04Z"/>
    <path class="cls-1" d="M55.92,65.28h46.82c2.28,0,4.27,1.55,4.82,3.76l5.8,22.96s4,11-6,11h-54.98c-3.94.24-7.54-1.77-9.02-5-1.5-3.25-.25-6.4,0-7l7.85-22.39c.7-1.99,2.58-3.33,4.7-3.33Z"/>
  </g>
</svg>