<?xml version="1.0" encoding="UTF-8"?>
<svg id="Calque_2" xmlns="http://www.w3.org/2000/svg" viewBox="0 0 151.74 114.56">
  <defs>
    <style>
      .cls-1 {
        fill: #f6c75c;
      }

      .cls-2 {
        fill: #eaa2c4;
      }

      .cls-3 {
        fill: #d8690e;
      }

      .cls-4 {
        fill: #cf7ecb;
      }

      .cls-5 {
        fill: #ff8f33;
      }
    </style>
  </defs>
  <g id="fille">
    <path class="cls-3" d="M50.37,23S1.01,32.83.01,75.91s50.35,2.59,50.35,2.59l-7.09-7.22s-39,29.16-32.08-1.39c1.82-8.05,5.75-15.47,11.21-21.66,6.16-6.98,15.83-15.24,27.96-16.67v-8.55Z"/>
    <path class="cls-3" d="M101.37,23.25s49.36,9.82,50.35,52.91c.99,43.09-50.35,2.59-50.35,2.59l7.09-7.22s39,29.16,32.08-1.39c-1.82-8.05-5.75-15.47-11.21-21.66-6.16-6.98-15.83-15.24-27.96-16.67v-8.55Z"/>
    <path class="cls-5" d="M42.68,114.56c-9.12,0-16.36-7.71-15.73-16.81,1.93-27.95,9.18-81.01,36.42-81.74h25.11c4.55,0,8.96,1.59,12.41,4.55,8.61,7.38,21.84,26.56,28.38,76.17,1.25,9.44-6.1,17.83-15.63,17.83H42.68Z"/>
    <path class="cls-3" d="M65.41,17s.96-12,9.96-12,9.58,12,9.58,12h5.42c-.24-2.03-1.02-6.09-4-10C84.93,5.12,81.1.1,75.37,0c-7.71-.13-12.37,8.75-13,10-1.39,2.75-1.84,5.31-2,7h5.04Z"/>
    <path class="cls-3" d="M107.37,103h-54.98c-3.94.24-7.53-1.77-9.02-5-1.5-3.25-.25-6.4,0-7l7.85-22.4c.7-1.99,2.59-3.32,4.7-3.32h46.82c2.28,0,4.27,1.54,4.83,3.75l5.8,22.97s4,11-6,11Z"/>
    <path class="cls-2" d="M29.32,76.36l3.34-15.85s1.67-4.55,4.59-3.32,2.92,2.9,2.92,2.9l2.31,16.27,17.29-1.25c.55-.07,1.44-.1,2.45.21.71.22,2.51.76,2.97,2.29.37,1.22-.32,2.35-.42,2.5-.51.81-1.31,1.23-2.92,2.09-.35.18-.64.33-.83.42-3.89,2.22-7.79,4.45-11.68,6.67,2.5,5.28,5.01,10.57,7.51,15.85,0,0,1.67,3.75-1.25,5.42-2.92,1.67-5.42-2.09-5.42-2.09l-12.93-11.92c-3.62,3.56-7.23,7.11-10.85,10.67-.09.16-1.31,2.34-3.75,2.5-.36.02-2.58.13-3.75-1.67-.8-1.22-.8-2.85,0-4.17,1.95-4.45,3.89-8.9,5.84-13.35-5.11-2.09-10.21-4.17-15.32-6.26,0,0-2.62-1.67-2.2-3.75s2.92-2.5,2.92-2.5l19.19-1.67Z"/>
    <g>
      <path class="cls-4" d="M115.81,34.98l-2.04,3.51-15.58,26.79h-10.58l20.13-28.57,3.23-4.59c.61-.86,1.71-1.23,2.72-.9l.77.25c1.47.47,2.12,2.18,1.35,3.51Z"/>
      <path class="cls-1" d="M105.28,25.14l-5.1-5.01c-1.08-1.06-.4-2.9,1.11-3l7.32-.48c.86-.06,1.55-.73,1.63-1.58l.77-8.01c.14-1.52,2.02-2.14,3.04-1.01l4.9,5.4c.58.64,1.55.76,2.27.28l6.69-4.44c1.24-.82,2.87.17,2.71,1.65l-.85,7.79c-.09.81.39,1.57,1.16,1.84l7.72,2.73c1.43.5,1.59,2.46.26,3.19l-6.66,3.67c-.77.42-1.11,1.36-.79,2.18l2.8,7.13c.54,1.37-.75,2.75-2.15,2.31l-7.69-2.41c-.81-.25-1.68.11-2.07.86l-3.44,6.54c-.72,1.38-2.75,1.2-3.22-.29l-2.2-6.92c-.25-.78-1.01-1.29-1.83-1.21l-9.08.83c-1.45.13-2.42-1.46-1.63-2.69l4.6-7.16c.45-.7.35-1.62-.25-2.2Z"/>
      <path class="cls-4" d="M112.53,24.71l-2.28-2.24c-.48-.47-.18-1.3.5-1.34l3.27-.21c.38-.02.69-.32.73-.71l.34-3.58c.06-.68.9-.96,1.36-.45l2.19,2.42c.26.29.69.34,1.01.13l2.99-1.99c.55-.37,1.28.08,1.21.74l-.38,3.48c-.04.36.17.7.52.82l3.45,1.22c.64.23.71,1.1.12,1.43l-2.98,1.64c-.34.19-.5.61-.35.97l1.25,3.19c.24.61-.34,1.23-.96,1.03l-3.44-1.08c-.36-.11-.75.05-.93.38l-1.54,2.93c-.32.62-1.23.54-1.44-.13l-.98-3.09c-.11-.35-.45-.58-.82-.54l-4.06.37c-.65.06-1.08-.65-.73-1.2l2.06-3.2c.2-.31.15-.72-.11-.98Z"/>
    </g>
  </g>
</svg>