<?xml version="1.0" encoding="UTF-8"?>
<svg id="Calque_2" xmlns="http://www.w3.org/2000/svg" viewBox="0 0 151.74 114.99">
  <defs>
    <style>
      .cls-1 {
        fill: none;
        stroke: #000;
        stroke-linecap: round;
        stroke-miterlimit: 10;
        stroke-width: .49px;
      }

      .cls-2 {
        fill: #f7cfc1;
      }

      .cls-3 {
        fill: #f6c75c;
      }

      .cls-4 {
        fill: #eaa2c4;
      }

      .cls-5 {
        fill: #d8690e;
      }

      .cls-6 {
        fill: #cf7ecb;
      }

      .cls-7 {
        fill: #f7cb6d;
      }

      .cls-8 {
        fill: #ff8f33;
      }

      .cls-9 {
        fill: #f3adb9;
      }

      .cls-10 {
        fill: #f092ad;
      }
    </style>
  </defs>
  <g id="fille">
    <path class="cls-5" d="M50.37,23S1.01,32.83.01,75.91s50.35,2.59,50.35,2.59l-7.09-7.22s-39,29.16-32.08-1.39c1.82-8.05,5.75-15.47,11.21-21.66,6.16-6.98,15.83-15.24,27.96-16.67v-8.55Z"/>
    <path class="cls-5" d="M101.37,23.25s49.36,9.82,50.35,52.91c.99,43.09-50.35,2.59-50.35,2.59l7.09-7.22s39,29.16,32.08-1.39c-1.82-8.05-5.75-15.47-11.21-21.66-6.16-6.98-15.83-15.24-27.96-16.67v-8.55Z"/>
    <path class="cls-8" d="M42.68,114.56c-9.12,0-16.36-7.71-15.73-16.81,1.93-27.95,9.18-81.01,36.42-81.74h25.11c4.55,0,8.96,1.59,12.41,4.55,8.61,7.38,21.84,26.56,28.38,76.17,1.25,9.44-6.1,17.83-15.63,17.83H42.68Z"/>
    <path class="cls-5" d="M65.41,17s.96-12,9.96-12,9.58,12,9.58,12h5.42c-.24-2.03-1.02-6.09-4-10C84.93,5.12,81.1.1,75.37,0c-7.71-.13-12.37,8.75-13,10-1.39,2.75-1.84,5.31-2,7h5.04Z"/>
    <path class="cls-5" d="M107.37,103h-54.98c-3.94.24-7.53-1.77-9.02-5-1.5-3.25-.25-6.4,0-7l7.85-22.39c.55-1.57,1.83-2.72,3.38-3.15.42-.12.87-.18,1.32-.18h46.82c2.28,0,4.27,1.54,4.83,3.75l5.8,22.97s4,11-6,11Z"/>
    <path class="cls-4" d="M30.03,88.05l2.6-12.33s1.3-3.54,3.57-2.58,2.27,2.26,2.27,2.26l1.8,12.65,13.45-.97c.43-.05,1.12-.08,1.91.16.56.17,1.95.59,2.31,1.78.29.95-.25,1.83-.32,1.95-.39.63-1.02.96-2.27,1.62-.27.14-.5.25-.65.32-3.03,1.73-6.06,3.46-9.08,5.19,1.95,4.11,3.89,8.22,5.84,12.33,0,0,1.3,2.92-.97,4.22s-4.22-1.62-4.22-1.62l-10.06-9.27c-2.81,2.77-5.62,5.53-8.44,8.3-.07.12-1.02,1.82-2.92,1.95-.28.02-2.01.1-2.92-1.3-.62-.95-.62-2.22,0-3.24,1.51-3.46,3.03-6.92,4.54-10.38-3.97-1.62-7.94-3.24-11.91-4.87,0,0-2.04-1.3-1.71-2.92s2.27-1.95,2.27-1.95l14.93-1.3Z"/>
    <g>
      <path class="cls-6" d="M109.44,34.69l-2.04,3.51-15.58,26.79h-10.58l20.13-28.57,3.23-4.59c.61-.86,1.71-1.23,2.72-.9l.77.25c1.47.47,2.12,2.18,1.35,3.51Z"/>
      <path class="cls-3" d="M98.91,24.84l-5.1-5.01c-1.08-1.06-.4-2.9,1.11-3l7.32-.48c.86-.06,1.55-.73,1.63-1.58l.77-8.01c.14-1.52,2.02-2.14,3.04-1.01l4.9,5.4c.58.64,1.55.76,2.27.28l6.69-4.44c1.24-.82,2.87.17,2.71,1.65l-.85,7.79c-.09.81.39,1.57,1.16,1.84l7.72,2.73c1.43.5,1.59,2.46.26,3.19l-6.66,3.67c-.77.42-1.11,1.36-.79,2.18l2.8,7.13c.54,1.37-.75,2.75-2.15,2.31l-7.69-2.41c-.81-.25-1.68.11-2.07.86l-3.44,6.54c-.72,1.38-2.75,1.2-3.22-.29l-2.2-6.92c-.25-.78-1.01-1.29-1.83-1.21l-9.08.83c-1.45.13-2.42-1.46-1.63-2.69l4.6-7.16c.45-.7.35-1.62-.25-2.2Z"/>
      <path class="cls-6" d="M106.16,24.42l-2.28-2.24c-.48-.47-.18-1.3.5-1.34l3.27-.21c.38-.02.69-.32.73-.71l.34-3.58c.06-.68.9-.96,1.36-.45l2.19,2.42c.26.29.69.34,1.01.13l2.99-1.99c.55-.37,1.28.08,1.21.74l-.38,3.48c-.04.36.17.7.52.82l3.45,1.22c.64.23.71,1.1.12,1.43l-2.98,1.64c-.34.19-.5.61-.35.97l1.25,3.19c.24.61-.34,1.23-.96,1.03l-3.44-1.08c-.36-.11-.75.05-.93.38l-1.54,2.93c-.32.62-1.23.54-1.44-.13l-.98-3.09c-.11-.35-.45-.58-.82-.54l-4.06.37c-.65.06-1.08-.65-.73-1.2l2.06-3.2c.2-.31.15-.72-.11-.98Z"/>
    </g>
    <g>
      <path class="cls-10" d="M78.46,65.28h-22.54c-.45,0-.9.06-1.32.18,1.09-1.71,2.5-3.44,4.35-5.01.04-.04.09-.08.13-.12l4.57,1.01,4.02-2.89h.02s6.03,1.56,10.77,6.83Z"/>
      <polygon class="cls-2" points="56.07 57.99 52.77 62.1 54.31 62.89 57.54 58.65 56.07 57.99"/>
      <polygon class="cls-2" points="69.1 55.07 73.83 57.4 72.76 58.77 68.05 56.28 69.1 55.07"/>
      <circle class="cls-2" cx="53.38" cy="62.59" r="1.47"/>
      <circle class="cls-2" cx="73.53" cy="58.16" r="1.47"/>
      <polygon class="cls-2" points="59.18 54.81 59.85 53.12 63.54 52.31 65.13 53.47 62.67 56.48 59.18 54.81"/>
      <path class="cls-9" d="M67.81,58.91l-4.07,2.67-4.72-.74s-.2-.92-.31-2.08c-.13-1.34-.12-3.01.46-3.96,0-.01.01-.02.02-.04,0,0,2.6.15,3.24.9,0,0,1.33-1.81,2.56-2.17.04-.02.08-.03.12-.04,0,0,.94.81,2,3.46.23.57.46,1.23.69,1.98Z"/>
      <path class="cls-9" d="M59.18,54.81c-.58.95-.59,2.62-.46,3.96-.25.14-.53.25-.84.32-1.46.32-2.88-.49-3.17-1.82s.65-2.66,2.11-2.98c.88-.19,1.74.02,2.35.52Z"/>
      <path class="cls-9" d="M70.08,53.89c.29,1.32-.65,2.66-2.11,2.98-.28.06-.57.08-.84.06-1.05-2.65-2-3.46-2-3.46-.04,0-.08.02-.12.04.35-.7,1.03-1.24,1.9-1.43,1.46-.32,2.88.49,3.17,1.82Z"/>
      <path class="cls-2" d="M50,51.48s3.52,3,9.62,2.19l4.19-.92s5.5-1.75,7.98-6.07c0,0,2.16-3.17,2.14-5.86l-6.94-8.17-7.22-1.65-8.35,6.15-4.28,3.89-.32,5.39c1.06,1.68,2.13,3.36,3.19,5.05Z"/>
      <path class="cls-7" d="M51.17,47.99s.47,4.42-3.95,4.89c-4.42.47-4.95-1.93-4.95-1.93,0,0,2.63,1.68,2.59-.82,0,0,.16-1.55-2.66-2.94,0,0-2.34-1.5-2.39-4-.01-.68.06-1.31.17-1.86.33-1.6,1.31-2.97,2.64-3.92,1.03-.73,2.39-1.41,3.7-1.19l4.85,11.76Z"/>
      <path class="cls-7" d="M47.68,47s-4.01-4.49-.94-12.29c.51-.94,1.37-2.27,2.74-3.54,2.77-2.57,5.86-3.24,7.75-3.63,2.43-.5,6.06-1.25,9.94.58.94.44,3.61,1.85,5.45,4.92.56.93,1.75,3.56,1.71,6.88,0,.32-.06.64-.16.95l-.1.32c-.54-.27-1.37-.6-2.42-.72-.76-.09-1.13,0-2.02-.06,0,0-1.27-.07-2.61-.43-2.63-.71-4.97-4.14-5.29-4.62,0,0-2.14,3.99-5.66,6.28s-7.25,3.61-8.38,5.37Z"/>
      <path class="cls-7" d="M70.68,43.59s1.43,4.21,5.64,2.78,3.68-3.83,3.68-3.83c0,0-1.68,2.63-2.69.34,0,0-.8-1.33,1.18-3.78,0,0,1.5-2.34.49-4.64-.27-.62-.6-1.16-.94-1.61-.97-1.31-2.43-2.15-4.04-2.45-1.25-.23-2.76-.27-3.86.47l.53,12.71Z"/>
      <g>
        <circle cx="66.63" cy="45.09" r="1.47"/>
        <path class="cls-1" d="M66.97,44s.45-.09.73-.73"/>
      </g>
      <path class="cls-1" d="M59.25,46.97s.32,1.44,1.76,1.12,1.12-1.76,1.12-1.76"/>
      <g>
        <circle cx="54.63" cy="47.73" r="1.47"/>
        <path class="cls-1" d="M53.87,46.89s-.45.1-.97-.36"/>
      </g>
    </g>
  </g>
</svg>