<?xml version="1.0" encoding="UTF-8"?>
<svg id="Calque_2" data-name="Calque 2" xmlns="http://www.w3.org/2000/svg" viewBox="0 0 430.5 805.16">
  <defs>
    <style>
      .cls-1 {
        fill: #56501c;
      }

      .cls-2 {
        fill: #3b825a;
      }

      .cls-3 {
        fill: #2c5b0d;
      }
    </style>
  </defs>
  <g id="Calque_1-2" data-name="Calque 1">
    <g id="arbre">
      <path class="cls-2" d="M18.33,52.8c3.92,6.19,9.53,14.91,19.8,23.47,18.01,15.02,37.35,18.75,44.74,19.8,20.14,2.88,21.14-4.17,38.14-1.47,18.03,2.87,42.29,14.84,49.87,35.2,6.85,18.4-4.96,30.16,5.13,42.54,7.47,9.16,21.15,11.55,26.4,12.47,15.85,2.77,21.89-3.1,27.14,1.47,6.08,5.29,1.35,16.12-1.47,42.54-2.34,21.96-3.52,32.95,0,41.8,7.18,18.09,29.96,34.16,49.87,31.54,16.18-2.13,18.41-15.02,49.87-29.34,13.45-6.12,20.3-9.12,26.4-6.6,14.81,6.12,7.39,33,22.73,54.27,7.11,9.86,21.4,21.68,53.54,25.67V0H0c3.02,25.69,12.4,43.43,18.33,52.8Z"/>
      <path class="cls-3" d="M193.48,154.97c4.8,3.46,12.54,8.13,22.92,10.77,29.8,7.58,54.19-8.5,57.22-10.58,6.5-4.44,12.68-12.51,25.03-28.65,22.85-29.86,20.41-36.42,19.5-38.27-3.34-6.79-14.47-7.61-18.49-7.91-17.99-1.34-32.48,8.63-44.88,18.08-16.13,12.29-37.76,30.61-61.31,56.55Z"/>
      <path class="cls-3" d="M368.25,130.4c-4.57,3.76-11.07,10.04-16.28,19.4-14.96,26.87-5.65,54.56-4.42,58.03,2.63,7.43,8.85,15.46,21.29,31.53,23.01,29.73,29.98,29.06,32,28.65,7.41-1.5,11.06-12.04,12.38-15.84,5.9-17.05-.03-33.61-5.99-48.01-7.75-18.73-19.92-44.33-38.97-73.74Z"/>
      <path class="cls-3" d="M193.9,61c-1.34-5.76-4.08-14.38-10.15-23.2-17.43-25.33-46.38-29.29-50.03-29.73-7.82-.94-17.78,1.06-37.7,5.08-36.86,7.42-39.35,13.96-39.88,15.95-1.95,7.31,5.87,15.26,8.7,18.13,12.66,12.85,30.13,14.9,45.68,15.95,20.23,1.37,48.57,1.83,83.38-2.18Z"/>
      <path class="cls-1" d="M405.5,340.16c-2.79,58.95-4.75,106.53-6,138-6.5,164.27-1.76,102.66-5,170-1.05,21.81-2.83,54.99,0,100,1.37,21.79,3.41,39.76,5,52,10.33,1.67,20.67,3.33,31,5v-459c-8.33-2-16.67-4-25-6Z"/>
    </g>
  </g>
</svg>