<?xml version="1.0" encoding="UTF-8"?>
<svg id="Calque_2" data-name="Calque 2" xmlns="http://www.w3.org/2000/svg" viewBox="0 0 738.91 748">
  <defs>
    <style>
      .cls-1 {
        fill: #e5ad63;
      }

      .cls-2 {
        fill: #f2f5fa;
      }

      .cls-3 {
        fill: #1e609d;
      }

      .cls-4 {
        fill: #215e97;
      }

      .cls-5 {
        fill: #bae7fa;
      }

      .cls-6 {
        fill: #4b88cb;
      }

      .cls-7 {
        fill: none;
        stroke: #e5ad63;
        stroke-miterlimit: 10;
        stroke-width: 7px;
      }

      .cls-8 {
        fill: #1c5f93;
      }

      .cls-9 {
        fill: #1d5da4;
      }

      .cls-10 {
        fill: #27496f;
      }

      .cls-11 {
        fill: #26486e;
      }

      .cls-12 {
        fill: #f7f7f7;
      }

      .cls-13 {
        fill: #facf8b;
      }
    </style>
  </defs>
  <g id="Calque_1-2" data-name="Calque 1">
    <g id="chateau">
      <g>
        <path class="cls-2" d="M494.32,20.31c5.05-.86,12.58-1.55,21.35,0,5.74,1.01,14.13,3.36,30.85,14.24,18.27,11.89,18.71,15.89,28.47,21.35,9.01,5.04,23.15,9.75,45.08,7.12-3.7,4.38-9.87,10.43-18.98,14.24-8.4,3.5-17.58,3.17-35.59,2.37-35.12-1.56-38.74-1.84-45.08,0-7.56,2.19-17.81,7.04-28.47,18.98.79-26.1,1.58-52.2,2.37-78.3Z"/>
        <line class="cls-7" x1="491.94" y1="7.72" x2="491.94" y2="105.47"/>
        <path class="cls-2" d="M462.32,105.47h57.53c53.69,0,97.29,43.59,97.29,97.29v17.62h-252.11v-17.62c0-53.69,43.59-97.29,97.29-97.29Z"/>
        <path class="cls-13" d="M609.42,746.89c-25.15-.35-50.31-.7-75.46-1.06-28.58-.39-57.17-.8-85.75-1.2-4-.06-8.02-.11-12.02-.17-23.68-.33-47.38-.66-71.06-.99h-.09c.04-3.32.09-6.61.13-9.87v-.51c.81-67.97.85-123.7.73-162.84-.26-79.49-1.27-115.05,0-176.65,1.24-60.24,3.93-109.37,6-141.49,12.97-.74,26.2-1.35,39.69-1.81,30.37-1.05,62.06-1.37,94.94-.76,33.07.61,64.84,2.11,95.18,4.29,2.22,14.2,4.94,35.24,6,60.88,1.29,31.22-.47,54.4-.86,60.03-2.27,33.18-2.68,129.77,2.57,372.16Z"/>
        <path class="cls-1" d="M436.19,744.45c-23.68-.33-47.38-.66-71.06-.99.02-3.32.03-6.61.03-9.87v-.51c.24-67.82.25-123.44.21-162.51-.08-79.49-.37-115.05,0-176.65.36-60.24,1.14-109.37,1.74-141.49,12.26-2.39,25.35-3.45,39.16-2.57,1.78.11,3.55.26,5.3.43,7.73.75,15.19,2.08,22.38,3.86.65,14.2,1.44,35.24,1.75,60.88.38,31.22-.14,54.4-.25,60.03-.66,33.05-.78,129.03.73,369.39Z"/>
        <path class="cls-9" d="M351.16,257.77c1.08-15.72,1.13-28.56.99-37.46-.29-17.18-1.46-24.87,0-38.18,1.42-13.03,4.5-23.65,6.89-30.59,13.47-.15,27.19-.27,41.16-.37,0,15.8-.03,35.68-.13,58.72l36.14,1.44c-.18-23.14-.31-43.12-.4-60.35,12.35-.04,24.87-.07,37.56-.07,0,15.85-.03,35.81-.14,58.98l36.14,1.44c-.18-23.14-.31-43.13-.4-60.36,1.48,0,2.97,0,4.46,0,13.03.04,25.88.11,38.54.2,0,15.8-.03,35.68-.13,58.71l36.14,1.44c-.17-22.91-.31-42.73-.4-59.85,11.84.12,23.51.27,35,.42,2.56,3.07,5.67,7.61,6.89,13.16,1.48,6.75-.54,11.76-.99,12.97-2.61,7.18-3.08,28.06,2.96,80.46-93.43-.25-186.86-.5-280.28-.74Z"/>
        <path class="cls-11" d="M512.89,321.08v65.22c-19.11-.26-38.22-.53-57.33-.8v-64.42c0-15.83,12.84-28.67,28.67-28.67,7.91,0,15.08,3.21,20.27,8.4,5.19,5.19,8.4,12.36,8.4,20.27Z"/>
        <rect class="cls-3" x="439.64" y="377.3" width="85.75" height="17.15"/>
        <circle class="cls-6" cx="492.16" cy="7.5" r="7.5"/>
        <rect class="cls-1" x="545.11" y="541.94" width="40.69" height="13.72"/>
        <rect class="cls-1" x="529.67" y="555.66" width="40.69" height="13.72"/>
        <rect class="cls-1" x="430.76" y="430.06" width="40.69" height="13.72" transform="translate(902.21 873.85) rotate(-180)"/>
        <rect class="cls-1" x="446.19" y="443.78" width="58.61" height="13.72" transform="translate(951 901.29) rotate(-180)"/>
      </g>
      <g>
        <path class="cls-13" d="M61.04,253.82h20.59c24.84,0,45.01,20.17,45.01,45.01v8.15H16.03v-8.15c0-24.84,20.17-45.01,45.01-45.01Z"/>
        <path class="cls-6" d="M125.7,499.75c-11.85-.12-23.71-.25-35.57-.38-13.45-.14-26.92-.28-40.38-.43h-.04c-1-.01-1.99-.02-2.99-.03-7.57-.08-15.15-.16-22.72-.24h-.04c-4.49-.05-8.97-.1-13.46-.14.44-25.9.46-47.08.4-61.73-.12-28.32-.6-41,0-62.95.59-21.46,1.86-38.97,2.83-50.41,19.87-.85,41.08-1.23,63.46-.92,15.59.21,30.57.75,44.87,1.52,1.05,5.06,2.33,12.56,2.83,21.7.61,11.12-.23,19.38-.41,21.39-1.07,11.82-1.26,46.24,1.21,132.61Z"/>
        <path class="cls-2" d="M6.52,328.93c.51-7.4.53-13.45.46-17.64-.14-8.09-.69-11.71,0-17.98.67-6.13,2.12-11.14,3.25-14.4,6.35-.07,12.82-.13,19.4-.17,0,7.44-.01,16.8-.06,27.65l17.04.68c-.08-10.9-.15-20.31-.19-28.42,5.82-.02,11.72-.03,17.71-.03,0,7.46-.02,16.86-.06,27.78l17.04.68c-.08-10.9-.15-20.31-.19-28.43.7,0,1.4,0,2.1,0,6.14.02,12.2.05,18.17.09,0,7.44-.01,16.8-.06,27.65l17.04.68c-.08-10.79-.15-20.12-.19-28.18,5.58.06,11.08.13,16.5.2,1.2,1.45,2.67,3.59,3.25,6.2.7,3.18-.25,5.54-.46,6.11-1.23,3.38-1.45,13.21,1.39,37.89-44.05-.12-88.09-.23-132.13-.35Z"/>
        <rect class="cls-10" x="86.35" y="361.01" width="24.87" height="9.43"/>
        <rect class="cls-10" x="76.91" y="370.44" width="24.87" height="9.43"/>
      </g>
      <path class="cls-6" d="M727.15,748c-4.36-.06-8.74-.12-13.11-.18-8.58-.12-17.18-.24-25.77-.37-.46,0-.93,0-1.4-.02-15.25-.21-30.51-.42-45.76-.64-14.8-.21-29.75.3-44.55.09.5-38.79.68-71.22.61-93.17-.14-42.42-.68-61.41,0-94.28.67-32.15,2.1-58.37,3.21-75.51,22.5-1.28,46.51-1.84,71.85-1.37,17.66.32,34.61,1.12,50.81,2.28,1.18,7.58,2.63,18.81,3.21,32.5.69,16.66-.26,29.03-.46,32.04-1.21,17.71-1.43,69.26,1.37,198.63Z"/>
      <path class="cls-1" d="M589.31,486.95c.58-8.39.6-15.25.53-19.99-.16-9.17-.78-13.27,0-20.38.76-6.95,2.4-12.62,3.68-16.33,7.19-.08,14.51-.15,21.97-.2,0,8.44-.01,19.04-.07,31.34l19.29.77c-.1-12.35-.16-23.02-.22-32.21,6.59-.02,13.27-.04,20.05-.04,0,8.46-.02,19.11-.07,31.48l19.29.77c-.1-12.35-.16-23.02-.22-32.22.79,0,1.58,0,2.38,0,6.95.02,13.81.06,20.57.11,0,8.44-.01,19.04-.07,31.34l19.29.77c-.09-12.23-.16-22.81-.22-31.94,6.32.06,12.55.14,18.68.22,1.36,1.64,3.03,4.06,3.68,7.03.79,3.6-.29,6.27-.53,6.92-1.39,3.83-1.64,14.98,1.58,42.94-49.87-.13-99.73-.27-149.6-.39Z"/>
      <g>
        <rect class="cls-6" x="255.77" y="394.69" width="90.25" height="347.29"/>
        <rect class="cls-5" x="165.88" y="394.45" width="90.25" height="347.29"/>
        <polygon class="cls-11" points="166.09 394.45 256.13 271.83 256.13 394.45 166.09 394.45"/>
        <polyline class="cls-4" points="256.13 271.83 256.13 394.45 346.17 394.45"/>
        <path class="cls-8" d="M225.2,449.92v32.56c-9.54-.13-19.08-.27-28.62-.4v-32.16c0-7.9,6.41-14.31,14.31-14.31,3.95,0,7.53,1.6,10.12,4.19,2.59,2.59,4.19,6.17,4.19,10.12Z"/>
        <path class="cls-8" d="M225.2,529.31v32.56c-9.54-.13-19.08-.27-28.62-.4v-32.16c0-7.9,6.41-14.31,14.31-14.31,3.95,0,7.53,1.6,10.12,4.19,2.59,2.59,4.19,6.17,4.19,10.12Z"/>
        <path class="cls-8" d="M225.2,606.49v32.56c-9.54-.13-19.08-.27-28.62-.4v-32.16c0-7.9,6.41-14.31,14.31-14.31,3.95,0,7.53,1.6,10.12,4.19,2.59,2.59,4.19,6.17,4.19,10.12Z"/>
      </g>
      <path class="cls-10" d="M709.75,589.2v158.54h-.04c-1.13-.02-2.26-.03-3.39-.04-8.58-.12-17.16-.24-25.73-.36v-158.14c0-8.05,6.53-14.58,14.58-14.58,4.03,0,7.67,1.63,10.31,4.27,2.64,2.64,4.27,6.28,4.27,10.31Z"/>
      <g>
        <path class="cls-4" d="M533.96,648.27v97.55c-28.58-.39-57.17-.8-85.75-1.2v-96.35c0-23.68,19.2-42.88,42.88-42.88,11.83,0,22.55,4.8,30.31,12.56,7.76,7.76,12.56,18.48,12.56,30.31Z"/>
        <rect class="cls-11" x="448.21" y="667.99" width="85.75" height="7.72"/>
        <rect class="cls-11" x="448.21" y="692.01" width="85.75" height="7.72"/>
        <circle class="cls-12" cx="459.79" cy="666.71" r="4.72"/>
        <circle class="cls-12" cx="482.08" cy="666.71" r="4.72"/>
        <circle class="cls-12" cx="503.52" cy="666.71" r="4.72"/>
        <circle class="cls-12" cx="521.53" cy="666.71" r="4.72"/>
        <circle class="cls-12" cx="459.79" cy="691.58" r="4.72"/>
        <circle class="cls-12" cx="482.08" cy="691.58" r="4.72"/>
        <circle class="cls-12" cx="503.52" cy="691.58" r="4.72"/>
        <circle class="cls-12" cx="521.53" cy="691.58" r="4.72"/>
      </g>
      <rect class="cls-13" x="470.36" y="333.07" width="85.75" height="17.65"/>
      <g>
        <path class="cls-6" d="M383.29,743.71c-13.42-.18-26.85-.37-40.28-.57-15.23-.21-30.48-.42-45.72-.64h-.04c-1.13-.02-2.26-.03-3.39-.04-8.58-.12-17.16-.24-25.73-.36h-.04c-5.08-.08-10.16-.15-15.24-.21.5-38.79.52-70.51.45-92.46-.14-42.42-.68-61.41,0-94.28.67-32.15,2.1-58.37,3.21-75.51,22.5-1.28,46.51-1.84,71.85-1.37,17.66.32,34.61,1.12,50.81,2.28,1.18,7.58,2.63,18.81,3.21,32.5.69,16.66-.26,29.03-.46,32.04-1.21,17.71-1.43,69.26,1.37,198.63Z"/>
        <path class="cls-13" d="M245.45,486.95c.58-8.39.6-15.25.53-19.99-.16-9.17-.78-13.27,0-20.38.76-6.95,2.4-12.62,3.68-16.33,7.19-.08,14.51-.15,21.97-.2,0,8.44-.01,19.04-.07,31.34l19.29.77c-.1-12.35-.16-23.02-.22-32.21,6.59-.02,13.27-.04,20.05-.04,0,8.46-.02,19.11-.07,31.48l19.29.77c-.1-12.35-.16-23.02-.22-32.22.79,0,1.58,0,2.38,0,6.95.02,13.81.06,20.57.11,0,8.44-.01,19.04-.07,31.34l19.29.77c-.09-12.23-.16-22.81-.22-31.94,6.32.06,12.55.14,18.68.22,1.36,1.64,3.03,4.06,3.68,7.03.79,3.6-.29,6.27-.53,6.92-1.39,3.83-1.64,14.98,1.58,42.94-49.87-.13-99.73-.27-149.6-.39Z"/>
        <path class="cls-10" d="M297.29,583.96v158.54h-.04c-1.13-.02-2.26-.03-3.39-.04-8.58-.12-17.16-.24-25.73-.36v-158.14c0-8.05,6.53-14.58,14.58-14.58,4.03,0,7.67,1.63,10.31,4.27s4.27,6.28,4.27,10.31Z"/>
        <path class="cls-6" d="M126.52,741.65c-12.32-.16-24.64-.33-36.97-.5-13.98-.18-27.98-.37-41.97-.57h-.04c-1.04-.02-2.07-.03-3.11-.04-7.87-.11-15.75-.21-23.61-.32h-.04c-4.67-.07-9.33-.13-13.99-.19.46-34.23.48-62.22.42-81.58-.13-37.43-.62-54.18,0-83.19.61-28.37,1.93-51.5,2.94-66.63,20.65-1.13,42.69-1.63,65.95-1.21,16.21.28,31.77.99,46.63,2.01,1.09,6.69,2.42,16.6,2.94,28.68.63,14.7-.24,25.62-.43,28.27-1.11,15.62-1.31,61.11,1.26,175.26Z"/>
        <path class="cls-5" d="M47.59,600.69v139.89h-.04c-1.04-.02-2.07-.03-3.11-.04-7.87-.11-15.75-.21-23.61-.32v-139.54c0-7.1,5.99-12.86,13.38-12.86,3.7,0,7.04,1.44,9.46,3.77,2.42,2.33,3.92,5.54,3.92,9.09Z"/>
        <path class="cls-6" d="M118.39,741.62c.55-7.4.58-13.45.5-17.64-.15-8.09-.74-11.71,0-17.98.73-6.13,2.29-11.14,3.51-14.4,6.87-.07,13.86-.13,20.98-.17,0,7.44-.01,16.8-.07,27.65l18.43.68c-.09-10.9-.16-20.31-.21-28.42,6.29-.02,12.68-.03,19.15-.03,0,7.46-.02,16.86-.07,27.78l18.43.68c-.09-10.9-.16-20.31-.21-28.43.76,0,1.51,0,2.27,0,6.64.02,13.19.05,19.65.09,0,7.44-.01,16.8-.07,27.65l18.43.68c-.09-10.79-.16-20.12-.21-28.18,6.04.06,11.99.13,17.84.2,1.3,1.45,2.89,3.59,3.51,6.2.76,3.18-.28,5.54-.5,6.11-1.33,3.38-1.57,13.21,1.51,37.89-47.63-.12-95.26-.23-142.88-.35Z"/>
        <path class="cls-1" d="M0,517.66c.53-7.4.55-13.45.48-17.64-.14-8.09-.71-11.71,0-17.98.7-6.13,2.21-11.14,3.37-14.4,6.6-.07,13.32-.13,20.16-.17,0,7.44-.01,16.8-.06,27.65l17.71.68c-.09-10.9-.15-20.31-.2-28.42,6.05-.02,12.18-.03,18.4-.03,0,7.46-.02,16.86-.07,27.78l17.71.68c-.09-10.9-.15-20.31-.2-28.43.73,0,1.45,0,2.18,0,6.38.02,12.68.05,18.88.09,0,7.44-.01,16.8-.06,27.65l17.71.68c-.08-10.79-.15-20.12-.2-28.18,5.8.06,11.52.13,17.15.2,1.25,1.45,2.78,3.59,3.37,6.2.73,3.18-.26,5.54-.48,6.11-1.28,3.38-1.51,13.21,1.45,37.89-45.77-.12-91.54-.23-137.31-.35Z"/>
      </g>
    </g>
  </g>
</svg>