<?xml version="1.0" encoding="UTF-8"?>
<svg id="Calque_2" data-name="Calque 2" xmlns="http://www.w3.org/2000/svg" viewBox="0 0 465.98 499.68">
  <defs>
    <style>
      .cls-1 {
        fill: #949599;
      }

      .cls-2 {
        fill: #fbb92d;
      }

      .cls-3 {
        fill: none;
        stroke: #949599;
        stroke-miterlimit: 10;
        stroke-width: 7px;
      }

      .cls-4 {
        fill: #4f5052;
      }

      .cls-5 {
        fill: #c0e2f5;
      }

      .cls-6 {
        fill: #db3e45;
      }
    </style>
  </defs>
  <g id="Calque_1-2" data-name="Calque 1">
    <g>
      <path class="cls-6" d="M96.61,48.17c-1.2-4.61-5.11-21.81,4.42-34.66,13.14-17.72,43.69-16.17,61.95-5.9,16.26,9.15,12.7,19.54,35.4,47.94,17.53,21.92,36.15,36.35,46.46,44.25,25.23,19.32,44.09,27.12,42.77,30.24-1.57,3.71-29.34-4.93-32.45-5.9-19.25-5.99-37.36-11.63-53.84-26.55-16.71-15.13-9.99-20.11-24.34-30.24-13.05-9.21-27.88-11.55-57.52-16.22-9.67-1.53-17.65-2.43-22.86-2.95Z"/>
      <path class="cls-2" d="M93.31,44.48h31.67c3.06,0,5.55,2.49,5.55,5.55v20.26h-42.77v-20.26c0-3.06,2.49-5.55,5.55-5.55Z"/>
      <polygon class="cls-4" points="37.61 364.55 29.5 473.7 91.45 472.22 103.25 394.05 125.37 476.65 185.11 463.37 170.36 360.86 37.61 364.55"/>
      <path class="cls-1" d="M25.07,277.53l3.69,89.24,148.97-5.16-8.11-92.19c.74-6.64,104.72-42.04,104.72-42.04l-12.54-43.51-101.04,25.07-106.94,13.27-25.07,4.42L0,273.84l25.07,3.69Z"/>
      <ellipse class="cls-4" cx="108.69" cy="157.42" rx="88.85" ry="85.75"/>
      <rect class="cls-1" x="55.31" y="102.01" width="107.67" height="17.7"/>
      <path class="cls-1" d="M100.39,164.56c.46,17.99.92,35.98,1.38,53.97.53,1.24,1.6,3.17,3.69,4.42,3.69,2.21,9.05,1.38,13.27-2.21-.04-8.7-.41-15.77-.74-20.65-1.02-15.25-2.12-15.41-1.47-22.12.29-3.06.94-7.37,0-13.27-.65-4.08-1.24-7.54-3.69-8.85-2.34-1.25-5.87-.27-9.37,2.34-2,1.49-3.14,3.88-3.07,6.38Z"/>
      <path class="cls-1" d="M66.23,163.11c.4,15.55.8,31.11,1.2,46.66.45,1.07,1.38,2.74,3.19,3.83,3.19,1.91,7.83,1.2,11.48-1.91-.04-7.52-.35-13.64-.64-17.85-.89-13.18-1.83-13.33-1.28-19.13.25-2.65.81-6.38,0-11.48-.56-3.53-1.08-6.52-3.19-7.65-2.02-1.08-5.08-.23-8.1,2.02-1.73,1.29-2.71,3.36-2.66,5.51Z"/>
      <path class="cls-1" d="M34.52,145.01c.34,14.78.67,29.57,1.01,44.35.38,1.02,1.17,2.61,2.7,3.64,2.7,1.82,6.62,1.14,9.71-1.82-.03-7.15-.3-12.96-.54-16.97-.75-12.53-1.55-12.67-1.08-18.18.21-2.52.69-6.06,0-10.91-.47-3.35-.91-6.2-2.7-7.27-1.71-1.03-4.29-.22-6.85,1.92-1.46,1.22-2.29,3.19-2.25,5.24Z"/>
      <path class="cls-1" d="M138.07,160.1c.4,15.55.8,31.11,1.2,46.66.45,1.07,1.38,2.74,3.19,3.83,3.19,1.91,7.83,1.2,11.48-1.91-.04-7.52-.35-13.64-.64-17.85-.89-13.18-1.83-13.33-1.28-19.13.25-2.65.81-6.38,0-11.48-.56-3.53-1.08-6.52-3.19-7.65-2.02-1.08-5.08-.23-8.1,2.02-1.73,1.29-2.71,3.36-2.66,5.51Z"/>
      <path class="cls-1" d="M168.05,144.96c.34,14.78.67,29.57,1.01,44.35.38,1.02,1.17,2.61,2.7,3.64,2.7,1.82,6.62,1.14,9.71-1.82-.03-7.15-.3-12.96-.54-16.97-.75-12.53-1.55-12.67-1.08-18.18.21-2.52.69-6.06,0-10.91-.47-3.35-.91-6.2-2.7-7.27-1.71-1.03-4.29-.22-6.85,1.92-1.46,1.22-2.29,3.19-2.25,5.24Z"/>
      <g>
        <path class="cls-4" d="M88.88,382.68h0c-9.76,6.49-23.01,7.02-33.39,1.34l-3.62-1.98C20.77,365,1.84,334.89,1.84,302.47v-106.8h129.23v112.19c0,29.43-15.63,57.15-42.18,74.81Z"/>
        <path class="cls-3" d="M85.46,365.65h0c-8.19,5.44-19.3,5.89-28,1.12l-3.04-1.66c-26.09-14.29-41.97-39.54-41.97-66.73v-89.58h108.39v94.1c0,24.69-13.11,47.93-35.38,62.75Z"/>
      </g>
      <g>
        <path class="cls-4" d="M126.11,479.03l.74,16.22,73.75-2.21.58-12.27c.09-1.98-.91-3.84-2.61-4.85l-17.15-10.16-55.31,13.27Z"/>
        <path class="cls-4" d="M29.5,476.08l-.74,20.65,72.27,2.95v-13.78c0-.64-.1-1.28-.31-1.89h0c-.75-2.26-2.32-4.15-4.39-5.32l-6.86-3.86c-1.12-.63-2.4-.94-3.68-.89l-56.29,2.14Z"/>
        <path class="cls-1" d="M185.21,467.33l-59.95,13.22c-.64-.88-1.57-2.39-2.1-4.47-.52-2.02-.45-3.74-.33-4.81,20.27-4.54,40.54-9.09,60.8-13.63.51.89,1.1,2.13,1.47,3.69.61,2.55.36,4.72.11,6Z"/>
        <path class="cls-1" d="M29.49,470.92c-.28.77-.57,1.77-.73,2.95-.2,1.47-.13,2.74,0,3.69,21.14-.49,42.29-.98,63.43-1.47.31-.98.6-2.23.73-3.69.1-1.11.07-2.11,0-2.95-21.14.49-42.29.98-63.43,1.47Z"/>
      </g>
      <g>
        <polygon class="cls-5" points="442.72 171.89 287.02 216.66 278.24 186.13 433.95 141.36 465.98 149.3 442.72 171.89"/>
        <rect class="cls-6" x="229.71" y="193.55" width="91.33" height="19.85" transform="translate(394.84 -117.41) rotate(73.96)"/>
      </g>
      <ellipse class="cls-1" cx="145.11" cy="422.61" rx="34.68" ry="15.41" transform="translate(-71.05 31.55) rotate(-9.98)"/>
      <ellipse class="cls-1" cx="64.2" cy="426.47" rx="15.41" ry="34.68" transform="translate(-366.4 402.37) rotate(-78.24)"/>
    </g>
  </g>
</svg>