<?xml version="1.0" encoding="UTF-8"?>
<svg id="Calque_2" data-name="Calque 2" xmlns="http://www.w3.org/2000/svg" viewBox="0 0 655.5 409.98">
  <defs>
    <style>
      .cls-1 {
        fill: #f58ea1;
      }

      .cls-2 {
        fill: #ce755d;
      }

      .cls-3 {
        fill: #d35353;
      }

      .cls-4 {
        fill: #b52424;
      }

      .cls-5 {
        fill: #cc3232;
      }

      .cls-6 {
        fill: none;
        stroke: #961515;
        stroke-miterlimit: 10;
        stroke-width: 2px;
      }
    </style>
  </defs>
  <g id="Calque_1-2" data-name="Calque 1">
    <g>
      <path class="cls-2" d="M40.68,63.29c-3.01-.86-9.9-3.01-12.92-3.87,2.76-1.39,9.31-5.85,14.21-7.75,7.38-2.86,14.96-4.51,24.54-5.17,8.56-.59,14.2-.98,19.37,2.58,9.49,6.54,9.11,20.68,9.04,23.25-.29,10.69-5.44,19.83-7.75,23.25-17.45,25.84-30.15,37.05-37.46,51.66-5.17,10.33-25.7,31.53-23.25,60.7,2.75,32.83,27.49,54.01,32.29,58.12,7.33,6.28,13.96,9.95,28.41,16.79,37.42,17.7,56.13,26.56,74.91,31,12.04,2.85,79.94,17.55,136.91-19.37,29.32-19.01,46.5-45.2,46.5-45.21,12.1-17.16,13.59-24.76,28.41-41.33,3.78-4.22,12.42-16.16,34.87-34.87,16.32-13.6,23.23-17.69,33.58-23.25,9.77-5.25,18.46-9.71,24.54-11.62,3.01,4.74,8.61,12.05,11.62,16.79-5.1,3.72-13.2,9.61-23.25,16.79-21.52,15.37-24.04,16.7-29.71,21.96-11.53,10.69-18.25,21.1-24.54,31-10.3,16.19-12.16,23.83-18.08,34.87-12.03,22.44-28.03,35.05-49.08,51.66-19.08,15.05-38.1,30.06-65.87,38.75-41.99,13.14-78.38,3.83-108.49-3.87-47.73-12.21-78.79-34.31-95.58-46.5-18.87-13.7-32.71-27.24-43.91-43.91-11.96-17.8-14.76-30.02-15.5-33.58-.86-4.13-4.17-21.76,2.58-42.62,5.52-17.06,15.05-27.88,25.19-39.39,11.49-13.05,14.94-12.99,31-31,11.58-12.98,16.24-20.25,18.08-29.71.72-3.69,3.39-17.33-3.87-23.25-4.92-4.01-12.28-2.74-20.67-1.29-7.64,1.32-12.31,6.44-16.14,8.4Z"/>
      <path class="cls-5" d="M477.24,156.28c6.74,6.07,13.84,7.97,18.08,9.04,9.52,2.42,19.69.74,40.04-2.58,12.93-2.11,28.38-5.16,28.41-5.17,27.68,1.56,48.55,2.69,60.7,3.87,2.82.28,9.33.96,15.5-2.58,1.37-.78,6.55-3.87,9.04-10.33,1.21-3.14,1.35-5.96,1.29-7.75h-55.54c-5.77.07-14.34-.73-23.25-5.17-4.53-2.26-10.24-5.1-14.21-11.62-3.07-5.04-3.73-10.02-3.87-12.92.17.12.34.24.51.36,5.51,3.94,12.23,5.84,18.99,5.37,27.51-1.91,55.02-3.82,82.54-5.73.03-3.66.04-8.5,0-14.21-.09-11.82-.32-14.07-1.29-16.79-.26-.72-3.09-8.3-10.33-12.92-9.66-6.15-23.29-4.65-31,1.29-3.06,2.36-4.14,4.61-9.69,8.4-3.69,2.52-6.37,4.34-10.33,5.17-7.45,1.55-13.72-1.65-15.5-2.58-5.2-2.74-6.65-5.85-11.62-11.62-3.32-3.86-13.77-15.78-28.41-21.96-5.8-2.45-10.93-3.43-14.21-3.87-.47-3.13-1.84-9.33-6.46-15.5-5.53-7.4-12.52-10.5-15.5-11.62,2.18,1.71,6.31,5.44,9.04,11.62,2.38,5.39,2.64,10.22,2.58,12.92h-3.87c-1.48-4.13-5-12.18-12.92-19.37-6.89-6.26-14.01-9.07-18.08-10.33,2.59,1.42,8.75,5.23,12.92,12.92,3.52,6.48,3.89,12.54,3.87,15.5-2.67-4.9-9.57-15.93-23.25-23.25-8.71-4.66-16.83-6.03-21.96-6.46,3.53,1.24,12.45,4.9,19.37,14.21,5.78,7.78,7.28,15.62,7.75,19.37-.07.04-5.77,3.2-5.84,3.24-.07.04-5.71,3.17-5.78,3.21-18.98,20.96-49.24,48.02-92.99,63.29-11.18,3.9-21.23,6.05-41.33,10.33-55.13,11.76-92.96,12.03-126.57,29.71-10.24,5.39-19.37,11.62-19.37,11.62-14.24,9.72-24.41,19.49-32.29,27.12-9.83,9.52-9.48,10.32-18.08,18.08-17.12,15.46-24.15,17.42-27.12,18.08-3.41.76-13.94,3.1-23.25-2.58-12.79-7.81-13.84-25.02-14.21-31-.11-1.77-.49-9.54,2.58-19.37,3.67-11.76,9.64-17.99,15.5-25.83,0,0,13.46-18.01,21.96-42.62,4.82-13.97,9.58-27.75,5.17-43.91-1.36-4.99-4.64-16.99-15.5-24.54-14.26-9.91-31.85-5.37-42.62-2.58-16.07,4.15-27.66,12.68-34.87,19.37-2.15-9.04-4.31-18.08-6.46-27.12C10.33,43.7,5.17,60.92,0,78.14c16.79-4.31,33.58-8.61,50.37-12.92-6.89-2.15-13.78-4.31-20.67-6.46,8.13-4.95,15.49-7.58,20.67-9.04,5.99-1.69,14.19-3.92,24.54-2.58,6.18.8,9.67,1.25,12.92,3.87,10.04,8.12,5.71,27.28,5.17,29.71-2.63,11.66-8.76,18.75-15.5,27.12-13.19,16.39-27.14,35.78-34.87,49.08-9.44,16.24-18.43,31.71-18.08,50.37.57,30.15,25.21,51.64,40.04,64.58,36.34,31.69,76.92,39.05,98.16,42.62,25.86,4.35,85.09,14.32,134.32-18.08,12.73-8.38,32.15-24.43,49.08-46.5,11.65-15.18,13.56-22.05,28.41-40.04,16.86-20.42,32.39-33.35,37.46-37.46,12.21-9.91,30.2-22.58,54.25-33.58,1.16,3.77,4.01,11.16,10.98,17.44Z"/>
      <path class="cls-4" d="M266.71,381.01c-2.1-.83-2.67-8.17,5.17-38.75,1.61-2.41,3.9-5.94,6.46-10.33,1.66-2.85,10.61-18.18,14.21-29.71,7.67-24.57-3.54-49.15-6.46-55.54-4.23-9.26-11.63-25.5-29.71-36.16-28.94-17.08-59.7-4.83-62-3.87-25.65,10.71-35.72,33.27-38.75,40.04-8.28,18.55-7.31,35.37-6.46,42.62,2.07,17.65,9.44,29.79,14.21,37.46,8.71,14.01,18.93,23.13,25.83,28.41-1.75,10.85-1.69,19.71-1.29,25.83.27,4.09.81,8.76,2.58,14.21,1.85,5.67,3.36,10.3,7.75,12.92,4.45,2.65,9.46,1.81,11.62,1.29h67.16c1.17-1.11,3-2.89,5.17-5.17,4.4-4.61,4.78-5.58,6.46-6.46,3.43-1.81,7.25-.6,12.92,1.29,3.87,1.29,9.4,3.57,15.5,7.75-1.75-2.3-3.68-4.68-5.81-7.1-3.73-4.23-7.46-7.87-10.98-10.98,5.6,1.72,11.19,3.44,16.79,5.17-1.67-2.1-3.99-4.64-7.1-7.1-3.57-2.83-7.01-4.64-9.69-5.81,1.7-.12,4.21-.1,7.1.65,3.23.83,5.62,2.21,7.1,3.23-1.26-2.03-3.32-4.91-6.46-7.75-1.68-1.52-12.38-10.88-23.25-9.04-11.03,1.87-15.15,14.07-18.08,12.92Z"/>
      <path class="cls-3" d="M271.88,9.04c4.45,3.26,10.6,8.32,16.79,15.5,14.74,17.11,19.72,34.72,24.54,52.95,8,30.27,14.33,57.54,19.37,81.37-5.17,5.6-10.33,11.19-15.5,16.79-18.78.04-41.14-1.5-65.87-6.46-43.97-8.82-78.43-25.05-102.03-38.75,4.21.95,10.83,1.88,18.73.65,5.35-.84,9.72-2.42,12.92-3.87,1.01-2.06,2.69-6.19,2.58-11.62-.13-6.35-2.64-10.95-3.87-12.92,4.75.63,10.95.95,18.08,0,4.44-.59,8.34-1.55,11.62-2.58,1.07-3.09,2.1-7.01,2.58-11.62.78-7.53-.23-13.83-1.29-18.08,4.32.72,10.64,1.25,18.08,0,5.27-.89,9.63-2.43,12.92-3.87,1.15-3.21,2.49-8.12,2.58-14.21.1-6.74-1.38-12.13-2.58-15.5,3.75,1.04,9.66,2.15,16.79,1.29,4.16-.5,7.65-1.54,10.33-2.58,1.36-2.38,2.99-5.88,3.87-10.33,1.41-7.07.25-12.95-.65-16.14Z"/>
      <path class="cls-3" d="M411.37,0c7.24,3.87,15.19,8.92,23.25,15.5,22.53,18.41,34.81,39.89,41.33,54.25-2.15,9.9-4.31,19.8-6.46,29.71-2.5,1.35-5.08,2.64-7.75,3.87-32.14,14.86-65.03,15.39-91.7,11.62,3.01-1.02,8.46-3.32,13.56-8.4,4.33-4.31,6.6-8.82,7.75-11.62-.04-2.53-.43-6.84-2.58-11.62-2.38-5.29-5.77-8.64-7.75-10.33.92.35,8.36,3.04,15.5-1.29,5.67-3.44,7.38-9.02,7.75-10.33.34-2.46.67-7.31-1.29-12.92-1.81-5.18-4.74-8.6-6.46-10.33,2.46.16,9,.25,15.5-3.87,4.05-2.57,6.47-5.74,7.75-7.75.36-2.84.66-8.09-1.29-14.21-1.93-6.07-5.17-10.16-7.1-12.27Z"/>
      <ellipse class="cls-1" cx="634.81" cy="76.2" rx="6.46" ry="3.87"/>
      <path class="cls-6" d="M497.9,86.54c.36-.5,7.59-10.1,19.37-9.04,9.48.85,14.73,7.96,15.5,9.04"/>
      <path class="cls-4" d="M270.58,36.16c24.43,38.03,43.62,79.47,56.83,122.7-14.49-42.79-33.56-83.98-56.83-122.7h0Z"/>
      <path class="cls-4" d="M321.6,163.38c-23.15-33.18-48.61-64.69-76.2-94.28,3.59,3.56,7.1,7.21,10.59,10.87,24.27,25.79,46.36,53.68,65.61,83.41h0Z"/>
      <path class="cls-4" d="M316.44,168.55c-32.39-14.86-63.04-33.48-91.37-55.08-4.03-3.11-8.03-6.26-11.95-9.5,32.33,24.72,66.94,46.35,103.33,64.58h0Z"/>
      <path class="cls-4" d="M313.85,172.43c-43.96-10.21-86.91-24.95-127.87-43.91,5.2,2.19,10.4,4.38,15.63,6.48,36.54,14.93,74.09,27.32,112.24,37.43h0Z"/>
      <path class="cls-4" d="M423.64,30.35c17.83,10.29,33.09,25.11,43.91,42.62-1.52-2.07-3.04-4.15-4.64-6.15-11-14.2-24.38-26.45-39.28-36.47h0Z"/>
      <path class="cls-4" d="M409.43,63.93c17.55,9.53,36.21,16.9,55.54,21.96-19.65-3.74-38.64-11.24-55.54-21.96h0Z"/>
      <path class="cls-4" d="M396.51,96.22c22.09,4.69,45.06,4.66,67.16,0-2.72.77-5.48,1.4-8.25,1.99-19.43,3.87-39.81,3.32-58.91-1.99h0Z"/>
      <circle class="cls-1" cx="512.46" cy="117.31" r="10.89"/>
    </g>
  </g>
</svg>