<?xml version="1.0" encoding="UTF-8"?>
<svg id="Calque_2" data-name="Calque 2" xmlns="http://www.w3.org/2000/svg" viewBox="0 0 656 235.58">
  <defs>
    <style>
      .cls-1 {
        fill: #101b13;
      }

      .cls-2 {
        fill: #3b825a;
      }

      .cls-3 {
        fill: #2c5b0d;
      }
    </style>
  </defs>
  <g id="Calque_1-2" data-name="Calque 1">
    <g>
      <path class="cls-3" d="M656,0c-6.74,19.93-16.16,33.39-22.85,41.48-21.45,25.9-63.61,55.26-106.65,51.63-11.99-1.01-26.52-4.79-44.86,1.69-2.22.78-13.06,4.74-24.55,14.39-13.77,11.57-15.57,20.47-23.7,30.47-21.34,26.26-60.62,28.43-66.87,28.78-6.65.37-32.49,1.1-61.79-4.23-6.1-1.11-14.93-2.95-22.85,1.69-8.89,5.21-8.74,13.98-15.24,25.39-9,15.83-23.16,23.4-36.4,30.47,0,0-20.77,11.1-48.25,13.54-38.72,3.44-109.57-26.74-181.99-89.72C.28,97.06.72,48.53,1,0h655Z"/>
      <g>
        <path class="cls-2" d="M54.87,77.87c4.32-8.85,9.33-16.08,14.39-22.01C112.19,5.62,190.45,13.46,205.53,15.24c.22,2.2.39,5.44,0,9.31-2.38,23.66-22.49,38.98-31.32,45.71-25.59,19.5-71.02,22.94-119.35,7.62Z"/>
        <path class="cls-2" d="M147.98,107.5c-1.29,5.22,1.79,13.26,4.23,17.78,3.29,6.08,8.44,11.27,22.01,18.62,16.04,8.69,26.31,14.25,42.32,16.08,5.92.68,27.07,2.83,48.25-7.62,8.24-4.06,8.57-6.13,27.09-16.93,10.01-5.84,16.35-9.53,23.7-12.7,9.14-3.93,23.47-8.61,43.17-9.31-3.67-2.56-9.1-6.03-16.08-9.31-8.78-4.13-20.14-8.01-48.25-11-12.87-1.37-29.51-2.58-49.09-2.54-7.26-.4-92.04-4.57-97.34,16.93Z"/>
        <path class="cls-2" d="M349.43,50.79c5.49,2.96,13.27,6.92,22.85,11,10.06,4.29,30.99,13.2,55.02,16.93,16.43,2.55,51.2,7.94,86.34-10.16,20.37-10.49,33.35-25,40.63-34.7-3.63,1.31-9.69,3.16-17.35,3.81-11.48.98-19.39-1.35-39.78-5.93-7.88-1.77-15.83-3.23-23.7-5.08-16.42-3.85-50.24-.99-124.01,24.12Z"/>
        <path class="cls-1" d="M1,70.26c6.96,5.36,17.5,12.7,31.32,19.47,34,16.66,64.08,18.22,93.96,19.47,14.35.6,55.47,1.52,106.65-10.16,39.77-9.07,72.73-22.8,88.03-29.63,19.58-8.74,23.53-12.09,44.02-20.31,27.37-10.99,42.63-13.94,69.41-22.01,18.15-5.47,44.13-14.05,75.33-27.09h-71.95c-6.48,2.25-16.64,5.71-29.2,9.73-27.12,8.68-34.34,10.01-53.33,16.93-18.35,6.69-30.2,12.22-33.01,13.54-14.39,6.78-22.62,11.86-28.78,15.24-21.51,11.77-40.71,15.18-74.49,21.16-27.14,4.81-47.33,5.75-69.41,6.77-27.93,1.3-41.9,1.95-56.71-.85-25.4-4.79-44.93-14.98-58.41-22.01-14.1-7.36-25.23-14.73-33.01-20.31-.14,10.02-.28,20.03-.42,30.05Z"/>
      </g>
    </g>
  </g>
</svg>