<?xml version="1.0" encoding="UTF-8"?>
<svg id="Calque_2" data-name="Calque 2" xmlns="http://www.w3.org/2000/svg" viewBox="0 0 436.05 277">
  <defs>
    <style>
      .cls-1 {
        fill: #3b825a;
      }

      .cls-2 {
        fill: #2c5b0d;
      }

      .cls-3 {
        fill: #e5d1bd;
      }

      .cls-4 {
        fill: #024126;
      }
    </style>
  </defs>
  <g id="Calque_1-2" data-name="Calque 1">
    <g id="feuillage">
      <path class="cls-2" d="M0,88.15C54.13,60.82,96,38.95,130.13,19.92c9.24-5.15,25.97-14.59,49.99-18.25,9.03-1.38,35.18-5.04,65.06,6.35,38.93,14.83,58.36,45.33,64.27,55.54,16.7-7.09,31.15-9,40.47-9.52,12.24-.68,38.31-2.13,60.3,14.28,0,0,9.98,7.45,17.46,19.04,17.99,27.89,6.58,101.84-30.15,189.64H0V88.15Z"/>
      <g>
        <path class="cls-4" d="M210.68,204.83c4.67,2.39,13.44,6.04,24.6,5.55,4.86-.21,25.03-1.08,30.95-15.08,2.63-6.23,2.43-15.04-2.38-20.63-8.41-9.78-26.6-4.7-34.91-2.38-12.59,3.51-21.37,10.08-26.18,14.28,2.64,6.08,5.29,12.17,7.93,18.25Z"/>
        <path class="cls-1" d="M178.15,277c-1.04-8.23-2.01-19.67-1.59-33.33.22-7.02.91-18.25,3.97-34.91,6.45-35.12,19.04-70.7,24.6-85.69,10.05,1.59,20.1,3.17,30.15,4.76-7,19.11-12.43,36.5-16.66,51.58-4.94,17.6-8.03,28.74-10.32,43.64-2.97,19.37-3.4,37.51-2.38,53.96h-27.77Z"/>
        <path class="cls-3" d="M258.43,130.43c10.42-18.37,3.47-36.9,2.38-39.67-5.5-13.95-19.67-29.85-40.47-30.15-18.07-.26-33.86,11.37-40.47,26.98-9.88,23.35,5.66,44.11,7.14,46.02,1.07,1.38,18.35,22.91,42.85,18.25,17.76-3.38,26.69-18.12,28.56-21.42Z"/>
      </g>
      <g>
        <path class="cls-4" d="M286,239.8c3.03,4.28,9.12,11.57,19.24,16.3,4.41,2.06,22.7,10.62,34.41.95,5.22-4.31,9.11-12.21,7.43-19.39-2.93-12.56-21.41-16.47-29.85-18.26-12.79-2.71-23.61-.95-29.82.55-.47,6.62-.94,13.23-1.41,19.85Z"/>
        <path class="cls-1" d="M244.01,277c.82-4.26,2.08-9.99,3.97-16.66,5.05-17.82,11.3-30.52,14.28-36.5,12.51-25.1,28.68-44.43,38.09-54.75,7.67,1.85,15.34,3.7,23.01,5.55-4.76,7.59-11.41,18.44-19.04,31.74-7.31,12.75-11.09,19.34-15.08,27.77-4.66,9.87-10.53,24.23-15.08,42.85h-30.15Z"/>
        <path class="cls-3" d="M361.58,176.45c10.42-18.37,3.47-36.9,2.38-39.67-5.5-13.95-19.67-29.85-40.47-30.15-18.07-.26-33.86,11.37-40.47,26.98-9.88,23.35,5.66,44.11,7.14,46.02,1.07,1.38,18.35,22.91,42.85,18.25,17.76-3.38,26.69-18.12,28.56-21.42Z"/>
      </g>
      <g>
        <path class="cls-4" d="M147.71,237.64c6.97-7.03,12.23-13.51,15.99-18.55,6.65-8.92,10.54-14.25,12.79-22.39,1.83-6.6,4.64-16.78-1.28-23.03-4.35-4.59-12.22-5.8-17.91-3.2-3.87,1.77-6.03,4.98-8.96,10.88-6.95,14-8.91,24.44-12.79,36.46-1.57,4.86-4.18,12.24-8.32,21.11-4.71-1.32-12.41-3.61-21.75-7.04-15.67-5.74-20.45-8.99-30.71-10.24-6.5-.79-20.61-2.51-25.59,5.12-4.08,6.26.29,15.29.64,15.99,1.3,2.59,6.03,10.7,28.79,15.99,10.7,2.49,28.15,5,50.54,1.28,6.18-7.46,12.37-14.93,18.55-22.39Z"/>
        <path class="cls-1" d="M100.39,197.65c6.94,9.1,16.3,23.73,22.22,43.64,4.13,13.89,5.36,26.27,5.55,35.71h30.15c-2.83-12.83-6.87-27.31-12.7-42.85-7.13-19-15.28-35.17-23.01-48.4-7.41,3.97-14.81,7.93-22.22,11.9Z"/>
        <path class="cls-3" d="M133.72,184.2c10.42-18.37,3.47-36.9,2.38-39.67-5.5-13.95-19.67-29.85-40.47-30.15-18.07-.26-33.86,11.37-40.47,26.98-9.88,23.35,5.66,44.11,7.14,46.02,1.07,1.38,18.35,22.91,42.85,18.25,17.76-3.38,26.69-18.12,28.56-21.42Z"/>
      </g>
    </g>
  </g>
</svg>