<?xml version="1.0" encoding="UTF-8"?>
<svg id="Calque_2" data-name="Calque 2" xmlns="http://www.w3.org/2000/svg" viewBox="0 0 1280 793">
  <defs>
    <style>
      .cls-1 {
        fill: #809648;
      }

      .cls-2 {
        fill: #8cb053;
      }

      .cls-3 {
        fill: #72a348;
      }
    </style>
  </defs>
  <g id="Calque_1-2" data-name="Calque 1">
    <g id="sol">
      <path class="cls-2" d="M758.98,253.48c30.27-45.99,79.07-57.52,130.08-69.56,45.43-10.73,78.05-18.43,104.06,1.18,28.23,21.28,16.61,50.56,55.28,108.47,23.15,34.66,33.05,32.76,46.61,61.31,13.28,27.95,24.96,74.35,13.01,102.57-33.62,79.33-289.65,98.94-356.63-31.83-25.15-49.1-25.16-122.37,7.59-172.13Z"/>
      <path class="cls-1" d="M783,428c15.15-24.7,45.77-32.77,58-36,58.56-15.44,83.09,22.91,137,7,30.26-8.93,24.64-21.63,65-35,9.99-3.31,44.44-13.83,89-9,26.19,2.84,44.9,9.79,67,18,27.84,10.34,49.8,22,65,31,8.43,38.84,19.47,120.34-26,183-89.93,123.94-340.71,91.2-425-21-23.04-30.67-55.52-96.4-30-138Z"/>
      <path class="cls-1" d="M151,317c11.76-28.45,31.59-28.93,71-64,57.17-50.87,51.31-81.77,90-93,29.29-8.5,63.04.38,85,16,24.32,17.3,17.95,31.34,38,43,33.42,19.44,63.04-12.62,120-6,6.62.77,49.34,6.22,77,33,44.97,43.53,44.42,137.86,9,191-88.84,133.3-441.06,73.59-487-41-17.55-43.79-3-79-3-79Z"/>
      <polygon class="cls-3" points="2 327.63 1280 461 1280 793 0 793 2 327.63"/>
      <path class="cls-2" d="M33,19c23.6,17.3,35.09,35.04,57,66,43.9,62.03,39.19,49.32,49,67,20.03,36.08,19,51.79,44,101,7.57,14.91,14.65,22.73,23,41,10.48,22.93,15.97,43.16,19,57-74.33-7.67-148.67-15.33-223-23C1.33,218.67.67,109.33,0,0c8.29,3.64,20.18,9.6,33,19Z"/>
    </g>
  </g>
</svg>