<?xml version="1.0" encoding="UTF-8"?>
<svg id="Calque_2" data-name="Calque 2" xmlns="http://www.w3.org/2000/svg" viewBox="0 0 149.76 216.4">
  <defs>
    <style>
      .cls-1 {
        fill: #fcc3d1;
      }

      .cls-2 {
        fill: #02a89d;
      }

      .cls-3 {
        stroke: #000;
        stroke-width: 1.56px;
      }

      .cls-3, .cls-4 {
        fill: none;
        stroke-linecap: round;
        stroke-miterlimit: 10;
      }

      .cls-5 {
        fill: #ff869f;
      }

      .cls-4 {
        stroke: #601a8e;
        stroke-width: .42px;
      }

      .cls-6 {
        fill: #0cc1b8;
      }

      .cls-7 {
        fill: #b371f7;
      }

      .cls-8 {
        fill: #ffb5c3;
      }
    </style>
  </defs>
  <g id="Calque_1-2" data-name="Calque 1">
    <g>
      <polyline points="83.18 31.08 83.18 78.03 20.15 78.03 20.15 32.63"/>
      <path class="cls-1" d="M14.9,108.15c-2.46-1.65-4.92-3.3-7.39-4.95-.51-.34-1.05-.7-1.66-.79-.84-.13-1.67.25-2.42.64-1.02.54-2.01,1.13-2.97,1.77-.18.12-.37.25-.44.46-.12.32.11.69.42.84s.67.15,1.01.13c.99-.03,1.97-.06,2.96-.09-.89,1.29-2.93,1.44-3.67,2.82-.13.24-.2.57,0,.77.14.14.35.16.55.15,1.82-.03,3.45-1.03,4.99-1.99-.99,1.18-1.97,2.37-2.96,3.55-.33.39-.61,1.08-.16,1.33.14.08.3.07.46.06,2.04-.18,3.72-1.62,5.24-2.99-.86,1.08-1.71,2.17-2.57,3.25-.48.61-.93,1.57-.32,2.05,2.55-1.11,4.71-3.08,6.05-5.52-.04,1.13.08,2.26.35,3.36.12.49.39,1.07.89,1.06.4,0,.67-.38.86-.73.77-1.47,1.1-3.18.91-4.83"/>
      <path class="cls-1" d="M89.28,106.55c-.42.9-.59,1.92-.48,2.91.04.37.18.81.54.9.5.13.85-.49,1-.99.24-.8.47-1.59.71-2.39.6,1.26,1.49,2.39,2.58,3.27.17.14.38.28.6.27.31-.02.53-.36.53-.67s-.15-.61-.3-.88c-.37-.69-.73-1.37-1.1-2.06.54.29.83.87,1.08,1.43s.52,1.15,1.03,1.48,1.34.24,1.55-.33c.14-.39-.05-.82-.23-1.19-.42-.83-.83-1.65-1.25-2.48.58.48,1.16.96,1.75,1.44.48.39,1.1.81,1.67.55.72-.33.6-1.44.09-2.04s-1.27-.99-1.67-1.66c.74.34,1.48.69,2.22,1.03.42.19.9.39,1.32.2.47-.21.63-.85.47-1.34s-.56-.87-.95-1.21c-.97-.82-2.03-1.53-3.16-2.11-.13-.07-.26-.13-.4-.14-.2-.02-.4.08-.58.17-2.81,1.47-5.17,3.65-7.5,5.81"/>
      <path class="cls-1" d="M89.42,106.01c-7.74-7.19-15.49-14.37-23.23-21.56,3.23,16.59,6.46,33.16,9.69,49.75-.6-.22-1.25-.34-1.93-.34-2.13,0-3.99,1.18-4.94,2.92-.95-1.74-2.81-2.92-4.94-2.92-2.87,0-5.25,2.15-5.6,4.93h-.1c-.35-2.78-2.72-4.93-5.6-4.93s-5.24,2.15-5.6,4.92h-.1c-.35-2.77-2.72-4.92-5.6-4.92s-5.24,2.14-5.6,4.91h-.1c-.36-2.77-2.73-4.91-5.6-4.91-2.38,0-4.41,1.47-5.24,3.55l9.93-51.3-20.02,22.32-8.89-6.18,30.4-40.38,27.34,2.1,33.08,36.78-7.36,5.26Z"/>
      <path class="cls-2" d="M123.36,195.28c-24,31.77-55.74,18.27-55.74,18.27-46.05-16.3-43.72-80.16-43.05-90.35h0c.06-.9.11-1.38.11-1.38l.26-1.33s0,0,0-.01c.83-2.08,2.87-3.55,5.24-3.55,2.87,0,5.24,2.14,5.6,4.91h.1c.36-2.77,2.73-4.91,5.6-4.91s5.24,2.15,5.6,4.92h.1c.35-2.77,2.72-4.92,5.6-4.92s5.25,2.15,5.6,4.93h.1c.35-2.78,2.72-4.93,5.6-4.93,2.13,0,3.99,1.18,4.94,2.92.95-1.74,2.81-2.92,4.94-2.92.68,0,1.33.12,1.93.34.3,1.53.6,3.07.9,4.6-.06,1.6-.14,3.54-.28,5.75-.23,3.37-.57,7.4-1.13,11.9-1.33,10.77-2.6,13.87-3.53,21.88-1.65,14.24-2.63,22.62,1.41,27.53,8.2,9.95,27.68,11.24,41.25-2.05l8.87,8.41Z"/>
      <path class="cls-2" d="M119.06,197.46s-16.79-20.77,1.71-38.18c0,0,15.08,16.51-1.71,38.18Z"/>
      <path class="cls-2" d="M112.56,193.14s15.41-21.81,37.2-8.76c0,0-11.78,19-37.2,8.76Z"/>
      <g>
        <path class="cls-7" d="M56.41,85.39s-5.73-2.76-5.31-5.73,2.97-.85,2.97-.85c0,0-.64-3.61,2.97-2.76,0,0,1.74-3.23,3.95-.13,0,0,3.06-3.06,3.7,1.4,0,0,1.91-1.49,2.12,1.7,0,0,3.4-.42,1.27,1.91s-4.9,4.46-4.9,4.46l-.1.86c-.06.49-.46.87-.95.9-1.53.1-4.63.26-5.19-.06-.75-.42-.54-1.7-.54-1.7Z"/>
        <line class="cls-4" x1="54.5" y1="79.66" x2="57.26" y2="83.06"/>
        <line class="cls-4" x1="57.69" y1="77.32" x2="58.75" y2="82.21"/>
        <line class="cls-4" x1="60.87" y1="77.11" x2="60.87" y2="81.99"/>
        <line class="cls-4" x1="64.48" y1="78.38" x2="62.57" y2="82.42"/>
        <line class="cls-4" x1="66.61" y1="79.66" x2="63.63" y2="83.27"/>
        <path class="cls-4" d="M57.26,84.75s2.67-2.12,4.95,0"/>
      </g>
      <g>
        <path class="cls-7" d="M37.35,86.1s-5.73-2.76-5.31-5.73,2.97-.85,2.97-.85c0,0-.64-3.61,2.97-2.76,0,0,1.74-3.23,3.95-.13,0,0,3.06-3.06,3.7,1.4,0,0,1.91-1.49,2.12,1.7,0,0,3.4-.42,1.27,1.91-2.12,2.34-4.9,4.46-4.9,4.46l-.1.86c-.06.49-.46.87-.95.9-1.53.1-4.63.26-5.19-.06-.75-.42-.54-1.7-.54-1.7Z"/>
        <line class="cls-4" x1="35.44" y1="80.36" x2="38.2" y2="83.76"/>
        <line class="cls-4" x1="38.63" y1="78.03" x2="39.69" y2="82.91"/>
        <line class="cls-4" x1="41.81" y1="77.82" x2="41.81" y2="82.7"/>
        <line class="cls-4" x1="45.42" y1="79.09" x2="43.51" y2="83.12"/>
        <line class="cls-4" x1="47.55" y1="80.36" x2="44.57" y2="83.97"/>
        <path class="cls-4" d="M38.2,85.46s2.67-2.12,4.95,0"/>
      </g>
      <ellipse class="cls-8" cx="52.79" cy="32.79" rx="35.85" ry="32.73"/>
      <circle class="cls-5" cx="33.41" cy="46.93" r="7.68"/>
      <circle class="cls-5" cx="73.94" cy="46.93" r="7.68"/>
      <circle cx="44.22" cy="33.57" r="3.12"/>
      <circle cx="60.58" cy="33.57" r="3.12"/>
      <path class="cls-3" d="M45.78,45.26c1.08,3.12,4.13,5.07,7.24,4.73,2.73-.3,5.05-2.3,5.83-5.05"/>
      <path class="cls-5" d="M52.01,36.69c1.26.18,2.22,1.17,2.34,2.34.14,1.35-.87,2.67-2.34,2.89"/>
      <path d="M30.19,31.38v50.51h-13.25V27.52c.06-.32.13-.64.2-.95C23.09,0,52.79,0,52.79,0c.47,20.97-12.08,28.63-22.6,31.38Z"/>
      <path d="M89.42,32.72c-2.47.17-7.32.32-13.25-.84-5.17-1.01-11.18-3.01-17.15-6.88-8.45-5.48-13.23-12.35-15.59-16.36L52.8,0c2.04-.03,19.67,0,30.07,14.05,3.94,5.33,5.51,10.87,6.14,14.9.24,1.49.35,2.78.4,3.77Z"/>
      <path d="M89.42,32.72v49.17h-13.25V30.65l12.85-1.7c.24,1.49.35,2.78.4,3.77Z"/>
      <circle class="cls-6" cx="32.3" cy="133.16" r="1.41"/>
      <circle class="cls-6" cx="48.54" cy="147.99" r="1.41"/>
      <circle class="cls-6" cx="63.36" cy="133.16" r="1.41"/>
      <circle class="cls-6" cx="35.13" cy="159.28" r="1.41"/>
      <circle class="cls-6" cx="60.54" cy="157.87" r="1.41"/>
      <circle class="cls-6" cx="42.89" cy="174.1" r="1.41"/>
      <circle class="cls-6" cx="49.95" cy="194.57" r="1.41"/>
      <circle class="cls-6" cx="61.95" cy="176.93" r="1.41"/>
      <circle class="cls-6" cx="91.6" cy="203.05" r="1.41"/>
      <circle class="cls-6" cx="105.71" cy="203.75" r="1.41"/>
      <circle class="cls-6" cx="112.77" cy="200.93" r="1.41"/>
      <circle class="cls-6" cx="113.48" cy="193.16" r="1.41"/>
      <circle class="cls-6" cx="85.95" cy="209.4" r="1.41"/>
      <circle class="cls-6" cx="70.42" cy="207.99" r="1.41"/>
      <circle class="cls-6" cx="66.18" cy="195.99" r="1.41"/>
    </g>
  </g>
</svg>