<?xml version="1.0" encoding="UTF-8"?>
<svg id="Calque_2" xmlns="http://www.w3.org/2000/svg" viewBox="0 0 152.83 295.51">
  <defs>
    <style>
      .cls-1 {
        stroke-width: .34px;
      }

      .cls-1, .cls-2 {
        stroke: #000;
        stroke-linecap: round;
      }

      .cls-1, .cls-2, .cls-3 {
        fill: none;
        stroke-miterlimit: 10;
      }

      .cls-2 {
        stroke-width: 2.21px;
      }

      .cls-4 {
        fill: #f7cfc1;
      }

      .cls-5 {
        fill: #f6c75c;
      }

      .cls-6 {
        fill: #eaa2c4;
      }

      .cls-7 {
        fill: #f58ea1;
      }

      .cls-8 {
        fill: #d8690e;
      }

      .cls-9 {
        fill: #cf7ecb;
      }

      .cls-10 {
        fill: #af2222;
      }

      .cls-11 {
        fill: #f7cb6d;
      }

      .cls-12 {
        fill: #fff;
      }

      .cls-13 {
        fill: #f5881f;
      }

      .cls-3 {
        stroke: #fff;
        stroke-width: 1.6px;
      }

      .cls-14 {
        fill: #0171b9;
      }

      .cls-15 {
        fill: #ff8f33;
      }

      .cls-16 {
        fill: #f3adb9;
      }

      .cls-17 {
        fill: #f092ad;
      }

      .cls-18 {
        fill: #cc3232;
      }

      .cls-19 {
        fill: #f8b9c4;
      }
    </style>
  </defs>
  <g id="fille">
    <polyline points="132.67 39.53 132.67 106.06 50.66 106.06 50.66 41.74"/>
    <path class="cls-13" d="M74.76,284.49c1.85.93,3.71,1.85,5.56,2.78.72.99,1.44,1.97,2.16,2.96v5.28h-34.64s1.48-10.64,1.48-10.64c8.48-.13,16.96-.26,25.45-.38Z"/>
    <path class="cls-13" d="M142.63,279.86c2.16,1.24,4.33,2.47,6.49,3.71,1.24,1.24,2.47,2.47,3.71,3.71v8.24h-34.01c-.09-3.98-.19-7.97-.28-11.95,8.03-1.24,16.06-2.47,24.1-3.71Z"/>
    <path class="cls-14" d="M53.78,192.1h82.71c4.11,30.14,8.23,60.28,12.34,90.42-11.94,1-23.89,2-35.83,3l-17.52-71.49-10.17,71.49h-36.81l5.28-93.42Z"/>
    <path class="cls-18" d="M110.79,80.38c-12.5-.29-25-.58-37.5-.87-.7.88-20.83,92.45-25.58,116h.21c-.2,4.39,3.17,8.11,7.55,8.33,4.39.23,8.13-3.15,8.35-7.54.01-.14.01-.27.01-.41,0,4.22,3.31,7.74,7.56,7.95,4.39.23,8.13-3.15,8.36-7.54.01-.14.01-.26.01-.4,0,4.22,3.3,7.73,7.55,7.94,4.39.23,8.14-3.15,8.36-7.54,0-.14,0-.27,0-.41,0-.13,0-.26-.02-.38h.03c-.01.13-.01.25-.01.38,0,4.22,3.3,7.74,7.56,7.95,4.39.23,8.13-3.15,8.35-7.54.01-.14.01-.27.01-.41,0,4.22,3.31,7.74,7.56,7.95,4.39.23,8.13-3.15,8.36-7.54.01-.14.01-.26.01-.4,0,4.22,3.3,7.73,7.55,7.94,4.39.23,8.13-3.15,8.36-7.54.01-.27.01-.53-.01-.79,0,0-12.87-95.65-32.64-115.13ZM63.83,195.88c0-.12,0-.25-.02-.37h.03c-.01.13-.01.24-.01.37ZM79.76,195.89c0-.13,0-.26-.02-.38h.03c-.01.13-.01.25-.01.38ZM111.6,195.88c0-.12,0-.25-.02-.37h.03c-.01.13-.01.24-.01.37ZM127.54,195.51c-.01.13-.01.25-.01.38,0-.13,0-.26-.02-.38h.03Z"/>
    <g>
      <path class="cls-3" d="M107.29,106c-3.91,4.65-7.02-9.49-8.64-19.32-1.63,9.84-4.74,23.96-8.64,19.31-5.84-6.93-2.24-28.48-2.24-28.48l11.02.46,10.76-.45s3.6,21.55-2.24,28.48Z"/>
      <line class="cls-3" x1="98.64" y1="86.68" x2="98.57" y2="122.12"/>
      <ellipse class="cls-12" cx="101.29" cy="111.51" rx="1.11" ry="2"/>
      <ellipse class="cls-12" cx="101.29" cy="119.51" rx="1.11" ry="2"/>
    </g>
    <ellipse class="cls-19" cx="91.24" cy="41.62" rx="42.41" ry="41.5"/>
    <circle class="cls-7" cx="103.57" cy="56.99" r="10.89"/>
    <circle cx="118.65" cy="40.07" r="4.42"/>
    <path class="cls-7" d="M128.51,45.48c1.78.25,3.14,1.66,3.31,3.31.2,1.91-1.23,3.78-3.31,4.1"/>
    <path d="M100.45,1.26s25.5,26.56,30.85,26.71c0,0-8.05-23.57-30.85-26.71Z"/>
    <path class="cls-15" d="M70.26,101.47l-18.36,78.65s-29.52-.02-36.27-5.8c-6.74-5.78-2.85-13.29-2.85-13.29.01-.01.01-.03.02-.04,16.1-38.06,34.91-54.94,34.91-54.94.33-.33.79-.62,1.33-.88,1.31-1.76,2.35-3.04,3.05-3.7,6.1-5.78,18.17,0,18.17,0Z"/>
    <path class="cls-8" d="M66.59,109.51s45.07,14.61,47.07,21.61,10.15,20.52.58,31.26c-9.58,10.74-60.3,8.02-60.3,8.02l-2.02,9.72s57.72-.96,66.73-9.98c9.01-9.02,6.57-34.88,6.57-34.88,0,0,2.64-19.45-56.96-33.8l-1.67,8.04Z"/>
    <path class="cls-19" d="M111.24,134.4c1-2.13,2.65-3.96,4.67-5.17.48-.29,1.1-.54,1.58-.25.61.36.51,1.27.3,1.94-.48,1.52-1.18,2.98-2.05,4.32,3.41-1.96,7.48-2.76,11.38-2.22.38,1.03-.88,1.86-1.9,2.24-1.83.68-3.67,1.36-5.5,2.04,2.85-.53,5.94-1.04,8.54.25.2.1.4.22.51.41.36.63-.49,1.25-1.18,1.48-2.07.7-4.13,1.41-6.2,2.11,2.57-.03,5.29-.03,7.51,1.28.24.14.49.32.55.59.09.38-.24.73-.58.92-1.91,1.12-4.5-.2-6.52.7,1.21.69,2.43,1.38,3.64,2.07.42.24.86.5,1.12.91s.27,1.03-.11,1.33c-.24.19-.57.21-.87.22-1.63.07-3.27.05-4.89-.05-1.2-.07-2.48-.23-3.4-1.01-.67-.56-1.05-1.38-1.42-2.18-1.76-3.81-3.52-7.63-5.28-11.44"/>
    <path class="cls-10" d="M118.65,150.98l-14.48,6.98-9.15,4.42-13.81-18.07-17.26-22.59c2.11-7.87,4.21-15.73,6.31-23.6,10.46,12.63,20.92,25.25,31.39,37.88l12.01-4.88,4.99,19.86Z"/>
    <path d="M117.07,8.02s-3.91,16.56-25.41,28.9v76.2h-43V36.81c.42-2.67,1.11-5.63,2.2-8.69,3.17-8.88,9.74-18.6,23.19-24.35,0,0,22.43-10.85,43.02,4.25Z"/>
    <path class="cls-8" d="M30.6,135.68l-3.04,8.47-6.11,17.06s-2.11,1.03-7.98-.69c-5.88-1.71-4.17-9.86-4.17-9.86l2.99-7.44.83-2.07c3.6-6.93,9.53-8.25,12.28-8.47,1.6.57,3.47,1.5,5.2,3Z"/>
    <path class="cls-8" d="M31.54,133.06l-.94,2.62c-1.73-1.5-3.6-2.43-5.2-3,.92-.07,1.49-.02,1.49-.02l4.65.4Z"/>
    <path class="cls-2" d="M127.23,63.5c-4.04-.29-7.5-2.93-8.7-6.62"/>
    <g>
      <path class="cls-9" d="M32.9,116.59l-1.19,3.37h0s-4.51,12.75-4.51,12.75l-.55-.05s-2.41-.21-5.41.89l7.32-16.07,1.07-2.35c.41-.89,1.54-1.19,2.32-.6l.42.31c.54.41.75,1.11.53,1.75Z"/>
      <path class="cls-5" d="M38.64,116.97l4.49.81c.95.17,1.66-.86,1.15-1.69l-2.45-3.98c-.29-.47-.19-1.07.22-1.43l3.88-3.35c.73-.63.37-1.84-.6-1.95l-4.62-.55c-.55-.07-.97-.52-.98-1.08l-.16-5.12c-.03-.95-1.15-1.43-1.86-.8l-3.74,3.32c-.39.34-.96.38-1.39.08l-4.26-3.01c-.79-.56-1.86.08-1.75,1.04l.55,4.81c.06.56-.3,1.08-.84,1.21l-4.74,1.17c-.91.23-1.16,1.41-.41,1.97l4.09,3.11c.43.33.56.91.32,1.39l-2.13,4.2c-.45.88.39,1.87,1.34,1.57l4.41-1.41c.5-.16,1.04.05,1.31.5l2.92,5.03c.47.81,1.66.72,2-.14l2.03-5.03c.2-.49.71-.78,1.23-.68Z"/>
      <path class="cls-9" d="M36.18,113.05l2.01.36c.42.08.74-.39.51-.75l-1.1-1.78c-.13-.21-.09-.48.1-.64l1.74-1.5c.33-.28.16-.82-.27-.87l-2.06-.25c-.25-.03-.43-.23-.44-.48l-.07-2.29c-.01-.42-.51-.64-.83-.36l-1.67,1.48c-.17.15-.43.17-.62.03l-1.91-1.34c-.35-.25-.83.04-.78.46l.24,2.15c.03.25-.13.48-.38.54l-2.12.52c-.41.1-.52.63-.18.88l1.83,1.39c.19.15.25.41.14.62l-.95,1.88c-.2.4.18.84.6.7l1.97-.63c.22-.07.47.02.58.23l1.3,2.25c.21.36.74.32.9-.06l.91-2.25c.09-.22.32-.35.55-.31Z"/>
    </g>
    <path class="cls-6" d="M29.61,166.88l1.85-8.81s.93-2.53,2.55-1.84,1.62,1.61,1.62,1.61l1.28,9.04,9.61-.7c.3-.04.8-.06,1.36.12.4.12,1.39.42,1.65,1.27.2.68-.18,1.3-.23,1.39-.28.45-.73.69-1.62,1.16-.19.1-.36.18-.46.23-2.16,1.24-4.33,2.47-6.49,3.71,1.39,2.94,2.78,5.87,4.17,8.81,0,0,.93,2.09-.7,3.01s-3.01-1.16-3.01-1.16l-7.19-6.62c-2.01,1.98-4.02,3.95-6.03,5.93-.05.09-.73,1.3-2.09,1.39-.2.01-1.44.07-2.09-.93-.44-.68-.44-1.58,0-2.32,1.08-2.47,2.16-4.94,3.24-7.42-2.84-1.16-5.67-2.32-8.51-3.48,0,0-1.46-.93-1.22-2.09s1.62-1.39,1.62-1.39l10.66-.93Z"/>
    <g>
      <path class="cls-17" d="M25.4,132.68c-2.75.22-8.68,1.54-12.28,8.47l-.83,2.07c.17-2.41.92-5.76,3.37-8.88.02-.03.05-.06.07-.09l3.28.06,2.37-2.54h.01s1.73.09,4.01.91Z"/>
      <polygon class="cls-4" points="13.35 133.06 11.64 136.33 12.81 136.66 14.45 133.31 13.35 133.06"/>
      <polygon class="cls-4" points="21.9 129.25 25.47 130.21 24.92 131.3 21.34 130.23 21.9 129.25"/>
      <circle class="cls-4" cx="12.13" cy="136.59" r="1.03"/>
      <circle class="cls-4" cx="25.36" cy="130.77" r="1.03"/>
      <polygon class="cls-4" points="15.05 130.44 15.27 129.19 17.7 128.12 18.95 128.7 17.67 131.11 15.05 130.44"/>
      <path class="cls-16" d="M21.54,132.08l-2.43,2.39-3.34.14s-.26-.6-.5-1.39c-.27-.9-.5-2.05-.23-2.78,0,0,0-.02.01-.03,0,0,1.81-.26,2.35.17,0,0,.66-1.42,1.46-1.84.03-.02.05-.03.08-.04,0,0,.76.43,1.85,2.11.23.36.49.78.74,1.27Z"/>
      <path class="cls-16" d="M15.05,130.44c-.27.73-.04,1.88.23,2.78-.15.13-.33.25-.53.33-.96.42-2.04.06-2.43-.81s.08-1.92,1.04-2.34c.58-.25,1.2-.22,1.68.03Z"/>
      <path class="cls-16" d="M22.4,128.31c.38.87-.08,1.92-1.04,2.34-.19.08-.38.13-.57.16-1.09-1.68-1.85-2.11-1.85-2.11-.03.01-.05.02-.08.04.14-.53.54-1,1.11-1.25.96-.42,2.04-.06,2.43.81Z"/>
      <path class="cls-4" d="M8.28,129.42s2.83,1.58,6.91.18l2.75-1.21s3.54-1.96,4.65-5.26c0,0,1.05-2.47.66-4.32l-5.89-4.66-5.18-.14-4.89,5.37-2.41,3.26.52,3.75c.96,1.01,1.92,2.02,2.89,3.03Z"/>
      <path class="cls-11" d="M8.6,126.86s.93,2.97-2.04,3.91c-2.97.93-3.67-.64-3.67-.64,0,0,2.04.79,1.66-.92,0,0-.1-1.08-2.23-1.65,0,0-1.81-.71-2.19-2.42-.1-.47-.14-.91-.14-1.3,0-1.14.49-2.22,1.28-3.05.61-.64,1.45-1.3,2.38-1.33l4.95,7.41Z"/>
      <path class="cls-11" d="M6.07,126.65s-3.37-2.53-2.34-8.31c.22-.72.63-1.75,1.4-2.81,1.55-2.14,3.58-3.03,4.83-3.56,1.6-.68,3.99-1.69,6.91-.97.7.17,2.73.77,4.42,2.63.51.56,1.69,2.2,2.12,4.49.04.22.05.45.02.67l-.03.24c-.41-.11-1.02-.23-1.76-.16-.53.04-.78.15-1.4.24,0,0-.89.13-1.85.06-1.9-.13-3.99-2.16-4.27-2.45,0,0-.92,3.04-3.03,5.09s-4.49,3.48-5.02,4.84Z"/>
      <path class="cls-11" d="M21.4,121.15s1.56,2.7,4.26,1.14,2-3.14,2-3.14c0,0-.79,2.04-1.8.6,0,0-.73-.81.29-2.76,0,0,.71-1.81-.3-3.25-.27-.39-.58-.72-.87-.98-.85-.77-1.97-1.14-3.11-1.12-.89.01-1.94.19-2.59.85l2.11,8.66Z"/>
      <g>
        <circle cx="18.83" cy="122.74" r="1.03"/>
        <path class="cls-1" d="M18.91,121.95s.3-.13.4-.6"/>
      </g>
      <path class="cls-1" d="M14.01,125.04s.42.95,1.36.53.53-1.36.53-1.36"/>
      <g>
        <circle cx="10.95" cy="126.2" r="1.03"/>
        <path class="cls-1" d="M10.31,125.73s-.29.13-.71-.11"/>
      </g>
    </g>
  </g>
</svg>