<?xml version="1.0" encoding="UTF-8"?>
<svg id="Calque_2" xmlns="http://www.w3.org/2000/svg" viewBox="0 0 143.76 295.51">
  <defs>
    <style>
      .cls-1 {
        stroke: #000;
        stroke-linecap: round;
        stroke-width: 2.21px;
      }

      .cls-1, .cls-2 {
        fill: none;
        stroke-miterlimit: 10;
      }

      .cls-3 {
        fill: #d3c5c8;
      }

      .cls-4 {
        fill: #423333;
      }

      .cls-5 {
        fill: #919191;
      }

      .cls-6 {
        fill: #af9a9f;
      }

      .cls-7 {
        fill: #fff;
      }

      .cls-8 {
        fill: #262626;
      }

      .cls-2 {
        stroke: #fff;
        stroke-width: 1.6px;
      }

      .cls-9 {
        fill: #7f7e7e;
      }

      .cls-10 {
        fill: #7a746f;
      }

      .cls-11 {
        fill: #514646;
      }
    </style>
  </defs>
  <g id="fille">
    <polyline points="123.6 39.53 123.6 106.06 41.59 106.06 41.59 41.74"/>
    <path class="cls-8" d="M65.69,284.49c1.85.93,3.71,1.85,5.56,2.78.72.99,1.44,1.97,2.16,2.96v5.28h-34.64s1.48-10.64,1.48-10.64c8.48-.13,16.96-.26,25.45-.38Z"/>
    <path class="cls-8" d="M133.57,279.86c2.16,1.24,4.33,2.47,6.49,3.71,1.24,1.24,2.47,2.47,3.71,3.71v8.24h-34.01c-.09-3.98-.19-7.97-.28-11.95,8.03-1.24,16.06-2.47,24.1-3.71Z"/>
    <path class="cls-9" d="M44.71,192.1h82.71c4.11,30.14,8.23,60.28,12.34,90.42-11.94,1-23.89,2-35.83,3l-17.52-71.49-10.17,71.49h-36.81l5.28-93.42Z"/>
    <path class="cls-11" d="M101.72,80.38c-12.5-.29-25-.58-37.5-.87-.7.88-20.83,92.45-25.58,116h.21c-.2,4.39,3.17,8.11,7.55,8.33,4.39.23,8.13-3.15,8.35-7.54.01-.14.01-.27.01-.41,0,4.22,3.31,7.74,7.56,7.95,4.39.23,8.13-3.15,8.36-7.54.01-.14.01-.26.01-.4,0,4.22,3.3,7.73,7.55,7.94,4.39.23,8.14-3.15,8.36-7.54,0-.14,0-.27,0-.41,0-.13,0-.26-.02-.38h.03c-.01.13-.01.25-.01.38,0,4.22,3.3,7.74,7.56,7.95,4.39.23,8.13-3.15,8.35-7.54.01-.14.01-.27.01-.41,0,4.22,3.31,7.74,7.56,7.95,4.39.23,8.13-3.15,8.36-7.54.01-.14.01-.26.01-.4,0,4.22,3.3,7.73,7.55,7.94,4.39.23,8.13-3.15,8.36-7.54.01-.27.01-.53-.01-.79,0,0-12.87-95.65-32.64-115.13ZM54.76,195.88c0-.12,0-.25-.02-.37h.03c-.01.13-.01.24-.01.37ZM70.69,195.89c0-.13,0-.26-.02-.38h.03c-.01.13-.01.25-.01.38ZM102.53,195.88c0-.12,0-.25-.02-.37h.03c-.01.13-.01.24-.01.37ZM118.47,195.51c-.01.13-.01.25-.01.38,0-.13,0-.26-.02-.38h.03Z"/>
    <g>
      <path class="cls-2" d="M98.22,106c-3.91,4.65-7.02-9.49-8.64-19.32-1.63,9.84-4.74,23.96-8.64,19.31-5.84-6.93-2.24-28.48-2.24-28.48l11.02.46,10.76-.45s3.6,21.55-2.24,28.48Z"/>
      <line class="cls-2" x1="89.58" y1="86.68" x2="89.5" y2="122.12"/>
      <ellipse class="cls-7" cx="92.22" cy="111.51" rx="1.11" ry="2"/>
      <ellipse class="cls-7" cx="92.22" cy="119.51" rx="1.11" ry="2"/>
    </g>
    <ellipse class="cls-3" cx="82.18" cy="41.62" rx="42.41" ry="41.5"/>
    <circle class="cls-6" cx="94.5" cy="56.99" r="10.89"/>
    <circle cx="109.58" cy="40.07" r="4.42"/>
    <path class="cls-6" d="M119.44,45.48c1.78.25,3.14,1.66,3.31,3.31.2,1.91-1.23,3.78-3.31,4.1"/>
    <path d="M91.39,1.26s25.5,26.56,30.85,26.71c0,0-8.05-23.57-30.85-26.71Z"/>
    <path class="cls-5" d="M61.19,101.47l-18.36,78.65s-29.52-.02-36.27-5.8c-6.74-5.78-2.85-13.29-2.85-13.29.01-.01.01-.03.02-.04,16.1-38.06,34.91-54.94,34.91-54.94.33-.33.79-.62,1.33-.88,1.31-1.76,2.35-3.04,3.05-3.7,6.1-5.78,18.17,0,18.17,0Z"/>
    <path class="cls-10" d="M57.52,109.51s45.07,14.61,47.07,21.61,10.15,20.52.58,31.26-60.3,8.02-60.3,8.02l-2.02,9.72s57.72-.96,66.73-9.98c9.01-9.02,6.57-34.88,6.57-34.88,0,0,2.64-19.45-56.96-33.8l-1.67,8.04Z"/>
    <path class="cls-3" d="M102.18,134.4c1-2.13,2.65-3.96,4.67-5.17.48-.29,1.1-.54,1.58-.25.61.36.51,1.27.3,1.94-.48,1.52-1.18,2.98-2.05,4.32,3.41-1.96,7.48-2.76,11.38-2.22.38,1.03-.88,1.86-1.9,2.24-1.83.68-3.67,1.36-5.5,2.04,2.85-.53,5.94-1.04,8.54.25.2.1.4.22.51.41.36.63-.49,1.25-1.18,1.48-2.07.7-4.13,1.41-6.2,2.11,2.57-.03,5.29-.03,7.51,1.28.24.14.49.32.55.59.09.38-.24.73-.58.92-1.91,1.12-4.5-.2-6.52.7,1.21.69,2.43,1.38,3.64,2.07.42.24.86.5,1.12.91s.27,1.03-.11,1.33c-.24.19-.57.21-.87.22-1.63.07-3.27.05-4.89-.05-1.2-.07-2.48-.23-3.4-1.01-.67-.56-1.05-1.38-1.42-2.18-1.76-3.81-3.52-7.63-5.28-11.44"/>
    <path class="cls-4" d="M109.58,150.98l-14.48,6.98-9.15,4.42-13.81-18.07-17.26-22.59c2.11-7.87,4.21-15.73,6.31-23.6,10.46,12.63,20.92,25.25,31.39,37.88l12.01-4.88,4.99,19.86Z"/>
    <path d="M108,8.02s-3.91,16.56-25.41,28.9v76.2h-43V36.81c.42-2.67,1.11-5.63,2.2-8.69,3.17-8.88,9.74-18.6,23.19-24.35,0,0,22.43-10.85,43.02,4.25Z"/>
    <path class="cls-10" d="M17.83,132.66s-8.97-.77-13.78,8.49l-3.82,9.51s-1.71,8.15,4.17,9.87,7.99.68,7.99.68l10.09-28.15-4.65-.4Z"/>
    <path class="cls-1" d="M108.09,63.39c3.43-2.17,7.78-2.08,10.93.18"/>
  </g>
</svg>