<?xml version="1.0" encoding="UTF-8"?>
<svg id="Calque_2" data-name="Calque 2" xmlns="http://www.w3.org/2000/svg" viewBox="0 0 748.05 96.36">
  <defs>
    <style>
      .cls-1 {
        fill: #e3edbe;
      }
    </style>
  </defs>
  <g id="Calque_1-2" data-name="Calque 1">
    <path class="cls-1" d="M748.05,46.78v49.58H0c5.43-1.83,12.72-4.23,21.61-7.09.08-.03.16-.05.25-.08C109.67,61,353.01-10.74,521.84,1.36c12.97.93,25.67,2.12,38.08,3.54,3.72.43,7.41.87,11.07,1.34,16.45,2.09,32.38,4.56,47.75,7.35,12.81,2.31,25.22,4.83,37.23,7.53,7.89,1.76,15.61,3.59,23.14,5.48,12.32,3.09,24.14,6.33,35.45,9.64h.01c11.73,3.45,22.9,6.98,33.48,10.54Z"/>
  </g>
</svg>