<?xml version="1.0" encoding="UTF-8"?>
<svg id="Calque_2" data-name="Calque 2" xmlns="http://www.w3.org/2000/svg" viewBox="0 0 262.87 305.31">
  <defs>
    <style>
      .cls-1 {
        stroke: #000;
        stroke-width: 2.21px;
      }

      .cls-1, .cls-2 {
        fill: none;
      }

      .cls-1, .cls-2, .cls-3 {
        stroke-linecap: round;
      }

      .cls-1, .cls-4 {
        stroke-miterlimit: 10;
      }

      .cls-5 {
        fill: #f58ea1;
      }

      .cls-2 {
        stroke-width: 6px;
      }

      .cls-2, .cls-3 {
        stroke: #fb8ec5;
        stroke-linejoin: round;
      }

      .cls-3 {
        stroke-width: 2px;
      }

      .cls-3, .cls-6, .cls-4 {
        fill: #fbdaeb;
      }

      .cls-7 {
        fill: #eacadb;
      }

      .cls-8 {
        fill: #f18fbb;
      }

      .cls-9 {
        fill: #fb8ec5;
      }

      .cls-4 {
        stroke: #eacadb;
      }

      .cls-10 {
        fill: #f8b9c4;
      }
    </style>
  </defs>
  <g id="Calque_1-2" data-name="Calque 1">
    <g>
      <g>
        <g>
          <g>
            <ellipse class="cls-4" cx="187.93" cy="119" rx="87" ry="31" transform="translate(-34.45 124.16) rotate(-33.67)"/>
            <ellipse class="cls-4" cx="74.93" cy="120" rx="31" ry="87" transform="translate(-66.48 115.83) rotate(-56.33)"/>
          </g>
          <g>
            <ellipse class="cls-7" cx="177.63" cy="124.78" rx="72.8" ry="25.94" transform="translate(-39.38 119.42) rotate(-33.67)"/>
            <ellipse class="cls-7" cx="83.07" cy="125.62" rx="25.94" ry="72.8" transform="translate(-67.53 125.11) rotate(-56.33)"/>
          </g>
        </g>
        <g>
          <g>
            <ellipse class="cls-4" cx="165.22" cy="162.18" rx="20.13" ry="56.5" transform="translate(-61.35 209.77) rotate(-56.33)"/>
            <ellipse class="cls-4" cx="86.84" cy="162.53" rx="56.5" ry="20.13" transform="translate(-75.54 75.41) rotate(-33.67)"/>
          </g>
          <g>
            <path class="cls-7" d="M199.99,186.1c5.26-7.9-7.87-33.32-30.05-48.1-22.18-14.78-45-13.31-50.27-5.41-5.26,7.9,8.45,26.29,30.63,41.06,22.18,14.78,44.43,20.35,49.69,12.44Z"/>
            <path class="cls-7" d="M52.72,186.4c-5.26-7.9,10.03-32.62,32.21-47.4s42.84-14.01,48.11-6.11c5.26,7.9-8.45,26.29-30.63,41.06-22.18,14.78-44.43,20.35-49.69,12.44Z"/>
          </g>
        </g>
        <path class="cls-10" d="M71.04,168.85c-.26.5-.65,1.03-1.21,1.04-.71,0-1.1-.81-1.27-1.5-.38-1.55-.55-3.16-.5-4.76-1.89,3.45-4.95,6.25-8.56,7.82-.86-.68-.22-2.04.46-2.9,1.21-1.54,2.42-3.07,3.63-4.61-2.16,1.94-4.53,3.98-7.42,4.24-.22.02-.46.03-.65-.08-.64-.35-.23-1.32.23-1.88,1.4-1.68,2.8-3.35,4.19-5.03-2.18,1.37-4.5,2.78-7.07,2.82-.28,0-.58-.02-.78-.22-.27-.28-.17-.75.01-1.09,1.05-1.95,3.94-2.17,5.2-3.99-1.4.04-2.79.08-4.19.13-.49.01-1,.02-1.43-.19s-.76-.74-.59-1.19c.11-.29.37-.48.63-.64,1.36-.91,2.76-1.75,4.2-2.51,1.06-.56,2.24-1.1,3.43-.91.86.13,1.62.63,2.35,1.12,3.49,2.34,6.98,4.68,10.46,7.02"/>
        <path class="cls-10" d="M189.93,160c-.73,1.58-1.77,4.09-1.58,5.82.07.65.31,1.41.95,1.58.88.23,1.49-.85,1.76-1.73.42-1.39.83-2.79,1.25-4.18,1.06,2.21,2.62,4.18,4.53,5.72.31.25.66.49,1.05.47.55-.04.93-.63.93-1.18s-.26-1.06-.52-1.55c-.64-1.2-1.28-2.4-1.92-3.61.94.5,1.46,1.53,1.9,2.5s.91,2.01,1.8,2.59,2.35.41,2.72-.59c.25-.68-.08-1.43-.41-2.08-.73-1.45-1.46-2.9-2.19-4.34,1.02.84,2.04,1.68,3.06,2.52.84.69,1.93,1.42,2.92.97,1.26-.57,1.04-2.51.15-3.57-.89-1.06-2.22-1.73-2.92-2.91,1.3.6,2.6,1.21,3.9,1.81.73.34,1.58.68,2.32.36.83-.37,1.11-1.48.83-2.35s-.98-1.52-1.67-2.11c-1.7-1.44-9.52-4.29-9.83-4.13"/>
        <polyline points="170.88 49.33 170.88 115.85 81.58 115.85 81.58 51.53"/>
        <path class="cls-9" d="M89.76,294.28c-1.85.93-3.71,1.85-5.56,2.78-.72.99-1.44,1.97-2.16,2.96v5.28h34.64l-1.48-10.64c-8.48-.13-16.96-.26-25.45-.38Z"/>
        <path class="cls-9" d="M176.85,289.65c2.16,1.24,4.33,2.47,6.49,3.71,1.24,1.24,2.47,2.47,3.71,3.71v8.24h-34.01c-.09-3.98-.19-7.97-.28-11.95,8.03-1.24,16.06-2.47,24.1-3.71Z"/>
        <path class="cls-10" d="M158.19,133.01l-.1-.1c.98,3.61,1.97,7.74,2.92,12.18.08.37.16.74.24,1.12.15.68.29,1.37.44,2.06.1.48.2.97.3,1.46.1.48.2.96.29,1.44.15.77.31,1.55.46,2.32.16.78.31,1.57.46,2.35.1.49.19.99.28,1.49.15.8.3,1.61.45,2.42,2.24,12.12,4.18,24.5,5.47,33.24,1.08,7.27,1.71,12.02,1.71,12.02,3.84,29.08,5.85,57.89,9.82,86.99-11.94,1-16.06,2-28,3l-25-72-13,72-25-1-1.85-88.01s.42-6.09,1.18-14.99c.53-6.18,1.23-13.71,2.05-21.5.05-.52.11-1.04.17-1.56.01-.12.02-.24.04-.36.89-8.22,1.92-16.63,3.07-23.96.02-.15.04-.3.07-.45.48-3.07.98-5.93,1.5-8.51-.04.06-.09.12-.13.17-7.69,9.99-12.37,11.86-24.1,27.17l-13-8c14.27-17.9,26.54-35.91,40.15-53.84,1.4-1.85,2.81-3.69,4.25-5.54,1.37-1.77,2.76-3.54,4.17-5.31,12.5.29,25,.58,37.5.87,1.86,1.83,3.69,3.69,5.48,5.56,1.79,1.83,3.53,3.68,5.25,5.54,15.26,16.44,29.11,33.87,45.2,49.72-5.52,4.66-5.48,5.35-11,10-9.85-9.86-21.88-18.14-31.74-27.99Z"/>
        <path class="cls-10" d="M178.61,51.76c0,25.6-22.74,46.36-50.79,46.36-12.13,0-23.27-3.89-32.01-10.38-11.45-8.49-18.77-21.46-18.77-35.98,0-18.17,11.45-33.9,28.12-41.51,7.8-3.27,15.2-4.37,19.32-4.75.05,0,.11-.01.17-.02,1.05-.06,2.11-.09,3.17-.09,28.05,0,50.79,20.76,50.79,46.37Z"/>
        <circle class="cls-5" cx="100.37" cy="71.78" r="10.89"/>
        <circle class="cls-5" cx="157.78" cy="71.78" r="10.89"/>
        <circle cx="115.68" cy="52.86" r="4.42"/>
        <circle cx="138.87" cy="52.86" r="4.42"/>
        <path class="cls-1" d="M117.89,69.42c1.53,4.42,5.85,7.19,10.26,6.71,3.86-.42,7.16-3.26,8.27-7.16"/>
        <path class="cls-5" d="M126.72,57.28c1.78.25,3.14,1.66,3.31,3.31.2,1.91-1.23,3.78-3.31,4.1"/>
        <path d="M95.81,49.76v71.55h-18.77V44.3c.08-.45.18-.9.28-1.34,4.14-18.51,16.42-27.93,27.84-32.71,7.8-3.27,15.2-4.37,19.32-4.75.05,0,.11-.01.17-.02,2-.17,3.17-.17,3.17-.17v.08c.63,29.65-17.12,40.48-32.01,44.37Z"/>
        <path d="M179.71,51.66c-3.5.24-10.37.45-18.77-1.19-7.33-1.43-15.84-4.27-24.29-9.75-11.97-7.76-18.74-17.49-22.08-23.18l13.27-12.23c2.89-.04,27.87,0,42.6,19.9,5.58,7.55,7.81,15.4,8.7,21.11.34,2.11.49,3.94.57,5.34Z"/>
        <path d="M179.71,51.66v69.65h-18.77V48.73l18.2-2.41c.34,2.11.49,3.94.57,5.34Z"/>
        <path class="cls-9" d="M48.63,207.47c5.04,2.95,10.09,5.89,15.13,8.83-2.2.76-4.49,1.52-6.87,2.24-2.35.7-4.79,1.38-7.32,2.02-8.76,2.22-16.89,3.52-24.13,4.26,3.3,4.49,6.8,7.67,9.94,9.94,15.9,11.51,35.65,9.34,46.94,6.71,4.15-.97,7.17-2.01,8.42-2.45-1.1.89-2.19,1.78-3.29,2.67-6.48,5.26-12.95,10.53-19.43,15.79,9.76,1.7,18.07,1.76,24.13,1.41,6.11-.35,10.61-.39,22.75-5.06,8.08-3.12,13.6-8.53,17.79-11.51,4.19,2.98,9.71,8.39,17.79,11.51,12.14,4.68,16.64,4.72,22.75,5.06,6.06.35,14.37.28,24.13-1.41-7.58-6.15-15.14-12.3-22.72-18.46,4.67,1.65,33.61,11.48,55.36-4.26,3.14-2.27,6.64-5.45,9.94-9.94-7.24-.74-15.37-2.04-24.13-4.26-5.11-1.29-9.85-2.74-14.2-4.26.05-.03.09-.05.15-.08.01,0,.02-.01.02-.01,5.63-3.28,11.24-6.56,16.87-9.85-11.89.55-20.73-2.28-25.55-4.26-9.72-3.97-16.34-9.81-21.29-14.19-.67-.59-1.3-1.16-1.9-1.74-2.8-2.61-5.01-4.97-6.61-6.78.24-9.02-15.38-13.33-30.6-12.94-15.21-.39-30.84,3.92-30.6,12.94-1.05,1.18-2.34,2.61-3.91,4.16-1.35,1.36-2.88,2.83-4.6,4.35-4.95,4.37-11.57,10.22-21.29,14.19-3.13,1.29-7.94,2.93-14.19,3.77l-9.46,1.6Z"/>
        <path class="cls-9" d="M169.93,193c-.18,0-.35,0-.53-.01-26.4-.34-53.75-1.65-80.14-1.99h-.33c.77-6.95,1.54-14.19,2.38-21.5.05-.52.11-1.04.17-1.56.01-.12.02-.24.04-.36.92-8.03,1.92-16.12,3.07-23.96.02-.15.04-.3.07-.45.4-2.76.82-5.49,1.27-8.17.03-.06.07-.11.1-.17,3.02-5.08,4.81-9.6,5.9-12.83,2.03-6.06,3.35-10.18,2-15-.89-3.17-3.52-5.46-4.85-6.84,1.4-1.85,2.81-3.69,4.25-5.54,1.51,2.35,3.37,5.04,5.1,7.59,1.6,2.37,4.26,3.79,7.12,3.79h23.65c2.9,0,5.61-1.47,7.19-3.91,1.4-2.15,2.88-4.39,4.09-6.35,1.79,1.83,3.53,3.68,5.25,5.54-2.33,3.29-3.55,7.18-3.55,11.11,0,2.2.39,4.42,1.17,6.54,1.61,4.36,3.25,8.71,4.58,13.07.09.34.18.67.26,1.01.69,2.65,1.33,5.38,1.95,8.15.29,1.28.59,2.59.87,3.93.08.37.16.74.24,1.12.15.68.29,1.37.44,2.06.1.48.2.97.3,1.46.09.48.19.96.29,1.44.15.77.31,1.55.46,2.32.16.78.31,1.57.46,2.35.1.49.19.99.28,1.49.15.8.3,1.61.45,2.42,2.12,11.32,4.01,22.78,6,33.25Z"/>
        <path class="cls-6" d="M94.93,26.3c1.84-2.01,13.49-14.3,32.5-14.3s30.66,12.29,32.5,14.3c-13.67-6.96-26.17-7.8-32.5-7.8s-18.83.84-32.5,7.8Z"/>
        <path class="cls-6" d="M89.93,182c-3.11,4.52-7.02,12.36-18.4,18.53-12.87,6.97-24.9,7.43-30.45,7.29,2.88,3.36,7.74,7.95,15.03,10.87,20.2,8.09,40.07-4.3,42.04-5.57-1.83,3.77-4.67,8.6-9.08,13.53-5.95,6.66-12.32,10.78-16.81,13.21,4.77,1.51,10.52,2.56,16.94,2.17,26.25-1.58,41.18-25.86,43.01-28.95,2.96,3.96,6.83,8.23,11.88,12.21,19.63,15.45,43.22,15.69,52,15.34-4.75-3.59-10.24-8.36-15.65-14.56-3.95-4.53-7.07-8.91-9.53-12.84,2.63,1.6,7.34,4.03,13.73,4.96,2.83.41,10.33,1.42,18.67-2.15,8.71-3.72,15.55-7.83,17-10.24-3.77.58-14.68,1.76-26.38-4.22-10.64-5.43-24.06-16.19-26-19.58-6.03,2.49-19.16,8.34-32.46,8.53-15.1.21-39.29-5.86-45.54-8.53Z"/>
        <path class="cls-9" d="M123.23,10.8c-.3-.88-1.11-3.62,0-6.75.74-2.07,1.98-3.39,2.7-4.05.8.7,1.85,1.8,2.7,3.38,1.69,3.13,1.5,6.16,1.35,7.42.67-.59,2.04-1.62,4.05-2.02,3.44-.7,6.13.95,6.75,1.35-.63.98-1.9,2.66-4.05,4.05-2.17,1.4-4.24,1.86-5.4,2.03.74.64,2.6,2.42,3.38,5.4.63,2.41.25,4.44,0,5.4-1.08-.24-3.28-.87-5.4-2.7-2.02-1.74-2.97-3.71-3.38-4.72-.14.72-.66,2.95-2.7,4.72-2.52,2.19-5.48,2.06-6.07,2.03.02-1.35.22-3.6,1.35-6.08.84-1.84,1.89-3.18,2.7-4.05-1.14-.09-2.87-.39-4.73-1.35-3.22-1.66-4.81-4.28-5.4-5.4,1.2-.43,3.67-1.14,6.75-.68,2.52.38,4.37,1.37,5.4,2.02Z"/>
        <path class="cls-6" d="M124.08,13.16c-.17-.5-.64-2.06,0-3.85.42-1.18,1.13-1.94,1.54-2.31.46.4,1.06,1.03,1.54,1.93.96,1.79.86,3.52.77,4.24.38-.33,1.17-.92,2.31-1.16,1.96-.4,3.5.54,3.85.77-.36.56-1.08,1.52-2.31,2.31-1.24.8-2.42,1.06-3.08,1.16.42.37,1.48,1.38,1.93,3.08.36,1.38.14,2.53,0,3.08-.62-.14-1.87-.5-3.08-1.54-1.15-.99-1.69-2.11-1.93-2.7-.08.41-.38,1.68-1.54,2.7-1.44,1.25-3.12,1.18-3.47,1.16.01-.77.13-2.05.77-3.47.48-1.05,1.08-1.82,1.54-2.31-.65-.05-1.64-.22-2.7-.77-1.84-.95-2.74-2.44-3.08-3.08.69-.25,2.09-.65,3.85-.39,1.44.21,2.49.78,3.08,1.16Z"/>
        <circle class="cls-4" cx="127.43" cy="114.5" r="2.5"/>
        <circle class="cls-4" cx="127.43" cy="126.5" r="2.5"/>
      </g>
      <line class="cls-2" x1="194.72" y1="167.5" x2="212.49" y2="127.85"/>
      <polygon class="cls-3" points="218.37 139.11 212.34 129.27 201.13 131.96 208.62 123.19 202.59 113.36 213.25 117.77 220.74 109 219.83 120.5 230.49 124.91 219.27 127.61 218.37 139.11"/>
      <polygon class="cls-9" points="216.11 131.14 213.24 126.46 207.9 127.74 211.46 123.56 208.59 118.88 213.67 120.98 217.24 116.8 216.81 122.28 221.88 124.38 216.54 125.67 216.11 131.14"/>
      <g>
        <polygon class="cls-8" points="234.34 102.45 231.86 102.65 231.28 105.07 230.32 102.77 227.83 102.97 229.73 101.35 228.77 99.04 230.9 100.34 232.79 98.72 232.21 101.15 234.34 102.45"/>
        <polygon class="cls-8" points="243.16 106.17 240.49 105.25 238.79 107.51 238.83 104.69 236.16 103.77 238.86 102.94 238.91 100.12 240.53 102.43 243.23 101.6 241.54 103.86 243.16 106.17"/>
        <polygon class="cls-8" points="238.53 97.6 236.62 96.94 235.4 98.56 235.43 96.53 233.51 95.87 235.45 95.28 235.49 93.25 236.65 94.91 238.59 94.32 237.37 95.94 238.53 97.6"/>
        <polygon class="cls-8" points="234.52 110.95 233.17 110.49 232.32 111.62 232.34 110.2 231 109.74 232.36 109.33 232.38 107.9 233.2 109.07 234.55 108.65 233.7 109.79 234.52 110.95"/>
      </g>
      <g>
        <polygon class="cls-8" points="211.02 96.68 208.79 95.55 207.03 97.32 207.41 94.85 205.19 93.73 207.65 93.33 208.04 90.87 209.18 93.09 211.64 92.69 209.88 94.46 211.02 96.68"/>
        <polygon class="cls-8" points="216.59 104.46 214.79 102.28 212.16 103.32 213.67 100.94 211.88 98.76 214.61 99.46 216.13 97.08 216.3 99.9 219.04 100.6 216.41 101.64 216.59 104.46"/>
        <polygon class="cls-8" points="217.12 94.74 215.83 93.17 213.95 93.92 215.03 92.21 213.74 90.64 215.71 91.15 216.79 89.44 216.92 91.46 218.88 91.97 217 92.71 217.12 94.74"/>
        <polygon class="cls-8" points="206.72 104.02 205.82 102.93 204.49 103.45 205.26 102.25 204.35 101.15 205.73 101.51 206.49 100.31 206.58 101.73 207.95 102.08 206.63 102.6 206.72 104.02"/>
      </g>
    </g>
  </g>
</svg>