<?xml version="1.0" encoding="UTF-8"?>
<svg id="Calque_2" data-name="Calque 2" xmlns="http://www.w3.org/2000/svg" viewBox="0 0 261.87 300">
  <defs>
    <style>
      .cls-1 {
        stroke: #000;
        stroke-miterlimit: 10;
        stroke-width: 2.21px;
      }

      .cls-1, .cls-2 {
        fill: none;
      }

      .cls-1, .cls-2, .cls-3 {
        stroke-linecap: round;
      }

      .cls-2 {
        stroke: #a53434;
        stroke-width: 6px;
      }

      .cls-2, .cls-3 {
        stroke-linejoin: round;
      }

      .cls-4 {
        fill: #d39281;
      }

      .cls-3 {
        stroke: #c64242;
        stroke-width: 2px;
      }

      .cls-3, .cls-5 {
        fill: #a53434;
      }

      .cls-6 {
        fill: #3d1604;
      }

      .cls-7 {
        fill: #e29696;
      }

      .cls-8 {
        fill: #d87c7c;
      }

      .cls-9 {
        fill: #c18174;
      }

      .cls-10 {
        fill: #c64242;
      }

      .cls-11 {
        fill: #763c17;
      }
    </style>
  </defs>
  <g id="Calque_1-2" data-name="Calque 1">
    <g>
      <ellipse class="cls-7" cx="187.43" cy="113.7" rx="87" ry="31" transform="translate(-31.59 122.99) rotate(-33.67)"/>
      <ellipse class="cls-7" cx="74.43" cy="114.7" rx="31" ry="87" transform="translate(-62.29 113.05) rotate(-56.33)"/>
      <g>
        <ellipse class="cls-8" cx="177.13" cy="119.48" rx="72.8" ry="25.94" transform="translate(-36.53 118.25) rotate(-33.67)"/>
        <ellipse class="cls-8" cx="82.57" cy="120.32" rx="25.94" ry="72.8" transform="translate(-63.34 122.33) rotate(-56.33)"/>
      </g>
      <g>
        <ellipse class="cls-7" cx="164.72" cy="156.88" rx="20.13" ry="56.5" transform="translate(-57.16 206.99) rotate(-56.33)"/>
        <ellipse class="cls-7" cx="86.34" cy="157.23" rx="56.5" ry="20.13" transform="translate(-72.69 74.25) rotate(-33.67)"/>
      </g>
      <g>
        <path class="cls-8" d="M199.49,180.8c5.26-7.9-7.87-33.32-30.05-48.1-22.18-14.78-45-13.31-50.27-5.41s8.45,26.29,30.63,41.06c22.18,14.78,44.43,20.35,49.69,12.44Z"/>
        <path class="cls-8" d="M52.22,181.1c-5.26-7.9,10.03-32.62,32.21-47.4s42.84-14.01,48.11-6.11c5.26,7.9-8.45,26.29-30.63,41.06-22.18,14.78-44.43,20.35-49.69,12.44Z"/>
      </g>
      <path class="cls-4" d="M70.54,163.55c-.26.5-.65,1.03-1.21,1.04-.71,0-1.1-.81-1.27-1.5-.38-1.55-.55-3.16-.5-4.76-1.89,3.45-4.95,6.25-8.56,7.82-.86-.68-.22-2.04.46-2.9,1.21-1.54,2.42-3.07,3.63-4.61-2.16,1.94-4.53,3.98-7.42,4.24-.22.02-.46.03-.65-.08-.64-.35-.23-1.32.23-1.88,1.4-1.68,2.8-3.35,4.19-5.03-2.18,1.37-4.5,2.78-7.07,2.82-.28,0-.58-.02-.78-.22-.27-.28-.17-.75.01-1.09,1.05-1.95,3.94-2.17,5.2-3.99-1.4.04-2.79.08-4.19.13-.49.01-1,.02-1.43-.19s-.76-.74-.59-1.19c.11-.29.37-.48.63-.64,1.36-.91,2.76-1.75,4.2-2.51,1.06-.56,2.24-1.1,3.43-.91.86.13,1.62.63,2.35,1.12,3.49,2.34,6.98,4.68,10.46,7.02"/>
      <path class="cls-4" d="M189.43,154.7c-.73,1.58-1.77,4.09-1.58,5.82.07.65.31,1.41.95,1.58.88.23,1.49-.85,1.76-1.73.42-1.39.83-2.79,1.25-4.18,1.06,2.21,2.62,4.18,4.53,5.72.31.25.66.49,1.05.47.55-.04.93-.63.93-1.18s-.26-1.06-.52-1.55c-.64-1.2-1.28-2.4-1.92-3.61.94.5,1.46,1.53,1.9,2.5s.91,2.01,1.8,2.59,2.35.41,2.72-.59c.25-.68-.08-1.43-.41-2.08-.73-1.45-1.46-2.9-2.19-4.34,1.02.84,2.04,1.68,3.06,2.52.84.69,1.93,1.42,2.92.97,1.26-.57,1.04-2.51.15-3.57s-2.22-1.73-2.92-2.91c1.3.6,2.6,1.21,3.9,1.81.73.34,1.58.68,2.32.36.83-.37,1.11-1.48.83-2.35s-.98-1.52-1.67-2.11c-1.7-1.44-9.52-4.29-9.83-4.13"/>
      <path class="cls-10" d="M89.26,288.98c-1.85.93-3.71,1.85-5.56,2.78-.72.99-1.44,1.97-2.16,2.96v5.28h34.64l-1.48-10.64c-8.48-.13-16.96-.26-25.45-.38Z"/>
      <path class="cls-10" d="M176.35,284.35c2.16,1.24,4.33,2.47,6.49,3.71,1.24,1.24,2.47,2.47,3.71,3.71v8.24h-34.01c-.09-3.98-.19-7.97-.28-11.95,8.03-1.24,16.06-2.47,24.1-3.71Z"/>
      <path class="cls-4" d="M157.69,127.71l-.1-.1c.98,3.61,1.97,7.74,2.92,12.18.08.37.16.74.24,1.12.15.68.29,1.37.44,2.06.1.48.2.97.3,1.46.1.48.2.96.29,1.44.15.77.31,1.55.46,2.32.16.78.31,1.57.46,2.35.1.49.19.99.28,1.49.15.8.3,1.61.45,2.42,2.24,12.12,4.18,24.5,5.47,33.24,1.08,7.27,1.71,12.02,1.71,12.02,3.84,29.08,5.85,57.89,9.82,86.99-11.94,1-16.06,2-28,3l-25-72-13,72-25-1-1.85-88.01s.42-6.09,1.18-14.99c.53-6.18,1.23-13.71,2.05-21.5.05-.52.11-1.04.17-1.56.01-.12.02-.24.04-.36.89-8.22,1.92-16.63,3.07-23.96.02-.15.04-.3.07-.45.48-3.07.98-5.93,1.5-8.51-.04.06-.09.12-.13.17-7.69,9.99-12.37,11.86-24.1,27.17l-13-8c14.27-17.9,26.54-35.91,40.15-53.84,1.4-1.85,2.81-3.69,4.25-5.54,1.37-1.77,2.76-3.54,4.17-5.31,12.5.29,25,.58,37.5.87,1.86,1.83,3.69,3.69,5.48,5.56,1.79,1.83,3.53,3.68,5.25,5.54,15.26,16.44,29.11,33.87,45.2,49.72-5.52,4.66-5.48,5.35-11,10-9.85-9.86-21.88-18.14-31.74-27.99Z"/>
      <path class="cls-4" d="M178.11,46.46c0,25.6-22.74,46.36-50.79,46.36-12.13,0-23.27-3.89-32.01-10.38-11.45-8.49-18.77-21.46-18.77-35.98,0-18.17,11.45-33.9,28.12-41.51,7.8-3.27,15.2-4.37,19.32-4.75.05,0,.11-.01.17-.02,1.05-.06,2.11-.09,3.17-.09,28.05,0,50.79,20.76,50.79,46.37Z"/>
      <circle cx="115.18" cy="47.56" r="4.42"/>
      <circle cx="138.37" cy="47.56" r="4.42"/>
      <path class="cls-1" d="M117.39,64.12c1.53,4.42,5.85,7.19,10.26,6.71,3.86-.42,7.16-3.26,8.27-7.16"/>
      <path class="cls-9" d="M126.22,51.97c1.78.25,3.14,1.66,3.31,3.31.2,1.91-1.23,3.78-3.31,4.1"/>
      <path class="cls-6" d="M179.21,46.35c-3.5.24-10.37.45-18.77-1.19-7.33-1.43-15.84-4.27-24.29-9.75-11.97-7.76-18.74-17.49-22.08-23.18L127.34,0c2.89-.04,27.87,0,42.6,19.9,5.58,7.55,7.81,15.4,8.7,21.11.34,2.11.49,3.94.57,5.34Z"/>
      <path class="cls-6" d="M75.07,46.35c3.5.24,10.37.45,18.77-1.19,7.33-1.43,15.84-4.27,24.29-9.75,11.97-7.76,18.74-17.49,22.08-23.18L126.94,0c-2.89-.04-27.87,0-42.6,19.9-5.58,7.55-7.81,15.4-8.7,21.11-.34,2.11-.49,3.94-.57,5.34Z"/>
      <path class="cls-10" d="M163.44,154.11c2.12,11.32,4.01,22.78,6,33.25-.18,0-.35,0-.53,0-26.4-.34-53.75-1.65-80.14-1.99h-.33c.77-6.95,1.54-14.19,2.38-21.5.05-.52.11-1.04.17-1.56.01-.12.02-.24.04-.36.92-8.03,1.92-16.12,3.07-23.96.02-.15.04-.3.07-.45.22-1.49.44-2.96.67-4.43-1.11.98-2.23,1.95-3.34,2.93-5.6-4.49-11.2-8.98-16.8-13.46,8.51-10.2,17.04-20.41,25.56-30.61.81-.98,1.62-1.95,2.44-2.93.01.03.02.06.03.09.04-.05.07-.09.11-.14,1.51,2.35,3.37,5.04,5.1,7.59,1.6,2.37,4.26,3.79,7.12,3.79h23.65c2.9,0,5.61-1.47,7.19-3.91,1.13-1.74,2.32-3.54,3.37-5.2.22-.35.43-.69.64-1.02,1.15,1.16,2.31,2.32,3.49,3.49.22.22.44.44.66.66,8.68,8.65,17.65,17.62,25.64,27.19-5.6,4.48-11.2,8.97-16.8,13.46-1.41-1.24-2.82-2.47-4.23-3.71.33,1.39.65,2.79.97,4.2.3,1.29.59,2.59.88,3.93.08.37.16.74.24,1.12.15.68.29,1.37.44,2.06.1.48.2.97.3,1.46.09.48.19.96.29,1.44.15.77.31,1.55.46,2.32.16.78.31,1.57.46,2.35.1.49.19.99.28,1.49.15.8.3,1.61.45,2.42Z"/>
      <path class="cls-5" d="M153.4,93.72c-1.22,5.48-5,8.37-5,8.37-1.84,1.41-3.76,2.02-5.29,2.27h-31.76c-3.57-.7-5.44-2.35-6.36-3.4-.89-1.02-1.65-2.57-3.17-5.67-.44-.91-.98-2.04-1.39-2.95-.06-.13-.12-.26-.17-.38.81-.98,1.62-1.95,2.44-2.93.01.03.02.06.03.09.04-.05.07-.09.11-.14,1.51,2.35,3.37,5.04,5.1,7.59,1.6,2.37,4.26,3.79,7.12,3.79h23.65c2.9,0,5.61-1.47,7.19-3.91,1.13-1.74,2.32-3.54,3.37-5.2.22-.35.43-.69.64-1.02,1.15,1.16,2.31,2.32,3.49,3.49Z"/>
      <path class="cls-5" d="M88.7,185.36c-2.65,6.66-5.32,15.08-7,25-2.29,13.55-1.95,25.29-1,34h43c1.33-5,2.67-10,4-15,1.67,5,3.33,10,5,15,15.67-.33,31.33-.67,47-1,.55-7.91.49-18.64-2-31-2.25-11.16-5.79-20.27-9-27h-80Z"/>
      <path class="cls-11" d="M81.38,189.68c-2.76,9.52-5.35,17.01-7.13,21.94-3.92,10.8-5.96,14.73-3.86,18.72,2.32,4.41,8.82,7.2,13.21,5.33,2.95-1.26,4.14-4.27,5.55-7.96,2.88-7.56,1.53-11.94,2.87-20.22.53-3.26,1.61-7.94,4.08-13.47-4.91-1.45-9.81-2.89-14.72-4.34Z"/>
      <path class="cls-11" d="M92.7,194.36c6.47-6.87,11.92-12.66,16-17,18.73-19.92,22.67-24.06,28-31,6.69-8.71,11.25-14.65,16-24,4.03-7.94,6.5-14.98,8-20-1.67-2-3.33-4-5-6-8.97,14.32-19.25,29.43-31,45-14.22,18.84-28.44,35.46-42,50,3.33,1,6.67,2,10,3Z"/>
      <g>
        <line class="cls-2" x1="196.87" y1="161.92" x2="214.64" y2="122.28"/>
        <polygon class="cls-3" points="220.52 133.53 214.5 123.7 203.28 126.39 210.77 117.62 204.74 107.78 215.4 112.2 222.89 103.42 221.99 114.92 232.64 119.34 221.43 122.03 220.52 133.53"/>
        <polygon class="cls-10" points="218.26 125.57 215.39 120.88 210.05 122.17 213.62 117.99 210.75 113.3 215.82 115.41 219.39 111.23 218.96 116.71 224.04 118.81 218.69 120.09 218.26 125.57"/>
      </g>
    </g>
  </g>
</svg>