<?xml version="1.0" encoding="UTF-8"?>
<svg id="Calque_2" data-name="Calque 2" xmlns="http://www.w3.org/2000/svg" viewBox="0 0 261.87 328.37">
  <defs>
    <style>
      .cls-1 {
        stroke: #000;
        stroke-miterlimit: 10;
        stroke-width: 2.21px;
      }

      .cls-1, .cls-2 {
        fill: none;
      }

      .cls-1, .cls-2, .cls-3 {
        stroke-linecap: round;
      }

      .cls-2 {
        stroke-width: 6px;
      }

      .cls-2, .cls-3 {
        stroke: #6dcbff;
        stroke-linejoin: round;
      }

      .cls-4 {
        fill: #f58ea1;
      }

      .cls-5 {
        fill: #c8e5ed;
      }

      .cls-3 {
        stroke-width: 2px;
      }

      .cls-3, .cls-6 {
        fill: #bbe8fd;
      }

      .cls-7 {
        fill: #e4eef2;
      }

      .cls-8 {
        fill: #6dcbff;
      }

      .cls-9 {
        fill: #f8b9c4;
      }
    </style>
  </defs>
  <g id="Calque_1-2" data-name="Calque 1">
    <g>
      <g>
        <ellipse class="cls-7" cx="187.43" cy="142.06" rx="87" ry="31" transform="translate(-47.32 127.75) rotate(-33.67)"/>
        <ellipse class="cls-7" cx="74.43" cy="143.06" rx="31" ry="87" transform="translate(-85.89 125.69) rotate(-56.33)"/>
      </g>
      <g>
        <ellipse class="cls-5" cx="177.13" cy="147.84" rx="72.8" ry="25.94" transform="translate(-52.25 123.01) rotate(-33.67)"/>
        <ellipse class="cls-5" cx="82.57" cy="148.68" rx="25.94" ry="72.8" transform="translate(-86.95 134.97) rotate(-56.33)"/>
      </g>
      <g>
        <ellipse class="cls-7" cx="164.72" cy="185.24" rx="20.13" ry="56.5" transform="translate(-80.77 219.63) rotate(-56.33)"/>
        <ellipse class="cls-7" cx="86.34" cy="185.59" rx="56.5" ry="20.13" transform="translate(-88.41 79) rotate(-33.67)"/>
      </g>
      <g>
        <path class="cls-5" d="M199.49,209.16c5.26-7.9-7.87-33.32-30.05-48.1-22.18-14.78-45-13.31-50.27-5.41-5.26,7.9,8.45,26.29,30.63,41.06,22.18,14.78,44.43,20.35,49.69,12.44Z"/>
        <path class="cls-5" d="M52.22,209.46c-5.26-7.9,10.03-32.62,32.21-47.4,22.18-14.78,42.84-14.01,48.11-6.11s-8.45,26.29-30.63,41.06-44.43,20.35-49.69,12.44Z"/>
      </g>
      <path class="cls-9" d="M70.54,191.91c-.26.5-.65,1.03-1.21,1.04-.71,0-1.1-.81-1.27-1.5-.38-1.55-.55-3.16-.5-4.76-1.89,3.45-4.95,6.25-8.56,7.82-.86-.68-.22-2.04.46-2.9,1.21-1.54,2.42-3.07,3.63-4.61-2.16,1.94-4.53,3.98-7.42,4.24-.22.02-.46.03-.65-.08-.64-.35-.23-1.32.23-1.88,1.4-1.68,2.8-3.35,4.19-5.03-2.18,1.37-4.5,2.78-7.07,2.82-.28,0-.58-.02-.78-.22-.27-.28-.17-.75.01-1.09,1.05-1.95,3.94-2.17,5.2-3.99-1.4.04-2.79.08-4.19.13-.49.01-1,.02-1.43-.19s-.76-.74-.59-1.19c.11-.29.37-.48.63-.64,1.36-.91,2.76-1.75,4.2-2.51,1.06-.56,2.24-1.1,3.43-.91.86.13,1.62.63,2.35,1.12,3.49,2.34,6.98,4.68,10.46,7.02"/>
      <path class="cls-9" d="M189.43,183.06c-.73,1.58-1.77,4.09-1.58,5.82.07.65.31,1.41.95,1.58.88.23,1.49-.85,1.76-1.73.42-1.39.83-2.79,1.25-4.18,1.06,2.21,2.62,4.18,4.53,5.72.31.25.66.49,1.05.47.55-.04.93-.63.93-1.18s-.26-1.06-.52-1.55c-.64-1.2-1.28-2.4-1.92-3.61.94.5,1.46,1.53,1.9,2.5s.91,2.01,1.8,2.59c.89.58,2.35.41,2.72-.59.25-.68-.08-1.43-.41-2.08-.73-1.45-1.46-2.9-2.19-4.34,1.02.84,2.04,1.68,3.06,2.52.84.69,1.93,1.42,2.92.97,1.26-.57,1.04-2.51.15-3.57-.89-1.06-2.22-1.73-2.92-2.91,1.3.6,2.6,1.21,3.9,1.81.73.34,1.58.68,2.32.36.83-.37,1.11-1.48.83-2.35s-.98-1.52-1.67-2.11c-1.7-1.44-9.52-4.29-9.83-4.13"/>
      <path class="cls-8" d="M89.26,317.34c-1.85.93-3.71,1.85-5.56,2.78-.72.99-1.44,1.97-2.16,2.96v5.28h34.64l-1.48-10.64c-8.48-.13-16.96-.26-25.45-.38Z"/>
      <path class="cls-8" d="M176.35,312.71c2.16,1.24,4.33,2.47,6.49,3.71,1.24,1.24,2.47,2.47,3.71,3.71v8.24h-34.01c-.09-3.98-.19-7.97-.28-11.95,8.03-1.24,16.06-2.47,24.1-3.71Z"/>
      <path class="cls-9" d="M157.69,156.07l-.1-.1c.98,3.61,1.97,7.74,2.92,12.18.08.37.16.74.24,1.12.15.68.29,1.37.44,2.06.1.48.2.97.3,1.46.1.48.2.96.29,1.44.15.77.31,1.55.46,2.32.16.78.31,1.57.46,2.35.1.49.19.99.28,1.49.15.8.3,1.61.45,2.42,2.24,12.12,4.18,24.5,5.47,33.24,1.08,7.27,1.71,12.02,1.71,12.02,3.84,29.08,5.85,57.89,9.82,86.99-11.94,1-16.06,2-28,3l-25-72-13,72-25-1-1.85-88.01s.42-6.09,1.18-14.99c.53-6.18,1.23-13.71,2.05-21.5.05-.52.11-1.04.17-1.56.01-.12.02-.24.04-.36.89-8.22,1.92-16.63,3.07-23.96.02-.15.04-.3.07-.45.48-3.07.98-5.93,1.5-8.51-.04.06-.09.12-.13.17-7.69,9.99-12.37,11.86-24.1,27.17l-13-8c14.27-17.9,26.54-35.91,40.15-53.84,1.4-1.85,2.81-3.69,4.25-5.54,1.37-1.77,2.76-3.54,4.17-5.31,12.5.29,25,.58,37.5.87,1.86,1.83,3.69,3.69,5.48,5.56,1.79,1.83,3.53,3.68,5.25,5.54,15.26,16.44,29.11,33.87,45.2,49.72-5.52,4.66-5.48,5.35-11,10-9.85-9.86-21.88-18.14-31.74-27.99Z"/>
      <path class="cls-9" d="M178.11,74.82c0,25.6-22.74,46.36-50.79,46.36-12.13,0-23.27-3.89-32.01-10.38-11.45-8.49-18.77-21.46-18.77-35.98,0-5.93,1.22-11.6,3.45-16.82,4.58-10.76,13.44-19.57,24.67-24.69,7.8-3.27,15.2-4.37,19.32-4.75.05,0,.11-.01.17-.02,1.05-.06,2.11-.09,3.17-.09,21.55,0,39.97,12.25,47.34,29.55,2.23,5.21,3.45,10.89,3.45,16.82Z"/>
      <circle class="cls-4" cx="99.87" cy="94.84" r="10.89"/>
      <circle class="cls-4" cx="157.28" cy="94.84" r="10.89"/>
      <circle cx="115.18" cy="75.92" r="4.42"/>
      <circle cx="138.37" cy="75.92" r="4.42"/>
      <path class="cls-1" d="M117.39,92.48c1.53,4.42,5.85,7.19,10.26,6.71,3.86-.42,7.16-3.26,8.27-7.16"/>
      <path class="cls-4" d="M126.22,80.34c1.78.25,3.14,1.66,3.31,3.31.2,1.91-1.23,3.78-3.31,4.1"/>
      <g>
        <polygon class="cls-8" points="233.84 125.51 231.36 125.71 230.78 128.13 229.82 125.83 227.33 126.03 229.23 124.41 228.27 122.1 230.4 123.4 232.29 121.78 231.71 124.21 233.84 125.51"/>
        <polygon class="cls-8" points="242.66 129.23 239.99 128.32 238.29 130.57 238.33 127.75 235.66 126.83 238.36 126 238.41 123.18 240.03 125.49 242.73 124.66 241.04 126.92 242.66 129.23"/>
        <polygon class="cls-8" points="238.03 120.66 236.12 120 234.9 121.62 234.93 119.59 233.01 118.93 234.95 118.34 234.99 116.31 236.15 117.97 238.09 117.38 236.87 119 238.03 120.66"/>
        <polygon class="cls-8" points="234.02 134.01 232.67 133.55 231.82 134.69 231.84 133.26 230.5 132.8 231.86 132.39 231.88 130.96 232.7 132.13 234.05 131.71 233.2 132.85 234.02 134.01"/>
      </g>
      <g>
        <polygon class="cls-8" points="210.52 119.74 208.29 118.61 206.53 120.38 206.91 117.92 204.69 116.79 207.15 116.39 207.54 113.93 208.68 116.15 211.14 115.75 209.38 117.52 210.52 119.74"/>
        <polygon class="cls-8" points="216.09 127.52 214.29 125.35 211.66 126.38 213.17 124 211.38 121.82 214.11 122.52 215.63 120.14 215.8 122.96 218.54 123.67 215.91 124.7 216.09 127.52"/>
        <polygon class="cls-8" points="216.62 117.8 215.33 116.23 213.45 116.98 214.53 115.27 213.24 113.7 215.21 114.21 216.29 112.5 216.42 114.52 218.38 115.03 216.5 115.77 216.62 117.8"/>
        <polygon class="cls-8" points="206.22 127.08 205.32 125.99 203.99 126.51 204.76 125.31 203.85 124.21 205.23 124.57 205.99 123.37 206.08 124.79 207.45 125.14 206.13 125.67 206.22 127.08"/>
      </g>
      <path class="cls-8" d="M177.04,65h-100c4-13,13-25,26.06-30.91,8.38-3.8,16.06-5.47,20.41-5.95.05,0,.12-.01.18-.03,1.11-.08,2.23-.11,3.35-.11,22.76,0,45.01,14,50.01,37Z"/>
      <circle class="cls-8" cx="127.04" cy="20" r="20"/>
      <path class="cls-8" d="M169.04,215c-26.67.33-53.33.67-80,1,.15-9.2.73-19.25,2-30,1.66-14.11,4.18-26.84,7-38,19.67.33,39.33.67,59,1,2.09,9.73,4.1,19.73,6,30,2.27,12.31,4.26,24.32,6,36Z"/>
      <path class="cls-6" d="M174.1,146.62c-3.56,5.98-12.58,10.4-20.91,8.01-3.33-.96-5.78-2.79-7.58-4.82.77,3.94.24,7.82-1.62,11.01-3.59,6.12-12.66,10.67-21.07,8.22-10-2.93-12.09-13.78-12.27-14.79-.13-.66-.38-2.4-.24-4.66-4.07,3.73-10.24,5.85-16.07,4.02-9.13-2.85-11.05-13.42-11.21-14.42-.27-1.62-1.41-9.93,4.81-16.02,3.64-3.56,7.99-4.58,10.98-4.83,1.88-.15,3.75.3,5.32,1.34.7.47,1.52.98,2.45,1.52.02.02.05.03.06.05,10.66,6.34,18.99,7.1,24.45,6.73,14.57-.98,23.25-10.98,33.64-6.41,4.04,1.77,6.31,4.86,7.12,5.99.39.55,7.38,10.25,2.14,19.07Z"/>
      <path class="cls-6" d="M89.04,215c-7.05,5.49-30.62,25.22-33,56-.51,6.58.03,12.63,1.07,17.94,5.47-.8,12.86-2.53,20.93-6.37,5.54-2.64,9.94-5.61,13.28-8.22-1.19,3.13-2.83,8.71-2.28,15.73.61,7.72,3.57,13.43,5.39,16.38,5.05-1.16,15.29-4.21,24.61-12.63,6.25-5.64,9.76-11.59,11.68-15.59,1.46,3.37,4.67,9.43,11.32,14.65,10.5,8.24,22.35,8.69,26,8.7,1.2-2.51,2.87-6.85,3-12.45.14-6.33-1.76-11.22-3-13.82,1.79,2.41,6.16,7.63,14,11,8.45,3.63,16.09,3.03,19.18,2.62.56-6.45.51-14.28-1.18-22.94-5.31-27.32-23.22-44.42-31-51h-80Z"/>
      <path class="cls-8" d="M100.04,219c-13.84,16.03-25.29,34.09-33.57,53.59-1.21,2.77-2.33,5.59-3.43,8.41,7.31-23.14,20.11-44.59,37-62h0Z"/>
      <path class="cls-8" d="M99.54,295.5c2.25-25.68,9.42-50.97,21-74-10.34,23.58-17.41,48.5-21,74h0Z"/>
      <path class="cls-8" d="M162.54,293.5c-4.01-24.44-11.07-48.31-21-71,11.17,22.14,18.33,46.35,21,71h0Z"/>
      <path class="cls-8" d="M164.54,221.5c13.04,14.53,22.61,32.14,28,50.89.74,2.69,1.44,5.39,2,8.11-.78-2.67-1.57-5.34-2.47-7.97-6.05-18.49-15.52-35.75-27.53-51.03h0Z"/>
      <path class="cls-9" d="M102.54,66c.25-1.75.85-4.37,2.4-7.2,1.17-2.14,2.52-3.72,3.6-4.8-.58,1.35-1.46,3.93-1.2,7.2.16,2.04.71,3.68,1.2,4.8h-6Z"/>
      <path class="cls-9" d="M118.93,66c.27-1.89.92-4.74,2.6-7.8,1.27-2.32,2.73-4.03,3.9-5.2-.63,1.46-1.58,4.26-1.3,7.8.18,2.21.77,3.99,1.3,5.2h-6.5Z"/>
      <path class="cls-9" d="M151.73,66c-.21-1.46-.71-3.64-2-6-.98-1.78-2.1-3.1-3-4,.48,1.13,1.22,3.27,1,6-.13,1.7-.59,3.07-1,4,1.67,0,3.33,0,5,0Z"/>
      <g>
        <path class="cls-7" d="M140.3,40.95l-11.36-2.92v-14.43l11.41-2.56c1.39-.31,2.65,1.2,2.65,3.19v13.54c0,2.01-1.29,3.54-2.7,3.18Z"/>
        <path class="cls-7" d="M113.74,40.95l11.36-2.92v-14.43s-11.41-2.56-11.41-2.56c-1.39-.31-2.65,1.2-2.65,3.19v13.54c0,2.01,1.29,3.54,2.7,3.18Z"/>
        <ellipse class="cls-5" cx="127.02" cy="30.91" rx="4.47" ry="8.31"/>
      </g>
      <line class="cls-2" x1="196.3" y1="189.62" x2="214.07" y2="149.98"/>
      <polygon class="cls-3" points="219.96 161.23 213.93 151.39 202.71 154.08 210.2 145.31 204.18 135.48 214.83 139.89 222.33 131.12 221.42 142.62 232.08 147.04 220.86 149.73 219.96 161.23"/>
      <polygon class="cls-8" points="217.7 153.27 214.83 148.58 209.48 149.86 213.05 145.68 210.18 141 215.26 143.1 218.83 138.92 218.39 144.4 223.47 146.51 218.13 147.79 217.7 153.27"/>
    </g>
  </g>
</svg>