<?xml version="1.0" encoding="UTF-8"?>
<svg id="Calque_2" data-name="Calque 2" xmlns="http://www.w3.org/2000/svg" viewBox="0 0 262.87 300.39">
  <defs>
    <style>
      .cls-1 {
        stroke: #000;
        stroke-width: 2.21px;
      }

      .cls-1, .cls-2, .cls-3, .cls-4 {
        stroke-miterlimit: 10;
      }

      .cls-1, .cls-5, .cls-6 {
        stroke-linecap: round;
      }

      .cls-1, .cls-3, .cls-6 {
        fill: none;
      }

      .cls-2, .cls-7 {
        fill: #ede783;
      }

      .cls-2, .cls-3 {
        stroke: #fffb02;
      }

      .cls-5 {
        stroke-width: 2px;
      }

      .cls-5, .cls-8 {
        fill: #fffb02;
      }

      .cls-5, .cls-6 {
        stroke: #9bdb01;
        stroke-linejoin: round;
      }

      .cls-9 {
        fill: #8e683a;
      }

      .cls-10 {
        fill: #9bdb01;
      }

      .cls-11 {
        fill: #d8d068;
      }

      .cls-12 {
        fill: #684b2c;
      }

      .cls-13 {
        fill: #7c634c;
      }

      .cls-6 {
        stroke-width: 6px;
      }

      .cls-4 {
        fill: #fbdaeb;
        stroke: #eacadb;
      }

      .cls-14 {
        fill: #2b2920;
      }
    </style>
  </defs>
  <g id="Calque_1-2" data-name="Calque 1">
    <g>
      <g>
        <ellipse class="cls-2" cx="187.93" cy="114.08" rx="87" ry="31" transform="translate(-31.72 123.33) rotate(-33.67)"/>
        <ellipse class="cls-2" cx="74.93" cy="115.08" rx="31" ry="87" transform="translate(-62.39 113.64) rotate(-56.33)"/>
      </g>
      <g>
        <g>
          <ellipse class="cls-11" cx="177.63" cy="119.87" rx="72.8" ry="25.94" transform="translate(-36.66 118.59) rotate(-33.67)"/>
          <ellipse class="cls-3" cx="177.63" cy="119.87" rx="72.8" ry="25.94" transform="translate(-36.66 118.59) rotate(-33.67)"/>
        </g>
        <g>
          <ellipse class="cls-11" cx="83.07" cy="120.7" rx="25.94" ry="72.8" transform="translate(-63.44 122.92) rotate(-56.33)"/>
          <ellipse class="cls-3" cx="83.07" cy="120.7" rx="25.94" ry="72.8" transform="translate(-63.44 122.92) rotate(-56.33)"/>
        </g>
      </g>
      <g>
        <g>
          <ellipse class="cls-7" cx="165.22" cy="157.26" rx="20.13" ry="56.5" transform="translate(-57.26 207.58) rotate(-56.33)"/>
          <ellipse class="cls-3" cx="165.22" cy="157.26" rx="20.13" ry="56.5" transform="translate(-57.26 207.58) rotate(-56.33)"/>
        </g>
        <g>
          <ellipse class="cls-7" cx="86.84" cy="157.62" rx="56.5" ry="20.13" transform="translate(-72.82 74.59) rotate(-33.67)"/>
          <ellipse class="cls-3" cx="86.84" cy="157.62" rx="56.5" ry="20.13" transform="translate(-72.82 74.59) rotate(-33.67)"/>
        </g>
      </g>
      <g>
        <g>
          <path class="cls-11" d="M199.99,181.18c5.26-7.9-7.87-33.32-30.05-48.1-22.18-14.78-45-13.31-50.27-5.41-5.26,7.9,8.45,26.29,30.63,41.06,22.18,14.78,44.43,20.35,49.69,12.44Z"/>
          <path class="cls-3" d="M199.99,181.18c5.26-7.9-7.87-33.32-30.05-48.1-22.18-14.78-45-13.31-50.27-5.41-5.26,7.9,8.45,26.29,30.63,41.06,22.18,14.78,44.43,20.35,49.69,12.44Z"/>
        </g>
        <g>
          <path class="cls-11" d="M52.72,181.48c-5.26-7.9,10.03-32.62,32.21-47.4,22.18-14.78,42.84-14.01,48.11-6.11s-8.45,26.29-30.63,41.06c-22.18,14.78-44.43,20.35-49.69,12.44Z"/>
          <path class="cls-3" d="M52.72,181.48c-5.26-7.9,10.03-32.62,32.21-47.4,22.18-14.78,42.84-14.01,48.11-6.11s-8.45,26.29-30.63,41.06c-22.18,14.78-44.43,20.35-49.69,12.44Z"/>
        </g>
      </g>
      <path class="cls-12" d="M71.04,163.93c-.26.5-.65,1.03-1.21,1.04-.71,0-1.1-.81-1.27-1.5-.38-1.55-.55-3.16-.5-4.76-1.89,3.45-4.95,6.25-8.56,7.82-.86-.68-.22-2.04.46-2.9,1.21-1.54,2.42-3.07,3.63-4.61-2.16,1.94-4.53,3.98-7.42,4.24-.22.02-.46.03-.65-.08-.64-.35-.23-1.32.23-1.88,1.4-1.68,2.8-3.35,4.19-5.03-2.18,1.37-4.5,2.78-7.07,2.82-.28,0-.58-.02-.78-.22-.27-.28-.17-.75.01-1.09,1.05-1.95,3.94-2.17,5.2-3.99-1.4.04-2.79.08-4.19.13-.49.01-1,.02-1.43-.19s-.76-.74-.59-1.19c.11-.29.37-.48.63-.64,1.36-.91,2.76-1.75,4.2-2.51,1.06-.56,2.24-1.1,3.43-.91.86.13,1.62.63,2.35,1.12,3.49,2.34,6.98,4.68,10.46,7.02"/>
      <path class="cls-9" d="M189.93,155.08c-.73,1.58-1.77,4.09-1.58,5.82.07.65.31,1.41.95,1.58.88.23,1.49-.85,1.76-1.73.42-1.39.83-2.79,1.25-4.18,1.06,2.21,2.62,4.18,4.53,5.72.31.25.66.49,1.05.47.55-.04.93-.63.93-1.18s-.26-1.06-.52-1.55c-.64-1.2-1.28-2.4-1.92-3.61.94.5,1.46,1.53,1.9,2.5s.91,2.01,1.8,2.59,2.35.41,2.72-.59c.25-.68-.08-1.43-.41-2.08-.73-1.45-1.46-2.9-2.19-4.34,1.02.84,2.04,1.68,3.06,2.52.84.69,1.93,1.42,2.92.97,1.26-.57,1.04-2.51.15-3.57s-2.22-1.73-2.92-2.91c1.3.6,2.6,1.21,3.9,1.81.73.34,1.58.68,2.32.36.83-.37,1.11-1.48.83-2.35s-.98-1.52-1.67-2.11c-1.7-1.44-9.52-4.29-9.83-4.13"/>
      <polyline points="170.88 44.41 170.88 110.93 81.58 110.93 81.58 46.62"/>
      <path class="cls-10" d="M89.76,289.37c-1.85.93-3.71,1.85-5.56,2.78-.72.99-1.44,1.97-2.16,2.96v5.28h34.64l-1.48-10.64c-8.48-.13-16.96-.26-25.45-.38Z"/>
      <path class="cls-10" d="M176.85,284.73c2.16,1.24,4.33,2.47,6.49,3.71,1.24,1.24,2.47,2.47,3.71,3.71v8.24h-34.01c-.09-3.98-.19-7.97-.28-11.95,8.03-1.24,16.06-2.47,24.1-3.71Z"/>
      <path class="cls-12" d="M158.19,128.09l-.1-.1c.98,3.61,1.97,7.74,2.92,12.18.08.37.16.74.24,1.12.15.68.29,1.37.44,2.06.1.48.2.97.3,1.46.1.48.2.96.29,1.44.15.77.31,1.55.46,2.32.16.78.31,1.57.46,2.35.1.49.19.99.28,1.49.15.8.3,1.61.45,2.42,2.24,12.12,4.18,24.5,5.47,33.24,1.08,7.27,1.71,12.02,1.71,12.02,3.84,29.08,5.85,57.89,9.82,86.99-11.94,1-16.06,2-28,3l-25-72-13,72-25-1-1.85-88.01s.42-6.09,1.18-14.99c.53-6.18,1.23-13.71,2.05-21.5.05-.52.11-1.04.17-1.56.01-.12.02-.24.04-.36.89-8.22,1.92-16.63,3.07-23.96.02-.15.04-.3.07-.45.48-3.07.98-5.93,1.5-8.51-.04.06-.09.12-.13.17-7.69,9.99-12.37,11.86-24.1,27.17l-13-8c14.27-17.9,26.54-35.91,40.15-53.84,1.4-1.85,2.81-3.69,4.25-5.54,1.37-1.77,2.76-3.54,4.17-5.31,12.5.29,25,.58,37.5.87,1.86,1.83,3.69,3.69,5.48,5.56,1.79,1.83,3.53,3.68,5.25,5.54,15.26,16.44,29.11,33.87,45.2,49.72-5.52,4.66-5.48,5.35-11,10-9.85-9.86-21.88-18.14-31.74-27.99Z"/>
      <path class="cls-12" d="M178.61,46.84c0,25.6-22.74,46.36-50.79,46.36-12.13,0-23.27-3.89-32.01-10.38-11.45-8.49-18.77-21.46-18.77-35.98,0-18.17,11.45-33.9,28.12-41.51,7.8-3.27,15.2-4.37,19.32-4.75.05,0,.11-.01.17-.02,1.05-.06,2.11-.09,3.17-.09,28.05,0,50.79,20.76,50.79,46.37Z"/>
      <circle class="cls-13" cx="100.37" cy="66.86" r="10.89"/>
      <circle class="cls-13" cx="157.78" cy="66.86" r="10.89"/>
      <circle cx="115.68" cy="47.94" r="4.42"/>
      <circle cx="138.87" cy="47.94" r="4.42"/>
      <path class="cls-1" d="M117.89,64.5c1.53,4.42,5.85,7.19,10.26,6.71,3.86-.42,7.16-3.26,8.27-7.16"/>
      <path class="cls-13" d="M126.72,52.36c1.78.25,3.14,1.66,3.31,3.31.2,1.91-1.23,3.78-3.31,4.1"/>
      <path class="cls-14" d="M95.81,44.84v71.55h-18.77V39.38c.08-.45.18-.9.28-1.34,4.14-18.51,16.42-27.93,27.84-32.71,7.8-3.27,15.2-4.37,19.32-4.75.05,0,.11-.01.17-.02,2-.17,3.17-.17,3.17-.17v.08c.63,29.65-17.12,40.48-32.01,44.37Z"/>
      <path class="cls-14" d="M179.71,46.74c-3.5.24-10.37.45-18.77-1.19-7.33-1.43-15.84-4.27-24.29-9.75-11.97-7.76-18.74-17.49-22.08-23.18L127.84.39c2.89-.04,27.87,0,42.6,19.9,5.58,7.55,7.81,15.4,8.7,21.11.34,2.11.49,3.94.57,5.34Z"/>
      <path class="cls-14" d="M179.71,46.74v69.65h-18.77V43.81l18.2-2.41c.34,2.11.49,3.94.57,5.34Z"/>
      <path class="cls-8" d="M90.94,193.82c-5.26,5.72-9,13.95-16.47,30.41-3.71,8.16-5.8,13.98-3.8,20.27.22.71,2.75,8.29,8.87,10.14,6.9,2.08,16.68-3.63,21.54-15.2-.37,1.67-1.2,6.46,1.27,11.4,2.02,4.06,6.8,9.32,12.67,8.87,6.25-.48,9.82-7.16,11.4-10.14,1.56-2.93,2.23-5.66,2.53-7.6.68,2.62,2.51,8.15,7.6,12.67,2.54,2.25,6.62,5.87,11.4,5.07,6.44-1.08,9.41-9.38,10.14-11.4,1.29-3.59,1.38-6.81,1.27-8.87.78,2.21,2.26,5.54,5.07,8.87,2.75,3.26,6.07,7.18,11.4,7.6,4.3.34,8.81-1.69,11.4-5.07,3.6-4.7,2.47-10.65,1.27-16.47-1.42-6.87-3.77-10.8-8.87-20.27-10.28-19.08-8.65-17.8-11.4-21.54-3.24-4.4-10.95-14.88-22.8-19-20.63-7.17-43.62,8.45-54.48,20.27Z"/>
      <path class="cls-10" d="M178.59,212.74c-3.01.4-10.32.94-18-3-12.34-6.33-15.54-19.02-16-21,.36,1.64,2.4,11.62-4,20-3.04,3.99-6.78,6.02-9,7-2.49-.82-6.39-2.5-10-6-7.44-7.22-7.94-16.65-8-19-.07-2.69-2.61,15.37-12,22-6.11,4.31-14.21,3.4-20,2,.12-3.82.62-8.62,2-14,1.57-6.09,5.35-14.65,5.35-14.65.77-6.95,1.54-14.19,2.38-21.5.05-.52.11-1.04.17-1.56.01-.12.02-.24.04-.36.92-8.03,1.92-16.12,3.07-23.96.02-.15.04-.3.07-.45.4-2.76.82-5.49,1.27-8.17.03-.06.07-.11.1-.17,3.02-5.08,4.81-9.6,5.9-12.83,2.03-6.06,3.35-10.18,2-15-.89-3.17-3.52-5.46-4.85-6.84,1.4-1.85,2.81-3.69,4.25-5.54,1.51,2.35,3.37,5.04,5.1,7.59,1.6,2.37,4.26,3.79,7.12,3.79h23.65c2.9,0,5.61-1.47,7.19-3.91,1.4-2.15,2.88-4.39,4.09-6.35,1.79,1.83,3.53,3.68,5.25,5.54-2.33,3.29-3.55,7.18-3.55,11.11,0,2.2.39,4.42,1.17,6.54,1.61,4.36,3.25,8.71,4.58,13.07.09.34.18.67.26,1.01.68,2.65,1.32,5.38,1.94,8.15.3,1.28.59,2.58.88,3.93.08.37.16.74.24,1.12.15.68.29,1.37.44,2.06.1.48.2.97.3,1.46.09.48.19.96.29,1.44.15.77.31,1.55.46,2.32.16.78.31,1.57.46,2.35.1.49.19.99.28,1.49.15.8.3,1.61.45,2.42,2.12,11.32,4.01,22.78,6,33.25h-.1c1.85,2.56,4.02,6.12,5.75,10.65,2.12,5.55,2.8,10.5,3,14Z"/>
      <path class="cls-8" d="M94.93,21.38c1.84-2.01,13.49-14.3,32.5-14.3s30.66,12.29,32.5,14.3c-13.67-6.96-26.17-7.8-32.5-7.8s-18.83.84-32.5,7.8Z"/>
      <path class="cls-10" d="M108.3,10.07c-.45-.71-1.74-2.95-1.42-5.94.21-1.97,1.03-3.4,1.52-4.13.86.45,2.01,1.19,3.09,2.4,2.14,2.4,2.62,5.1,2.75,6.24.47-.66,1.45-1.85,3.13-2.64,2.87-1.34,5.6-.46,6.22-.24-.35,1-1.11,2.74-2.71,4.42-1.61,1.69-15.83,5.32-17.67,4.87-3.18-.78-5.13-2.75-5.89-3.61.97-.64,2.99-1.77,5.79-2.02,2.29-.2,4.13.28,5.18.64Z"/>
      <circle class="cls-4" cx="127.43" cy="109.58" r="2.5"/>
      <circle class="cls-4" cx="127.43" cy="121.58" r="2.5"/>
      <line class="cls-6" x1="194.72" y1="162.58" x2="212.49" y2="122.94"/>
      <polygon class="cls-5" points="218.37 134.19 212.34 124.36 201.13 127.05 208.62 118.28 202.59 108.44 213.25 112.86 220.74 104.08 219.83 115.58 230.49 120 219.27 122.69 218.37 134.19"/>
      <polygon class="cls-10" points="216.11 126.23 213.24 121.54 207.9 122.83 211.46 118.65 208.59 113.96 213.67 116.07 217.24 111.89 216.81 117.37 221.88 119.47 216.54 120.75 216.11 126.23"/>
      <g>
        <polygon class="cls-10" points="234.34 97.53 231.86 97.73 231.28 100.16 230.32 97.85 227.83 98.05 229.73 96.43 228.77 94.13 230.9 95.43 232.79 93.8 232.21 96.23 234.34 97.53"/>
        <polygon class="cls-10" points="243.16 101.26 240.49 100.34 238.79 102.6 238.83 99.77 236.16 98.85 238.86 98.03 238.91 95.2 240.53 97.51 243.23 96.68 241.54 98.94 243.16 101.26"/>
        <polygon class="cls-10" points="238.53 92.68 236.62 92.02 235.4 93.64 235.43 91.62 233.51 90.96 235.45 90.36 235.49 88.33 236.65 89.99 238.59 89.4 237.37 91.02 238.53 92.68"/>
        <polygon class="cls-10" points="234.52 106.04 233.17 105.57 232.32 106.71 232.34 105.29 231 104.83 232.36 104.41 232.38 102.99 233.2 104.15 234.55 103.74 233.7 104.87 234.52 106.04"/>
      </g>
      <g>
        <polygon class="cls-10" points="211.02 91.76 208.79 90.64 207.03 92.4 207.41 89.94 205.19 88.81 207.65 88.41 208.04 85.95 209.18 88.17 211.64 87.78 209.88 89.54 211.02 91.76"/>
        <polygon class="cls-10" points="216.59 99.55 214.79 97.37 212.16 98.41 213.67 96.02 211.88 93.84 214.61 94.55 216.13 92.16 216.3 94.98 219.04 95.69 216.41 96.73 216.59 99.55"/>
        <polygon class="cls-10" points="217.12 89.82 215.83 88.26 213.95 89 215.03 87.29 213.74 85.73 215.71 86.23 216.79 84.52 216.92 86.55 218.88 87.05 217 87.8 217.12 89.82"/>
        <polygon class="cls-10" points="206.72 99.11 205.82 98.01 204.49 98.53 205.26 97.33 204.35 96.24 205.73 96.59 206.49 95.39 206.58 96.81 207.95 97.17 206.63 97.69 206.72 99.11"/>
      </g>
    </g>
  </g>
</svg>