<?xml version="1.0" encoding="UTF-8"?>
<svg id="Calque_2" data-name="Calque 2" xmlns="http://www.w3.org/2000/svg" viewBox="0 0 262.87 311.17">
  <defs>
    <style>
      .cls-1 {
        stroke: #000;
        stroke-width: 2.21px;
      }

      .cls-1, .cls-2, .cls-3 {
        stroke-linecap: round;
      }

      .cls-1, .cls-3, .cls-4 {
        fill: none;
      }

      .cls-1, .cls-4, .cls-5 {
        stroke-miterlimit: 10;
      }

      .cls-6, .cls-2 {
        fill: #dfa5f9;
      }

      .cls-2 {
        stroke-width: 2px;
      }

      .cls-2, .cls-3 {
        stroke-linejoin: round;
      }

      .cls-2, .cls-3, .cls-4 {
        stroke: #c76fea;
      }

      .cls-3 {
        stroke-width: 6px;
      }

      .cls-7 {
        fill: #f58ea1;
      }

      .cls-8 {
        fill: #ecc7ff;
      }

      .cls-9 {
        fill: #c17d10;
      }

      .cls-10, .cls-5 {
        fill: #fbdaeb;
      }

      .cls-5 {
        stroke: #eacadb;
      }

      .cls-11 {
        fill: #c76fea;
      }

      .cls-12 {
        fill: #f8b9c4;
      }
    </style>
  </defs>
  <g id="Calque_1-2" data-name="Calque 1">
    <g>
      <g>
        <ellipse class="cls-5" cx="187.93" cy="124.87" rx="87" ry="31" transform="translate(-37.7 125.14) rotate(-33.67)"/>
        <ellipse class="cls-5" cx="74.93" cy="125.87" rx="31" ry="87" transform="translate(-71.36 118.45) rotate(-56.33)"/>
      </g>
      <g>
        <ellipse class="cls-8" cx="177.63" cy="130.65" rx="72.8" ry="25.94" transform="translate(-42.64 120.4) rotate(-33.67)"/>
        <ellipse class="cls-8" cx="83.07" cy="131.49" rx="25.94" ry="72.8" transform="translate(-72.41 127.73) rotate(-56.33)"/>
      </g>
      <g>
        <ellipse class="cls-5" cx="165.22" cy="168.05" rx="20.13" ry="56.5" transform="translate(-66.24 212.38) rotate(-56.33)"/>
        <ellipse class="cls-5" cx="86.84" cy="168.4" rx="56.5" ry="20.13" transform="translate(-78.8 76.4) rotate(-33.67)"/>
      </g>
      <g>
        <path class="cls-8" d="M199.99,191.97c5.26-7.9-7.87-33.32-30.05-48.1-22.18-14.78-45-13.31-50.27-5.41-5.26,7.9,8.45,26.29,30.63,41.06,22.18,14.78,44.43,20.35,49.69,12.44Z"/>
        <path class="cls-8" d="M52.72,192.27c-5.26-7.9,10.03-32.62,32.21-47.4,22.18-14.78,42.84-14.01,48.11-6.11,5.26,7.9-8.45,26.29-30.63,41.06-22.18,14.78-44.43,20.35-49.69,12.44Z"/>
      </g>
      <path class="cls-12" d="M71.04,174.72c-.26.5-.65,1.03-1.21,1.04-.71,0-1.1-.81-1.27-1.5-.38-1.55-.55-3.16-.5-4.76-1.89,3.45-4.95,6.25-8.56,7.82-.86-.68-.22-2.04.46-2.9,1.21-1.54,2.42-3.07,3.63-4.61-2.16,1.94-4.53,3.98-7.42,4.24-.22.02-.46.03-.65-.08-.64-.35-.23-1.32.23-1.88,1.4-1.68,2.8-3.35,4.19-5.03-2.18,1.37-4.5,2.78-7.07,2.82-.28,0-.58-.02-.78-.22-.27-.28-.17-.75.01-1.09,1.05-1.95,3.94-2.17,5.2-3.99-1.4.04-2.79.08-4.19.13-.49.01-1,.02-1.43-.19s-.76-.74-.59-1.19c.11-.29.37-.48.63-.64,1.36-.91,2.76-1.75,4.2-2.51,1.06-.56,2.24-1.1,3.43-.91.86.13,1.62.63,2.35,1.12,3.49,2.34,6.98,4.68,10.46,7.02"/>
      <path class="cls-12" d="M189.93,165.87c-.73,1.58-1.77,4.09-1.58,5.82.07.65.31,1.41.95,1.58.88.23,1.49-.85,1.76-1.73.42-1.39.83-2.79,1.25-4.18,1.06,2.21,2.62,4.18,4.53,5.72.31.25.66.49,1.05.47.55-.04.93-.63.93-1.18s-.26-1.06-.52-1.55c-.64-1.2-1.28-2.4-1.92-3.61.94.5,1.46,1.53,1.9,2.5s.91,2.01,1.8,2.59,2.35.41,2.72-.59c.25-.68-.08-1.43-.41-2.08-.73-1.45-1.46-2.9-2.19-4.34,1.02.84,2.04,1.68,3.06,2.52.84.69,1.93,1.42,2.92.97,1.26-.57,1.04-2.51.15-3.57s-2.22-1.73-2.92-2.91c1.3.6,2.6,1.21,3.9,1.81.73.34,1.58.68,2.32.36.83-.37,1.11-1.48.83-2.35s-.98-1.52-1.67-2.11c-1.7-1.44-9.52-4.29-9.83-4.13"/>
      <path class="cls-11" d="M89.76,300.15c-1.85.93-3.71,1.85-5.56,2.78-.72.99-1.44,1.97-2.16,2.96v5.28h34.64l-1.48-10.64c-8.48-.13-16.96-.26-25.45-.38Z"/>
      <path class="cls-11" d="M176.85,295.52c2.16,1.24,4.33,2.47,6.49,3.71,1.24,1.24,2.47,2.47,3.71,3.71v8.24h-34.01c-.09-3.98-.19-7.97-.28-11.95,8.03-1.24,16.06-2.47,24.1-3.71Z"/>
      <path class="cls-12" d="M158.19,138.88l-.1-.1c.98,3.61,1.97,7.74,2.92,12.18.08.37.16.74.24,1.12.15.68.29,1.37.44,2.06.1.48.2.97.3,1.46.1.48.2.96.29,1.44.15.77.31,1.55.46,2.32.16.78.31,1.57.46,2.35.1.49.19.99.28,1.49.15.8.3,1.61.45,2.42,2.24,12.12,4.18,24.5,5.47,33.24,1.08,7.27,1.71,12.02,1.71,12.02,3.84,29.08,5.85,57.89,9.82,86.99-11.94,1-16.06,2-28,3l-25-72-13,72-25-1-1.85-88.01s.42-6.09,1.18-14.99c.53-6.18,1.23-13.71,2.05-21.5.05-.52.11-1.04.17-1.56.01-.12.02-.24.04-.36.89-8.22,1.92-16.63,3.07-23.96.02-.15.04-.3.07-.45.48-3.07.98-5.93,1.5-8.51-.04.06-.09.12-.13.17-7.69,9.99-12.37,11.86-24.1,27.17l-13-8c14.27-17.9,26.54-35.91,40.15-53.84,1.4-1.85,2.81-3.69,4.25-5.54,1.37-1.77,2.76-3.54,4.17-5.31,12.5.29,25,.58,37.5.87,1.86,1.83,3.69,3.69,5.48,5.56,1.79,1.83,3.53,3.68,5.25,5.54,15.26,16.44,29.11,33.87,45.2,49.72-5.52,4.66-5.48,5.35-11,10-9.85-9.86-21.88-18.14-31.74-27.99Z"/>
      <path class="cls-12" d="M178.61,57.63c0,25.6-22.74,46.36-50.79,46.36-12.13,0-23.27-3.89-32.01-10.38-11.45-8.49-18.77-21.46-18.77-35.98,0-18.17,11.45-33.9,28.12-41.51,7.8-3.27,15.2-4.37,19.32-4.75.05,0,.11-.01.17-.02,1.05-.06,2.11-.09,3.17-.09,28.05,0,50.79,20.76,50.79,46.37Z"/>
      <circle class="cls-7" cx="100.37" cy="77.65" r="10.89"/>
      <circle class="cls-7" cx="157.78" cy="77.65" r="10.89"/>
      <circle cx="115.68" cy="58.73" r="4.42"/>
      <circle cx="138.87" cy="58.73" r="4.42"/>
      <path class="cls-1" d="M117.89,75.29c1.53,4.42,5.85,7.19,10.26,6.71,3.86-.42,7.16-3.26,8.27-7.16"/>
      <path class="cls-7" d="M126.72,63.14c1.78.25,3.14,1.66,3.31,3.31.2,1.91-1.23,3.78-3.31,4.1"/>
      <path class="cls-9" d="M179.71,57.52c-3.5.24-10.37.45-18.77-1.19-7.33-1.43-15.84-4.27-24.29-9.75-11.97-7.76-18.74-17.49-22.08-23.18l13.27-12.23c2.89-.04,27.87,0,42.6,19.9,5.58,7.55,7.81,15.4,8.7,21.11.34,2.11.49,3.94.57,5.34Z"/>
      <path class="cls-9" d="M75.57,57.52c3.5.24,10.37.45,18.77-1.19,7.33-1.43,15.84-4.27,24.29-9.75,11.97-7.76,18.74-17.49,22.08-23.18l-13.27-12.23c-2.89-.04-27.87,0-42.6,19.9-5.58,7.55-7.81,15.4-8.7,21.11-.34,2.11-.49,3.94-.57,5.34Z"/>
      <path class="cls-11" d="M169.93,198.87c-.18,0-.35,0-.53-.01-26.4-.34-53.75-1.65-80.14-1.99h-.33c.77-6.95,1.54-14.19,2.38-21.5.05-.52.11-1.04.17-1.56.01-.12.02-.24.04-.36.92-8.03,1.92-16.12,3.07-23.96.02-.15.04-.3.07-.45.4-2.76.82-5.49,1.27-8.17.03-.06.07-.11.1-.17,3.02-5.08,4.81-9.6,5.9-12.83,2.03-6.06,3.35-10.18,2-15-.89-3.17-3.52-5.46-4.85-6.84,1.4-1.85,2.81-3.69,4.25-5.54,1.51,2.35,3.37,5.04,5.1,7.59,1.6,2.37,4.26,3.79,7.12,3.79h23.65c2.9,0,5.61-1.47,7.19-3.91,1.4-2.15,2.88-4.39,4.09-6.35,1.79,1.83,3.53,3.68,5.25,5.54-2.33,3.29-3.55,7.18-3.55,11.11,0,2.2.39,4.42,1.17,6.54,1.61,4.36,3.25,8.71,4.58,13.07.09.34.18.67.26,1.01.69,2.65,1.33,5.38,1.95,8.15.29,1.28.59,2.59.87,3.93.08.37.16.74.24,1.12.15.68.29,1.37.44,2.06.1.48.2.97.3,1.46.09.48.19.96.29,1.44.15.77.31,1.55.46,2.32.16.78.31,1.57.46,2.35.1.49.19.99.28,1.49.15.8.3,1.61.45,2.42,2.12,11.32,4.01,22.78,6,33.25Z"/>
      <circle class="cls-6" cx="127.43" cy="120.37" r="2.5"/>
      <circle class="cls-6" cx="127.43" cy="132.37" r="2.5"/>
      <line class="cls-3" x1="194.72" y1="173.37" x2="212.49" y2="133.72"/>
      <polygon class="cls-2" points="218.37 144.98 212.34 135.14 201.13 137.83 208.62 129.06 202.59 119.23 213.25 123.64 220.74 114.87 219.83 126.37 230.49 130.78 219.27 133.48 218.37 144.98"/>
      <polygon class="cls-11" points="216.11 137.01 213.24 132.33 207.9 133.61 211.46 129.43 208.59 124.75 213.67 126.85 217.24 122.67 216.81 128.15 221.88 130.25 216.54 131.54 216.11 137.01"/>
      <circle class="cls-9" cx="93.28" cy="15" r="15"/>
      <circle class="cls-9" cx="162.28" cy="15" r="15"/>
      <path class="cls-11" d="M110.02,196c-3.58,4.9-8.95,11.91-16.03,20-10.84,12.39-16.62,18.9-26.33,25-5.33,3.35-13.95,7.9-26.33,11-.48,1.82-.9,4.72.57,7.5,4.27,8.06,21.34,9.2,33.2,7,9.34-1.73,15.27-5.5,18.89-7.5,10.79-5.95,28.68-11.38,59.53-8,2.12,2.42,5.79,6.02,11.45,9,9.69,5.1,18.9,5.04,26.33,5,8.63-.05,17.22-.1,20.61-5,1.64-2.38,1.51-5.1,1.14-7-8.26-3.14-14.93-6.55-20.03-9.5-18.34-10.61-29.4-22.86-36.63-31-5.75-6.47-9.92-12.15-12.59-16-11.26-.17-22.51-.33-33.77-.5Z"/>
      <path class="cls-6" d="M89.28,196s-27.81,25.98-37,29c-12.42,4.08-18.09-.15-24,6-3.26,3.4-5.87,9.21-4,14,2.28,5.84,10.11,7.28,14,8,5.06.93,11.76.92,22-3,4.51-1.73,20.67-8.41,35-26,4.28-5.25,12.33-14.85,17-27-12.18,0-23-1-23-1Z"/>
      <path class="cls-6" d="M169.65,197s27.81,25.98,37,29c12.42,4.08,18.09-.15,24,6,3.26,3.4,5.87,9.21,4,14-2.28,5.84-10.11,7.28-14,8-5.06.93-11.76.92-22-3-17.6-6.74-28.43-18.72-35-26-5.53-6.13-12.8-15.35-19.37-28h25.37Z"/>
      <path class="cls-6" d="M112.61,197c2.75,9.57,5.37,27.6-8.56,47-2.83,3.94-6.01,7.47-9.28,10.61-3.8,3.64-2.63,8.39,3,11.11,6.65,3.21,16.82,6.52,30.24,6.28,13.5-.24,23.34-3.95,29.58-7.36,5.04-2.75,6.15-7.16,2.66-10.64s-6.97-7.51-9.99-12.01c-12.41-18.49-10.87-35.37-8.56-45h-29.1Z"/>
      <circle class="cls-6" cx="127.78" cy="144.5" r="2.5"/>
      <circle class="cls-6" cx="127.78" cy="156.5" r="2.5"/>
      <path class="cls-10" d="M94.5,37.59c1.84-2.01,13.49-14.3,32.5-14.3s30.66,12.29,32.5,14.3c-13.67-6.96-26.17-7.8-32.5-7.8s-18.83.84-32.5,7.8Z"/>
      <path class="cls-6" d="M135.85,25.47c-.17-.37-.42-.7-.72-.97-.67-.59-1.58-.78-2.44-.6.74-.48,1.26-1.25,1.32-2.15,0-.07,0-.13,0-.2,0-.75-.28-1.49-.85-2.07-.42-.42-.92-.68-1.45-.79-.99-.21-1.98.16-2.64.88.08-1.01-.36-2.02-1.24-2.59-.45-.29-1-.47-1.59-.47-.88,0-1.67.39-2.2,1-.57.65-.76,1.53-.6,2.36-.65-.91-1.76-1.42-2.88-1.18-.53.11-1.04.37-1.45.79-.63.63-.91,1.45-.85,2.26.05.82.5,1.55,1.15,2.03-1.08-.16-2.19.28-2.8,1.21-.29.46-.47,1-.47,1.59,0,.88.39,1.67,1,2.2.63.55,1.48.75,2.3.62-.67.48-1.13,1.21-1.18,2.05-.05.81.23,1.64.85,2.26.41.42.92.68,1.45.79,1.05.23,2.1-.21,2.76-1.02-.07,1,.36,2.01,1.23,2.57.46.29,1,.47,1.59.47.44,0,.86-.1,1.23-.27.37-.17.7-.42.97-.72.49-.56.7-1.28.65-2.01.66.78,1.69,1.2,2.73.98.53-.11,1.04-.37,1.45-.79.58-.58.85-1.32.85-2.07,0-.07,0-.13,0-.2-.05-.77-.44-1.46-1.03-1.94,1.04.11,2.1-.32,2.68-1.23.29-.45.47-1,.47-1.59,0-.44-.1-.86-.27-1.23ZM126.09,26.75l-.12.05.02-.04h-.02s.03-.07.03-.07l-.1-.04.04-.02-.04-.02.11-.04-.03-.08v-.04s.09.04.09.04h0l.05-.12v.03s.05-.1.05-.1l.07.16h.04s-.02.03-.02.03h.03s-.02.04-.02.04l.02.05.05.02h-.04v.02l.04.02h-.03s.08.21.08.21l-.24-.1-.04.08-.04-.09Z"/>
      <path class="cls-11" d="M132.95,25.79c-.12-.26-.3-.49-.51-.68-.47-.41-1.11-.55-1.71-.42.52-.33.88-.88.92-1.5,0-.05,0-.09,0-.14,0-.52-.19-1.04-.6-1.45-.29-.29-.65-.48-1.02-.55-.69-.15-1.39.12-1.85.62.05-.71-.25-1.42-.87-1.82-.32-.21-.7-.33-1.11-.33-.62,0-1.17.27-1.54.7-.4.45-.53,1.07-.42,1.65-.45-.64-1.24-1-2.02-.83-.37.08-.73.26-1.02.55-.44.44-.64,1.02-.6,1.59.04.58.35,1.09.81,1.42-.75-.11-1.54.19-1.96.85-.21.32-.33.7-.33,1.12,0,.62.27,1.17.7,1.54.44.39,1.04.53,1.61.43-.47.33-.79.85-.83,1.44-.04.57.16,1.15.6,1.59.29.29.65.48,1.02.55.74.16,1.47-.15,1.93-.71-.05.7.25,1.41.86,1.8.32.21.7.33,1.12.33.31,0,.6-.07.86-.19.26-.12.49-.3.68-.51.34-.39.49-.9.45-1.41.46.55,1.19.84,1.91.69.37-.08.73-.26,1.02-.55.41-.41.6-.93.6-1.45,0-.05,0-.09,0-.14-.03-.54-.31-1.03-.72-1.36.73.07,1.47-.23,1.88-.86.21-.32.33-.7.33-1.11,0-.31-.07-.6-.19-.86ZM126.1,26.68l-.08.03v-.03s0,0,0,0l.02-.06-.07-.03h.03s-.03-.02-.03-.02l.07-.03-.02-.05v-.02s.06.03.06.03h0l.03-.08v.02s.04-.07.04-.07l.05.11h.02s-.01.02-.01.02h.02s-.02.03-.02.03l.02.03.03.02h-.02s.03.02.03.02h-.02s.06.15.06.15l-.17-.07-.02.06-.02-.06Z"/>
      <path class="cls-6" d="M151.21,29.27c-.1-.22-.25-.41-.43-.57-.4-.35-.93-.46-1.44-.35.44-.28.74-.74.78-1.27,0-.04,0-.08,0-.12,0-.44-.16-.88-.5-1.22-.25-.25-.55-.4-.86-.47-.58-.12-1.17.1-1.56.52.04-.6-.21-1.19-.73-1.53-.27-.17-.59-.28-.94-.28-.52,0-.98.23-1.3.59-.34.38-.45.9-.36,1.39-.38-.53-1.04-.84-1.7-.7-.31.07-.61.22-.86.47-.37.37-.53.86-.5,1.33.03.49.29.92.68,1.2-.63-.09-1.29.16-1.65.72-.17.27-.28.59-.28.94,0,.52.23.98.59,1.3.37.33.88.44,1.36.36-.4.28-.67.72-.7,1.21-.03.48.13.96.5,1.33.24.25.55.4.86.47.62.13,1.24-.13,1.63-.6-.04.59.21,1.19.73,1.52.27.17.59.28.94.28.26,0,.51-.06.73-.16.22-.1.41-.25.57-.43.29-.33.41-.76.38-1.18.39.46,1,.71,1.61.58.31-.07.61-.22.86-.47.34-.34.5-.78.5-1.22,0-.04,0-.08,0-.12-.03-.46-.26-.86-.61-1.14.61.06,1.24-.19,1.58-.73.17-.27.28-.59.28-.94,0-.26-.06-.51-.16-.73ZM145.45,30.03l-.07.03v-.03s0,0,0,0l.02-.05-.06-.02h.03s-.02-.02-.02-.02l.06-.03-.02-.04v-.02s.05.03.05.03h0l.03-.07v.02s.03-.06.03-.06l.04.09h.02s-.01.02-.01.02h.02s-.01.02-.01.02v.03s.04.01.04.01h-.02s.02.02.02.02h-.02s.05.13.05.13l-.14-.06-.02.05-.02-.05Z"/>
      <path class="cls-11" d="M149.5,29.46c-.07-.15-.17-.29-.3-.4-.28-.24-.65-.32-1.01-.25.31-.2.52-.52.54-.89,0-.03,0-.05,0-.08,0-.31-.11-.62-.35-.85-.17-.17-.38-.28-.6-.33-.41-.09-.82.07-1.09.37.03-.42-.15-.84-.51-1.07-.19-.12-.41-.19-.66-.19-.37,0-.69.16-.91.41-.24.27-.31.63-.25.98-.27-.37-.73-.59-1.19-.49-.22.05-.43.15-.6.33-.26.26-.37.6-.35.94.02.34.21.64.48.84-.44-.06-.91.11-1.16.5-.12.19-.19.41-.19.66,0,.36.16.69.41.91.26.23.61.31.95.26-.28.2-.47.5-.49.85-.02.33.09.68.35.94.17.17.38.28.6.33.43.09.87-.09,1.14-.42-.03.42.15.83.51,1.06.19.12.41.19.66.19.18,0,.35-.04.51-.11.15-.07.29-.17.4-.3.2-.23.29-.53.27-.83.27.32.7.5,1.13.41.22-.05.43-.15.6-.33.24-.24.35-.55.35-.85,0-.03,0-.05,0-.08-.02-.32-.18-.6-.43-.8.43.04.87-.13,1.11-.51.12-.19.19-.41.19-.66,0-.18-.04-.35-.11-.51ZM145.46,29.99l-.05.02v-.02s0,0,0,0v-.03s-.03-.02-.03-.02h.02s-.02-.01-.02-.01l.04-.02v-.03s-.02-.01-.02-.01l.04.02h0l.02-.05h0s.02-.03.02-.03l.03.06h.01s0,.01,0,.01h.01s0,.02,0,.02v.02s.03,0,.03,0h-.01s.02.01.02.01h-.01s.03.09.03.09l-.1-.04v.03s-.03-.04-.03-.04Z"/>
      <path class="cls-6" d="M112.21,29.17c-.1-.22-.25-.41-.43-.57-.4-.35-.93-.46-1.44-.35.44-.28.74-.74.78-1.27,0-.04,0-.08,0-.12,0-.44-.16-.88-.5-1.22-.25-.25-.55-.4-.86-.47-.58-.12-1.17.1-1.56.52.04-.6-.21-1.19-.73-1.53-.27-.17-.59-.28-.94-.28-.52,0-.98.23-1.3.59-.34.38-.45.9-.36,1.39-.38-.53-1.04-.84-1.7-.7-.31.07-.61.22-.86.47-.37.37-.53.86-.5,1.33.03.49.29.92.68,1.2-.63-.09-1.29.16-1.65.72-.17.27-.28.59-.28.94,0,.52.23.98.59,1.3.37.33.88.44,1.36.36-.4.28-.67.72-.7,1.21-.03.48.13.96.5,1.33.24.25.55.4.86.47.62.13,1.24-.13,1.63-.6-.04.59.21,1.19.73,1.52.27.17.59.28.94.28.26,0,.51-.06.73-.16.22-.1.41-.25.57-.43.29-.33.41-.76.38-1.18.39.46,1,.71,1.61.58.31-.07.61-.22.86-.47.34-.34.5-.78.5-1.22,0-.04,0-.08,0-.12-.03-.46-.26-.86-.61-1.14.61.06,1.24-.19,1.58-.73.17-.27.28-.59.28-.94,0-.26-.06-.51-.16-.73ZM106.45,29.93l-.07.03v-.03s0,0,0,0l.02-.05-.06-.02h.03s-.02-.02-.02-.02l.06-.03-.02-.04v-.02s.05.03.05.03h0l.03-.07v.02s.03-.06.03-.06l.04.09h.02s-.01.02-.01.02h.02s-.01.02-.01.02v.03s.04.01.04.01h-.02s.02.02.02.02h-.02s.05.13.05.13l-.14-.06-.02.05-.02-.05Z"/>
      <path class="cls-11" d="M110.5,29.36c-.07-.15-.17-.29-.3-.4-.28-.24-.65-.32-1.01-.25.31-.2.52-.52.54-.89,0-.03,0-.05,0-.08,0-.31-.11-.62-.35-.85-.17-.17-.38-.28-.6-.33-.41-.09-.82.07-1.09.37.03-.42-.15-.84-.51-1.07-.19-.12-.41-.19-.66-.19-.37,0-.69.16-.91.41-.24.27-.31.63-.25.98-.27-.37-.73-.59-1.19-.49-.22.05-.43.15-.6.33-.26.26-.37.6-.35.94.02.34.21.64.48.84-.44-.06-.91.11-1.16.5-.12.19-.19.41-.19.66,0,.36.16.69.41.91.26.23.61.31.95.26-.28.2-.47.5-.49.85-.02.33.09.68.35.94.17.17.38.28.6.33.43.09.87-.09,1.14-.42-.03.42.15.83.51,1.06.19.12.41.19.66.19.18,0,.35-.04.51-.11.15-.07.29-.17.4-.3.2-.23.29-.53.27-.83.27.32.7.5,1.13.41.22-.05.43-.15.6-.33.24-.24.35-.55.35-.85,0-.03,0-.05,0-.08-.02-.32-.18-.6-.43-.8.43.04.87-.13,1.11-.51.12-.19.19-.41.19-.66,0-.18-.04-.35-.11-.51ZM106.46,29.89l-.05.02v-.02s0,0,0,0v-.03s-.03-.02-.03-.02h.02s-.02-.01-.02-.01l.04-.02v-.03s-.02-.01-.02-.01l.04.02h0l.02-.05h0s.02-.03.02-.03l.03.06h.01s0,.01,0,.01h.01s0,.02,0,.02v.02s.03,0,.03,0h-.01s.02.01.02.01h-.01s.03.09.03.09l-.1-.04v.03s-.03-.04-.03-.04Z"/>
      <line class="cls-4" x1="212.28" y1="110" x2="206.28" y2="93"/>
      <line class="cls-4" x1="223.2" y1="107.67" x2="227.18" y2="90.09"/>
      <line class="cls-4" x1="228.47" y1="110.89" x2="241.91" y2="98.87"/>
      <line class="cls-4" x1="232.65" y1="117.54" x2="249.95" y2="112.49"/>
    </g>
  </g>
</svg>