<?xml version="1.0" encoding="UTF-8"?>
<svg id="Calque_2" data-name="Calque 2" xmlns="http://www.w3.org/2000/svg" viewBox="0 0 589.81 369.07">
  <defs>
    <style>
      .cls-1 {
        fill: #f8b9a1;
      }

      .cls-2 {
        fill: #f0afaf;
      }

      .cls-3 {
        fill: #f4e100;
      }

      .cls-4 {
        stroke: #191611;
      }

      .cls-4, .cls-5 {
        fill: none;
        stroke-miterlimit: 10;
      }

      .cls-6 {
        fill: #b37738;
      }

      .cls-7 {
        fill: #0171b0;
      }

      .cls-5 {
        stroke: #162139;
      }

      .cls-8 {
        fill: #e34644;
      }

      .cls-9 {
        fill: #fff;
      }

      .cls-10 {
        fill: #8eb5dd;
      }

      .cls-11 {
        fill: #f7b426;
      }

      .cls-12 {
        fill: #191611;
      }

      .cls-13 {
        fill: #0d7f5b;
      }

      .cls-14 {
        fill: #f1b8b6;
      }

      .cls-15 {
        fill: #ffe104;
      }

      .cls-16 {
        fill: #965a24;
      }

      .cls-17 {
        fill: #101922;
      }

      .cls-18 {
        fill: #162139;
      }

      .cls-19 {
        fill: #ba7233;
      }

      .cls-20 {
        fill: #aedad3;
      }

      .cls-21 {
        fill: #47b17a;
      }
    </style>
  </defs>
  <g id="Calque_6" data-name="Calque 6">
    <polygon class="cls-15" points="303.02 369.07 219.13 369.07 261.08 297.18 303.02 225.29 344.97 297.18 386.92 369.07 303.02 369.07"/>
    <rect class="cls-20" x="-9.44" y="220.18" width="608.68" height="10.21" transform="translate(-48.99 85.78) rotate(-15.3)"/>
    <g>
      <path class="cls-9" d="M166.92,290.49s18.6-12.13,11.83.51c-6.77,12.64-8.04,15.32-8.04,15.32,0,0-8.04,1.66-10.09-2.55-2.04-4.21,6.3-13.28,6.3-13.28Z"/>
      <path class="cls-1" d="M154.37,250.15l9.32,6.38s3.7.51,2.43-3.19c3.83.01,5.87-2.68,3.57-4.47,3.96,0,4.6-5.49-2.04-5.36-6.64.13-13.28.51-13.28.51v6.13Z"/>
      <polygon class="cls-7" points="87.78 272.49 163.01 307.38 170.35 288.17 124.88 265.51 87.78 272.49"/>
      <polygon class="cls-11" points="84.71 191.81 80.12 275.89 140.71 264.83 127.78 233.85 151.44 254.62 166.92 241.85 112.29 197.94 84.71 191.81"/>
      <path class="cls-1" d="M144.54,161.04c0,22.08-19.2,39.98-42.89,39.98-14.24,0-26.86-6.47-34.67-16.43,3.54-2.85,22.28-18.99,23.43-41.42,13.2,7.61,35.73.59,45.03-6.75,5.7,6.79,9.1,15.33,9.1,24.62Z"/>
      <path class="cls-16" d="M135.44,136.42c-9.3,7.34-31.83,14.36-45.03,6.75-1.15,22.43-19.89,38.57-23.43,41.42-5.17-6.6-8.23-14.74-8.23-23.55,0-12.44,6.1-23.55,15.66-30.88l-36.08-12.27,25.28-20.93,14.09,30.91c6.84-4.3,15.08-6.81,23.95-6.81,13.73,0,25.94,6.01,33.79,15.36Z"/>
      <polygon class="cls-3" points="82.75 100.28 74.84 127.34 44.71 133.47 63.73 153.64 75.86 128.62 101.39 120.19 82.75 100.28"/>
      <circle class="cls-12" cx="97.95" cy="171.68" r="4.04"/>
      <circle class="cls-12" cx="120.71" cy="155.47" r="4.04"/>
      <path class="cls-4" d="M111.27,166.28s8.17-.6,3.74,5.4"/>
      <path class="cls-4" d="M109.05,178.7s16.77,5.62,15.7-11.06"/>
      <ellipse class="cls-8" cx="100.97" cy="189.13" rx="8.09" ry="7.53"/>
      <ellipse class="cls-8" cx="134.5" cy="161.18" rx="8.09" ry="7.54"/>
    </g>
    <g>
      <polygon class="cls-19" points="459.71 162.12 441.32 187.48 441.32 199.06 454.6 197.19 480.81 164 469.75 156.17 459.71 162.12"/>
      <polygon class="cls-19" points="437.41 157.7 426.86 168.59 426 178.46 437.41 179.83 458.35 158.72 439.79 154.29 437.41 157.7"/>
      <polygon class="cls-13" points="441.32 187.48 455.41 197.87 446.13 209.61 432.47 200.08 441.32 187.48"/>
      <polygon class="cls-13" points="426.86 168.42 437.41 180 436.56 181.53 421.92 186.46 417.15 179.65 426.86 168.42"/>
      <polygon class="cls-9" points="453.08 200.87 439.06 190.71 439.74 189.64 453.97 199.63 453.08 200.87"/>
      <path class="cls-2" d="M432.81,199.06l13.32,10.55-6.66,7.83-19.09-14.3s-5.79-8.51,12.43-4.09Z"/>
      <path class="cls-2" d="M422.36,186.31l-5.21-6.66s-18.38-9.7-13.79.17c4.43,5.79,8.8,9.7,8.8,9.7l10.19-3.21Z"/>
      <path class="cls-19" d="M504.98,149.44s2.89,8.94,5.45,9.87c2.55.94,3.23-.43,3.06-2.72,1.36-1.02,4,.34,4,.34,0,0,3.74,1.79,3.15-1.96.06-1.62.68-2.38,1.7-1.7s3.49.85,1.28-3.15c-2.21-4-5.62-6.3-5.62-6.3l-13.02,5.62Z"/>
      <polygon class="cls-10" points="423.88 154.63 493.58 168.42 487.71 129.36 504.3 152.59 521.15 144.68 481.58 88.51 451.96 88.51 423.88 154.63"/>
      <path class="cls-6" d="M427.96,46.89s-3.57,39.83,22.21,43.66c25.79,3.83,43.15-5.62,50.55-13.28,7.4-7.66-10.47-38.3-10.47-38.3,0,0-60.26-.26-62.3,7.91Z"/>
      <ellipse class="cls-18" cx="436.9" cy="62.08" rx="2.3" ry="3.45"/>
      <ellipse class="cls-18" cx="459.3" cy="62.08" rx="2.62" ry="3.45"/>
      <path class="cls-5" d="M447.49,66.29s-6.13,3.7,0,6.38"/>
      <path class="cls-5" d="M455.41,75.48s-.3,6.13-9.28,5.49"/>
      <circle class="cls-14" cx="473.15" cy="73.95" r="9.19"/>
      <path class="cls-17" d="M425.15,47.14l54.64-3.32,19.91,34.21,27.32-18.38v-3.32h4.09S513.75,3.23,489.49,1.19c-24.26-2.04-60.51-7.4-64.34,45.96Z"/>
      <rect class="cls-21" x="480.56" y="33.36" width="5.36" height="18.13" transform="translate(154.51 -314.31) rotate(42.32)"/>
      <polygon class="cls-9" points="434.17 182.33 424.41 171.25 425.26 170.27 435.74 181.8 434.17 182.33"/>
    </g>
  </g>
</svg>