<?xml version="1.0" encoding="UTF-8"?>
<svg id="Calque_2" data-name="Calque 2" xmlns="http://www.w3.org/2000/svg" xmlns:xlink="http://www.w3.org/1999/xlink" viewBox="0 0 237.37 192.75">
  <defs>
    <style>
      .cls-1 {
        fill: #17181f;
      }

      .cls-2 {
        fill: #f5b9aa;
      }

      .cls-3 {
        fill: #ba7730;
      }

      .cls-4 {
        fill: #008a54;
      }

      .cls-5 {
        fill: #100e1f;
      }

      .cls-6 {
        fill: #6995a7;
      }

      .cls-7 {
        fill: #91b7d5;
      }

      .cls-8 {
        fill: #f7b8ad;
      }

      .cls-9 {
        fill: #ffdb05;
      }

      .cls-10 {
        fill: #fff;
      }

      .cls-11 {
        fill: #e94939;
      }

      .cls-12 {
        fill: none;
        stroke: #100e1f;
        stroke-miterlimit: 10;
      }

      .cls-13 {
        fill: #31ad6b;
      }

      .cls-14 {
        clip-path: url(#clippath);
      }
    </style>
    <clipPath id="clippath">
      <circle class="cls-10" cx="187.97" cy="157.65" r="34.28"/>
    </clipPath>
  </defs>
  <g id="Calque_7" data-name="Calque 7">
    <g>
      <path class="cls-3" d="M137.16,47.35s.89-5.62.89-7.03,2.68-2.3,2.81,0,0,7.03,0,7.03c0,0,6-5.11,7.28-4.22s1.91-.26,1.15,1.85-3.83,1.85-4.09,4.66c1.66,0,3.57-.26,5.11-.89s2.68,1.53,1.02,2.49-4.34.83-4.85,2.23c-.51,1.4,5.67.89,5.67.89,0,0,3.5,1.28,0,2.94-3.5,1.66-8.98,1.02-8.98,1.02l-4.21-.64-2.81-3.32,1.02-7.02Z"/>
      <path class="cls-3" d="M12.82,86.16l-3.57-3.4s-5.45-3.06-3.74,2.55c1.36.85,3.49,3.91,3.49,3.91,0,0-3.32.51-5.54-1.36-2.89-.85-4.26,3.74-1.53,4.09s3.91,1.19,3.91,1.19c0,0-.68,1.7-3.57,1.19-2.89-.51-2.89,3.23-.68,3.06s4.83-.85,4.83-.85c0,0-.23,2.72-2.78,3.4s-1.7,3.74.85,2.38,4.94-3.4,4.94-3.4h6.3s2.38-2.89,2.38-3.4-1.02-8.85-1.02-8.85l-4.26-.51Z"/>
      <path class="cls-9" d="M131.8,152.2l8.34,5.28s5.11,1.19,5.96-2.64c.85-3.83,7.6-11.32,7.6-11.32,0,0,5.33-10.72-5.39-7.15-5.96,2.72-12.17,5.45-12.17,5.45l-4.34,10.38Z"/>
      <path class="cls-9" d="M62.86,179.09v13.66h27.06s3.06-.64,0-4.21c-3.06-3.57-13.6-6.51-13.6-6.51l-13.47-2.94Z"/>
      <polygon class="cls-6" points="58.01 130.84 60.31 182.92 80.22 182.92 82.46 124.45 132.82 156.88 144.92 136.96 110.09 115.77 88.07 115.77 58.01 130.84"/>
      <polygon class="cls-13" points="12.48 82.58 55.97 75.6 96.05 68.11 135.54 44.99 144.22 59.09 100.48 86.5 116.48 116.62 55.97 132.28 53.5 95.52 15.03 101.64 12.48 82.58"/>
      <path class="cls-3" d="M36.56,51.94s9.96,32.17,39.83,24.51c29.87-7.66,32.94-23.74,28.34-47.49-4.6-23.74-55.91-4.6-55.91-4.6l-12.26,27.57Z"/>
      <path class="cls-1" d="M84.14.2S41.58-3.89,31.37,25.05c0,20.77,3.74,27.23,3.74,27.23l49.02-15.32v-12.94l6.47,10.89,18.04-6.47S103.2,7.01,84.14.2Z"/>
      <ellipse class="cls-5" cx="63.11" cy="51.24" rx="2.81" ry="3.13"/>
      <ellipse class="cls-5" cx="85.26" cy="44.99" rx="2.81" ry="3.13"/>
      <path class="cls-12" d="M76.14,49.64s5.49,2.04.64,5.36"/>
      <path class="cls-12" d="M72.05,60.11s6.77,7.79,11.62-1.02"/>
      <circle class="cls-8" cx="63.11" cy="66.24" r="7.15"/>
      <circle class="cls-8" cx="94.46" cy="56.79" r="7.15"/>
    </g>
    <g>
      <circle class="cls-10" cx="187.97" cy="157.65" r="34.28"/>
      <g class="cls-14">
        <polyline class="cls-11" points="187.97 123.37 187.97 157.65 221.19 149.16 222.25 112.67 187.97 123.37"/>
        <polyline class="cls-7" points="187.97 157.65 221.19 149.16 237.37 170.27 201.96 188.94 187.97 157.65"/>
        <polyline class="cls-2" points="155.74 145.96 187.97 157.65 187.97 123.37 157.86 104.55 158.55 140.06"/>
        <polyline class="cls-4" points="162.79 180.9 187.97 157.65 155.74 145.96 140.19 164.14 162.79 180.9"/>
      </g>
    </g>
  </g>
</svg>