<?xml version="1.0" encoding="UTF-8"?>
<svg id="Calque_2" data-name="Calque 2" xmlns="http://www.w3.org/2000/svg" viewBox="0 0 176.18 283.96">
  <defs>
    <style>
      .cls-1 {
        fill: #181127;
      }

      .cls-2 {
        fill: #eb9790;
      }

      .cls-3 {
        fill: #e84840;
      }

      .cls-4 {
        fill: #ffdf07;
      }

      .cls-5 {
        fill: #d14b3b;
      }

      .cls-6 {
        fill: #fff;
        stroke: #000;
        stroke-miterlimit: 10;
        stroke-width: 2.32px;
      }

      .cls-7 {
        fill: #d48975;
      }

      .cls-8 {
        fill: #f5b223;
      }

      .cls-9 {
        fill: #f1b9a7;
      }
    </style>
  </defs>
  <g id="Calque_4" data-name="Calque 4">
    <g>
      <polygon class="cls-1" points="109.63 274.75 105.25 278.09 103.7 280.67 103.76 283.96 131.16 279.42 128.89 272.81 109.63 274.75"/>
      <polygon class="cls-8" points="60.68 273.06 83.89 273.06 96.08 209.81 103.7 275.67 132.74 272.81 128.88 191.95 54.25 196.86 60.68 273.06"/>
      <polygon class="cls-1" points="60.68 273.06 54.25 276.9 52.71 279.87 52.71 283.71 84.12 282.83 82.02 273.06 60.68 273.06"/>
      <ellipse class="cls-9" cx="79.08" cy="79.42" rx="49.91" ry="43.52" transform="translate(-1.63 1.65) rotate(-1.19)"/>
      <path class="cls-4" d="M23.04,52.62s-16.41-10.07-4.64-25.41c0,0,11.35-10.86,26.14-2.76,0,0,1.91-16.28,13.45-17.72,11.54-1.44,18.92,6.51,18.92,6.51,0,0,11.83-19.68,28.55-11.03,16.73,8.65,15.28,23.89,15.28,23.89,0,0,17.57-5.93,26.51,10.49,8.93,16.41-7.8,26.76-7.8,26.76,0,0,4.39,14.71-8.47,20.55-12.86,5.83-20.3-16.77-20.3-16.77,0,0-12.22,8.61-20.32,4.4-8.1-4.21-7.54-13.93-7.54-13.93,0,0-2.79,8.42-15.34,12.84-12.54,4.42-16.61-6.1-16.61-6.1,0,0-6.3,9.41-21.83,6.09-15.53-3.31-6.01-17.79-6.01-17.79Z"/>
      <path class="cls-2" d="M164.95,173.35c3.03.06,6.05.47,8.98,1.22,1.13.29,2.53,1.1,2.19,2.23-.14.48-.58.8-1.01,1.05-1.73.97-3.86,1.17-5.73.52,1.68.9,3.07,2.34,3.92,4.05.11.22.21.47.13.7-.16.43-.77.4-1.21.28-1.56-.42-3.1-.89-4.63-1.41,1.16,1.34,1.88,3.06,2.02,4.83-1.89.51-4.07-.59-4.81-2.42.65,1.57,1.12,3.22,1.41,4.9.07.42.13.86,0,1.27-.32,1.01-1.68,1.33-2.63.88s-1.55-1.4-2.05-2.32c-.51-.92-1-1.91-1.84-2.53-1.17,1.34-.49,3.75-1.83,4.9-1.1.94-2.92.28-3.67-.95-.75-1.24-.7-2.8-.53-4.24.16-1.36.43-2.73,1.04-3.96.81-1.61,2.18-2.86,3.51-4.07,2.27-2.06,4.55-4.11,6.82-6.17"/>
      <path class="cls-2" d="M18.87,198.94c.42,2.9.51,5.84.27,8.75-.09,1.13-.64,2.59-1.76,2.44-.47-.06-.85-.42-1.14-.79-1.19-1.49-1.71-3.5-1.39-5.38-.59,1.74-1.72,3.29-3.2,4.38-.19.14-.41.28-.64.23-.43-.08-.5-.67-.46-1.11.15-1.55.35-3.1.6-4.64-1.07,1.32-2.58,2.28-4.23,2.69-.78-1.72-.09-3.97,1.52-4.96-1.38.87-2.86,1.58-4.39,2.12-.39.14-.79.26-1.2.2-1-.14-1.52-1.39-1.25-2.37s1.07-1.7,1.86-2.32,1.64-1.25,2.09-2.16c-1.44-.9-3.61.13-4.9-.97-1.06-.9-.73-2.74.32-3.65,1.05-.91,2.52-1.11,3.91-1.17,1.31-.06,2.64-.02,3.89.37,1.65.52,3.04,1.62,4.39,2.7,2.3,1.84,4.59,3.68,6.89,5.52"/>
      <circle cx="65.9" cy="79.25" r="4.39"/>
      <circle cx="92.06" cy="79.5" r="4.55"/>
      <path class="cls-6" d="M62.35,111.48c.38-7.99,7.45-12.91,12.87-11.67,4.45,1.02,8.19,6.31,7.58,12.52l-20.45-.85Z"/>
      <path class="cls-7" d="M76.43,87.39s-7.64.79-1.31,6.29"/>
      <circle class="cls-5" cx="49.67" cy="93.22" r="9.3"/>
      <circle class="cls-5" cx="98.96" cy="97.06" r="9.3"/>
      <path class="cls-3" d="M10.02,191.95c2.33-5.83,27.37-70.68,47.54-67.18l50.7-5.49c9.86-3.64,47.34,46.57,56.62,53.04l-9.32,13.05-40.98-43.84,14.32,50.42-74.64,4.92-3.98-48.48c-3.22,8.13-29,47.96-31.3,51.79"/>
    </g>
  </g>
</svg>