<?xml version="1.0" encoding="UTF-8"?>
<svg id="Calque_2" data-name="Calque 2" xmlns="http://www.w3.org/2000/svg" viewBox="0 0 181.02 283.71">
  <defs>
    <style>
      .cls-1 {
        fill: #181127;
      }

      .cls-2 {
        fill: #eb9790;
      }

      .cls-3 {
        fill: #e84840;
      }

      .cls-4 {
        fill: #ffdf07;
      }

      .cls-5 {
        fill: #d14b3b;
      }

      .cls-6 {
        fill: #fff;
        stroke: #000;
        stroke-miterlimit: 10;
        stroke-width: 2.32px;
      }

      .cls-7 {
        fill: #f5b223;
      }

      .cls-8 {
        fill: #f1b9a7;
      }

      .cls-9 {
        fill: #e62533;
      }
    </style>
  </defs>
  <g id="Calque_6" data-name="Calque 6">
    <g>
      <polygon class="cls-1" points="164.24 239.5 164.24 245.01 165.36 247.8 168.01 249.76 181.02 225.22 174.39 223.01 164.24 239.5"/>
      <g>
        <polygon class="cls-7" points="62.79 273.06 86 273.06 98.19 209.81 161.45 244.05 175.37 221.42 131 191.95 56.36 196.86 62.79 273.06"/>
        <ellipse class="cls-8" cx="81.2" cy="79.42" rx="49.91" ry="43.52" transform="translate(-1.63 1.7) rotate(-1.19)"/>
        <path class="cls-4" d="M25.16,52.62s-16.41-10.07-4.64-25.41c0,0,11.35-10.86,26.14-2.76,0,0,1.91-16.28,13.45-17.72,11.54-1.44,18.92,6.51,18.92,6.51,0,0,11.83-19.68,28.55-11.03,16.73,8.65,15.28,23.89,15.28,23.89,0,0,17.57-5.93,26.51,10.49,8.93,16.41-7.8,26.76-7.8,26.76,0,0,4.39,14.71-8.47,20.55-12.86,5.83-20.3-16.77-20.3-16.77,0,0-12.22,8.61-20.32,4.4s-7.54-13.93-7.54-13.93c0,0-2.79,8.42-15.34,12.84-12.54,4.42-16.61-6.1-16.61-6.1,0,0-6.3,9.41-21.83,6.09-15.53-3.31-6.01-17.79-6.01-17.79Z"/>
        <path class="cls-2" d="M130.3,85.57c-4.01-1.32-7.87-3.09-11.48-5.27-1.39-.84-2.94-2.49-2.03-3.84.38-.57,1.09-.82,1.76-.97,2.69-.58,5.61.04,7.84,1.65-1.87-1.87-3.15-4.34-3.61-6.95-.06-.33-.09-.71.11-.98.39-.51,1.19-.21,1.73.12,1.91,1.19,3.77,2.44,5.6,3.75-1.01-2.23-1.28-4.8-.76-7.19,2.72.1,5.19,2.43,5.44,5.15-.23-2.34-.2-4.7.09-7.04.07-.58.17-1.19.51-1.68.83-1.2,2.78-1.07,3.86-.09s1.5,2.47,1.81,3.9c.3,1.43.56,2.92,1.45,4.08,2.09-1.29,2.15-4.74,4.41-5.71,1.84-.79,4.01.82,4.51,2.76.5,1.94-.18,3.97-.99,5.8-.76,1.73-1.66,3.43-2.97,4.79-1.73,1.8-4.05,2.88-6.31,3.93-3.85,1.78-7.71,3.57-11.56,5.35"/>
        <path class="cls-2" d="M24.75,78.67c-2.14-3.64-3.88-7.52-5.16-11.54-.49-1.55-.57-3.81,1.01-4.23.66-.18,1.36.1,1.96.43,2.4,1.34,4.19,3.73,4.8,6.41-.17-2.64.49-5.34,1.87-7.6.18-.29.4-.6.73-.66.62-.13,1.03.62,1.22,1.23.65,2.15,1.23,4.33,1.74,6.52.71-2.35,2.2-4.45,4.17-5.91,1.98,1.87,2.29,5.25.69,7.46,1.37-1.91,2.95-3.67,4.71-5.23.44-.39.91-.78,1.48-.93,1.41-.36,2.79,1.03,2.96,2.48s-.5,2.85-1.21,4.12c-.71,1.27-1.5,2.57-1.61,4.02,2.42.41,4.75-2.15,7.08-1.39,1.9.62,2.47,3.26,1.57,5.05-.9,1.79-2.76,2.86-4.57,3.71-1.71.79-3.51,1.48-5.39,1.64-2.48.21-4.94-.5-7.34-1.21-4.07-1.2-8.15-2.4-12.22-3.6"/>
        <circle cx="68.01" cy="79.25" r="4.39"/>
        <circle cx="94.17" cy="79.5" r="4.55"/>
        <path class="cls-6" d="M86.7,99.9c-1.05,7.93-8.51,12.24-13.8,10.55-4.35-1.39-7.63-6.97-6.5-13.11l20.3,2.57Z"/>
        <circle class="cls-5" cx="51.78" cy="93.22" r="9.3"/>
        <circle class="cls-5" cx="101.08" cy="97.06" r="9.3"/>
        <polygon class="cls-1" points="62.79 273.06 56.36 276.9 54.82 279.87 54.82 283.71 86.23 282.83 84.14 273.06 62.79 273.06"/>
        <path class="cls-3" d="M116.68,141.53l14.32,50.42-74.64,4.92-3.98-48.48c-17.46-10.18-34.91-20.35-52.37-30.53,7.2-14.11,14.41-28.21,21.61-42.31,7.5,3.22,15.02,6.44,22.53,9.65-3.98,7.82-7.97,15.64-11.95,23.45,9.16,5.37,18.31,10.73,27.48,16.11l50.7-5.49c9.86-3.64,19.72-7.29,29.57-10.92-4.37-6.76-8.76-13.53-13.13-20.28,5.95-3.85,11.9-7.7,17.85-11.55l27.97,37.78-55.94,27.21Z"/>
        <path class="cls-9" d="M69.88,104.08s-7.63,6.26-6.26,11.43c.23.86.62,1.43,1.12,1.79,1.98,1.44,5.79.45,7.67-1.79.36-.43.59-.83.7-1.04,1.81-2.7,3.63-5.4,5.44-8.1l-8.66-2.29Z"/>
      </g>
    </g>
  </g>
</svg>