<?xml version="1.0" encoding="UTF-8"?>
<svg id="Calque_2" data-name="Calque 2" xmlns="http://www.w3.org/2000/svg" viewBox="0 0 188.82 262.75">
  <defs>
    <style>
      .cls-1 {
        fill: #7f4219;
      }

      .cls-2 {
        fill: #ffe006;
      }

      .cls-3 {
        fill: #c2743d;
      }

      .cls-4 {
        fill: #fff;
        stroke: #141421;
        stroke-miterlimit: 10;
        stroke-width: 2.43px;
      }

      .cls-5 {
        fill: #0170a6;
      }

      .cls-6 {
        fill: #141421;
      }
    </style>
  </defs>
  <g id="Calque_7" data-name="Calque 7">
    <polygon class="cls-2" points="118.95 112.7 147.15 178.24 67.13 185.1 72.46 124.9 14.54 88.31 25.97 66.98 80.84 105.84 118.95 112.7"/>
    <circle class="cls-3" cx="110.28" cy="66.98" r="46.38"/>
    <polygon class="cls-5" points="74.41 184.85 74.41 254.08 96.64 257.96 103.7 187.04 142.86 224.79 180.97 201.86 172.5 184.85 152.04 194.45 143.49 178.31 74.41 184.85"/>
    <path class="cls-6" d="M102.98,33.12s19.76,42.88,51.21,45.76c0,0,.52,10.22-4.46,17.56l12.06,3.67s23.06-38,2.1-69.45C142.92-.78,108.32,0,108.32,0,108.32,0,56.96,3.41,53.81,64.73l12.32,3.14,5.24-15.2s29.66-6.09,31.6-19.55Z"/>
    <circle class="cls-6" cx="94.36" cy="70.04" r="5.23"/>
    <circle class="cls-6" cx="121.02" cy="75.27" r="5.23"/>
    <path class="cls-3" d="M15.62,87.28c-3.8-.07-7.61-.14-11.41-.22-.76-.01-1.57-.04-2.18-.48-1.26-.89-.93-3,.24-4s2.81-1.2,4.34-1.36c-2.57-.87-4.81-2.68-6.2-5.01-.37-.62-.64-1.49-.11-1.97.3-.27.75-.29,1.15-.28,2.35.05,4.69.61,6.8,1.62-1.48-1.44-2.57-3.29-3.1-5.29-.18-.67-.29-1.38-.12-2.05.42-1.66,2.49-2.43,4.16-2.03,1.66.39,3,1.6,4.25,2.77-.81-.9-1.63-1.83-2.05-2.97s-.35-2.53.49-3.4c.94-.97,2.55-.98,3.77-.39,1.21.59,2.12,1.65,2.99,2.68-.53-1.64-1.07-3.4-.64-5.07s2.25-3.11,3.86-2.47c.89.35,1.46,1.22,1.88,2.08,1.66,3.43,1.68,7.47.75,11.16-.94,3.69-2.77,7.09-4.73,10.35-1.15,1.91-2.34,3.79-3.58,5.63"/>
    <path class="cls-4" d="M113.38,93.68c-16.18,19.48-19.88-4.21-19.88-4.21l19.88,4.21Z"/>
    <path class="cls-1" d="M106.96,78.69s-7.12,2.48-1.12,6.41"/>
    <polygon class="cls-6" points="77.96 254.7 74.41 256.01 73.4 257.15 73.07 259.26 94.19 262.75 94.19 257.54 77.96 254.7"/>
    <polygon class="cls-6" points="179.56 199.03 184.46 200.61 186.84 200.61 188.82 199.03 176.92 184.21 173.42 186.69 179.56 199.03"/>
  </g>
</svg>