<?xml version="1.0" encoding="UTF-8"?>
<svg id="Calque_2" xmlns="http://www.w3.org/2000/svg" viewBox="0 0 159.5 300">
  <defs>
    <style>
      .cls-1 {
        stroke: #000;
        stroke-linecap: round;
        stroke-width: 2.21px;
      }

      .cls-1, .cls-2 {
        fill: none;
        stroke-miterlimit: 10;
      }

      .cls-3 {
        fill: #232323;
      }

      .cls-4 {
        fill: #c1c1c1;
      }

      .cls-5 {
        fill: #848484;
      }

      .cls-6 {
        fill: #fff;
      }

      .cls-7 {
        fill: #666;
      }

      .cls-2 {
        stroke: #fff;
        stroke-width: 2.15px;
      }
    </style>
  </defs>
  <g id="fille">
    <polyline points="119.84 44.02 119.84 110.54 30.54 110.54 30.54 46.23"/>
    <path class="cls-4" d="M21.29,156.7c.26,2.34-.2,4.76-1.3,6.85-.26.5-.65,1.03-1.21,1.04-.71,0-1.1-.81-1.27-1.5-.38-1.55-.55-3.16-.5-4.76-1.89,3.45-4.95,6.25-8.56,7.82-.86-.68-.22-2.04.46-2.9,1.21-1.54,2.42-3.07,3.63-4.61-2.16,1.94-4.53,3.98-7.42,4.24-.22.02-.46.03-.65-.08-.64-.35-.23-1.32.23-1.88,1.4-1.68,2.8-3.35,4.19-5.03-2.18,1.37-4.5,2.78-7.07,2.82-.28,0-.58-.02-.78-.22-.27-.28-.17-.75.01-1.09,1.05-1.95,3.94-2.17,5.2-3.99-1.4.04-2.79.08-4.19.13-.49.01-1,.02-1.43-.19s-.76-.74-.59-1.19c.11-.29.37-.48.63-.64,1.36-.91,2.76-1.75,4.2-2.51,1.06-.56,2.24-1.1,3.43-.91.86.13,1.62.63,2.35,1.12,3.49,2.34,6.98,4.68,10.46,7.02"/>
    <path class="cls-4" d="M138.15,155.41c-.73,1.58-1.03,3.37-.84,5.1.07.65.31,1.41.95,1.58.88.23,1.49-.85,1.76-1.73.42-1.39.83-2.79,1.25-4.18,1.06,2.21,2.62,4.18,4.53,5.72.31.25.66.49,1.05.47.55-.04.93-.63.93-1.18s-.26-1.06-.52-1.55c-.64-1.2-1.28-2.4-1.92-3.61.94.5,1.46,1.53,1.9,2.5.44.97.91,2.01,1.8,2.59s2.35.41,2.72-.59c.25-.68-.08-1.43-.41-2.08-.73-1.45-1.46-2.9-2.19-4.34,1.02.84,2.04,1.68,3.06,2.52.84.69,1.93,1.42,2.92.97,1.26-.57,1.04-2.51.15-3.57s-2.22-1.73-2.92-2.91c1.3.6,2.6,1.21,3.9,1.81.73.34,1.58.68,2.32.36.83-.37,1.11-1.48.83-2.35s-.98-1.52-1.67-2.11c-1.7-1.44-3.56-2.68-5.54-3.7-.22-.11-.45-.23-.7-.25-.35-.03-.69.14-1.01.3-4.93,2.57-9.06,6.4-13.14,10.18"/>
    <path d="M38.72,288.98c-1.85.93-3.71,1.85-5.56,2.78-.72.99-1.44,1.97-2.16,2.96v5.28h34.64l-1.48-10.64c-8.48-.13-16.96-.26-25.45-.38Z"/>
    <path d="M125.81,284.35c2.16,1.24,4.33,2.47,6.49,3.71,1.24,1.24,2.47,2.47,3.71,3.71v8.24h-34.01c-.09-3.98-.19-7.97-.28-11.95,8.03-1.24,16.06-2.47,24.1-3.71Z"/>
    <path class="cls-7" d="M36.96,196.59h82.71c4.11,30.14,8.23,60.28,12.34,90.42-11.94,1-23.89,2-35.83,3l-17.52-71.49-10.17,71.49H31.68l5.28-93.42Z"/>
    <path class="cls-3" d="M153.28,143.31c-19.77-19.48-39.54-38.96-59.31-58.44-12.5-.29-25-.58-37.5-.87-17.15,21.51-34.31,43.03-51.46,64.54l16.76,11.34c7.78-10.18,15.57-20.35,23.36-30.53-4.75,23.55-9.49,47.1-14.24,70.65h.21c-.2,4.39,3.17,8.11,7.55,8.33,4.39.23,8.13-3.15,8.35-7.54.01-.14.01-.27.01-.41,0,4.22,3.31,7.74,7.56,7.95,4.39.23,8.13-3.15,8.36-7.54.01-.14.01-.26.01-.4,0,4.22,3.3,7.73,7.55,7.94,4.39.23,8.14-3.15,8.36-7.54,0-.14,0-.27,0-.41,0-.13,0-.26-.02-.38h.03c-.01.13-.01.25-.01.38,0,4.22,3.3,7.74,7.56,7.95,4.39.23,8.13-3.15,8.35-7.54.01-.14.01-.27.01-.41,0,4.22,3.31,7.74,7.56,7.95,4.39.23,8.13-3.15,8.36-7.54.01-.14.01-.26.01-.4,0,4.22,3.3,7.73,7.55,7.94,4.39.23,8.13-3.15,8.36-7.54.01-.27.01-.53-.01-.79h.27c-6.61-24.13-13.22-48.26-19.82-72.39,9.88,9.88,19.76,19.77,29.65,29.65,5.52-4.65,11.05-9.3,16.57-13.95ZM47.01,200.37c0-.12,0-.25-.02-.37h.03c-.01.13-.01.24-.01.37ZM62.94,200.38c0-.13,0-.26-.02-.38h.03c-.01.13-.01.25-.01.38ZM94.78,200.37c0-.12,0-.25-.02-.37h.03c-.01.13-.01.24-.01.37ZM110.72,200c-.01.13-.01.25-.01.38,0-.13,0-.26-.02-.38h.03Z"/>
    <g>
      <path class="cls-2" d="M91.8,110.49c-7.03,4.65-12.63-9.49-15.55-19.32-2.93,9.84-8.52,23.96-15.55,19.31-10.5-6.93-4.03-28.48-4.03-28.48l19.82.46,19.35-.45s6.47,21.55-4.03,28.48Z"/>
      <line class="cls-2" x1="76.25" y1="91.17" x2="76.12" y2="126.6"/>
      <circle class="cls-6" cx="81.01" cy="116" r="2"/>
      <circle class="cls-6" cx="81.01" cy="124" r="2"/>
    </g>
    <ellipse class="cls-4" cx="76.79" cy="46.45" rx="50.78" ry="46.37"/>
    <circle class="cls-5" cx="49.33" cy="66.48" r="10.89"/>
    <circle class="cls-5" cx="106.74" cy="66.48" r="10.89"/>
    <circle cx="64.64" cy="47.56" r="4.42"/>
    <circle cx="87.83" cy="47.56" r="4.42"/>
    <path class="cls-1" d="M85.24,70.8c-1.35-4.48-5.56-7.42-9.98-7.12-3.87.26-7.28,2.97-8.55,6.82"/>
    <path class="cls-5" d="M75.68,51.97c1.78.25,3.14,1.66,3.31,3.31.2,1.91-1.23,3.78-3.31,4.1"/>
    <path d="M44.78,44.45v71.55h-18.77V38.99c.08-.45.18-.9.28-1.34C34.71,0,76.79,0,76.79,0c.66,29.71-17.11,40.56-32.01,44.45Z"/>
    <path d="M128.68,46.35c-3.5.24-10.37.45-18.77-1.19-7.33-1.43-15.84-4.27-24.29-9.75-11.97-7.76-18.74-17.49-22.08-23.18L76.81,0c2.89-.04,27.87,0,42.6,19.9,5.58,7.55,7.81,15.4,8.7,21.11.34,2.11.49,3.94.57,5.34Z"/>
    <path d="M128.68,46.35v69.65h-18.77V43.42l18.2-2.41c.34,2.11.49,3.94.57,5.34Z"/>
  </g>
</svg>