<?xml version="1.0" encoding="UTF-8"?>
<svg id="Calque_2" xmlns="http://www.w3.org/2000/svg" viewBox="0 0 80.49 78.04">
  <defs>
    <style>
      .cls-1 {
        fill: #efbaaa;
      }

      .cls-2 {
        fill: #f19645;
      }

      .cls-3 {
        fill: #edc45b;
      }

      .cls-4 {
        stroke-width: 1.87px;
      }

      .cls-4, .cls-5, .cls-6 {
        fill: none;
        stroke: #3b8557;
        stroke-miterlimit: 10;
      }

      .cls-7 {
        fill: #e7c15d;
      }

      .cls-5 {
        stroke-width: 2.59px;
      }

      .cls-6 {
        stroke-width: 3.93px;
      }

      .cls-8 {
        fill: #fafada;
      }

      .cls-9 {
        fill: #f8f5de;
      }

      .cls-10 {
        fill: #3b8557;
      }
    </style>
  </defs>
  <g id="Calque_1-2" data-name="Calque_1">
    <path class="cls-6" d="M64.04,17.26s-28.82,22.27-18.34,60.26"/>
    <path class="cls-8" d="M72.18,22.11h0c-1.11,7.56-12.31,6.5-11.99-1.13v-.27s-.15.03-.15.03c-7.64,1.15-9.93-10.01-2.46-11.96h0s0,0,0,0c-3.46-6.76,6.24-12.35,10.36-5.98h0s0,0,0,0c5.43-5.5,13.95,2.06,9.13,8.11l-.1.13.24.12c6.77,3.54,2.08,13.77-5.02,10.95h0Z"/>
    <circle class="cls-7" cx="66.5" cy="12.84" r="3.75"/>
    <path class="cls-5" d="M29.34,25.68c1.4,6.04,2.61,13.63,2.76,22.43.13,7.28-.5,13.72-1.37,19.07"/>
    <path class="cls-3" d="M22.92,30.2l4.35-2.22c.12-.06.26-.04.36.06l3.45,3.45c2.4,2.4,6.46.33,5.93-3.02l-.76-4.82c-.02-.13.05-.26.17-.32l4.35-2.22c3.02-1.54,2.31-6.04-1.04-6.58l-4.82-.77c-.13-.02-.24-.13-.26-.26l-.76-4.82c-.53-3.35-5.04-4.06-6.57-1.04l-2.22,4.35c-.06.12-.19.19-.32.17l-4.82-.77c-3.35-.53-5.42,3.53-3.02,5.93l3.45,3.45c.09.09.12.24.06.36l-2.22,4.35c-1.54,3.02,1.69,6.25,4.71,4.71Z"/>
    <circle class="cls-9" cx="29.09" cy="19.96" r="3.45"/>
    <path class="cls-4" d="M10.9,45.58c2.1,3.94,4.36,9,6.11,15.1,1.45,5.05,2.21,9.64,2.61,13.53"/>
    <path class="cls-1" d="M7.87,49.38l2.01-1.81c.08-.07.2-.08.29-.03l2.34,1.35c2.33,1.35,5.03-1.08,3.93-3.54l-1.1-2.47c-.04-.1-.02-.21.06-.28l2.01-1.81c2-1.8.53-5.11-2.15-4.83l-2.69.28c-.11.01-.21-.05-.25-.14l-1.1-2.47c-1.1-2.46-4.7-2.08-5.26.55l-.56,2.65c-.02.1-.11.18-.22.19l-2.69.28c-2.68.28-3.43,3.83-1.1,5.17l2.34,1.35c.09.05.14.16.12.26l-.56,2.65c-.56,2.63,2.58,4.45,4.58,2.64Z"/>
    <circle class="cls-2" cx="9.66" cy="41.64" r="2.49"/>
    <path class="cls-10" d="M46.16,77.52s-5-17,11-26c0,0,5,16-11,26Z"/>
  </g>
</svg>