<?xml version="1.0" encoding="UTF-8"?>
<svg id="Calque_2" xmlns="http://www.w3.org/2000/svg" viewBox="0 0 104.93 103.11">
  <defs>
    <style>
      .cls-1 {
        fill: none;
        stroke: #3b8557;
        stroke-miterlimit: 10;
        stroke-width: 3px;
      }

      .cls-2 {
        fill: #e092a9;
      }

      .cls-3 {
        fill: #3b8557;
      }
    </style>
  </defs>
  <g id="Calque_1-2" data-name="Calque_1">
    <path class="cls-3" d="M41.03,102.11l-4-13s-22,7-27-3,26-6,26-6l-1-8s-24.09,11.01-25.55-1.5c-1.45-12.5,22.55-7.5,22.55-7.5l-2-8s-22,11-25-5,24-3,24-3l-3-10S1.03,43.11.03,34.11s22-4,22-4c0,0-13-28-5-30s12,25,12,25c0,0,11-18,19-12s-17,18-17,18l2,13s13-20,23-11-12,16-12,16c0,0-8.5,1.89-10.25,1.95l2.25,10.05s15.21-15.11,22.61-10.05-4.61,12.05-4.61,12.05c0,0-11,6-14,6l2,9s9.03-15.73,19.01-10.87-17.01,16.87-17.01,16.87l1.83,19-4.83-1Z"/>
    <path class="cls-1" d="M87.03,55.11c-5,25,1.81,46,1.81,46"/>
    <path class="cls-2" d="M75.53,39.61s-3,15,12,19,17-16,17-16l.39-4.69c.22-2.64-2.89-4.19-4.87-2.44l-3.52,3.13-1.93-5.79c-.76-2.29-3.92-2.52-5-.36l-2.07,4.14-.81-4.09c-.45-2.25-3.55-2.54-4.4-.4-.1,1.66-.19,3.33-.29,4.99-.33-1.67-.67-3.33-1-5-.92-1.06-2.3-1.45-3.43-1.01-.99.39-1.42,1.3-1.52,1.54l-.55,6.96Z"/>
  </g>
</svg>