<?xml version="1.0" encoding="UTF-8"?>
<svg id="Calque_2" data-name="Calque 2" xmlns="http://www.w3.org/2000/svg" viewBox="0 0 678.69 310.24">
  <defs>
    <style>
      .cls-1 {
        fill: #a2ca83;
      }

      .cls-2 {
        fill: #008556;
      }
    </style>
  </defs>
  <g id="Calque_6" data-name="Calque 6">
    <path class="cls-2" d="M297.79,143.31s-21.76-99.49,43.53-133.69c65.29-34.2,115.04,31.09,124.37,66.85,34.2-20.21,105.71-32.69,127.47,20.19,21.76,52.88-27.98,105.73-27.98,105.73,0,0,96.38-34.2,111.93,49.75,8.29,40.42-18.65,58.11-18.65,58.11h-285l-75.66-166.93Z"/>
    <path class="cls-1" d="M3.16,307.9s-37.76-177.42,147.59-74.45c0-137.3,127-198.14,199.08-32.14,109.84-84.57,157.89,47.17,157.89,106.59-127,4.49-504.57,0-504.57,0Z"/>
  </g>
</svg>