<?xml version="1.0" encoding="UTF-8"?>
<svg id="Calque_2" data-name="Calque 2" xmlns="http://www.w3.org/2000/svg" viewBox="0 0 1279.43 693.5">
  <defs>
    <style>
      .cls-1 {
        stroke: #492e13;
        stroke-width: .92px;
      }

      .cls-1, .cls-2, .cls-3 {
        fill: none;
        stroke-miterlimit: 10;
      }

      .cls-4 {
        fill: #3257a3;
      }

      .cls-5 {
        fill: #929292;
      }

      .cls-6 {
        fill: #39ab6d;
      }

      .cls-7 {
        fill: #c0e2f5;
      }

      .cls-2 {
        stroke-width: 1.18px;
      }

      .cls-2, .cls-3 {
        stroke: #fff;
      }

      .cls-8 {
        fill: #e73729;
      }

      .cls-9 {
        fill: #f59e1d;
      }

      .cls-3 {
        stroke-width: 1.84px;
      }

      .cls-10 {
        fill: #492e13;
      }

      .cls-11 {
        fill: #e73824;
      }

      .cls-12 {
        fill: #fef5ef;
      }

      .cls-13 {
        fill: #f9c5bc;
      }
    </style>
  </defs>
  <g id="Calque_7" data-name="Calque 7">
    <rect class="cls-4" x="766.11" y="160.3" width="132.21" height="181.7"/>
    <rect class="cls-4" x="1048.09" y="160.3" width="132.21" height="181.7"/>
    <rect class="cls-13" x="898.32" y="74.18" width="149.77" height="267.81"/>
    <polygon class="cls-9" points="898.27 113.29 898.27 160.3 766.15 160.3 772.95 153.41 773.86 152.49 783.39 142.84 784.3 141.92 794.23 131.86 795.14 130.94 805.08 120.88 805.99 119.96 812.57 113.29 898.27 113.29"/>
    <polygon class="cls-9" points="1180.26 160.3 1133.84 113.29 1048.13 113.29 1048.13 160.3 1180.26 160.3"/>
    <polygon class="cls-11" points="899.16 74.18 973.57 0 1048.13 74.18 899.16 74.18"/>
    <rect class="cls-10" x="812.42" y="76.52" width="24.98" height="36.76"/>
    <rect class="cls-8" x="807.43" y="70.26" width="34.98" height="7.85"/>
    <rect class="cls-8" x="926.68" y="249.96" width="94.16" height="7.85"/>
    <circle class="cls-12" cx="973.65" cy="116.62" r="24.51"/>
    <rect x="973.05" y="99.63" width="1.2" height="13.04"/>
    <rect x="964.87" y="112.57" width="1.2" height="8.11" transform="translate(1082.09 -848.85) rotate(90)"/>
    <polygon points="972.06 99.63 975.17 99.63 973.61 97.3 972.06 99.63"/>
    <polyline points="959.32 116.62 961.66 118.17 961.66 115.07"/>
    <circle class="cls-4" cx="973.65" cy="116.62" r="4.97"/>
    <rect class="cls-9" x="931.52" y="257.81" width="84.19" height="84.19"/>
    <line class="cls-3" x1="973.77" y1="257.81" x2="973.77" y2="342"/>
    <circle cx="979.38" cy="301.37" r="2.28"/>
    <circle cx="967.85" cy="301.37" r="2.28"/>
    <rect class="cls-7" x="1058.58" y="249.96" width="49.13" height="49.13"/>
    <rect class="cls-7" x="1118.19" y="249.96" width="49.13" height="49.13"/>
    <rect class="cls-10" x="1058.58" y="271.9" width="49.13" height="5.37"/>
    <rect class="cls-10" x="1058.64" y="271.84" width="49" height="5.37" transform="translate(1357.67 -808.62) rotate(90)"/>
    <rect class="cls-10" x="1118.19" y="271.96" width="49.13" height="5.37"/>
    <rect class="cls-10" x="1118.25" y="271.9" width="49" height="5.37" transform="translate(1417.34 -868.17) rotate(90)"/>
    <rect class="cls-7" x="777.84" y="250.09" width="49.13" height="49.13"/>
    <rect class="cls-7" x="837.46" y="250.09" width="49.13" height="49.13"/>
    <rect class="cls-10" x="777.84" y="272.03" width="49.13" height="5.37"/>
    <rect class="cls-10" x="777.9" y="271.96" width="49" height="5.37" transform="translate(1077.05 -527.76) rotate(90)"/>
    <rect class="cls-10" x="837.46" y="272.09" width="49.13" height="5.37"/>
    <rect class="cls-10" x="837.52" y="272.03" width="49" height="5.37" transform="translate(1136.73 -587.31) rotate(90)"/>
    <polygon class="cls-10" points="898.27 119.96 898.27 120.88 805.08 120.88 805.99 119.96 898.27 119.96"/>
    <polygon class="cls-10" points="898.27 130.94 898.27 131.86 794.23 131.86 795.14 130.94 898.27 130.94"/>
    <polygon class="cls-10" points="898.27 141.92 898.27 142.84 783.39 142.84 784.3 141.92 898.27 141.92"/>
    <polygon class="cls-10" points="898.27 152.48 898.27 153.41 772.95 153.41 773.86 152.49 898.27 152.48"/>
    <line class="cls-1" x1="773.39" y1="152.95" x2="773.39" y2="160.3"/>
    <line class="cls-1" x1="794.23" y1="152.95" x2="794.23" y2="160.3"/>
    <line class="cls-1" x1="814.77" y1="152.95" x2="814.77" y2="160.3"/>
    <line class="cls-1" x1="835.61" y1="152.95" x2="835.61" y2="160.3"/>
    <line class="cls-1" x1="855.94" y1="153.41" x2="855.94" y2="160.3"/>
    <line class="cls-1" x1="876.79" y1="153.41" x2="876.79" y2="160.3"/>
    <line class="cls-1" x1="815.4" y1="112.36" x2="815.4" y2="120.42"/>
    <line class="cls-1" x1="835.93" y1="112.36" x2="835.93" y2="120.42"/>
    <line class="cls-1" x1="856.78" y1="113.29" x2="856.78" y2="120.63"/>
    <line class="cls-1" x1="877.11" y1="113.29" x2="877.11" y2="120.17"/>
    <line class="cls-1" x1="897.73" y1="153.41" x2="897.73" y2="160.3"/>
    <line class="cls-1" x1="783.9" y1="142.67" x2="783.81" y2="152.95"/>
    <line class="cls-1" x1="804.66" y1="142.38" x2="804.66" y2="152.95"/>
    <line class="cls-1" x1="825.19" y1="142.38" x2="825.19" y2="152.95"/>
    <line class="cls-1" x1="846.03" y1="142.84" x2="846.03" y2="152.95"/>
    <line class="cls-1" x1="866.36" y1="141.92" x2="866.36" y2="153.41"/>
    <line class="cls-1" x1="887.21" y1="142.38" x2="887.21" y2="153.41"/>
    <line class="cls-1" x1="804.86" y1="120.63" x2="804.86" y2="131.2"/>
    <line class="cls-1" x1="825.39" y1="120.63" x2="825.39" y2="131.2"/>
    <line class="cls-1" x1="846.23" y1="121.09" x2="846.23" y2="131.2"/>
    <line class="cls-1" x1="866.57" y1="120.17" x2="866.57" y2="131.66"/>
    <line class="cls-1" x1="887.41" y1="120.63" x2="887.41" y2="131.66"/>
    <line class="cls-1" x1="794.43" y1="131.8" x2="794.33" y2="142.07"/>
    <line class="cls-1" x1="815.18" y1="131.51" x2="815.18" y2="142.07"/>
    <line class="cls-1" x1="835.71" y1="131.51" x2="835.71" y2="142.07"/>
    <line class="cls-1" x1="856.55" y1="131.97" x2="856.55" y2="142.07"/>
    <line class="cls-1" x1="876.89" y1="131.05" x2="876.89" y2="142.54"/>
    <line class="cls-1" x1="897.73" y1="131.51" x2="897.73" y2="142.54"/>
    <polygon class="cls-10" points="1048.09 119.96 1048.09 120.88 1141.29 120.88 1140.38 119.96 1048.09 119.96"/>
    <polygon class="cls-10" points="1048.09 130.94 1048.09 131.86 1152.13 131.86 1151.22 130.94 1048.09 130.94"/>
    <polygon class="cls-10" points="1048.09 141.92 1048.09 142.84 1162.98 142.84 1162.06 141.92 1048.09 141.92"/>
    <polygon class="cls-10" points="1048.09 152.48 1048.09 153.41 1173.42 153.41 1172.5 152.49 1048.09 152.48"/>
    <line class="cls-1" x1="1172.97" y1="152.95" x2="1172.97" y2="160.3"/>
    <line class="cls-1" x1="1152.13" y1="152.95" x2="1152.13" y2="160.3"/>
    <line class="cls-1" x1="1131.6" y1="152.95" x2="1131.6" y2="160.3"/>
    <line class="cls-1" x1="1110.75" y1="152.95" x2="1110.75" y2="160.3"/>
    <line class="cls-1" x1="1090.42" y1="153.41" x2="1090.42" y2="160.3"/>
    <line class="cls-1" x1="1069.58" y1="153.41" x2="1069.58" y2="160.3"/>
    <line class="cls-1" x1="1130.97" y1="112.36" x2="1130.97" y2="120.42"/>
    <line class="cls-1" x1="1110.43" y1="112.36" x2="1110.43" y2="120.42"/>
    <line class="cls-1" x1="1089.59" y1="113.29" x2="1089.59" y2="120.63"/>
    <line class="cls-1" x1="1069.26" y1="113.29" x2="1069.26" y2="120.17"/>
    <line class="cls-1" x1="1048.63" y1="153.41" x2="1048.63" y2="160.3"/>
    <line class="cls-1" x1="1162.46" y1="142.67" x2="1162.55" y2="152.95"/>
    <line class="cls-1" x1="1141.71" y1="142.38" x2="1141.71" y2="152.95"/>
    <line class="cls-1" x1="1121.17" y1="142.38" x2="1121.17" y2="152.95"/>
    <line class="cls-1" x1="1100.33" y1="142.84" x2="1100.33" y2="152.95"/>
    <line class="cls-1" x1="1080" y1="141.92" x2="1080" y2="153.41"/>
    <line class="cls-1" x1="1059.16" y1="142.38" x2="1059.16" y2="153.41"/>
    <line class="cls-1" x1="1141.51" y1="120.63" x2="1141.51" y2="131.2"/>
    <line class="cls-1" x1="1120.97" y1="120.63" x2="1120.97" y2="131.2"/>
    <line class="cls-1" x1="1100.13" y1="121.09" x2="1100.13" y2="131.2"/>
    <line class="cls-1" x1="1079.8" y1="120.17" x2="1079.8" y2="131.66"/>
    <line class="cls-1" x1="1058.95" y1="120.63" x2="1058.95" y2="131.66"/>
    <line class="cls-1" x1="1151.94" y1="131.8" x2="1152.03" y2="142.07"/>
    <line class="cls-1" x1="1131.19" y1="131.51" x2="1131.19" y2="142.07"/>
    <line class="cls-1" x1="1110.65" y1="131.51" x2="1110.65" y2="142.07"/>
    <line class="cls-1" x1="1089.81" y1="131.97" x2="1089.81" y2="142.07"/>
    <line class="cls-1" x1="1069.48" y1="131.05" x2="1069.48" y2="142.54"/>
    <line class="cls-1" x1="1048.63" y1="131.51" x2="1048.63" y2="142.54"/>
  </g>
  <g id="Calque_6" data-name="Calque 6">
    <rect class="cls-5" y="339.12" width="1279.43" height="352.71"/>
    <polygon class="cls-6" points=".53 339.12 655.56 339.12 529.73 693.5 0 693.5 .53 339.12"/>
    <g>
      <polygon class="cls-2" points="1097.67 498.08 1050.77 498.08 1068.81 460.65 1115.71 460.65 1097.67 498.08"/>
      <polygon class="cls-2" points="1050.59 497.78 1003.69 497.78 1021.73 460.35 1068.63 460.35 1050.59 497.78"/>
      <polygon class="cls-2" points="995.35 514.6 948.45 514.6 966.49 477.17 1013.39 477.17 995.35 514.6"/>
      <polygon class="cls-2" points="1013.23 477.17 966.33 477.17 984.36 439.74 1031.27 439.74 1013.23 477.17"/>
      <polygon class="cls-2" points="956.51 497.78 909.61 497.78 927.64 460.35 974.55 460.35 956.51 497.78"/>
      <polygon class="cls-2" points="901.08 515.47 854.18 515.47 872.21 478.04 919.12 478.04 901.08 515.47"/>
      <polygon class="cls-2" points="919.14 478.04 872.24 478.04 890.28 440.61 937.18 440.61 919.14 478.04"/>
      <polygon class="cls-2" points="862.67 497.78 815.77 497.78 833.81 460.35 880.71 460.35 862.67 497.78"/>
      <polygon class="cls-2" points="816.26 497.78 769.36 497.78 787.4 460.35 834.3 460.35 816.26 497.78"/>
    </g>
  </g>
</svg>