<?xml version="1.0" encoding="UTF-8"?>
<svg id="Calque_2" data-name="Calque 2" xmlns="http://www.w3.org/2000/svg" viewBox="0 0 414.19 342">
  <defs>
    <style>
      .cls-1 {
        stroke: #492e13;
        stroke-width: .92px;
      }

      .cls-1, .cls-2 {
        fill: none;
        stroke-miterlimit: 10;
      }

      .cls-3 {
        fill: #3257a3;
      }

      .cls-4 {
        fill: #c0e2f5;
      }

      .cls-5 {
        fill: #e73729;
      }

      .cls-6 {
        fill: #f59e1d;
      }

      .cls-2 {
        stroke: #fff;
        stroke-width: 1.84px;
      }

      .cls-7 {
        fill: #492e13;
      }

      .cls-8 {
        fill: #e73824;
      }

      .cls-9 {
        fill: #fef5ef;
      }

      .cls-10 {
        fill: #f9c5bc;
      }
    </style>
  </defs>
  <g id="Calque_7" data-name="Calque 7">
    <rect class="cls-3" y="160.3" width="132.21" height="181.7"/>
    <rect class="cls-3" x="281.98" y="160.3" width="132.21" height="181.7"/>
    <rect class="cls-10" x="132.21" y="74.18" width="149.77" height="267.81"/>
    <polygon class="cls-6" points="132.16 113.29 132.16 160.3 .04 160.3 6.84 153.41 7.75 152.49 17.28 142.84 18.19 141.92 28.12 131.86 29.03 130.94 38.97 120.88 39.88 119.96 46.46 113.29 132.16 113.29"/>
    <polygon class="cls-6" points="414.15 160.3 367.73 113.29 282.02 113.29 282.02 160.3 414.15 160.3"/>
    <polygon class="cls-8" points="133.05 74.18 207.46 0 282.02 74.18 133.05 74.18"/>
    <rect class="cls-7" x="46.31" y="76.52" width="24.98" height="36.76"/>
    <rect class="cls-5" x="41.32" y="70.26" width="34.98" height="7.85"/>
    <rect class="cls-5" x="160.58" y="249.96" width="94.16" height="7.85"/>
    <circle class="cls-9" cx="207.54" cy="116.62" r="24.51"/>
    <rect x="206.94" y="99.63" width="1.2" height="13.04"/>
    <rect x="198.76" y="112.57" width="1.2" height="8.11" transform="translate(315.98 -82.74) rotate(90)"/>
    <polygon points="205.95 99.63 209.06 99.63 207.5 97.3 205.95 99.63"/>
    <polyline points="193.22 116.62 195.55 118.17 195.55 115.07"/>
    <circle class="cls-3" cx="207.54" cy="116.62" r="4.97"/>
    <rect class="cls-6" x="165.41" y="257.81" width="84.19" height="84.19"/>
    <line class="cls-2" x1="207.66" y1="257.81" x2="207.66" y2="342"/>
    <circle cx="213.27" cy="301.37" r="2.28"/>
    <circle cx="201.74" cy="301.37" r="2.28"/>
    <rect class="cls-4" x="292.47" y="249.96" width="49.13" height="49.13"/>
    <rect class="cls-4" x="352.08" y="249.96" width="49.13" height="49.13"/>
    <rect class="cls-7" x="292.47" y="271.9" width="49.13" height="5.37"/>
    <rect class="cls-7" x="292.53" y="271.84" width="49" height="5.37" transform="translate(591.56 -42.51) rotate(90)"/>
    <rect class="cls-7" x="352.08" y="271.96" width="49.13" height="5.37"/>
    <rect class="cls-7" x="352.15" y="271.9" width="49" height="5.37" transform="translate(651.23 -102.06) rotate(90)"/>
    <rect class="cls-4" x="11.73" y="250.09" width="49.13" height="49.13"/>
    <rect class="cls-4" x="71.35" y="250.09" width="49.13" height="49.13"/>
    <rect class="cls-7" x="11.73" y="272.03" width="49.13" height="5.37"/>
    <rect class="cls-7" x="11.79" y="271.96" width="49" height="5.37" transform="translate(310.94 238.35) rotate(90)"/>
    <rect class="cls-7" x="71.35" y="272.09" width="49.13" height="5.37"/>
    <rect class="cls-7" x="71.41" y="272.03" width="49" height="5.37" transform="translate(370.62 178.8) rotate(90)"/>
    <polygon class="cls-7" points="132.16 119.96 132.16 120.88 38.97 120.88 39.88 119.96 132.16 119.96"/>
    <polygon class="cls-7" points="132.16 130.94 132.16 131.86 28.12 131.86 29.03 130.94 132.16 130.94"/>
    <polygon class="cls-7" points="132.16 141.92 132.16 142.84 17.28 142.84 18.19 141.92 132.16 141.92"/>
    <polygon class="cls-7" points="132.16 152.48 132.16 153.41 6.84 153.41 7.75 152.49 132.16 152.48"/>
    <line class="cls-1" x1="7.28" y1="152.95" x2="7.28" y2="160.3"/>
    <line class="cls-1" x1="28.12" y1="152.95" x2="28.12" y2="160.3"/>
    <line class="cls-1" x1="48.66" y1="152.95" x2="48.66" y2="160.3"/>
    <line class="cls-1" x1="69.5" y1="152.95" x2="69.5" y2="160.3"/>
    <line class="cls-1" x1="89.83" y1="153.41" x2="89.83" y2="160.3"/>
    <line class="cls-1" x1="110.68" y1="153.41" x2="110.68" y2="160.3"/>
    <line class="cls-1" x1="49.29" y1="112.36" x2="49.29" y2="120.42"/>
    <line class="cls-1" x1="69.82" y1="112.36" x2="69.82" y2="120.42"/>
    <line class="cls-1" x1="90.67" y1="113.29" x2="90.67" y2="120.63"/>
    <line class="cls-1" x1="111" y1="113.29" x2="111" y2="120.17"/>
    <line class="cls-1" x1="131.62" y1="153.41" x2="131.62" y2="160.3"/>
    <line class="cls-1" x1="17.79" y1="142.67" x2="17.7" y2="152.95"/>
    <line class="cls-1" x1="38.55" y1="142.38" x2="38.55" y2="152.95"/>
    <line class="cls-1" x1="59.08" y1="142.38" x2="59.08" y2="152.95"/>
    <line class="cls-1" x1="79.92" y1="142.84" x2="79.92" y2="152.95"/>
    <line class="cls-1" x1="100.26" y1="141.92" x2="100.26" y2="153.41"/>
    <line class="cls-1" x1="121.1" y1="142.38" x2="121.1" y2="153.41"/>
    <line class="cls-1" x1="38.75" y1="120.63" x2="38.75" y2="131.2"/>
    <line class="cls-1" x1="59.28" y1="120.63" x2="59.28" y2="131.2"/>
    <line class="cls-1" x1="80.12" y1="121.09" x2="80.12" y2="131.2"/>
    <line class="cls-1" x1="100.46" y1="120.17" x2="100.46" y2="131.66"/>
    <line class="cls-1" x1="121.3" y1="120.63" x2="121.3" y2="131.66"/>
    <line class="cls-1" x1="28.32" y1="131.8" x2="28.23" y2="142.07"/>
    <line class="cls-1" x1="49.07" y1="131.51" x2="49.07" y2="142.07"/>
    <line class="cls-1" x1="69.6" y1="131.51" x2="69.6" y2="142.07"/>
    <line class="cls-1" x1="90.45" y1="131.97" x2="90.45" y2="142.07"/>
    <line class="cls-1" x1="110.78" y1="131.05" x2="110.78" y2="142.54"/>
    <line class="cls-1" x1="131.62" y1="131.51" x2="131.62" y2="142.54"/>
    <polygon class="cls-7" points="281.98 119.96 281.98 120.88 375.18 120.88 374.27 119.96 281.98 119.96"/>
    <polygon class="cls-7" points="281.98 130.94 281.98 131.86 386.02 131.86 385.11 130.94 281.98 130.94"/>
    <polygon class="cls-7" points="281.98 141.92 281.98 142.84 396.87 142.84 395.96 141.92 281.98 141.92"/>
    <polygon class="cls-7" points="281.98 152.48 281.98 153.41 407.31 153.41 406.39 152.49 281.98 152.48"/>
    <line class="cls-1" x1="406.86" y1="152.95" x2="406.86" y2="160.3"/>
    <line class="cls-1" x1="386.02" y1="152.95" x2="386.02" y2="160.3"/>
    <line class="cls-1" x1="365.49" y1="152.95" x2="365.49" y2="160.3"/>
    <line class="cls-1" x1="344.64" y1="152.95" x2="344.64" y2="160.3"/>
    <line class="cls-1" x1="324.31" y1="153.41" x2="324.31" y2="160.3"/>
    <line class="cls-1" x1="303.47" y1="153.41" x2="303.47" y2="160.3"/>
    <line class="cls-1" x1="364.86" y1="112.36" x2="364.86" y2="120.42"/>
    <line class="cls-1" x1="344.32" y1="112.36" x2="344.32" y2="120.42"/>
    <line class="cls-1" x1="323.48" y1="113.29" x2="323.48" y2="120.63"/>
    <line class="cls-1" x1="303.15" y1="113.29" x2="303.15" y2="120.17"/>
    <line class="cls-1" x1="282.52" y1="153.41" x2="282.52" y2="160.3"/>
    <line class="cls-1" x1="396.35" y1="142.67" x2="396.44" y2="152.95"/>
    <line class="cls-1" x1="375.6" y1="142.38" x2="375.6" y2="152.95"/>
    <line class="cls-1" x1="355.06" y1="142.38" x2="355.06" y2="152.95"/>
    <line class="cls-1" x1="334.22" y1="142.84" x2="334.22" y2="152.95"/>
    <line class="cls-1" x1="313.89" y1="141.92" x2="313.89" y2="153.41"/>
    <line class="cls-1" x1="293.05" y1="142.38" x2="293.05" y2="153.41"/>
    <line class="cls-1" x1="375.4" y1="120.63" x2="375.4" y2="131.2"/>
    <line class="cls-1" x1="354.86" y1="120.63" x2="354.86" y2="131.2"/>
    <line class="cls-1" x1="334.02" y1="121.09" x2="334.02" y2="131.2"/>
    <line class="cls-1" x1="313.69" y1="120.17" x2="313.69" y2="131.66"/>
    <line class="cls-1" x1="292.84" y1="120.63" x2="292.84" y2="131.66"/>
    <line class="cls-1" x1="385.83" y1="131.8" x2="385.92" y2="142.07"/>
    <line class="cls-1" x1="365.08" y1="131.51" x2="365.08" y2="142.07"/>
    <line class="cls-1" x1="344.54" y1="131.51" x2="344.54" y2="142.07"/>
    <line class="cls-1" x1="323.7" y1="131.97" x2="323.7" y2="142.07"/>
    <line class="cls-1" x1="303.37" y1="131.05" x2="303.37" y2="142.54"/>
    <line class="cls-1" x1="282.52" y1="131.51" x2="282.52" y2="142.54"/>
  </g>
</svg>