<?xml version="1.0" encoding="UTF-8"?>
<svg id="Calque_2" xmlns="http://www.w3.org/2000/svg" viewBox="0 0 162.79 162">
  <defs>
    <style>
      .cls-1 {
        fill: none;
        stroke: #191919;
        stroke-miterlimit: 10;
        stroke-width: 1.62px;
      }

      .cls-2 {
        fill: #878787;
      }

      .cls-3 {
        fill: #5e5e5e;
      }

      .cls-4 {
        fill: #afafaf;
      }
    </style>
  </defs>
  <g id="Calque_1-2" data-name="Calque_1">
    <path class="cls-4" d="M162.79,81c0,22.16-8.89,42.24-23.32,56.86-14.69,14.9-35.1,24.14-57.68,24.14-35.73,0-66.05-23.13-76.82-55.23-2.71-8.1-4.18-16.76-4.18-25.77C.79,36.26,37.05,0,81.79,0s81,36.26,81,81Z"/>
    <circle cx="62.01" cy="66" r="6"/>
    <circle cx="100.58" cy="66" r="6"/>
    <path class="cls-1" d="M91.79,100.34s-.71-7.54-8.52-7.54c-7.81,0-8.48,7.54-8.48,7.54"/>
    <circle class="cls-3" cx="52.79" cy="90" r="11"/>
    <circle class="cls-3" cx="113.79" cy="89" r="11"/>
    <circle class="cls-2" cx="33.79" cy="40.69" r="5"/>
    <circle class="cls-2" cx="124.79" cy="35.69" r="7"/>
    <circle class="cls-2" cx="26.79" cy="48.69" r="2"/>
    <circle class="cls-2" cx="26.79" cy="33.69" r="3"/>
    <circle class="cls-2" cx="11.79" cy="89.69" r="2"/>
    <circle class="cls-2" cx="105.68" cy="142.84" r="14.35"/>
    <path class="cls-2" d="M138.05,138.64c-5.14,5.07-19.61,17.99-42.61,22.12-5.81,1.04-27.8,4.32-51.08-7.62-2.82-1.45-38.7-20.64-43.78-61.8-3.41-27.64,9.13-48.44,13.21-54.65-10.33,44.12,9.12,87.63,44.19,105.07,37.47,18.63,75.88-.9,80.07-3.12Z"/>
  </g>
</svg>