<?xml version="1.0" encoding="UTF-8"?>
<svg id="Calque_2" data-name="Calque 2" xmlns="http://www.w3.org/2000/svg" viewBox="0 0 536 313.25">
  <defs>
    <style>
      .cls-1 {
        fill: #ecde09;
      }

      .cls-2 {
        fill: #030406;
        stroke: #d4865f;
        stroke-miterlimit: 10;
        stroke-width: 17px;
      }

      .cls-3 {
        fill: #ffd2dd;
      }

      .cls-4 {
        fill: #ca5a6a;
      }

      .cls-5 {
        fill: #f7b9c4;
      }

      .cls-6 {
        fill: #2a3f82;
      }

      .cls-7 {
        fill: #fff5ff;
      }
    </style>
  </defs>
  <g id="Calque_1-2" data-name="Calque 1">
    <g>
      <g>
        <rect class="cls-2" x="45" y="39" width="447" height="242"/>
        <path class="cls-5" d="M536,15c0,8.28-6.72,15-15,15-5.34,0-10.03-2.79-12.68-7H27.68c-2.65,4.21-7.34,7-12.68,7C6.72,30,0,23.28,0,15S6.72,0,15,0c5.12,0,9.65,2.57,12.35,6.5h481.3c2.7-3.93,7.23-6.5,12.35-6.5,8.28,0,15,6.72,15,15Z"/>
        <g>
          <g>
            <path class="cls-7" d="M101.12,295.06c.21,1.59.39,3.12.53,4.56h0c-.13.41-.3.8-.48,1.16-.66,1.31-1.54,2.44-2.57,3.4-1.23,1.14-2.67,2.01-4.19,2.58-3.01,1.12-6.28,1.1-9.42.63-2.88-.42-5.84-1.2-8.62-.32-2.22.71-4.07,2.39-6.09,3.61-4.2,2.52-9.33,3.02-13.85,1.34-3.23-1.21-6.28-3.5-9.7-3.38-3.77.14-7.14,3.23-10.91,3.05-2.33-.12-4.57-1.59-5.79-3.81-.01-.01-.01-.03-.02-.04,0-.01-.01-.01-.01-.02V22h129.63s-6.63,90-87.63,150c0,0,23.92,82.88,29.12,123.06Z"/>
            <path class="cls-3" d="M56.2,175.4c-1.65,25.99-.13,52.14,4.44,77.78,1.3,7.26,2.85,14.48,4.63,21.63.75,3.01,5.41,1.74,4.66-1.28-6.25-25.01-9.47-50.72-9.56-76.49-.02-7.22.2-14.43.66-21.63.08-1.3-1.17-2.41-2.41-2.41-1.38,0-2.33,1.11-2.41,2.41h0Z"/>
            <path class="cls-3" d="M41.57,174.89c-.73,16.76-.63,33.55.29,50.3s2.72,33.71,5.31,50.42c1.45,9.37,3.17,18.69,5.14,27.97.65,3.04,5.3,1.75,4.66-1.28-3.46-16.27-6.14-32.71-7.97-49.25-1.84-16.59-2.86-33.27-3.06-49.96-.11-9.4.04-18.8.45-28.19.13-3.11-4.69-3.1-4.83,0h0Z"/>
            <path class="cls-3" d="M61.53,173.52c10.8-13.76,20.25-28.53,28.13-44.15s14.24-31.98,18.92-48.82c2.64-9.49,4.73-19.13,6.28-28.86.2-1.29-.33-2.6-1.69-2.97-1.15-.32-2.76.39-2.97,1.69-2.71,16.99-7.09,33.7-13.07,49.83s-13.52,31.54-22.51,46.13c-5.06,8.21-10.56,16.15-16.51,23.74-.8,1.02-1,2.41,0,3.41.84.84,2.6,1.03,3.41,0h0Z"/>
            <path class="cls-3" d="M45.92,173.35c2.06-6.84,5.31-13.19,8.39-19.61s5.92-13.24,8.32-20.09c4.72-13.47,8.06-27.39,10.88-41.37,1.61-7.99,3.06-16.02,4.5-24.04.23-1.28-.35-2.6-1.69-2.97-1.17-.32-2.74.4-2.97,1.69-5.05,28.09-10.17,56.68-22.43,82.69-3.47,7.36-7.3,14.59-9.66,22.42-.9,2.98,3.76,4.26,4.66,1.28h0Z"/>
            <path class="cls-4" d="M72.16,169.28c-13.62.94-27.52,1.92-40.96-1.16-1-.23-2.22.14-2.73,1.11-6.64,12.83-9.15,27.11-11.51,41.22l4.66,1.28c2.14-13.29,5.7-26.32,10.62-38.84.95-2.41-2.41-3.82-4.03-2.35-11,9.95-18.41,23.78-20.51,38.47-.18,1.29.32,2.59,1.69,2.97,1.13.31,2.78-.39,2.97-1.69,2-13.96,8.81-26.87,19.27-36.34l-4.03-2.35c-4.92,12.53-8.48,25.56-10.62,38.84-.21,1.29.33,2.6,1.69,2.97,1.16.32,2.75-.39,2.97-1.69,2.28-13.65,4.59-27.65,11.02-40.07l-2.73,1.11c13.88,3.18,28.16,2.31,42.24,1.34,1.3-.09,2.41-1.04,2.41-2.41,0-1.24-1.11-2.5-2.41-2.41h0Z"/>
          </g>
          <path class="cls-6" d="M73.46,6.8c-.34,7.94-.12,15.89.64,23.8.16,1.61,1.27,3,3,3,1.5,0,3.16-1.38,3-3-.76-7.91-.98-15.86-.64-23.8.07-1.62-1.43-3-3-3-1.68,0-2.93,1.37-3,3h0Z"/>
          <path class="cls-6" d="M91.94,7.51c-.61,7.53.03,15.13,1.8,22.46.38,1.58,2.16,2.51,3.69,2.1,1.61-.44,2.48-2.11,2.1-3.69-1.65-6.84-2.15-13.86-1.58-20.87.13-1.62-1.47-3-3-3-1.73,0-2.87,1.38-3,3h0Z"/>
          <path class="cls-6" d="M110.03,7.86c-.53,7.64,0,15.31,1.44,22.83.31,1.59,2.22,2.5,3.69,2.1,1.67-.46,2.4-2.09,2.1-3.69-1.35-6.99-1.72-14.13-1.23-21.23.11-1.62-1.46-3-3-3-1.72,0-2.89,1.38-3,3h0Z"/>
          <path class="cls-6" d="M129.17,7.51c-.28,8.24.29,16.45,1.6,24.58.26,1.6,2.25,2.49,3.69,2.1,1.7-.47,2.35-2.08,2.1-3.69-1.22-7.59-1.65-15.3-1.39-22.99.06-1.62-1.42-3-3-3-1.67,0-2.94,1.37-3,3h0Z"/>
          <path class="cls-6" d="M148.02,6.8c-.39,8.24.14,16.46,1.47,24.6.26,1.6,2.25,2.49,3.69,2.1,1.7-.47,2.36-2.09,2.1-3.69-1.24-7.6-1.62-15.32-1.26-23.01.08-1.62-1.43-3-3-3-1.69,0-2.92,1.38-3,3h0Z"/>
          <path class="cls-6" d="M54.24,6.09c-.33,7.65.32,15.32,1.84,22.82.32,1.59,2.21,2.5,3.69,2.1,1.65-.45,2.42-2.1,2.1-3.69-1.41-6.99-1.93-14.11-1.62-21.23.07-1.62-1.43-3-3-3-1.68,0-2.93,1.37-3,3h0Z"/>
          <path class="cls-6" d="M36.57,7.16c-.62,7.43.03,14.94,1.84,22.17.39,1.57,2.15,2.52,3.69,2.1s2.49-2.11,2.1-3.69c-1.69-6.74-2.2-13.66-1.62-20.58.14-1.62-1.48-3-3-3-1.74,0-2.86,1.38-3,3h0Z"/>
        </g>
        <g>
          <g>
            <path class="cls-7" d="M438.13,295.31c-.21,1.59-.39,3.12-.53,4.56h0c.13.41.3.8.48,1.16.66,1.31,1.54,2.44,2.57,3.4,1.23,1.14,2.67,2.01,4.19,2.58,3.01,1.12,6.28,1.1,9.42.63,2.88-.42,5.84-1.2,8.62-.32,2.22.71,4.07,2.39,6.09,3.61,4.2,2.52,9.33,3.02,13.85,1.34,3.23-1.21,6.28-3.5,9.7-3.38,3.77.14,7.14,3.23,10.91,3.05,2.33-.12,4.57-1.59,5.79-3.81.01-.01.01-.03.02-.04,0-.01.01-.01.01-.02V22.25s-129.63,0-129.63,0c0,0,6.63,90,87.63,150,0,0-23.92,82.88-29.12,123.06Z"/>
            <path class="cls-3" d="M478.23,175.65c1.63,25.71.21,51.61-4.35,76.97-1.28,7.1-2.8,14.16-4.55,21.16-.75,3.01,3.9,4.3,4.66,1.28,6.31-25.25,9.6-51.27,9.73-77.3.04-7.38-.19-14.75-.65-22.11-.08-1.3-1.05-2.41-2.41-2.41-1.24,0-2.5,1.11-2.41,2.41h0Z"/>
            <path class="cls-3" d="M492.86,175.14c.72,16.68.64,33.39-.28,50.05s-2.63,33.18-5.19,49.62c-1.44,9.29-3.15,18.53-5.11,27.73-.64,3.03,4.01,4.33,4.66,1.28,3.5-16.46,6.19-33.09,8.06-49.81s2.93-33.59,3.14-50.44c.12-9.48-.04-18.96-.45-28.43-.13-3.09-4.96-3.11-4.83,0h0Z"/>
            <path class="cls-3" d="M481.14,170.36c-10.58-13.48-19.77-28.06-27.47-43.36-7.71-15.31-13.89-31.37-18.46-47.89-2.58-9.36-4.64-18.86-6.17-28.45-.21-1.29-1.81-2-2.97-1.69-1.37.38-1.89,1.68-1.69,2.97,2.74,17.2,7.2,34.12,13.29,50.44,6.11,16.38,13.8,32.17,23,47.04,5.22,8.44,10.92,16.55,17.04,24.35.81,1.03,2.57.84,3.41,0,1.01-1.01.81-2.38,0-3.41h0Z"/>
            <path class="cls-3" d="M497.99,172.31c-2.09-6.94-5.34-13.43-8.48-19.93s-5.86-13.01-8.23-19.76c-4.72-13.47-8.06-27.39-10.88-41.37-1.61-7.99-3.06-16.02-4.5-24.04-.23-1.28-1.79-2.01-2.97-1.69-1.35.37-1.92,1.68-1.69,2.97,5.08,28.25,10.32,56.82,22.53,83.01,3.39,7.28,7.24,14.37,9.56,22.09.89,2.97,5.56,1.7,4.66-1.28h0Z"/>
            <path class="cls-4" d="M467.09,174.35c14.08.98,28.36,1.85,42.24-1.34l-2.73-1.11c6.43,12.42,8.74,26.42,11.02,40.07.21,1.29,1.81,2.01,2.97,1.69,1.37-.38,1.89-1.68,1.69-2.97-2.14-13.29-5.7-26.32-10.62-38.84l-4.03,2.35c10.46,9.47,17.27,22.38,19.27,36.34.19,1.29,1.83,2,2.97,1.69,1.39-.38,1.87-1.67,1.69-2.97-2.11-14.69-9.52-28.52-20.51-38.47-1.62-1.47-4.98-.06-4.03,2.35,4.92,12.53,8.48,25.56,10.62,38.84l4.66-1.28c-2.35-14.11-4.87-28.39-11.51-41.22-.5-.97-1.72-1.34-2.73-1.11-13.44,3.08-27.33,2.11-40.96,1.16-1.3-.09-2.41,1.17-2.41,2.41,0,1.38,1.11,2.32,2.41,2.41h0Z"/>
          </g>
          <path class="cls-6" d="M459.79,7.05c.34,7.94.12,15.89-.64,23.8-.16,1.62,1.49,3,3,3,1.75,0,2.84-1.38,3-3,.76-7.91.98-15.86.64-23.8-.07-1.62-1.33-3-3-3-1.57,0-3.07,1.37-3,3h0Z"/>
          <path class="cls-6" d="M441.31,7.76c.57,7.01.07,14.03-1.58,20.87-.38,1.57.5,3.25,2.1,3.69s3.31-.51,3.69-2.1c1.77-7.34,2.41-14.94,1.8-22.46-.13-1.62-1.29-3-3-3-1.52,0-3.13,1.38-3,3h0Z"/>
          <path class="cls-6" d="M423.22,8.12c.49,7.1.12,14.24-1.23,21.23-.31,1.59.45,3.24,2.1,3.69,1.47.4,3.38-.5,3.69-2.1,1.45-7.52,1.97-15.18,1.44-22.83-.11-1.62-1.3-3-3-3-1.54,0-3.11,1.38-3,3h0Z"/>
          <path class="cls-6" d="M404.08,7.76c.26,7.69-.16,15.39-1.39,22.99-.26,1.6.41,3.23,2.1,3.69,1.43.39,3.43-.49,3.69-2.1,1.31-8.13,1.88-16.35,1.6-24.58-.06-1.62-1.34-3-3-3s-3.06,1.37-3,3h0Z"/>
          <path class="cls-6" d="M385.24,7.05c.36,7.69-.02,15.41-1.26,23.01-.26,1.6.42,3.23,2.1,3.69,1.43.39,3.43-.49,3.69-2.1,1.33-8.14,1.86-16.36,1.47-24.6-.08-1.62-1.32-3-3-3-1.57,0-3.08,1.37-3,3h0Z"/>
          <path class="cls-6" d="M479.01,6.34c.3,7.12-.21,14.24-1.62,21.23-.32,1.59.46,3.24,2.1,3.69,1.48.41,3.37-.5,3.69-2.1,1.52-7.51,2.17-15.17,1.84-22.82-.07-1.62-1.33-3-3-3-1.57,0-3.07,1.37-3,3h0Z"/>
          <path class="cls-6" d="M496.68,7.41c.58,6.92.06,13.84-1.62,20.58-.39,1.57.51,3.25,2.1,3.69s3.3-.52,3.69-2.1c1.81-7.23,2.46-14.74,1.84-22.17-.14-1.61-1.28-3-3-3-1.52,0-3.14,1.38-3,3h0Z"/>
        </g>
      </g>
      <path class="cls-1" d="M188.59,127.66l-5.79-5.38-6.91,3.84c-.87.48-1.85-.43-1.43-1.33l3.33-7.17-5.79-5.38c-.73-.68-.16-1.89.82-1.77l7.85.95,3.33-7.17c.42-.9,1.75-.74,1.94.24l1.52,7.76,7.85.95c.99.12,1.24,1.43.38,1.92l-6.91,3.84,1.52,7.76c.19.98-.98,1.63-1.71.95Z"/>
      <path class="cls-1" d="M335.01,220.58l-3.07-1.87-2.72,2.34c-.75.65-1.9-.05-1.67-1.01l.82-3.5-3.07-1.87c-.85-.52-.54-1.82.45-1.9l3.58-.3.82-3.5c.23-.97,1.56-1.08,1.95-.16l1.39,3.31,3.58-.3c.99-.08,1.51,1.15.75,1.8l-2.72,2.34,1.39,3.31c.38.92-.63,1.79-1.48,1.27Z"/>
      <path class="cls-1" d="M241.06,252.29l-5.2-3.16-4.61,3.97c-.75.65-1.9-.05-1.67-1.01l1.4-5.92-5.2-3.16c-.85-.52-.54-1.82.45-1.9l6.07-.5,1.4-5.92c.23-.97,1.56-1.08,1.95-.16l2.35,5.61,6.07-.5c.99-.08,1.51,1.15.75,1.8l-4.61,3.97,2.35,5.61c.38.92-.63,1.79-1.48,1.27Z"/>
      <path class="cls-1" d="M122.01,203.58l-3.07-1.87-2.72,2.34c-.75.65-1.9-.05-1.67-1.01l.82-3.5-3.07-1.87c-.85-.52-.54-1.82.45-1.9l3.58-.3.82-3.5c.23-.97,1.56-1.08,1.95-.16l1.39,3.31,3.58-.3c.99-.08,1.51,1.15.75,1.8l-2.72,2.34,1.39,3.31c.38.92-.63,1.79-1.48,1.27Z"/>
      <path class="cls-1" d="M382.67,151l-6.4-1.51-3.41,5.62c-.52.85-1.82.54-1.9-.45l-.54-6.55-6.4-1.51c-.97-.23-1.08-1.56-.16-1.95l6.06-2.54-.54-6.55c-.08-.99,1.15-1.51,1.8-.75l4.29,4.98,6.06-2.54c.92-.38,1.79.63,1.27,1.48l-3.41,5.62,4.29,4.98c.65.75-.05,1.9-1.01,1.67Z"/>
      <path class="cls-1" d="M296.67,89l-6.4-1.51-3.41,5.62c-.52.85-1.82.54-1.9-.45l-.54-6.55-6.4-1.51c-.97-.23-1.08-1.56-.16-1.95l6.06-2.54-.54-6.55c-.08-.99,1.15-1.51,1.8-.75l4.29,4.98,6.06-2.54c.92-.38,1.79.63,1.27,1.48l-3.41,5.62,4.29,4.98c.65.75-.05,1.9-1.01,1.67Z"/>
    </g>
  </g>
</svg>