<?xml version="1.0" encoding="UTF-8"?>
<svg id="Calque_2" data-name="Calque 2" xmlns="http://www.w3.org/2000/svg" viewBox="0 0 474 298.41">
  <defs>
    <style>
      .cls-1, .cls-2, .cls-3 {
        fill: none;
      }

      .cls-2 {
        stroke: #000;
        stroke-linecap: round;
        stroke-width: 2.14px;
      }

      .cls-2, .cls-3 {
        stroke-miterlimit: 10;
      }

      .cls-4 {
        fill: #be0016;
      }

      .cls-5 {
        fill: #f8b9ce;
      }

      .cls-6 {
        fill: #dd1627;
      }

      .cls-7 {
        fill: #75c7df;
      }

      .cls-8 {
        fill: #36b296;
      }

      .cls-9 {
        fill: #fff;
      }

      .cls-10 {
        fill: #e5521c;
      }

      .cls-11 {
        fill: #ff869f;
      }

      .cls-12 {
        fill: #69c9ef;
      }

      .cls-3 {
        stroke: #fff;
        stroke-width: 1.6px;
      }

      .cls-13 {
        fill: #bbe2e9;
      }

      .cls-14 {
        fill: #ffb5c3;
      }
    </style>
  </defs>
  <g id="Calque_1-2" data-name="Calque 1">
    <g>
      <g>
        <rect class="cls-10" x="453" y="100.41" width="16" height="198"/>
        <circle class="cls-5" cx="461.5" cy="95.91" r="12.5"/>
      </g>
      <g>
        <rect class="cls-10" x="410" y="100.41" width="16" height="198"/>
        <circle class="cls-5" cx="418.5" cy="95.91" r="12.5"/>
      </g>
      <g>
        <rect class="cls-10" x="4" y="55.41" width="16" height="243"/>
        <circle class="cls-5" cx="12.5" cy="50.91" r="12.5"/>
      </g>
      <g>
        <rect class="cls-10" x="59" y="55.41" width="16" height="243"/>
        <circle class="cls-5" cx="67.5" cy="50.91" r="12.5"/>
      </g>
      <rect class="cls-12" x="20" y="181.41" width="435" height="98"/>
      <path class="cls-8" d="M450,116.41c-8-7-16-1-16-1-2,1-10.18,2.12-10.18,2.12v63.88h31.18l1-59c-2-1-6-6-6-6ZM446,143.41l-5,13-1.91-2.55c-.84-1.12-1.59-2.31-2.24-3.55-1.85-3.53-5.06-10.43-2.85-11.9,3-2,6,5,6,5,0,0,2-7,5-6s1,6,1,6Z"/>
      <path class="cls-8" d="M48.31,66.03c-1.23-.56-2.53-.95-3.87-1.11-3.37-.41-9.34-.29-13.44,4.49-6,7-11,6.6-11,6.6v105.4h39v-112c-3,0-8.26-2.25-10.69-3.38ZM44,93.01l-1.33,5.87-7.51-8.74s-2.84-4.29,0-7.51c2.84-3.22,4.84,4.78,4.84,4.78,0,0,1-6,4-6s0,11.6,0,11.6Z"/>
      <path class="cls-13" d="M179.16,124.33c-5.25,15.58-11.98,30.67-20.08,44.99-6.11,15.56-19.13,27.25-31.7,38.3-3.67,3.23-7.5,6.55-12.19,7.91-7.49,2.18-15.38-1.04-22.52-4.2-16.23-7.19-32.86-14.64-45.45-27.17-10.89-10.84-18.05-24.79-24.77-38.61-2.21-4.56-4.45-9.33-4.45-14.4,0-4.59,2.04-9.09,5.32-12.29l-.48-.2c10.27-9.29,20.66-18.45,31.17-27.48,10.63-9.14,21.51-18.24,34.09-24.41,6.08-2.98,12.72-5.28,19.47-4.89,5.76.33,11.26,2.61,16.22,5.56,7.06,4.2,13.18,9.77,19.26,15.31,6.86,6.24,13.72,12.48,20.57,18.73,4,3.63,7.99,7.27,11.98,10.9,1.95,1.77,4.01,3.75,4.45,6.35.32,1.88-.28,3.79-.89,5.6Z"/>
      <g>
        <path class="cls-7" d="M29.74,145.28l9.9,5.14-2.17-11.48s-.79-5.98-4.55-4.79-.61,6.18-.61,6.18c0,0-4.81-3.29-5.83-1.2s-.19,4.25,3.26,6.15Z"/>
        <path class="cls-7" d="M56.02,123.71l9.9,5.14-2.17-11.48s-.79-5.98-4.55-4.79c-3.76,1.19-.61,6.18-.61,6.18,0,0-4.81-3.29-5.83-1.2s-.19,4.25,3.26,6.15Z"/>
        <path class="cls-7" d="M82.31,102.15l9.9,5.14-2.17-11.48s-.79-5.98-4.55-4.79-.61,6.18-.61,6.18c0,0-4.81-3.29-5.83-1.2s-.19,4.25,3.26,6.15Z"/>
        <path class="cls-7" d="M108.59,80.58l9.9,5.14-2.17-11.48s-.79-5.98-4.55-4.79c-3.76,1.19-.61,6.18-.61,6.18,0,0-4.81-3.29-5.83-1.2s-.19,4.25,3.26,6.15Z"/>
        <path class="cls-7" d="M62.72,185.48l9.9,5.14-2.17-11.48s-.79-5.98-4.55-4.79-.61,6.18-.61,6.18c0,0-4.81-3.29-5.83-1.2s-.19,4.25,3.26,6.15Z"/>
        <path class="cls-7" d="M58.32,158.04l9.9,5.14-2.17-11.48s-.79-5.98-4.55-4.79-.61,6.18-.61,6.18c0,0-4.81-3.29-5.83-1.2s-.19,4.25,3.26,6.15Z"/>
        <path class="cls-7" d="M120.63,196.56l9.9,5.14-2.17-11.48s-.79-5.98-4.55-4.79-.61,6.18-.61,6.18c0,0-4.81-3.29-5.83-1.2s-.19,4.25,3.26,6.15Z"/>
      </g>
      <polyline points="144.01 90.06 200.87 124.58 154.52 200.92 99.55 167.54"/>
      <path class="cls-6" d="M262.02,211.4c.26.04.52.06.79.07,4.39.11,8.05-3.36,8.16-7.76.12-4.25-3.13-7.81-7.34-8.13.14.01.26.02.4.02,4.39.11,8.05-3.36,8.16-7.76.12-4.25-3.14-7.82-7.35-8.15.14.01.27.02.41.02,4.39.12,8.05-3.35,8.16-7.75.12-4.26-3.14-7.82-7.35-8.15-.13,0-.25-.02-.38-.02v-.03c.12.03.25.04.38.05.14.01.27.02.41.02,4.39.12,8.05-3.37,8.16-7.76.12-4.25-3.13-7.81-7.34-8.13.14.01.26.02.4.02,4.39.11,8.05-3.36,8.16-7.76.12-4.25-3.14-7.82-7.35-8.15.14.01.27.02.41.02,4.39.12,8.05-3.35,8.16-7.75.12-4.38-3.34-8.03-7.73-8.16l.02-.21c-23.84,2.94-116.69,16.01-117.61,16.65-.67,12.49-1.33,24.97-2,37.46,17.91,21.2,112.3,41.34,112.3,41.34ZM268.1,132.04v-.03c.12.03.25.04.37.05-.13,0-.24-.02-.37-.02ZM266.88,147.92v-.03c.12.03.25.04.38.05-.13,0-.25-.02-.38-.02ZM264.45,179.67v-.03c.12.03.25.04.37.05-.13,0-.24-.02-.37-.02ZM263.23,195.52c.12.03.25.04.38.05-.13,0-.25-.02-.38-.02v-.03Z"/>
      <g>
        <path class="cls-3" d="M171.82,165.91c5.88-1.49-5.48-10.45-13.63-16.2,9.57,2.82,23.63,6.18,21.15.64-3.69-8.28-24.65-14.43-24.65-14.43l-4.39,10.12-5.09,9.49s17.82,12.63,26.61,10.39Z"/>
        <line class="cls-3" x1="158.19" y1="149.71" x2="190.12" y2="165.08"/>
        <ellipse class="cls-9" cx="179.4" cy="162.91" rx="1.11" ry="2" transform="translate(-45.41 253.39) rotate(-64.17)"/>
        <ellipse class="cls-9" cx="186.6" cy="166.4" rx="1.11" ry="2" transform="translate(-44.48 261.84) rotate(-64.17)"/>
      </g>
      <path class="cls-4" d="M144.84,170.76l-47.79,23.74-9.52-19.87c20.69-9.28,41.38-18.55,62.06-27.83-1.59,7.99-3.17,15.97-4.76,23.96Z"/>
      <path class="cls-14" d="M90.09,175.62c-2.25-.7-4.71-.71-6.97-.03-.54.16-1.14.45-1.25,1-.14.7.59,1.23,1.24,1.53,1.45.67,3,1.14,4.58,1.39-3.75,1.2-7.08,3.68-9.3,6.92.5.97,1.96.6,2.94.1,1.74-.9,3.48-1.79,5.22-2.69-2.32,1.75-4.77,3.69-5.57,6.48-.06.21-.11.44-.04.66.22.69,1.25.48,1.89.13,1.91-1.05,3.83-2.11,5.74-3.16-1.76,1.88-3.58,3.89-4.11,6.41-.06.27-.09.58.07.81.22.32.7.31,1.07.2,2.12-.66,2.88-3.46,4.91-4.35-.31,1.36-.61,2.73-.92,4.09-.11.47-.21.97-.08,1.44s.58.89,1.06.81c.3-.05.54-.28.75-.49,1.15-1.16,2.24-2.38,3.26-3.65.75-.94,1.5-1.99,1.55-3.19.03-.87-.31-1.71-.65-2.52-1.63-3.87-3.27-7.74-4.9-11.61"/>
      <ellipse class="cls-14" cx="123.74" cy="128.12" rx="50.78" ry="46.37" transform="translate(-50 167.39) rotate(-58.73)"/>
      <circle class="cls-11" cx="126.61" cy="161.98" r="10.89"/>
      <circle class="cls-11" cx="156.4" cy="112.91" r="10.89"/>
      <path class="cls-2" d="M115.6,140.16c2.24.27,4.71-1.32,5.92-3.74,1.06-2.12.97-4.53-.22-6.05"/>
      <path class="cls-2" d="M127.6,121.16c2.24.27,4.71-1.32,5.92-3.74,1.06-2.12.97-4.53-.22-6.05"/>
      <path class="cls-11" d="M127.89,131.93c1.14-1.39,3.05-1.83,4.55-1.11,1.73.82,2.59,3.01,1.78,4.96"/>
      <path d="M105.42,154.44l61.16,37.14-9.74,16.04-65.82-39.97c-.34-.3-.68-.62-1-.93-27.81-26.74-5.97-62.71-5.97-62.71,25.74,14.86,25.79,35.68,21.38,50.43Z"/>
      <path d="M150.59,83.72c-1.61,3.12-5,9.1-10.76,15.43-5.03,5.52-11.87,11.32-20.94,15.7-12.85,6.2-24.68,6.94-31.27,6.84l-3.57-17.69c1.47-2.49,14.47-23.82,39.12-26.08,9.35-.85,17.22,1.32,22.56,3.52,1.98.8,3.62,1.63,4.86,2.28Z"/>
      <path class="cls-4" d="M207.45,125.23l27.09,45.98-19.14,10.91c-10.73-19.97-21.46-39.95-32.19-59.92,8.08,1.01,16.16,2.02,24.24,3.03Z"/>
      <path class="cls-14" d="M216.2,179.49c-.54,2.3-.37,4.75.47,6.95.2.52.53,1.1,1.08,1.18.7.09,1.19-.68,1.44-1.34.56-1.5.92-3.07,1.06-4.66,1.46,3.65,4.17,6.8,7.57,8.79.93-.57.46-2-.11-2.94-1.02-1.67-2.04-3.34-3.06-5.01,1.91,2.18,4.02,4.49,6.86,5.09.22.05.45.08.66,0,.67-.27.39-1.28,0-1.89-1.19-1.83-2.37-3.67-3.56-5.5,2,1.62,4.14,3.29,6.68,3.65.27.04.58.05.8-.12.3-.24.26-.72.12-1.08-.81-2.06-3.65-2.63-4.69-4.59,1.38.21,2.76.42,4.14.63.48.07.99.14,1.44-.02s.85-.64.73-1.11c-.07-.3-.31-.52-.54-.71-1.24-1.06-2.53-2.06-3.87-2.99-.99-.68-2.09-1.36-3.29-1.31-.87.03-1.68.44-2.46.83-3.74,1.91-7.49,3.81-11.23,5.72"/>
      <path d="M150.59,83.72l59.53,36.15-9.74,16.04-62.04-37.67,7.39-16.81c1.98.8,3.62,1.63,4.86,2.28Z"/>
      <path class="cls-13" d="M432.03,216.59c-.9,2.11-2.22,4.2-4.4,5.53-4.23,2.56-9.6,1.97-10.73,1.88-8.77-.74-106.14,2.09-244.76,6.56l.77-6.25,1.37-11.18,2.08-16.92c4.56-20.31,8.33-38.19,11.3-52.8h0c.7-3.42,1.35-6.64,1.95-9.68,3.28-16.42,5.31-27.38,6.11-31.24.48-2.3.99-4.7,2.64-6.6,3.07-3.57,8.98-4.37,14.25-4.88,44.53-4.26,90.21-8.48,133.72.42,13.46,2.76,26.84,6.9,37.77,13.79,1.61,1.01,3.17,2.09,4.66,3.23.44.33.88.67,1.31,1.02,8.08,6.51,13.8,14.65,18.5,23.18.08.14.16.29.24.44.39.69.76,1.38,1.12,2.08.96,1.82,1.88,3.65,2.77,5.48.08.16.16.33.23.49,2.58,5.29,4.97,10.65,7.19,16.05.97,2.36,1.91,4.74,2.81,7.12,3.29,8.68,6.13,17.47,8.51,26.35,2.29,8.56,4.11,17.67.59,25.93Z"/>
      <path d="M153.75,131.84c1.05.62,1.51,2.28,1.25,3.57-.49,2.45-3.3,2.16-5,5-1.7,2.85-.03,5.09-2,7-1,.97-2.75,1.67-3.86,1.08-2.09-1.11-1.96-6.85.36-10.89,2.28-3.96,7.09-7.02,9.25-5.76Z"/>
      <path d="M110.19,5.7c5.31-1.1,10.65-2.01,16.03-2.69l-1.45-1.9c-.64,4.3-4.06,7.79-6.61,11.12-3.01,3.94-6.03,7.89-9.04,11.83-.86,1.13.56,2.45,1.69,2.2,6.21-1.36,12.34-3.08,18.35-5.15,1.81-.62,1.04-3.52-.8-2.89-6.01,2.07-12.14,3.79-18.35,5.15l1.69,2.2c3.11-4.07,6.22-8.13,9.33-12.2,2.64-3.45,5.97-7.01,6.63-11.46.12-.84-.37-2.04-1.45-1.9-5.64.72-11.26,1.65-16.83,2.8-1.89.39-1.09,3.28.8,2.89h0Z"/>
      <path d="M141.32,13.6h4.66c.35,0,.71-.02,1.06,0-.01,0,.34.03.31.04-.02.01-.07-.06-.07-.06-.06-.11-.07-.12-.01-.03.05.09.05.08-.02-.04-.05-.06-.04-.18,0,.02.05.24.05-.05-.02.2-.04.13-.07.26-.12.39-.1.26.15-.28-.08.18-.06.12-.13.25-.2.37-.16.26-.34.51-.52.76-.46.64-.93,1.29-1.39,1.93-.95,1.32-1.9,2.64-2.85,3.95-.7.97.26,2.22,1.3,2.26,3.46.12,6.92-.19,10.3-.9.79-.17,1.25-1.1,1.05-1.85-.23-.82-1.05-1.21-1.85-1.05-3.13.66-6.31.91-9.51.8l1.3,2.26c1.11-1.54,2.22-3.09,3.33-4.63.97-1.34,2.13-2.7,2.24-4.44.05-.82-.21-1.64-.79-2.24-.66-.68-1.59-.89-2.5-.92-1.87-.05-3.76,0-5.63,0s-1.93,3,0,3h0Z"/>
      <path d="M133.7,40.26c3.66.29,7.32.06,10.93-.61l-1.69-.69c.19.24.13-.04.13.25,0-.06-.11.34-.12.37-.23.54-.63,1.01-.98,1.48-.85,1.12-1.7,2.23-2.55,3.35-1.73,2.27-3.45,4.54-5.18,6.81-.35.46-.21,1.25.12,1.67.4.5.96.65,1.58.54,3.38-.6,6.75-1.2,10.13-1.8.8-.14,1.25-1.12,1.05-1.85-.23-.84-1.04-1.19-1.85-1.05-3.38.6-6.75,1.2-10.13,1.8l1.69,2.2c1.94-2.56,3.89-5.11,5.83-7.67.89-1.17,1.93-2.32,2.68-3.59.7-1.19,1.11-2.81.19-4.01-.44-.58-.97-.82-1.69-.69-3.34.62-6.75.77-10.14.5-.81-.06-1.5.73-1.5,1.5,0,.86.69,1.44,1.5,1.5h0Z"/>
      <path class="cls-7" d="M207.72,110.87l4.39,10.25,5.61-10.25s3.18-5.12-.48-6.59-4.39,4.39-4.39,4.39c0,0-1.63-5.59-3.75-4.63s-2.84,3.16-1.38,6.82Z"/>
      <path class="cls-7" d="M241.72,110.87l4.39,10.25,5.61-10.25s3.18-5.12-.48-6.59-4.39,4.39-4.39,4.39c0,0-1.63-5.59-3.75-4.63s-2.84,3.16-1.38,6.82Z"/>
      <path class="cls-7" d="M275.72,110.87l4.39,10.25,5.61-10.25s3.18-5.12-.48-6.59-4.39,4.39-4.39,4.39c0,0-1.63-5.59-3.75-4.63s-2.84,3.16-1.38,6.82Z"/>
      <path class="cls-7" d="M309.72,110.87l4.39,10.25,5.61-10.25s3.18-5.12-.48-6.59-4.39,4.39-4.39,4.39c0,0-1.63-5.59-3.75-4.63s-2.84,3.16-1.38,6.82Z"/>
      <path class="cls-7" d="M343.72,110.87l4.39,10.25,5.61-10.25s3.18-5.12-.48-6.59-4.39,4.39-4.39,4.39c0,0-1.63-5.59-3.75-4.63s-2.84,3.16-1.38,6.82Z"/>
      <path class="cls-7" d="M388.76,108.45c-.36,1.33-1.04,2.42-1.04,2.42l-5.61,10.25-4.39-10.25c-1.46-3.66-.73-5.85,1.38-6.82,2.11-.97,3.74,4.63,3.74,4.63,0,0,.27-2.09,1.26-3.46,1.61,1.01,3.17,2.09,4.66,3.23Z"/>
      <path class="cls-7" d="M207.72,162.87l4.39,10.25,5.61-10.25s3.18-5.12-.48-6.59-4.39,4.39-4.39,4.39c0,0-1.63-5.59-3.75-4.63s-2.84,3.16-1.38,6.82Z"/>
      <path class="cls-7" d="M241.72,162.87l4.39,10.25,5.61-10.25s3.18-5.12-.48-6.59-4.39,4.39-4.39,4.39c0,0-1.63-5.59-3.75-4.63s-2.84,3.16-1.38,6.82Z"/>
      <path class="cls-7" d="M275.72,162.87l4.39,10.25,5.61-10.25s3.18-5.12-.48-6.59-4.39,4.39-4.39,4.39c0,0-1.63-5.59-3.75-4.63s-2.84,3.16-1.38,6.82Z"/>
      <path class="cls-7" d="M309.72,162.87l4.39,10.25,5.61-10.25s3.18-5.12-.48-6.59-4.39,4.39-4.39,4.39c0,0-1.63-5.59-3.75-4.63s-2.84,3.16-1.38,6.82Z"/>
      <path class="cls-7" d="M343.72,162.87l4.39,10.25,5.61-10.25s3.18-5.12-.48-6.59-4.39,4.39-4.39,4.39c0,0-1.63-5.59-3.75-4.63s-2.84,3.16-1.38,6.82Z"/>
      <path class="cls-7" d="M422.93,164.31l-4.82,8.81-4.39-10.25c-1.46-3.66-.73-5.85,1.38-6.82,2.11-.97,3.74,4.63,3.74,4.63,0,0,.27-2.12,1.28-3.49.97,2.36,1.91,4.74,2.81,7.12Z"/>
      <path class="cls-7" d="M383.72,164.87l4.39,10.25,5.61-10.25s3.18-5.12-.48-6.59-4.39,4.39-4.39,4.39c0,0-1.63-5.59-3.75-4.63s-2.84,3.16-1.38,6.82Z"/>
      <path class="cls-7" d="M221.72,138.87l4.39,10.25,5.61-10.25s3.18-5.12-.48-6.59-4.39,4.39-4.39,4.39c0,0-1.63-5.59-3.75-4.63s-2.84,3.16-1.38,6.82Z"/>
      <path class="cls-7" d="M195.72,138.87l-5.61,10.25-2.45-5.71h0c.7-3.42,1.35-6.64,1.95-9.68.76,1.34,1.23,2.95,1.23,2.95,0,0,.74-5.86,4.4-4.4,3.66,1.47.48,6.59.48,6.59Z"/>
      <path class="cls-7" d="M259.72,138.87l4.39,10.25,5.61-10.25s3.18-5.12-.48-6.59-4.39,4.39-4.39,4.39c0,0-1.63-5.59-3.75-4.63s-2.84,3.16-1.38,6.82Z"/>
      <path class="cls-7" d="M292.72,138.87l4.39,10.25,5.61-10.25s3.18-5.12-.48-6.59-4.39,4.39-4.39,4.39c0,0-1.63-5.59-3.75-4.63s-2.84,3.16-1.38,6.82Z"/>
      <path class="cls-7" d="M333.72,138.87l4.39,10.25,5.61-10.25s3.18-5.12-.48-6.59-4.39,4.39-4.39,4.39c0,0-1.63-5.59-3.75-4.63s-2.84,3.16-1.38,6.82Z"/>
      <path class="cls-7" d="M368.72,138.87l4.39,10.25,5.61-10.25s3.18-5.12-.48-6.59-4.39,4.39-4.39,4.39c0,0-1.63-5.59-3.75-4.63s-2.84,3.16-1.38,6.82Z"/>
      <path class="cls-7" d="M412.93,141.14l-3.82,6.98-4.39-10.25c-1.46-3.66-.73-5.85,1.38-6.82.96-.44,1.82.47,2.47,1.6.08.14.16.29.24.44.64,1.25,1.03,2.59,1.03,2.59,0,0,.02-.2.09-.51.96,1.82,1.88,3.65,2.77,5.48.08.16.16.33.23.49Z"/>
      <path class="cls-1" d="M220.72,187.87l4.39,10.25,5.61-10.25s3.18-5.12-.48-6.59-4.39,4.39-4.39,4.39c0,0-1.63-5.59-3.75-4.63s-2.84,3.16-1.38,6.82Z"/>
      <path class="cls-7" d="M184.72,187.87l4.39,10.25,5.61-10.25s3.18-5.12-.48-6.59-4.39,4.39-4.39,4.39c0,0-1.63-5.59-3.75-4.63s-2.84,3.16-1.38,6.82Z"/>
      <path class="cls-7" d="M258.72,187.87l4.39,10.25,5.61-10.25s3.18-5.12-.48-6.59-4.39,4.39-4.39,4.39c0,0-1.63-5.59-3.75-4.63s-2.84,3.16-1.38,6.82Z"/>
      <path class="cls-7" d="M220.72,188.87l4.39,10.25,5.61-10.25s3.18-5.12-.48-6.59-4.39,4.39-4.39,4.39c0,0-1.63-5.59-3.75-4.63s-2.84,3.16-1.38,6.82Z"/>
      <path class="cls-7" d="M326.72,188.87l4.39,10.25,5.61-10.25s3.18-5.12-.48-6.59-4.39,4.39-4.39,4.39c0,0-1.63-5.59-3.75-4.63s-2.84,3.16-1.38,6.82Z"/>
      <path class="cls-7" d="M291.72,187.87l4.39,10.25,5.61-10.25s3.18-5.12-.48-6.59-4.39,4.39-4.39,4.39c0,0-1.63-5.59-3.75-4.63s-2.84,3.16-1.38,6.82Z"/>
      <path class="cls-1" d="M332.72,187.87l4.39,10.25,5.61-10.25s3.18-5.12-.48-6.59-4.39,4.39-4.39,4.39c0,0-1.63-5.59-3.75-4.63s-2.84,3.16-1.38,6.82Z"/>
      <path class="cls-7" d="M367.72,187.87l4.39,10.25,5.61-10.25s3.18-5.12-.48-6.59-4.39,4.39-4.39,4.39c0,0-1.63-5.59-3.75-4.63s-2.84,3.16-1.38,6.82Z"/>
      <path class="cls-7" d="M403.72,186.87l4.39,10.25,5.61-10.25s3.18-5.12-.48-6.59-4.39,4.39-4.39,4.39c0,0-1.63-5.59-3.75-4.63s-2.84,3.16-1.38,6.82Z"/>
      <path class="cls-7" d="M199.72,213.87l4.39,10.25,5.61-10.25s3.18-5.12-.48-6.59-4.39,4.39-4.39,4.39c0,0-1.63-5.59-3.75-4.63s-2.84,3.16-1.38,6.82Z"/>
      <path class="cls-7" d="M179.72,216.87l-5.61,10.25-1.2-2.81,1.37-11.18c.36.86.56,1.55.56,1.55,0,0,.74-5.86,4.4-4.4,3.66,1.47.48,6.59.48,6.59Z"/>
      <path class="cls-7" d="M237.72,213.87l4.39,10.25,5.61-10.25s3.18-5.12-.48-6.59-4.39,4.39-4.39,4.39c0,0-1.63-5.59-3.75-4.63s-2.84,3.16-1.38,6.82Z"/>
      <path class="cls-7" d="M270.72,213.87l4.39,10.25,5.61-10.25s3.18-5.12-.48-6.59-4.39,4.39-4.39,4.39c0,0-1.63-5.59-3.75-4.63s-2.84,3.16-1.38,6.82Z"/>
      <path class="cls-7" d="M311.72,213.87l4.39,10.25,5.61-10.25s3.18-5.12-.48-6.59-4.39,4.39-4.39,4.39c0,0-1.63-5.59-3.75-4.63s-2.84,3.16-1.38,6.82Z"/>
      <path class="cls-7" d="M346.72,213.87l4.39,10.25,5.61-10.25s3.18-5.12-.48-6.59-4.39,4.39-4.39,4.39c0,0-1.63-5.59-3.75-4.63s-2.84,3.16-1.38,6.82Z"/>
      <path class="cls-7" d="M382.72,212.87l4.39,10.25,5.61-10.25s3.18-5.12-.48-6.59-4.39,4.39-4.39,4.39c0,0-1.63-5.59-3.75-4.63s-2.84,3.16-1.38,6.82Z"/>
      <path class="cls-7" d="M416.72,212.87l4.39,10.25,5.61-10.25s3.18-5.12-.48-6.59-4.39,4.39-4.39,4.39c0,0-1.63-5.59-3.75-4.63s-2.84,3.16-1.38,6.82Z"/>
    </g>
  </g>
</svg>