<?xml version="1.0" encoding="UTF-8"?>
<svg id="Calque_2" data-name="Calque 2" xmlns="http://www.w3.org/2000/svg" viewBox="0 0 136.07 258.33">
  <defs>
    <style>
      .cls-1 {
        fill: none;
        stroke: #131416;
        stroke-miterlimit: 10;
        stroke-width: 2px;
      }

      .cls-2 {
        fill: #90d0d9;
      }

      .cls-3 {
        fill: #1c4796;
      }

      .cls-4 {
        fill: #005450;
      }

      .cls-5 {
        fill: #fff;
      }

      .cls-6 {
        fill: #ece002;
      }

      .cls-7 {
        fill: #f6b9c8;
      }
    </style>
  </defs>
  <g id="Calque_1-2" data-name="Calque 1">
    <g>
      <path class="cls-6" d="M82.07,244.33c0,7.73-6.27,14-14,14s-14-6.27-14-14c0-1.65.29-3.23.81-4.7.29-.8.64-1.56,1.06-2.28,0,0,.13-.2.35-.59,1.56-2.7,7.78-14.31,7.78-27.43h10.63s-1.32,16.57,5.22,27.55c.09.16.18.32.28.47,1.19,2.06,1.87,4.44,1.87,6.98Z"/>
      <path class="cls-7" d="M55.07,156.33h26.39s0-19.51-13.2-19.76-13.2,19.76-13.2,19.76Z"/>
      <ellipse class="cls-3" cx="68.07" cy="136.33" rx="7" ry="5"/>
      <path class="cls-4" d="M136.07,216.33h-.05c.03-.24.04-.49.04-.73.01.24.01.48.01.73Z"/>
      <path class="cls-2" d="M136.06,215.6c0,.24,0,.49-.04.73-.54,5.61-5.58,10-11.73,10-5.29,0-9.75-3.24-11.24-7.72-1.5,4.48-5.96,7.72-11.25,7.72s-9.75-3.24-11.24-7.72c-1.5,4.48-5.96,7.72-11.25,7.72s-9.74-3.23-11.24-7.7c-1.5,4.47-5.97,7.7-11.24,7.7s-9.75-3.24-11.24-7.72c-1.5,4.48-5.97,7.72-11.25,7.72s-9.75-3.24-11.24-7.72c-1.5,4.48-5.96,7.72-11.25,7.72-6.51,0-11.78-4.92-11.78-11,0,0-4-48,50-60,36.91-8.2,60.36,8.82,71.51,20.42,5.42,5.64,9.35,12.54,11.49,20.07,1.45,5.11,2.81,11.72,2.98,18.94v.02c0,.27,0,.55,0,.83Z"/>
      <path class="cls-4" d="M136.07,215.33c0,.09,0,.18-.01.27,0-.28,0-.56,0-.83.02.19.02.37.02.56Z"/>
      <line class="cls-1" x1="68.07" y1="131.33" x2="68.03" y2="0"/>
      <circle class="cls-5" cx="23.07" cy="208.33" r="4"/>
      <circle class="cls-5" cx="45.07" cy="208.33" r="4"/>
      <circle class="cls-5" cx="68.07" cy="208.33" r="4"/>
      <circle class="cls-5" cx="91.07" cy="208.33" r="4"/>
      <circle class="cls-5" cx="113.07" cy="208.33" r="4"/>
    </g>
  </g>
</svg>