<?xml version="1.0" encoding="UTF-8"?>
<svg id="Calque_2" data-name="Calque 2" xmlns="http://www.w3.org/2000/svg" viewBox="0 0 252 198.45">
  <defs>
    <style>
      .cls-1 {
        stroke: #f7b9c4;
        stroke-width: 3px;
      }

      .cls-1, .cls-2, .cls-3 {
        stroke-miterlimit: 10;
      }

      .cls-1, .cls-3 {
        fill: none;
      }

      .cls-2 {
        fill: #e94e32;
        stroke: #6e2e25;
        stroke-width: 4.46px;
      }

      .cls-4 {
        fill: #a51300;
      }

      .cls-5 {
        fill: #f7b9c4;
      }

      .cls-3 {
        stroke: #0c0004;
        stroke-width: 7px;
      }
    </style>
  </defs>
  <g id="Calque_1-2" data-name="Calque 1">
    <g>
      <rect class="cls-2" x="2.48" y="12.45" width="245.79" height="168"/>
      <polygon class="cls-4" points="0 12.45 0 0 121.76 0 252 0 252 12.45 0 12.45"/>
      <line class="cls-1" x1="5" y1="123.95" x2="247" y2="123.95"/>
      <line class="cls-1" x1="5" y1="67.95" x2="247" y2="67.95"/>
      <line class="cls-1" x1="125.5" y1="67.95" x2="125.5" y2="123.95"/>
      <line class="cls-1" x1="80.75" y1="68.95" x2="80.75" y2="14.95"/>
      <line class="cls-1" x1="169.75" y1="68.95" x2="169.75" y2="14.95"/>
      <path class="cls-5" d="M45.26,35.79l-3.27-2.4-3.3,2.37c-.39.28-.92-.1-.77-.56l1.27-3.86-3.27-2.4c-.39-.29-.19-.91.3-.9l4.06.02,1.27-3.86c.15-.46.8-.46.95,0l1.24,3.87,4.06.02c.48,0,.68.62.29.91l-3.3,2.37,1.24,3.87c.15.46-.38.84-.77.56Z"/>
      <path class="cls-5" d="M128.26,35.79l-3.27-2.4-3.3,2.37c-.39.28-.92-.1-.77-.56l1.27-3.86-3.27-2.4c-.39-.29-.19-.91.3-.9l4.06.02,1.27-3.86c.15-.46.8-.46.95,0l1.24,3.87,4.06.02c.48,0,.68.62.29.91l-3.3,2.37,1.24,3.87c.15.46-.38.84-.77.56Z"/>
      <path class="cls-5" d="M211.26,35.79l-3.27-2.4-3.3,2.37c-.39.28-.92-.1-.77-.56l1.27-3.86-3.27-2.4c-.39-.29-.19-.91.3-.9l4.06.02,1.27-3.86c.15-.46.8-.46.95,0l1.24,3.87,4.06.02c.48,0,.68.62.29.91l-3.3,2.37,1.24,3.87c.15.46-.38.84-.77.56Z"/>
      <path class="cls-5" d="M191.26,99.79l-3.27-2.4-3.3,2.37c-.39.28-.92-.1-.77-.56l1.27-3.86-3.27-2.4c-.39-.29-.19-.91.3-.9l4.06.02,1.27-3.86c.15-.46.8-.46.95,0l1.24,3.87,4.06.02c.48,0,.68.62.29.91l-3.3,2.37,1.24,3.87c.15.46-.38.84-.77.56Z"/>
      <path class="cls-5" d="M68.26,101.79l-3.27-2.4-3.3,2.37c-.39.28-.92-.1-.77-.56l1.27-3.86-3.27-2.4c-.39-.29-.19-.91.3-.9l4.06.02,1.27-3.86c.15-.46.8-.46.95,0l1.24,3.87,4.06.02c.48,0,.68.62.29.91l-3.3,2.37,1.24,3.87c.15.46-.38.84-.77.56Z"/>
      <path class="cls-5" d="M68.26,154.79l-3.27-2.4-3.3,2.37c-.39.28-.92-.1-.77-.56l1.27-3.86-3.27-2.4c-.39-.29-.19-.91.3-.9l4.06.02,1.27-3.86c.15-.46.8-.46.95,0l1.24,3.87,4.06.02c.48,0,.68.62.29.91l-3.3,2.37,1.24,3.87c.15.46-.38.84-.77.56Z"/>
      <path class="cls-5" d="M191.26,154.79l-3.27-2.4-3.3,2.37c-.39.28-.92-.1-.77-.56l1.27-3.86-3.27-2.4c-.39-.29-.19-.91.3-.9l4.06.02,1.27-3.86c.15-.46.8-.46.95,0l1.24,3.87,4.06.02c.48,0,.68.62.29.91l-3.3,2.37,1.24,3.87c.15.46-.38.84-.77.56Z"/>
      <line class="cls-3" x1="14.5" y1="182.45" x2="14.5" y2="198.45"/>
      <line class="cls-3" x1="237.5" y1="182.45" x2="237.5" y2="198.45"/>
    </g>
  </g>
</svg>