<?xml version="1.0" encoding="UTF-8"?>
<svg id="Calque_2" data-name="Calque 2" xmlns="http://www.w3.org/2000/svg" viewBox="0 0 364.92 104.92">
  <defs>
    <style>
      .cls-1 {
        fill: #005450;
      }

      .cls-2 {
        fill: #4eaa9b;
        stroke: #005450;
        stroke-miterlimit: 10;
        stroke-width: 4.92px;
      }
    </style>
  </defs>
  <g id="Calque_1-2" data-name="Calque 1">
    <g>
      <path class="cls-2" d="M362.46,52.46c0,2.34-.58,4.64-1.7,6.89-.8,1.62-1.88,3.21-3.23,4.77-5.48,6.37-15.35,12.27-28.67,17.43h-.01c-3.59,1.4-7.46,2.75-11.54,4.04h-.03c-18.07,5.67-40.71,10.19-66.32,13.12-1.23.14-2.46.28-3.71.41h-.01c-11.26,1.21-23.06,2.11-35.28,2.67-.9.04-1.8.08-2.71.11h-.01c-8.74.37-17.68.56-26.78.56-2.47,0-4.93-.01-7.37-.05-3.29-.03-6.56-.09-9.8-.18-15.06-.39-29.58-1.3-43.33-2.67-1.22-.12-2.42-.24-3.62-.37h-.01c-.8-.08-1.6-.17-2.4-.26-1.2-.13-2.39-.27-3.57-.41-4.29-.5-8.5-1.05-12.61-1.64-4.89-.71-9.65-1.47-14.27-2.29h-.01c-2.21-.4-4.39-.81-6.54-1.23-3.19-.62-6.29-1.27-9.32-1.96-.07-.01-.13-.02-.2-.04-6.73-1.5-13.05-3.14-18.93-4.91-.52-.15-1.04-.31-1.56-.47-6.19-1.9-11.87-3.94-16.96-6.09-1.2-.5-2.35-1.02-3.48-1.53h-.01c-.43-.2-.86-.4-1.28-.6-1.07-.5-2.11-1.01-3.11-1.53-13.79-7.07-21.62-15.17-21.62-23.77,0-10.28,11.17-19.83,30.32-27.78h.01c1.07-.44,2.17-.88,3.29-1.32.42-.16.85-.33,1.28-.49,1.18-.44,2.38-.88,3.6-1.31,24.94-8.81,60.3-15.22,100.9-17.82,2.68-.17,5.38-.33,8.1-.47h.02c6.86-.34,13.85-.58,20.96-.7.67-.02,1.34-.03,2.02-.04,3.14-.05,6.31-.07,9.5-.07,3.53,0,7.03.03,10.5.09.67,0,1.34.02,2,.04,21.13.39,41.27,1.81,59.77,4.07,2.67.32,5.28.66,7.88,1.03h.02c6.23.86,12.26,1.82,18.05,2.87,1.1.2,2.2.4,3.28.61,47.4,9,78.5,24.14,78.5,41.29Z"/>
      <path class="cls-1" d="M136.58,18.02l-4.62.86v3.28c0,.38-.44.59-.74.36l-3.61-2.83-5.21.97c-.47.09-.74-.51-.36-.81l2.89-2.27-2.89-2.27c-.37-.29-.1-.89.36-.81l5.21.97,3.61-2.83c.3-.23.74-.02.74.36v3.28s4.62.86,4.62.86c.5.09.5.8,0,.9Z"/>
      <path class="cls-1" d="M154.58,5.02l-4.62.86v3.28c0,.38-.44.59-.74.36l-3.61-2.84-5.21.97c-.47.09-.74-.51-.37-.81l2.89-2.27-1.06-.83c2.68-.17,5.38-.33,8.1-.47h.02l4.6.86c.49.09.49.8,0,.89Z"/>
      <path class="cls-1" d="M101.58,48.02l-4.62.86v3.28c0,.38-.44.59-.74.36l-3.61-2.83-5.21.97c-.47.09-.74-.51-.36-.81l2.89-2.27-2.89-2.27c-.37-.29-.1-.89.36-.81l5.21.97,3.61-2.83c.3-.23.74-.02.74.36v3.28s4.62.86,4.62.86c.5.09.5.8,0,.9Z"/>
      <path class="cls-1" d="M57.58,71.02l-4.62.86v3.28c0,.38-.44.59-.74.36l-3.61-2.83-5.21.97c-.47.09-.74-.51-.36-.81l2.89-2.27-2.89-2.27c-.37-.29-.1-.89.36-.81l5.21.97,3.61-2.83c.3-.23.74-.02.74.36v3.28s4.62.86,4.62.86c.5.09.5.8,0,.9Z"/>
      <path class="cls-1" d="M78.58,49.02l-4.62.86v3.28c0,.38-.44.59-.74.36l-3.61-2.83-5.21.97c-.47.09-.74-.51-.36-.81l2.89-2.27-2.89-2.27c-.37-.29-.1-.89.36-.81l5.21.97,3.61-2.83c.3-.23.74-.02.74.36v3.28s4.62.86,4.62.86c.5.09.5.8,0,.9Z"/>
      <path class="cls-1" d="M97.58,35.02l-4.62.86v3.28c0,.38-.44.59-.74.36l-3.61-2.83-5.21.97c-.47.09-.74-.51-.36-.81l2.89-2.27-2.89-2.27c-.37-.29-.1-.89.36-.81l5.21.97,3.61-2.83c.3-.23.74-.02.74.36v3.28s4.62.86,4.62.86c.5.09.5.8,0,.9Z"/>
      <path class="cls-1" d="M74.58,35.02l-4.62.86v3.28c0,.38-.44.59-.74.36l-3.61-2.83-5.21.97c-.47.09-.74-.51-.36-.81l2.89-2.27-2.89-2.27c-.37-.29-.1-.89.36-.81l5.21.97,3.61-2.83c.3-.23.74-.02.74.36v3.28s4.62.86,4.62.86c.5.09.5.8,0,.9Z"/>
      <path class="cls-1" d="M55.58,55.02l-4.62.86v3.28c0,.38-.44.59-.74.36l-3.61-2.83-5.21.97c-.47.09-.74-.51-.36-.81l2.89-2.27-2.89-2.27c-.37-.29-.1-.89.36-.81l5.21.97,3.61-2.83c.3-.23.74-.02.74.36v3.28s4.62.86,4.62.86c.5.09.5.8,0,.9Z"/>
      <path class="cls-1" d="M36.58,76.02l-4.62.86v3.28c0,.38-.44.59-.74.36l-2.74-2.16h-.01l-.86-.68-.42.08c-1.07-.5-2.11-1.01-3.11-1.53l.84-.66-2.89-2.26c-.37-.3-.1-.9.37-.81l5.21.96,3.61-2.83c.3-.23.74-.02.74.36v3.28l4.62.86c.49.09.49.8,0,.89Z"/>
      <path class="cls-1" d="M32.58,61.02l-4.62.86v3.28c0,.38-.44.59-.74.36l-3.61-2.83-5.21.97c-.47.09-.74-.51-.36-.81l2.89-2.27-2.89-2.27c-.37-.29-.1-.89.36-.81l5.21.97,3.61-2.83c.3-.23.74-.02.74.36v3.28s4.62.86,4.62.86c.5.09.5.8,0,.9Z"/>
      <path class="cls-1" d="M50.58,40.02l-4.62.86v3.28c0,.38-.44.59-.74.36l-3.61-2.83-5.21.97c-.47.09-.74-.51-.36-.81l2.89-2.27-2.89-2.27c-.37-.29-.1-.89.36-.81l5.21.97,3.61-2.83c.3-.23.74-.02.74.36v3.28s4.62.86,4.62.86c.5.09.5.8,0,.9Z"/>
      <path class="cls-1" d="M45.58,26.02l-4.62.86v3.28c0,.38-.44.59-.74.36l-3.61-2.84-5.21.97c-.47.09-.74-.51-.37-.81l2.89-2.27-1.13-.89c1.07-.44,2.17-.88,3.29-1.32l.53.1.75-.59,2.86-2.24c.3-.23.74-.02.74.36v3.28l4.62.86c.49.09.49.8,0,.89Z"/>
      <path class="cls-1" d="M68.58,21.02l-4.62.86v3.28c0,.38-.44.59-.74.36l-3.61-2.83-5.21.97c-.47.09-.74-.51-.36-.81l2.89-2.27-2.89-2.27c-.37-.29-.1-.89.36-.81l5.21.97,3.61-2.83c.3-.23.74-.02.74.36v3.28s4.62.86,4.62.86c.5.09.5.8,0,.9Z"/>
      <path class="cls-1" d="M28.58,46.02l-4.62.86v3.28c0,.38-.44.59-.74.36l-3.61-2.83-5.21.97c-.47.09-.74-.51-.36-.81l2.89-2.27-2.89-2.27c-.37-.29-.1-.89.36-.81l5.21.97,3.61-2.83c.3-.23.74-.02.74.36v3.28s4.62.86,4.62.86c.5.09.5.8,0,.9Z"/>
      <path class="cls-1" d="M116.58,19.02l-4.62.86v3.28c0,.38-.44.59-.74.36l-3.61-2.83-5.21.97c-.47.09-.74-.51-.36-.81l2.89-2.27-2.89-2.27c-.37-.29-.1-.89.36-.81l5.21.97,3.61-2.83c.3-.23.74-.02.74.36v3.28s4.62.86,4.62.86c.5.09.5.8,0,.9Z"/>
      <path class="cls-1" d="M93.58,22.02l-4.62.86v3.28c0,.38-.44.59-.74.36l-3.61-2.83-5.21.97c-.47.09-.74-.51-.36-.81l2.89-2.27-2.89-2.27c-.37-.29-.1-.89.36-.81l5.21.97,3.61-2.83c.3-.23.74-.02.74.36v3.28s4.62.86,4.62.86c.5.09.5.8,0,.9Z"/>
      <path class="cls-1" d="M120.58,32.02l-4.62.86v3.28c0,.38-.44.59-.74.36l-3.61-2.83-5.21.97c-.47.09-.74-.51-.36-.81l2.89-2.27-2.89-2.27c-.37-.29-.1-.89.36-.81l5.21.97,3.61-2.83c.3-.23.74-.02.74.36v3.28s4.62.86,4.62.86c.5.09.5.8,0,.9Z"/>
      <path class="cls-1" d="M82.58,64.02l-4.62.86v3.28c0,.38-.44.59-.74.36l-3.61-2.83-5.21.97c-.47.09-.74-.51-.36-.81l2.89-2.27-2.89-2.27c-.37-.29-.1-.89.36-.81l5.21.97,3.61-2.83c.3-.23.74-.02.74.36v3.28s4.62.86,4.62.86c.5.09.5.8,0,.9Z"/>
      <path class="cls-1" d="M63.58,84.02l-4.62.86v3.28c0,.38-.44.59-.74.36l-3.61-2.83-5.21.97c-.47.09-.74-.51-.36-.81l2.89-2.27-2.89-2.27c-.37-.29-.1-.89.36-.81l5.21.97,3.61-2.83c.3-.23.74-.02.74.36v3.28s4.62.86,4.62.86c.5.09.5.8,0,.9Z"/>
      <path class="cls-1" d="M216.58,41.95l-4.62.86v3.28c0,.38-.44.59-.74.36l-3.61-2.83-5.21.97c-.47.09-.74-.51-.36-.81l2.89-2.27-2.89-2.27c-.37-.29-.1-.89.36-.81l5.21.97,3.61-2.83c.3-.23.74-.02.74.36v3.28s4.62.86,4.62.86c.5.09.5.8,0,.9Z"/>
      <path class="cls-1" d="M240.58,50.95l-4.62.86v3.28c0,.38-.44.59-.74.36l-3.61-2.83-5.21.97c-.47.09-.74-.51-.36-.81l2.89-2.27-2.89-2.27c-.37-.29-.1-.89.36-.81l5.21.97,3.61-2.83c.3-.23.74-.02.74.36v3.28s4.62.86,4.62.86c.5.09.5.8,0,.9Z"/>
      <path class="cls-1" d="M224.58,60.95l-4.62.86v3.28c0,.38-.44.59-.74.36l-3.61-2.83-5.21.97c-.47.09-.74-.51-.36-.81l2.89-2.27-2.89-2.27c-.37-.29-.1-.89.36-.81l5.21.97,3.61-2.83c.3-.23.74-.02.74.36v3.28s4.62.86,4.62.86c.5.09.5.8,0,.9Z"/>
      <path class="cls-1" d="M248.58,70.95l-4.62.86v3.28c0,.38-.44.59-.74.36l-3.61-2.83-5.21.97c-.47.09-.74-.51-.36-.81l2.89-2.27-2.89-2.27c-.37-.29-.1-.89.36-.81l5.21.97,3.61-2.83c.3-.23.74-.02.74.36v3.28s4.62.86,4.62.86c.5.09.5.8,0,.9Z"/>
      <path class="cls-1" d="M263.58,56.95l-4.62.86v3.28c0,.38-.44.59-.74.36l-3.61-2.83-5.21.97c-.47.09-.74-.51-.36-.81l2.89-2.27-2.89-2.27c-.37-.29-.1-.89.36-.81l5.21.97,3.61-2.83c.3-.23.74-.02.74.36v3.28s4.62.86,4.62.86c.5.09.5.8,0,.9Z"/>
      <path class="cls-1" d="M279.58,46.95l-4.62.86v3.28c0,.38-.44.59-.74.36l-3.61-2.83-5.21.97c-.47.09-.74-.51-.36-.81l2.89-2.27-2.89-2.27c-.37-.29-.1-.89.36-.81l5.21.97,3.61-2.83c.3-.23.74-.02.74.36v3.28s4.62.86,4.62.86c.5.09.5.8,0,.9Z"/>
      <path class="cls-1" d="M274.58,26.95l-4.62.86v3.28c0,.38-.44.59-.74.36l-3.61-2.83-5.21.97c-.47.09-.74-.51-.36-.81l2.89-2.27-2.89-2.27c-.37-.29-.1-.89.36-.81l5.21.97,3.61-2.83c.3-.23.74-.02.74.36v3.28s4.62.86,4.62.86c.5.09.5.8,0,.9Z"/>
      <path class="cls-1" d="M288.58,13.95l-4.62.86v3.28c0,.38-.44.6-.74.36l-3.61-2.83-5.21.96c-.47.09-.74-.51-.37-.8l2.89-2.27-2.89-2.27c-.37-.3-.1-.9.37-.81l5.21.97,1.07-.84c1.1.2,2.2.4,3.28.61v1.03l4.62.86c.49.09.49.8,0,.89Z"/>
      <path class="cls-1" d="M296.58,33.95l-4.62.86v3.28c0,.38-.44.59-.74.36l-3.61-2.83-5.21.97c-.47.09-.74-.51-.36-.81l2.89-2.27-2.89-2.27c-.37-.29-.1-.89.36-.81l5.21.97,3.61-2.83c.3-.23.74-.02.74.36v3.28s4.62.86,4.62.86c.5.09.5.8,0,.9Z"/>
      <path class="cls-1" d="M311.58,22.95l-4.62.86v3.28c0,.38-.44.59-.74.36l-3.61-2.83-5.21.97c-.47.09-.74-.51-.36-.81l2.89-2.27-2.89-2.27c-.37-.29-.1-.89.36-.81l5.21.97,3.61-2.83c.3-.23.74-.02.74.36v3.28s4.62.86,4.62.86c.5.09.5.8,0,.9Z"/>
      <path class="cls-1" d="M319.58,45.95l-4.62.86v3.28c0,.38-.44.59-.74.36l-3.61-2.83-5.21.97c-.47.09-.74-.51-.36-.81l2.89-2.27-2.89-2.27c-.37-.29-.1-.89.36-.81l5.21.97,3.61-2.83c.3-.23.74-.02.74.36v3.28s4.62.86,4.62.86c.5.09.5.8,0,.9Z"/>
      <path class="cls-1" d="M331.58,57.95l-4.62.86v3.28c0,.38-.44.59-.74.36l-3.61-2.83-5.21.97c-.47.09-.74-.51-.36-.81l2.89-2.27-2.89-2.27c-.37-.29-.1-.89.36-.81l5.21.97,3.61-2.83c.3-.23.74-.02.74.36v3.28s4.62.86,4.62.86c.5.09.5.8,0,.9Z"/>
      <path class="cls-1" d="M350.58,46.95l-4.62.86v3.28c0,.38-.44.59-.74.36l-3.61-2.83-5.21.97c-.47.09-.74-.51-.36-.81l2.89-2.27-2.89-2.27c-.37-.29-.1-.89.36-.81l5.21.97,3.61-2.83c.3-.23.74-.02.74.36v3.28s4.62.86,4.62.86c.5.09.5.8,0,.9Z"/>
      <path class="cls-1" d="M344.58,68.95l-4.62.86v3.28c0,.38-.44.59-.74.36l-3.61-2.83-5.21.97c-.47.09-.74-.51-.36-.81l2.89-2.27-2.89-2.27c-.37-.29-.1-.89.36-.81l5.21.97,3.61-2.83c.3-.23.74-.02.74.36v3.28s4.62.86,4.62.86c.5.09.5.8,0,.9Z"/>
      <path class="cls-1" d="M360.76,59.35c-.8,1.62-1.88,3.21-3.23,4.77l-1.92-1.5-5.21.96c-.47.09-.74-.51-.37-.8l2.89-2.27-2.89-2.27c-.37-.3-.1-.9.37-.81l5.21.97,3.61-2.84c.3-.23.74-.02.74.36v3.28l.8.15Z"/>
      <path class="cls-1" d="M328.85,81.55c-3.59,1.4-7.46,2.75-11.54,4.04h-.03c-.39-.03-.59-.55-.25-.81l2.89-2.27-2.89-2.27c-.37-.3-.1-.9.37-.81l5.21.97,3.61-2.84c.3-.23.74-.02.74.36v3.28l1.89.35Z"/>
      <path class="cls-1" d="M336.58,34.95l-4.62.86v3.28c0,.38-.44.59-.74.36l-3.61-2.83-5.21.97c-.47.09-.74-.51-.36-.81l2.89-2.27-2.89-2.27c-.37-.29-.1-.89.36-.81l5.21.97,3.61-2.83c.3-.23.74-.02.74.36v3.28s4.62.86,4.62.86c.5.09.5.8,0,.9Z"/>
      <path class="cls-1" d="M258.58,37.95l-4.62.86v3.28c0,.38-.44.59-.74.36l-3.61-2.83-5.21.97c-.47.09-.74-.51-.36-.81l2.89-2.27-2.89-2.27c-.37-.29-.1-.89.36-.81l5.21.97,3.61-2.83c.3-.23.74-.02.74.36v3.28s4.62.86,4.62.86c.5.09.5.8,0,.9Z"/>
      <path class="cls-1" d="M250.58,18.95l-4.62.86v3.28c0,.38-.44.59-.74.36l-3.61-2.83-5.21.97c-.47.09-.74-.51-.36-.81l2.89-2.27-2.89-2.27c-.37-.29-.1-.89.36-.81l5.21.97,3.61-2.83c.3-.23.74-.02.74.36v3.28s4.62.86,4.62.86c.5.09.5.8,0,.9Z"/>
      <path class="cls-1" d="M262.61,7.69l-.65.12v3.28c0,.38-.44.6-.74.36l-3.61-2.83-5.21.96c-.47.09-.74-.51-.37-.8l2.7-2.12c2.67.32,5.28.66,7.88,1.03Z"/>
      <path class="cls-1" d="M271.58,82.95l-4.62.86v3.28c0,.38-.44.59-.74.36l-3.61-2.83-5.21.97c-.47.09-.74-.51-.36-.81l2.89-2.27-2.89-2.27c-.37-.29-.1-.89.36-.81l5.21.97,3.61-2.83c.3-.23.74-.02.74.36v3.28s4.62.86,4.62.86c.5.09.5.8,0,.9Z"/>
      <path class="cls-1" d="M255.58,96.95l-4.62.86v.9c-1.23.14-2.46.28-3.71.41h-.01l-.63-.5-5.21.96c-.47.09-.74-.51-.37-.8l2.89-2.27-2.89-2.27c-.37-.3-.1-.9.37-.81l5.21.97,3.61-2.84c.3-.23.74-.02.74.36v3.28l4.62.86c.49.09.49.8,0,.89Z"/>
      <path class="cls-1" d="M286.58,70.95l-4.62.86v3.28c0,.38-.44.59-.74.36l-3.61-2.83-5.21.97c-.47.09-.74-.51-.36-.81l2.89-2.27-2.89-2.27c-.37-.29-.1-.89.36-.81l5.21.97,3.61-2.83c.3-.23.74-.02.74.36v3.28s4.62.86,4.62.86c.5.09.5.8,0,.9Z"/>
      <path class="cls-1" d="M301.58,56.95l-4.62.86v3.28c0,.38-.44.59-.74.36l-3.61-2.83-5.21.97c-.47.09-.74-.51-.36-.81l2.89-2.27-2.89-2.27c-.37-.29-.1-.89.36-.81l5.21.97,3.61-2.83c.3-.23.74-.02.74.36v3.28s4.62.86,4.62.86c.5.09.5.8,0,.9Z"/>
      <path class="cls-1" d="M311.58,70.95l-4.62.86v3.28c0,.38-.44.59-.74.36l-3.61-2.83-5.21.97c-.47.09-.74-.51-.36-.81l2.89-2.27-2.89-2.27c-.37-.29-.1-.89.36-.81l5.21.97,3.61-2.83c.3-.23.74-.02.74.36v3.28s4.62.86,4.62.86c.5.09.5.8,0,.9Z"/>
      <path class="cls-1" d="M296.58,85.95l-4.62.86v3.28c0,.38-.44.59-.74.36l-3.61-2.83-5.21.97c-.47.09-.74-.51-.36-.81l2.89-2.27-2.89-2.27c-.37-.29-.1-.89.36-.81l5.21.97,3.61-2.83c.3-.23.74-.02.74.36v3.28s4.62.86,4.62.86c.5.09.5.8,0,.9Z"/>
      <path class="cls-1" d="M229.58,83.95l-4.62.86v3.28c0,.38-.44.59-.74.36l-3.61-2.83-5.21.97c-.47.09-.74-.51-.36-.81l2.89-2.27-2.89-2.27c-.37-.29-.1-.89.36-.81l5.21.97,3.61-2.83c.3-.23.74-.02.74.36v3.28s4.62.86,4.62.86c.5.09.5.8,0,.9Z"/>
      <path class="cls-1" d="M216.58,98.95l-4.62.86v3.28c0,.38-.44.59-.74.36l-3.61-2.83-5.21.97c-.47.09-.74-.51-.36-.81l2.89-2.27-2.89-2.27c-.37-.29-.1-.89.36-.81l5.21.97,3.61-2.83c.3-.23.74-.02.74.36v3.28s4.62.86,4.62.86c.5.09.5.8,0,.9Z"/>
      <path class="cls-1" d="M208.58,73.95l-4.62.86v3.28c0,.38-.44.59-.74.36l-3.61-2.83-5.21.97c-.47.09-.74-.51-.36-.81l2.89-2.27-2.89-2.27c-.37-.29-.1-.89.36-.81l5.21.97,3.61-2.83c.3-.23.74-.02.74.36v3.28s4.62.86,4.62.86c.5.09.5.8,0,.9Z"/>
      <path class="cls-1" d="M194.58,88.95l-4.62.86v3.28c0,.38-.44.59-.74.36l-3.61-2.83-5.21.97c-.47.09-.74-.51-.36-.81l2.89-2.27-2.89-2.27c-.37-.29-.1-.89.36-.81l5.21.97,3.61-2.83c.3-.23.74-.02.74.36v3.28s4.62.86,4.62.86c.5.09.5.8,0,.9Z"/>
      <path class="cls-1" d="M175.09,102.41c-3.29-.03-6.56-.09-9.8-.18l-1.26-.99c-.37-.3-.1-.9.37-.81l5.21.97,3.61-2.84c.3-.23.74-.02.74.36v3.28l1.13.21Z"/>
      <path class="cls-1" d="M191.58,34.95l-4.62.86v3.28c0,.38-.44.59-.74.36l-3.61-2.83-5.21.97c-.47.09-.74-.51-.36-.81l2.89-2.27-2.89-2.27c-.37-.29-.1-.89.36-.81l5.21.97,3.61-2.83c.3-.23.74-.02.74.36v3.28s4.62.86,4.62.86c.5.09.5.8,0,.9Z"/>
      <path class="cls-1" d="M183.58,18.95l-4.62.86v3.28c0,.38-.44.59-.74.36l-3.61-2.83-5.21.97c-.47.09-.74-.51-.36-.81l2.89-2.27-2.89-2.27c-.37-.29-.1-.89.36-.81l5.21.97,3.61-2.83c.3-.23.74-.02.74.36v3.28s4.62.86,4.62.86c.5.09.5.8,0,.9Z"/>
      <path class="cls-1" d="M199.58,6.95l-4.62.86v3.28c0,.38-.44.59-.74.36l-3.61-2.83-5.21.97c-.47.09-.74-.51-.36-.81l2.89-2.27-2.89-2.27c-.37-.29-.1-.89.36-.81l5.21.97,3.61-2.83c.3-.23.74-.02.74.36v3.28s4.62.86,4.62.86c.5.09.5.8,0,.9Z"/>
      <path class="cls-1" d="M166.58,33.95l-4.62.86v3.28c0,.38-.44.59-.74.36l-3.61-2.83-5.21.97c-.47.09-.74-.51-.36-.81l2.89-2.27-2.89-2.27c-.37-.29-.1-.89.36-.81l5.21.97,3.61-2.83c.3-.23.74-.02.74.36v3.28s4.62.86,4.62.86c.5.09.5.8,0,.9Z"/>
      <path class="cls-1" d="M208.58,22.95l-4.62.86v3.28c0,.38-.44.59-.74.36l-3.61-2.83-5.21.97c-.47.09-.74-.51-.36-.81l2.89-2.27-2.89-2.27c-.37-.29-.1-.89.36-.81l5.21.97,3.61-2.83c.3-.23.74-.02.74.36v3.28s4.62.86,4.62.86c.5.09.5.8,0,.9Z"/>
      <path class="cls-1" d="M224.58,12.95l-4.62.86v3.28c0,.38-.44.59-.74.36l-3.61-2.83-5.21.97c-.47.09-.74-.51-.36-.81l2.89-2.27-2.89-2.27c-.37-.29-.1-.89.36-.81l5.21.97,3.61-2.83c.3-.23.74-.02.74.36v3.28s4.62.86,4.62.86c.5.09.5.8,0,.9Z"/>
      <path class="cls-1" d="M232.58,31.95l-4.62.86v3.28c0,.38-.44.59-.74.36l-3.61-2.83-5.21.97c-.47.09-.74-.51-.36-.81l2.89-2.27-2.89-2.27c-.37-.29-.1-.89.36-.81l5.21.97,3.61-2.83c.3-.23.74-.02.74.36v3.28s4.62.86,4.62.86c.5.09.5.8,0,.9Z"/>
      <path class="cls-1" d="M176.58,47.95l-4.62.86v3.28c0,.38-.44.59-.74.36l-3.61-2.83-5.21.97c-.47.09-.74-.51-.36-.81l2.89-2.27-2.89-2.27c-.37-.29-.1-.89.36-.81l5.21.97,3.61-2.83c.3-.23.74-.02.74.36v3.28s4.62.86,4.62.86c.5.09.5.8,0,.9Z"/>
      <path class="cls-1" d="M200.58,53.95l-4.62.86v3.28c0,.38-.44.59-.74.36l-3.61-2.83-5.21.97c-.47.09-.74-.51-.36-.81l2.89-2.27-2.89-2.27c-.37-.29-.1-.89.36-.81l5.21.97,3.61-2.83c.3-.23.74-.02.74.36v3.28s4.62.86,4.62.86c.5.09.5.8,0,.9Z"/>
      <path class="cls-1" d="M185.58,67.95l-4.62.86v3.28c0,.38-.44.59-.74.36l-3.61-2.83-5.21.97c-.47.09-.74-.51-.36-.81l2.89-2.27-2.89-2.27c-.37-.29-.1-.89.36-.81l5.21.97,3.61-2.83c.3-.23.74-.02.74.36v3.28s4.62.86,4.62.86c.5.09.5.8,0,.9Z"/>
      <path class="cls-1" d="M169.58,80.95l-4.62.86v3.28c0,.38-.44.59-.74.36l-3.61-2.83-5.21.97c-.47.09-.74-.51-.36-.81l2.89-2.27-2.89-2.27c-.37-.29-.1-.89.36-.81l5.21.97,3.61-2.83c.3-.23.74-.02.74.36v3.28s4.62.86,4.62.86c.5.09.5.8,0,.9Z"/>
      <path class="cls-1" d="M154.58,95.95l-4.62.86v3.28c0,.38-.44.59-.74.36l-3.61-2.83-5.21.97c-.47.09-.74-.51-.36-.81l2.89-2.27-2.89-2.27c-.37-.29-.1-.89.36-.81l5.21.97,3.61-2.83c.3-.23.74-.02.74.36v3.28s4.62.86,4.62.86c.5.09.5.8,0,.9Z"/>
      <path class="cls-1" d="M146.58,32.95l-4.62.86v3.28c0,.38-.44.59-.74.36l-3.61-2.83-5.21.97c-.47.09-.74-.51-.36-.81l2.89-2.27-2.89-2.27c-.37-.29-.1-.89.36-.81l5.21.97,3.61-2.83c.3-.23.74-.02.74.36v3.28s4.62.86,4.62.86c.5.09.5.8,0,.9Z"/>
      <path class="cls-1" d="M151.58,47.95l-4.62.86v3.28c0,.38-.44.59-.74.36l-3.61-2.83-5.21.97c-.47.09-.74-.51-.36-.81l2.89-2.27-2.89-2.27c-.37-.29-.1-.89.36-.81l5.21.97,3.61-2.83c.3-.23.74-.02.74.36v3.28s4.62.86,4.62.86c.5.09.5.8,0,.9Z"/>
      <path class="cls-1" d="M136.58,65.95l-4.62.86v3.28c0,.38-.44.59-.74.36l-3.61-2.83-5.21.97c-.47.09-.74-.51-.36-.81l2.89-2.27-2.89-2.27c-.37-.29-.1-.89.36-.81l5.21.97,3.61-2.83c.3-.23.74-.02.74.36v3.28s4.62.86,4.62.86c.5.09.5.8,0,.9Z"/>
      <path class="cls-1" d="M117.58,83.95l-4.62.86v3.28c0,.38-.44.59-.74.36l-3.61-2.83-5.21.97c-.47.09-.74-.51-.36-.81l2.89-2.27-2.89-2.27c-.37-.29-.1-.89.36-.81l5.21.97,3.61-2.83c.3-.23.74-.02.74.36v3.28s4.62.86,4.62.86c.5.09.5.8,0,.9Z"/>
      <path class="cls-1" d="M99.75,96.88c-4.89-.71-9.65-1.47-14.27-2.29h-.01l-.44-.35c-.37-.3-.1-.9.37-.81l5.21.97,3.61-2.84c.3-.23.74-.02.74.36v3.28l4.62.86c.42.08.48.62.17.82Z"/>
      <path class="cls-1" d="M109.58,63.95l-4.62.86v3.28c0,.38-.44.59-.74.36l-3.61-2.83-5.21.97c-.47.09-.74-.51-.36-.81l2.89-2.27-2.89-2.27c-.37-.29-.1-.89.36-.81l5.21.97,3.61-2.83c.3-.23.74-.02.74.36v3.28s4.62.86,4.62.86c.5.09.5.8,0,.9Z"/>
      <path class="cls-1" d="M90.58,79.95l-4.62.86v3.28c0,.38-.44.59-.74.36l-3.61-2.83-5.21.97c-.47.09-.74-.51-.36-.81l2.89-2.27-2.89-2.27c-.37-.29-.1-.89.36-.81l5.21.97,3.61-2.83c.3-.23.74-.02.74.36v3.28s4.62.86,4.62.86c.5.09.5.8,0,.9Z"/>
      <path class="cls-1" d="M78.93,93.36c-3.26-.63-6.43-1.3-9.52-2l.2.04,3.61-2.84c.3-.23.74-.02.74.36v3.28l4.62.86c.18.03.3.16.35.3Z"/>
      <path class="cls-1" d="M159.58,62.95l-4.62.86v3.28c0,.38-.44.59-.74.36l-3.61-2.83-5.21.97c-.47.09-.74-.51-.36-.81l2.89-2.27-2.89-2.27c-.37-.29-.1-.89.36-.81l5.21.97,3.61-2.83c.3-.23.74-.02.74.36v3.28s4.62.86,4.62.86c.5.09.5.8,0,.9Z"/>
      <path class="cls-1" d="M144.58,79.95l-4.62.86v3.28c0,.38-.44.59-.74.36l-3.61-2.83-5.21.97c-.47.09-.74-.51-.36-.81l2.89-2.27-2.89-2.27c-.37-.29-.1-.89.36-.81l5.21.97,3.61-2.83c.3-.23.74-.02.74.36v3.28s4.62.86,4.62.86c.5.09.5.8,0,.9Z"/>
      <path class="cls-1" d="M126.58,96.95l-4.62.86v3.28c0,.38-.44.59-.74.36l-3.61-2.83-5.21.97c-.47.09-.74-.51-.36-.81l2.89-2.27-2.89-2.27c-.37-.29-.1-.89.36-.81l5.21.97,3.61-2.83c.3-.23.74-.02.74.36v3.28s4.62.86,4.62.86c.5.09.5.8,0,.9Z"/>
      <path class="cls-1" d="M128.58,46.95l-4.62.86v3.28c0,.38-.44.59-.74.36l-3.61-2.83-5.21.97c-.47.09-.74-.51-.36-.81l2.89-2.27-2.89-2.27c-.37-.29-.1-.89.36-.81l5.21.97,3.61-2.83c.3-.23.74-.02.74.36v3.28s4.62.86,4.62.86c.5.09.5.8,0,.9Z"/>
      <path class="cls-1" d="M163.58,19.95l-4.62.86v3.28c0,.38-.44.59-.74.36l-3.61-2.83-5.21.97c-.47.09-.74-.51-.36-.81l2.89-2.27-2.89-2.27c-.37-.29-.1-.89.36-.81l5.21.97,3.61-2.83c.3-.23.74-.02.74.36v3.28s4.62.86,4.62.86c.5.09.5.8,0,.9Z"/>
      <path class="cls-1" d="M177.58,6.95l-4.62.86v3.28c0,.38-.44.59-.74.36l-3.61-2.83-5.21.97c-.47.09-.74-.51-.36-.81l2.89-2.27-2.89-2.27c-.37-.29-.1-.89.36-.81l5.21.97,3.61-2.83c.3-.23.74-.02.74.36v3.28s4.62.86,4.62.86c.5.09.5.8,0,.9Z"/>
    </g>
  </g>
</svg>