<?xml version="1.0" encoding="UTF-8"?>
<svg id="Calque_2" data-name="Calque 2" xmlns="http://www.w3.org/2000/svg" viewBox="0 0 373.72 77">
  <defs>
    <style>
      .cls-1 {
        fill: #f74b09;
      }

      .cls-2 {
        fill: #f6e853;
      }

      .cls-3 {
        fill: #060000;
      }

      .cls-4 {
        fill: #43b09b;
      }

      .cls-5 {
        fill: #69c7e0;
      }

      .cls-6 {
        fill: #d65631;
      }

      .cls-7 {
        fill: #4b72b7;
      }

      .cls-8 {
        fill: #fbb6d2;
      }

      .cls-9 {
        fill: none;
        stroke: #b6dace;
        stroke-miterlimit: 10;
        stroke-width: 4px;
      }
    </style>
  </defs>
  <g id="Calque_1-2" data-name="Calque 1">
    <g>
      <line class="cls-9" x1="95.72" y1="59" x2="304.72" y2="59"/>
      <polygon class="cls-6" points="15.72 30.98 0 63 15.72 63 15.72 30.98"/>
      <rect class="cls-7" x="116.72" y="19" width="77" height="47"/>
      <rect class="cls-2" x="205.72" y="19" width="77" height="47"/>
      <rect class="cls-2" x="56.72" y="7" width="52" height="56"/>
      <rect class="cls-5" x="15.72" y="27" width="41" height="36"/>
      <rect class="cls-6" x="292.72" y="19" width="77" height="47"/>
      <rect class="cls-6" x="113.72" y="12" width="84" height="7"/>
      <rect class="cls-6" x="53.72" width="60" height="7"/>
      <rect class="cls-4" x="200.72" y="12" width="84" height="7"/>
      <rect class="cls-2" x="289.72" y="12" width="84" height="7"/>
      <circle class="cls-3" cx="60.22" cy="59.5" r="16.5"/>
      <circle class="cls-1" cx="59.54" cy="59.39" r="5"/>
      <circle class="cls-3" cx="132.22" cy="66.5" r="10.5"/>
      <circle class="cls-1" cx="131.79" cy="66.43" r="3.18"/>
      <circle class="cls-3" cx="23.22" cy="63.5" r="10.5"/>
      <circle class="cls-1" cx="22.79" cy="63.43" r="3.18"/>
      <circle class="cls-3" cx="178.22" cy="66.5" r="10.5"/>
      <circle class="cls-1" cx="177.79" cy="66.43" r="3.18"/>
      <circle class="cls-3" cx="221.22" cy="66.5" r="10.5"/>
      <circle class="cls-1" cx="220.79" cy="66.43" r="3.18"/>
      <circle class="cls-3" cx="308.22" cy="66.5" r="10.5"/>
      <circle class="cls-1" cx="307.79" cy="66.43" r="3.18"/>
      <circle class="cls-3" cx="266.22" cy="66.5" r="10.5"/>
      <circle class="cls-1" cx="265.79" cy="66.43" r="3.18"/>
      <circle class="cls-3" cx="355.22" cy="66.5" r="10.5"/>
      <circle class="cls-1" cx="354.79" cy="66.43" r="3.18"/>
      <circle class="cls-3" cx="99.22" cy="59.5" r="16.5"/>
      <circle class="cls-1" cx="98.54" cy="59.39" r="5"/>
      <line class="cls-9" x1="56.72" y1="60" x2="98.72" y2="60"/>
      <line class="cls-9" x1="131.72" y1="66" x2="177.72" y2="66"/>
      <line class="cls-9" x1="219.72" y1="66" x2="265.72" y2="66"/>
      <line class="cls-9" x1="307.72" y1="66" x2="353.72" y2="66"/>
      <polygon class="cls-2" points="38.22 27 38.22 12 33.33 3.5 48.84 3.5 44.22 12 44.22 27 38.22 27"/>
      <polygon class="cls-3" points="25.01 27 25.01 16.15 21.47 10 32.7 10 29.35 16.15 29.35 27 25.01 27"/>
      <path class="cls-8" d="M147.71,29.78h0v15.78h-14v-15.78h0c0-.12,0-.23,0-.34,0-3.22,3.14-5.83,7-5.83s7,2.61,7,5.83c0,.12,0,.23,0,.34Z"/>
      <path class="cls-8" d="M177.71,29.78h0v15.78h-14v-15.78h0c0-.12,0-.23,0-.34,0-3.22,3.14-5.83,7-5.83s7,2.61,7,5.83c0,.12,0,.23,0,.34Z"/>
      <path class="cls-8" d="M77.59,20.91h0v12.09h-10.73v-12.09h0c0-.09,0-.17,0-.26,0-2.47,2.4-4.47,5.36-4.47s5.36,2,5.36,4.47c0,.09,0,.17,0,.26Z"/>
      <path class="cls-8" d="M100.57,20.91h0v12.09h-10.73v-12.09h0c0-.09,0-.17,0-.26,0-2.47,2.4-4.47,5.36-4.47s5.36,2,5.36,4.47c0,.09,0,.17,0,.26Z"/>
      <path class="cls-8" d="M234.71,29.78h0v15.78h-14v-15.78h0c0-.12,0-.23,0-.34,0-3.22,3.14-5.83,7-5.83s7,2.61,7,5.83c0,.12,0,.23,0,.34Z"/>
      <path class="cls-8" d="M264.71,29.78h0v15.78h-14v-15.78h0c0-.12,0-.23,0-.34,0-3.22,3.14-5.83,7-5.83s7,2.61,7,5.83c0,.12,0,.23,0,.34Z"/>
      <path class="cls-8" d="M321.71,29.78h0v15.78h-14v-15.78h0c0-.12,0-.23,0-.34,0-3.22,3.14-5.83,7-5.83s7,2.61,7,5.83c0,.12,0,.23,0,.34Z"/>
      <path class="cls-8" d="M351.71,29.78h0v15.78h-14v-15.78h0c0-.12,0-.23,0-.34,0-3.22,3.14-5.83,7-5.83s7,2.61,7,5.83c0,.12,0,.23,0,.34Z"/>
    </g>
  </g>
</svg>