<?xml version="1.0" encoding="UTF-8"?>
<svg id="Calque_2" data-name="Calque 2" xmlns="http://www.w3.org/2000/svg" viewBox="0 0 131.9 177.79">
  <defs>
    <style>
      .cls-1 {
        fill: #0c8462;
      }
    </style>
  </defs>
  <g id="Calque_1-2" data-name="Calque 1">
    <path class="cls-1" d="M56.82,168.51c1.24-9.2,2-19.91-4.66-26.37-2.46-2.39-5.67-3.86-8.26-6.1-5.45-4.71-7.58-12.89-5.12-19.66,3.61-9.95,15.7-16.19,16.1-26.77.43-11.35-13.09-19.13-13.94-30.45-.83-11.04,10.64-19.72,11.26-30.78.26-4.71-1.5-9.36-1.12-14.06.89-11.01,15.35-17.92,24.88-12.33,9.52,5.59,11.09,20.6,3.5,28.62-3.32,3.51-7.81,5.68-11.43,8.88s-6.41,8.27-4.67,12.78c2.06,5.35,8.87,6.72,13.41,10.23,6.04,4.67,7.76,13.54,5.41,20.8s-8.07,13.02-14.52,17.12c-2.99,1.9-6.34,3.68-7.94,6.84-3.22,6.32,2.49,13.65,8.62,17.23s13.58,6.03,17.05,12.22c3.76,6.7.46,16.33-6.61,19.32-3.66,1.54-7.84,1.45-11.51,2.94-3.67,1.5-6.84,5.85-4.87,9.3-1.86.56-4.05-.38-4.92-2.11l-.64,2.36Z"/>
    <path class="cls-1" d="M16.06,150.57c1.15-7.51,2.02-16.06-2.86-21.89-3.12-3.72-8.13-5.64-10.7-9.75-1.88-3.01-2.15-6.71-2.36-10.25-.35-5.73-.28-12.45,4.29-15.92,1.75-1.33,3.94-1.97,5.76-3.2,3.98-2.71,5.59-8.08,4.72-12.81s-3.84-8.86-7.39-12.12c-1.85-1.7-3.91-3.25-5.24-5.38-1.15-1.84-1.68-4-1.88-6.15-.52-5.57,1.24-11.48,5.3-15.33,4.06-3.85,10.52-5.24,15.52-2.74,7.14,3.56,9.02,12.92,8.48,20.88-.42,6.08-1.75,12.11-3.95,17.8-2.24,5.82-4.89,13.6.13,17.31,1.97,1.46,5.01,2.1,5.55,4.49.36,1.62-.7,3.19-1.75,4.48-3.56,4.41-7.77,8.93-8.16,14.58-.42,6.1,3.77,11.56,4.62,17.61.79,5.68-1.4,11.3-3.56,16.61-1.65-.1-3.29-.2-4.94-.3l-1.57,2.1Z"/>
    <path class="cls-1" d="M100.47,175.99c-7.62-5.2.29-17.48-6.44-37.27-4.58-13.47-11.28-15.83-9.82-24.64.8-4.83,2.97-5.36,10.04-19.22,3.93-7.7,5.89-11.54,6.18-14.42,1.17-11.56-7.11-22.35-8.92-24.72-4.32-5.63-6.42-5.62-6.87-8.92-.8-5.99,5.82-8.09,10.3-19.22,2.86-7.11.98-8.3,4.12-13.04.71-1.08,6.63-9.73,15.79-9.61,3.78.05,6.65,1.57,7.55,2.06,4.19,2.28,6.17,5.65,6.87,6.87.99,1.74,2.33,4.09,2.21,7.08-.13,3.31-2.23,5.39-4.06,8.21-2.78,4.27-6.2,8.21-9.1,12.42-4.65,6.75-8.07,15.57-4.64,23.02,4.59,9.99,20.18,15.28,18.03,26.06-1.21,6.09-7.73,9.24-12.47,13.24-8.03,6.76-11.85,18.14-9.54,28.38,1.76,7.81,5.03,7.69,8.52,19.77,2.25,7.79,4.5,15.61.38,20.74-3.86,4.8-12.93,6.75-18.1,3.22Z"/>
  </g>
</svg>