<?xml version="1.0" encoding="UTF-8"?>
<svg id="Calque_2" xmlns="http://www.w3.org/2000/svg" viewBox="0 0 105.12 295.51">
  <defs>
    <style>
      .cls-1 {
        stroke: #000;
        stroke-linecap: round;
        stroke-width: 2.21px;
      }

      .cls-1, .cls-2 {
        fill: none;
        stroke-miterlimit: 10;
      }

      .cls-3 {
        fill: #232323;
      }

      .cls-4 {
        fill: #c1c1c1;
      }

      .cls-5 {
        fill: #848484;
      }

      .cls-6 {
        fill: #fff;
      }

      .cls-7 {
        fill: #666;
      }

      .cls-2 {
        stroke: #fff;
        stroke-width: 1.6px;
      }

      .cls-8 {
        fill: #191919;
      }
    </style>
  </defs>
  <g id="fille">
    <polyline points="84.96 39.53 84.96 106.06 2.95 106.06 2.95 41.74"/>
    <path d="M27.05,284.49c1.85.93,3.71,1.85,5.56,2.78.72.99,1.44,1.97,2.16,2.96v5.28H.12s1.48-10.64,1.48-10.64c8.48-.13,16.96-.26,25.45-.38Z"/>
    <path d="M94.92,279.86c2.16,1.24,4.33,2.47,6.49,3.71,1.24,1.24,2.47,2.47,3.71,3.71v8.24h-34.01c-.09-3.98-.19-7.97-.28-11.95,8.03-1.24,16.06-2.47,24.1-3.71Z"/>
    <path class="cls-7" d="M6.07,192.1h82.71c4.11,30.14,8.23,60.28,12.34,90.42-11.94,1-23.89,2-35.83,3l-17.52-71.49-10.17,71.49H.79l5.28-93.42Z"/>
    <path class="cls-3" d="M63.08,80.38c-12.5-.29-25-.58-37.5-.87-.7.88-20.83,92.45-25.58,116h.21c-.2,4.39,3.17,8.11,7.55,8.33,4.39.23,8.13-3.15,8.35-7.54.01-.14.01-.27.01-.41,0,4.22,3.31,7.74,7.56,7.95,4.39.23,8.13-3.15,8.36-7.54.01-.14.01-.26.01-.4,0,4.22,3.3,7.73,7.55,7.94,4.39.23,8.14-3.15,8.36-7.54,0-.14,0-.27,0-.41,0-.13,0-.26-.02-.38h.03c-.01.13-.01.25-.01.38,0,4.22,3.3,7.74,7.56,7.95,4.39.23,8.13-3.15,8.35-7.54.01-.14.01-.27.01-.41,0,4.22,3.31,7.74,7.56,7.95,4.39.23,8.13-3.15,8.36-7.54.01-.14.01-.26.01-.4,0,4.22,3.3,7.73,7.55,7.94,4.39.23,8.13-3.15,8.36-7.54.01-.27.01-.53-.01-.79,0,0-12.87-95.65-32.64-115.13ZM16.12,195.88c0-.12,0-.25-.02-.37h.03c-.01.13-.01.24-.01.37ZM32.05,195.89c0-.13,0-.26-.02-.38h.03c-.01.13-.01.25-.01.38ZM63.89,195.88c0-.12,0-.25-.02-.37h.03c-.01.13-.01.24-.01.37ZM79.83,195.51c-.01.13-.01.25-.01.38,0-.13,0-.26-.02-.38h.03Z"/>
    <g>
      <path class="cls-2" d="M59.58,106c-3.91,4.65-7.02-9.49-8.64-19.32-1.63,9.84-4.74,23.96-8.64,19.31-5.84-6.93-2.24-28.48-2.24-28.48l11.02.46,10.76-.45s3.6,21.55-2.24,28.48Z"/>
      <line class="cls-2" x1="50.93" y1="86.68" x2="50.86" y2="122.12"/>
      <ellipse class="cls-6" cx="53.58" cy="111.51" rx="1.11" ry="2"/>
      <ellipse class="cls-6" cx="53.58" cy="119.51" rx="1.11" ry="2"/>
    </g>
    <ellipse class="cls-4" cx="43.53" cy="41.62" rx="42.41" ry="41.5"/>
    <circle class="cls-5" cx="55.86" cy="56.99" r="10.89"/>
    <circle cx="70.94" cy="40.07" r="4.42"/>
    <path class="cls-1" d="M72.4,66.4c1.78-3.64,5.52-5.86,9.4-5.59"/>
    <path class="cls-5" d="M80.8,45.48c1.78.25,3.14,1.66,3.31,3.31.2,1.91-1.23,3.78-3.31,4.1"/>
    <path d="M52.74,1.26s25.5,26.56,30.85,26.71c0,0-8.05-23.57-30.85-26.71Z"/>
    <path class="cls-8" d="M16.24,121.72l32.4,42.4,17.31-13.62c-14.47-17.46-28.93-34.92-43.4-52.38-2.1,7.87-4.21,15.73-6.31,23.6Z"/>
    <path class="cls-4" d="M63.21,150.26c2.33.37,4.54,1.44,6.27,3.05.41.38.83.9.68,1.44-.18.69-1.07.84-1.78.83-1.6-.04-3.19-.3-4.72-.77,2.83,2.73,4.73,6.42,5.29,10.32-.88.65-2.03-.33-2.68-1.21-1.16-1.57-2.33-3.15-3.49-4.72,1.3,2.59,2.65,5.42,2.14,8.28-.04.22-.1.45-.25.61-.5.52-1.34-.12-1.75-.72-1.25-1.79-2.5-3.58-3.75-5.37.74,2.46,1.49,5.07.86,7.57-.07.27-.17.56-.42.69-.34.19-.77-.03-1.05-.3-1.61-1.53-1.06-4.37-2.49-6.07-.33,1.36-.65,2.72-.98,4.07-.11.47-.24.97-.56,1.33s-.91.54-1.31.26c-.25-.18-.36-.48-.46-.77-.52-1.55-.96-3.12-1.31-4.71-.26-1.17-.47-2.45.02-3.54.36-.8,1.04-1.4,1.7-1.97,3.17-2.75,6.35-5.5,9.52-8.25"/>
    <path d="M69.36,8.02s-3.91,16.56-25.41,28.9v76.2H.95V36.81c.42-2.67,1.11-5.63,2.2-8.69C6.32,19.24,12.89,9.52,26.34,3.77c0,0,22.43-10.85,43.02,4.25Z"/>
  </g>
</svg>