<?xml version="1.0" encoding="UTF-8"?>
<svg id="Calque_2" xmlns="http://www.w3.org/2000/svg" viewBox="0 0 522 427.92">
  <defs>
    <style>
      .cls-1 {
        fill: #df7d7c;
      }

      .cls-2 {
        fill: #c13617;
      }

      .cls-3 {
        fill: #b8daeb;
      }

      .cls-4 {
        fill: #4c2b00;
      }

      .cls-5 {
        fill: #e4a008;
      }
    </style>
  </defs>
  <g id="Calque_1-2" data-name="Calque_1">
    <path class="cls-1" d="M215.65,427.88v-251.27L363.11,27.77c52.96,48.41,105.93,96.82,158.89,145.22v254.88H215.65Z"/>
    <polygon class="cls-5" points="215.65 427.88 0 402.06 0 209.41 215.65 176.61 215.65 427.88"/>
    <polygon class="cls-2" points="0 209.41 150.16 58.58 363.11 27.77 215.65 176.61 0 209.41"/>
    <polygon class="cls-4" points="181.56 97.06 174.11 0 215.65 0 215.65 97.06 181.56 97.06"/>
    <polygon class="cls-4" points="343.83 427.92 337 250.95 427 242.95 427 427.92 343.83 427.92"/>
    <polygon class="cls-3" points="14 257.92 14 313.21 76.02 313.21 76.02 247.62 14 257.92"/>
    <path class="cls-3" d="M102,312.92c28.77.1,57.54.2,86.31.3v-80.82l-87.13,10.56c.28,23.32.55,46.64.83,69.96Z"/>
    <polygon class="cls-4" points="135.75 238.76 135.75 313.03 144.74 313.21 144.74 237.67 135.75 238.76"/>
    <polygon class="cls-4" points="101.17 272.8 188.31 264.29 188.31 275.44 101.17 280.41 101.17 272.8"/>
    <polygon class="cls-4" points="36.73 254.14 36.73 313.21 45.01 313.21 45.01 252.77 36.73 254.14"/>
    <polygon class="cls-4" points="14 282.99 76.02 275.44 76.02 282.99 14 290.21 14 282.99"/>
  </g>
</svg>