<?xml version="1.0" encoding="UTF-8"?>
<svg id="Calque_2" data-name="Calque 2" xmlns="http://www.w3.org/2000/svg" viewBox="0 0 429.17 238.64">
  <defs>
    <style>
      .cls-1 {
        fill: #61c5d3;
      }

      .cls-2 {
        fill: #3f4d96;
      }

      .cls-3 {
        fill: #fb9ac9;
      }

      .cls-4 {
        fill: #f5541d;
      }

      .cls-5 {
        fill: #fbeb16;
      }
    </style>
  </defs>
  <g id="Calque_1-2" data-name="Calque 1">
    <path class="cls-4" d="M71.03,67.05l1.33,23.16-9.47-5.54c-2.41,5.15-8.47,9.01-15.76,9.43-9.76.56-18.04-5.27-18.48-13.01-.44-7.74,7.11-14.47,16.87-15.03,7.3-.42,13.77,2.73,16.75,7.58l8.76-6.59Z"/>
    <path class="cls-3" d="M104.69,133.39l-2.19,20.87-7.64-6.32c-2.9,4.25-8.87,6.81-15.44,6.12-8.8-.92-15.33-7.32-14.6-14.3.73-6.97,8.45-11.88,17.25-10.96,6.58.69,11.89,4.44,13.85,9.2l8.78-4.61Z"/>
    <path class="cls-5" d="M129.55,23.52l2.73,29.64-12.38-6.68c-2.86,6.71-10.47,11.93-19.8,12.79-12.5,1.15-23.36-5.95-24.28-15.86-.91-9.91,8.47-18.88,20.97-20.03,9.35-.86,17.78,2.89,21.82,8.97l10.94-8.84Z"/>
    <path class="cls-1" d="M132.32,75.16l1.31,20.94-8.59-4.96c-2.15,4.67-7.62,8.19-14.21,8.6-8.83.55-16.33-4.68-16.77-11.68-.44-7,6.36-13.12,15.19-13.67,6.6-.41,12.46,2.41,15.18,6.78l7.89-6Z"/>
    <path class="cls-4" d="M170.43,118.11l-.82,15.92-6.05-4.49c-2.03,3.34-6.46,5.52-11.47,5.26-6.71-.34-11.92-4.94-11.65-10.26.27-5.32,5.93-9.35,12.64-9.01,5.02.26,9.2,2.89,10.87,6.42l6.47-3.85Z"/>
    <path class="cls-3" d="M185.26,53.75l-4.13,22.83-7.91-7.6c-3.55,4.45-10.35,6.78-17.53,5.47-9.62-1.74-16.3-9.34-14.92-16.97,1.38-7.63,10.3-12.41,19.92-10.66,7.2,1.3,12.75,5.88,14.51,11.29l10.06-4.36Z"/>
    <path class="cls-4" d="M193.28.04l2.28,23.09-9.69-5.14c-2.19,5.25-8.09,9.35-15.36,10.07-9.73.96-18.24-4.52-19-12.23S158.02,1.07,167.75.11c7.28-.72,13.87,2.16,17.05,6.88L193.28.04Z"/>
    <path class="cls-2" d="M156.82,161.99l1.16,20.95-8.55-5.02c-2.19,4.66-7.68,8.13-14.27,8.5-8.83.49-16.3-4.8-16.69-11.8-.39-7,6.46-13.07,15.29-13.56,6.6-.36,12.45,2.5,15.13,6.88l7.93-5.95Z"/>
    <path class="cls-5" d="M50.44,109.97v27.14l-10.69-7.1c-3.16,5.86-10.5,9.96-19.04,9.96-11.44,0-20.71-7.36-20.71-16.43s9.27-16.43,20.71-16.43c8.56,0,15.9,4.11,19.06,9.97l10.67-7.11Z"/>
    <path class="cls-4" d="M88.62,174.11l-3.62,22.92-8.07-7.42c-3.45,4.52-10.19,7.01-17.41,5.87-9.66-1.53-16.51-8.97-15.3-16.63,1.21-7.66,10.02-12.63,19.68-11.11,7.22,1.14,12.87,5.59,14.76,10.96l9.96-4.58Z"/>
    <path class="cls-1" d="M238.58,152.41l-2.9,28.76-10.56-8.67c-3.97,5.87-12.19,9.43-21.24,8.52-12.13-1.22-21.16-10.01-20.19-19.62.97-9.61,11.58-16.42,23.71-15.19,9.07.91,16.41,6.06,19.13,12.6l12.07-6.4Z"/>
    <path class="cls-1" d="M221.42,82.16l1.43,21.13-8.62-4.97c-2.13,4.73-7.58,8.3-14.17,8.75-8.83.6-16.38-4.65-16.85-11.71-.48-7.06,6.29-13.28,15.12-13.87,6.61-.45,12.49,2.37,15.24,6.77l7.86-6.1Z"/>
    <path class="cls-2" d="M239.24,29.95v20.98l-8.26-5.49c-2.44,4.53-8.12,7.7-14.72,7.7-8.84,0-16.01-5.69-16.01-12.7s7.17-12.7,16.01-12.7c6.61,0,12.29,3.18,14.73,7.71l8.25-5.5Z"/>
    <path class="cls-5" d="M261.59,113.99v18.96l-7.47-4.96c-2.21,4.09-7.34,6.96-13.3,6.96-7.99,0-14.47-5.14-14.47-11.48s6.48-11.48,14.47-11.48c5.98,0,11.11,2.87,13.31,6.97l7.46-4.97Z"/>
    <path class="cls-1" d="M148.06,211.78l-3.04,26.86-9.78-8.22c-3.78,5.44-11.51,8.68-19.96,7.72-11.32-1.28-19.67-9.6-18.66-18.58,1.02-8.98,11.02-15.22,22.34-13.94,8.47.96,15.27,5.85,17.74,12l11.36-5.84Z"/>
    <path class="cls-3" d="M200.76,196.26l1.85,15.83-6.72-3.41c-1.44,3.63-5.44,6.52-10.42,7.11-6.67.78-12.58-2.88-13.2-8.17-.62-5.29,4.28-10.21,10.96-11,4.99-.58,9.55,1.31,11.79,4.51l5.74-4.88Z"/>
    <path class="cls-4" d="M271.45,68.5v15.94l-7.32-4.17c-2.16,3.44-7.2,5.85-13.05,5.85-7.84,0-14.2-4.32-14.2-9.65s6.35-9.65,14.2-9.65c5.86,0,10.9,2.42,13.06,5.85l7.31-4.18Z"/>
    <path class="cls-4" d="M301.49,168.9l3.01,20.76-8.96-4.24c-1.76,4.83-6.93,8.78-13.46,9.73-8.75,1.27-16.66-3.33-17.67-10.27-1.01-6.94,5.27-13.6,14.02-14.87,6.55-.95,12.62,1.38,15.68,5.51l7.37-6.63Z"/>
    <path class="cls-5" d="M258.08,214.74l-2.95,20.77-7.4-6.6c-3.05,4.14-9.12,6.48-15.66,5.55-8.76-1.25-15.05-7.88-14.06-14.83.99-6.94,8.88-11.56,17.64-10.32,6.55.93,11.72,4.88,13.5,9.7l8.94-4.28Z"/>
    <path class="cls-1" d="M317.42,12.71l3.73,27.79-11.92-5.8c-2.43,6.43-9.38,11.64-18.13,12.81-11.72,1.57-22.22-4.69-23.47-13.98-1.25-9.29,7.24-18.09,18.95-19.67,8.76-1.18,16.85,2.03,20.88,7.59l9.95-8.75Z"/>
    <path class="cls-2" d="M313.59,138.18l-1.37,15.88-5.89-4.69c-2.14,3.27-6.64,5.29-11.64,4.86-6.69-.58-11.75-5.35-11.29-10.66.46-5.31,6.25-9.14,12.95-8.56,5.01.43,9.09,3.21,10.64,6.79l6.6-3.62Z"/>
    <path class="cls-3" d="M321.65,77.96l3.77,20.64-9.11-3.92c-1.59,4.89-6.6,9.03-13.1,10.21-8.7,1.59-16.77-2.72-18.03-9.62s4.77-13.78,13.47-15.37c6.51-1.19,12.66.92,15.87,4.94l7.13-6.89Z"/>
    <path class="cls-3" d="M357.54,163.94l-1.49,15.87-5.86-4.74c-2.17,3.25-6.68,5.24-11.68,4.78-6.69-.63-11.71-5.44-11.21-10.74.5-5.3,6.32-9.1,13.01-8.47,5,.47,9.07,3.28,10.59,6.87l6.63-3.57Z"/>
    <path class="cls-2" d="M382.56,109.56v23.2l-9.13-6.07c-2.7,5.01-8.97,8.51-16.28,8.51-9.78,0-17.71-6.29-17.71-14.04s7.92-14.04,17.71-14.04c7.31,0,13.59,3.52,16.29,8.52l9.12-6.08Z"/>
    <path class="cls-2" d="M378.92,43.33l1.4,20.93-8.61-4.92c-2.13,4.68-7.58,8.22-14.17,8.66-8.83.59-16.35-4.61-16.82-11.6-.47-7,6.3-13.15,15.13-13.74,6.6-.44,12.47,2.35,15.21,6.71l7.86-6.04Z"/>
    <path class="cls-5" d="M420.38,78.82l-3.07,15.64-5.36-5.3c-2.48,3.02-7.17,4.55-12.1,3.59-6.59-1.29-11.1-6.58-10.08-11.81,1.02-5.23,7.2-8.42,13.79-7.13,4.93.97,8.7,4.17,9.85,7.9l6.95-2.89Z"/>
    <path class="cls-1" d="M425.88,132.26l3.28,22.97-9.9-4.72c-1.96,5.34-7.68,9.69-14.91,10.73-9.68,1.38-18.42-3.72-19.51-11.4s5.86-15.02,15.54-16.41c7.24-1.03,13.95,1.56,17.33,6.13l8.17-7.31Z"/>
    <circle cx="83.05" cy="37.9" r="2.44"/>
    <circle cx="101.63" cy="85.63" r="2.44"/>
    <circle cx="191.31" cy="158.65" r="2.44"/>
    <circle cx="178.41" cy="204.32" r="2.44"/>
    <circle cx="226.66" cy="218.89" r="2.44"/>
    <circle cx="269.91" cy="180.88" r="2.44"/>
    <circle cx="290.02" cy="141.57" r="2.44"/>
    <circle cx="334" cy="167.15" r="2.44"/>
    <circle cx="347.15" cy="116.64" r="2.44"/>
    <circle cx="393.04" cy="144.11" r="2.44"/>
    <circle cx="290.99" cy="91" r="2.44"/>
    <circle cx="243.37" cy="75.12" r="2.44"/>
    <circle cx="207.96" cy="38.49" r="2.44"/>
    <circle cx="158.86" cy="11.79" r="2.44"/>
    <circle cx="104.77" cy="216.05" r="2.44"/>
    <circle cx="53.55" cy="176.98" r="2.44"/>
    <circle cx="7.7" cy="119.08" r="2.44"/>
    <circle cx="275.82" cy="27.38" r="2.44"/>
    <circle cx="346.97" cy="52.8" r="2.44"/>
    <circle cx="396.64" cy="79.67" r="2.44"/>
    <circle cx="125.99" cy="171.02" r="2.44"/>
    <circle cx="37.01" cy="77.56" r="2.44"/>
    <circle cx="234.82" cy="121.52" r="2.44"/>
    <circle cx="190.76" cy="93.02" r="2.44"/>
    <circle cx="72.94" cy="136.19" r="2.44"/>
    <circle cx="147.05" cy="122.32" r="2.44"/>
    <circle cx="147.51" cy="56.6" r="2.44"/>
  </g>
</svg>