<?xml version="1.0" encoding="UTF-8"?>
<svg id="Calque_2" xmlns="http://www.w3.org/2000/svg" viewBox="0 0 140.52 300">
  <defs>
    <style>
      .cls-1 {
        stroke: #000;
        stroke-linecap: round;
        stroke-width: 2.21px;
      }

      .cls-1, .cls-2 {
        fill: none;
        stroke-miterlimit: 10;
      }

      .cls-3 {
        fill: #232323;
      }

      .cls-4 {
        fill: #727272;
      }

      .cls-5 {
        fill: #c1c1c1;
      }

      .cls-6 {
        fill: #848484;
      }

      .cls-7 {
        fill: #fff;
      }

      .cls-8 {
        fill: #666;
      }

      .cls-9 {
        fill: #494949;
      }

      .cls-2 {
        stroke: #fff;
        stroke-width: 2px;
      }
    </style>
  </defs>
  <g id="fille_sac_à_dos_1">
    <polyline points="112.64 44.02 112.64 110.54 23.34 110.54 23.34 46.23"/>
    <path class="cls-4" d="M105.91,182.71H34.95c-9.12,0-16.36-7.72-15.73-16.82,1.42-20.5,5.69-54.51,18.63-71.47.73-.87,1.48-1.75,2.27-2.65.2-.23.41-.46.61-.68.69-.71,1.41-1.37,2.15-1.97,3.67-3.04,7.9-4.84,12.76-4.97h25.1c4.55,0,8.96,1.59,12.42,4.55,8.61,7.38,21.83,26.57,28.37,76.17,1.25,9.44-6.1,17.84-15.62,17.84Z"/>
    <path d="M31.52,288.98l-5.56,2.78c-.72.99-1.44,1.97-2.16,2.96v5.28h34.64l-1.48-10.64c-8.48-.13-16.96-.26-25.45-.38Z"/>
    <path d="M118.61,284.35c2.16,1.24,4.33,2.47,6.49,3.71,1.24,1.24,2.47,2.47,3.71,3.71v8.24h-34.01c-.09-3.98-.19-7.97-.28-11.95,8.03-1.24,16.06-2.47,24.1-3.71Z"/>
    <path class="cls-8" d="M29.76,196.59h82.71c4.11,30.14,8.23,60.28,12.34,90.42-11.94,1-23.89,2-35.83,3l-17.52-71.49-10.17,71.49H24.48l5.28-93.42Z"/>
    <path class="cls-3" d="M127.58,125.09c-8.74-8.62-17.48-17.22-26.22-25.83-1.62-1.59-3.23-3.19-4.85-4.78-2.19-2.15-4.37-4.31-6.56-6.46h-.01c-1.06-1.06-2.12-2.11-3.18-3.15-12.5-.29-25-.58-37.5-.87-.14.18-.29.36-.43.54-12.48,15.65-24.96,31.31-37.44,46.96-3.8,4.76-7.59,9.52-11.39,14.28l16.87,11.08,2.89,1.9.94.62,3.56,2.34,2.52-4.09,6.11-9.93,1.39-2.25-5.92-3.61c3.19-4.16,6.37-8.33,9.56-12.49-1.18,5.87-2.37,11.75-3.55,17.62-.58,2.84-1.15,5.69-1.72,8.53-2.99,14.83-5.98,29.67-8.97,44.5h.21c-.2,4.39,3.17,8.11,7.55,8.33,4.39.23,8.13-3.15,8.35-7.54.01-.14.01-.27.01-.41,0,4.22,3.31,7.74,7.56,7.95,4.39.23,8.13-3.15,8.36-7.54.01-.14.01-.26.01-.4,0,4.22,3.3,7.73,7.55,7.94,4.39.23,8.14-3.15,8.36-7.54.01-.14.01-.27.01-.41,0-.13,0-.26-.02-.38h.03c-.01.13-.01.25-.01.38,0,4.22,3.3,7.74,7.56,7.95,4.39.23,8.13-3.15,8.35-7.54.01-.14.01-.27.01-.41,0,4.22,3.31,7.74,7.56,7.95,4.39.23,8.13-3.15,8.36-7.54.01-.14.01-.26.01-.4,0,4.22,3.3,7.73,7.55,7.94,4.39.23,8.13-3.15,8.36-7.54.01-.27.01-.53-.01-.79h.27c-3.95-14.41-7.89-28.82-11.84-43.23-.81-2.98-1.63-5.95-2.44-8.93-1.85-6.74-3.7-13.49-5.54-20.23,3.57,3.57,7.14,7.14,10.71,10.71l-5.83,4.53,6.15,7.61,5.83,7.22,3.35-2.78,3.86-3.22,16.6-13.84c-4.31-4.25-8.63-8.5-12.94-12.75ZM39.8,200.37c0-.12,0-.25-.02-.37h.03c-.01.13-.01.24-.01.37ZM55.73,200.38c0-.13,0-.26-.02-.38h.03c-.01.13-.01.25-.01.38ZM87.57,200.37c0-.12,0-.25-.02-.37h.03c0,.13,0,.24,0,.37ZM103.5,200.38c0-.13,0-.26-.02-.38h.03c-.01.13-.01.25-.01.38Z"/>
    <g>
      <path class="cls-2" d="M84.6,110.49c-7.03,4.65-12.63-9.49-15.55-19.32-2.93,9.84-8.52,23.96-15.55,19.31-10.5-6.93-4.03-28.48-4.03-28.48l19.82.46,19.35-.45s6.47,21.55-4.03,28.48Z"/>
      <line class="cls-2" x1="69.05" y1="91.17" x2="68.91" y2="126.6"/>
      <circle class="cls-7" cx="73.8" cy="116" r="2"/>
      <circle class="cls-7" cx="73.8" cy="124" r="2"/>
    </g>
    <path class="cls-9" d="M105.39,147.84c.81,2.98,1.63,5.95,2.44,8.93-10.62-4.29-24-12.11-25.19-24.62-1.69-17.74,10.16-33.27,13.87-37.67.69-.81,1.1-1.24,1.1-1.24l4.12,5.62s-.13.14-.37.4c-2.44,2.76-16.28,19.19-11.7,32.87,2.36,7.03,9.17,12.21,15.73,15.71Z"/>
    <path class="cls-9" d="M58.97,130.05c-1.24,12.96-15.22,21.04-26.24,25.45.59-2.93,1.18-5.87,1.78-8.8,7.06-3.61,14.64-9.1,17.19-16.68,5.2-15.44-12.5-34.31-12.5-34.31l-1.35-1.29c.73-.87,1.48-1.75,2.27-2.65.2-.23.41-.46.61-.68.69-.71,1.41-1.37,2.15-1.97.19.26.39.53.58.79,0,0,2.08,2.19,4.73,5.93,2.44,3.47,5.37,8.28,7.58,13.93,2.36,6,3.91,12.96,3.2,20.28Z"/>
    <path class="cls-5" d="M32.84,146.47c2.36-.09,4.73.53,6.74,1.77.48.29.99.73.95,1.28-.04.71-.89,1.04-1.59,1.16-1.58.27-3.19.32-4.78.16,3.31,2.13,5.88,5.38,7.2,9.09-.74.81-2.05.08-2.86-.66-1.45-1.32-2.9-2.63-4.34-3.95,1.78,2.29,3.65,4.8,3.7,7.7,0,.22,0,.46-.13.64-.39.61-1.33.14-1.86-.36-1.57-1.51-3.15-3.02-4.72-4.54,1.21,2.27,2.45,4.69,2.31,7.25-.01.28-.06.58-.27.76-.3.25-.76.12-1.08-.09-1.87-1.19-1.89-4.09-3.62-5.47-.06,1.4-.11,2.79-.17,4.19-.02.49-.05.99-.29,1.41s-.79.71-1.23.51c-.28-.13-.45-.4-.6-.67-.81-1.42-1.55-2.88-2.21-4.37-.48-1.1-.94-2.31-.67-3.48.19-.85.75-1.57,1.28-2.26,2.58-3.31,5.16-6.63,7.74-9.94"/>
    <path class="cls-5" d="M106.94,143.89c-1.7-.38-3.51-.29-5.16.26-.62.21-1.31.61-1.34,1.26-.04.91,1.15,1.28,2.06,1.35,1.45.11,2.9.22,4.35.34-1.94,1.5-3.54,3.44-4.63,5.63-.18.35-.34.75-.23,1.12.15.53.81.77,1.35.66s.98-.48,1.4-.84c1.04-.88,2.08-1.76,3.12-2.64-.29,1.02-1.19,1.75-2.04,2.38s-1.77,1.31-2.15,2.31.09,2.39,1.15,2.54c.72.1,1.38-.38,1.95-.84,1.26-1.02,2.52-2.04,3.78-3.06-.61,1.17-1.21,2.35-1.82,3.52-.5.96-.98,2.19-.33,3.06.83,1.11,2.68.49,3.52-.61.84-1.09,1.22-2.53,2.23-3.47-.32,1.4-.63,2.79-.95,4.19-.18.79-.34,1.69.14,2.34.54.73,1.68.77,2.47.31s1.28-1.28,1.71-2.08c1.05-1.96,1.87-4.04,2.44-6.19.06-.24.13-.49.09-.74-.05-.35-.28-.65-.51-.92-3.55-4.27-8.17-7.51-12.73-10.69"/>
    <ellipse class="cls-5" cx="69.59" cy="46.45" rx="50.78" ry="46.37"/>
    <circle class="cls-6" cx="42.13" cy="66.48" r="10.89"/>
    <circle class="cls-6" cx="99.54" cy="66.48" r="10.89"/>
    <circle cx="57.44" cy="47.56" r="4.42"/>
    <circle cx="80.63" cy="47.56" r="4.42"/>
    <path class="cls-1" d="M78.18,70.43c-1.53-4.42-5.85-7.19-10.26-6.71-3.86.42-7.16,3.26-8.27,7.16"/>
    <path class="cls-6" d="M68.48,51.97c1.78.25,3.14,1.66,3.31,3.31.2,1.91-1.23,3.78-3.31,4.1"/>
    <path d="M37.57,44.45v71.55h-18.77V38.99c.08-.45.18-.9.28-1.34C27.5,0,69.58,0,69.58,0c.66,29.71-17.11,40.56-32.01,44.45Z"/>
    <path d="M121.47,46.35c-3.5.24-10.37.45-18.77-1.19-7.33-1.43-15.84-4.27-24.29-9.75-11.97-7.76-18.74-17.49-22.08-23.18L69.6,0c2.89-.04,27.87,0,42.6,19.9,5.58,7.55,7.81,15.4,8.7,21.11.34,2.11.49,3.94.57,5.34Z"/>
    <path d="M121.47,46.35v69.65h-18.77V43.42l18.2-2.41c.34,2.11.49,3.94.57,5.34Z"/>
  </g>
</svg>