<?xml version="1.0" encoding="UTF-8"?>
<svg id="Calque_2" data-name="Calque 2" xmlns="http://www.w3.org/2000/svg" viewBox="0 0 124.01 132.92">
  <defs>
    <style>
      .cls-1 {
        fill: #00595a;
      }
    </style>
  </defs>
  <g id="Calque_1-2" data-name="Calque 1">
    <path class="cls-1" d="M22.12,119.51v-37.77L0,52.62l7.89-6.58,17.1,19.73,2.63-15.79-13.81-19.19,3.29-8.44,14.47,21.05,3.95-11.84L30.26,3.95l7.89-3.95,5.26,26.31L54.74,0l8.4,3.95-9.21,18.42-7.89,11.84c5.7-4.05,11.4-8.09,17.1-12.14l3.95,5.56c-7.45,5.26-14.91,10.52-22.36,15.79-1.32,1.75-2.63,3.51-3.95,5.26-2.45,9.63-3.98,16.74-3.95,18.42,0,.06,0,.16.08.22,1.19.93,15.71-16.01,15.71-16.01l6.58,5.26-25.65,25.33-2.17,38.33-9.25-.72Z"/>
    <path class="cls-1" d="M78.61,132.92l2.27-27.24-9.82-18.71,4.91-4.83,8.69,18.25,6.05-12.86-9.83-18.81,5.29-2.38,7.57,16.65c1.26-2.27,2.52-4.54,3.78-6.81-1.77-5.05-3.53-10.09-5.3-15.14l4.54-3.61,4.54,14.97,5.3-3.78-4.54-16.65,3.78-3.03,4.54,13.21,11.17-13.21,2.45,6.81-12.11,15.14-6.81,6.81c4.79-2.77,9.59-5.55,14.38-8.32-.5,2.27-1.01,4.54-1.51,6.81-6.05,3.28-12.11,6.56-18.16,9.84-2.02,3.03-4.04,6.05-6.05,9.08,3.78-1.26,7.57-2.52,11.35-3.78v5.3c-4.79,1.51-9.59,3.03-14.38,4.54-1.26,5.05-2.52,10.09-3.78,15.14l-1.41,16.65h-6.91Z"/>
  </g>
</svg>