<?xml version="1.0" encoding="UTF-8"?>
<svg id="Calque_2" data-name="Calque 2" xmlns="http://www.w3.org/2000/svg" viewBox="0 0 110.8 121.15">
  <defs>
    <style>
      .cls-1 {
        fill: #4db56a;
      }

      .cls-2 {
        fill: #8db940;
      }

      .cls-3 {
        fill: #f5709b;
      }

      .cls-4 {
        fill: #f3b0c1;
      }

      .cls-5 {
        fill: #1aa94f;
      }
    </style>
  </defs>
  <g id="Calque_1-2" data-name="Calque 1">
    <g>
      <path class="cls-1" d="M31.89,101.36c.09-6.21-.05-13.06-4.2-17.69-1.43-1.59-3.3-2.87-4.21-4.81-1.89-4.04,1.21-8.99-.26-13.2-2.16-6.2-12.09-6.25-14.83-12.21-1.5-3.27-.25-7.13-.89-10.67-.69-3.78-3.76-7.01-7.49-7.9,1.94,1.37,2.58,3.99,2.45,6.36-.13,2.37-.89,4.66-1.12,7.02-.46,4.62,1.18,9.4,4.38,12.76,1.84,1.93,4.24,3.53,5.09,6.05.77,2.29.07,4.8.14,7.22.1,3.15,1.61,6.24,4.04,8.24,1.5,1.24,3.29,2.06,4.87,3.19,5.73,4.11,7.84,11.71,8.02,18.76,1.48-1.11,2.66-2.62,3.35-4.33"/>
      <path class="cls-2" d="M33.55,97.45c1.1-5.67-2.17-11.13-4.3-16.49-2.65-6.69-3.61-14.04-2.77-21.18.34-2.88.91-6.03-.64-8.48-.84-1.32-2.18-2.22-3.43-3.17-3.26-2.45-6.22-5.58-7.45-9.47-1.31-4.16-.48-8.65.04-12.98.43-3.54.65-7.1.66-10.67,1.75,2.17,3.01,4.72,3.66,7.43,1,4.18.62,8.79,2.75,12.51,2.54,4.42,8.07,6.57,10.34,11.13,2.89,5.84-.64,13.36,2.28,19.19,1.08,2.16,2.95,3.84,4.14,5.94,2.06,3.64,1.86,8.11,1.28,12.25-.57,4.14-1.45,8.37-.57,12.46.11.52.23,1.13-.14,1.51-.25.26-.65.31-1.02.34-2.01.16-4.02.2-6.04.12"/>
      <path class="cls-5" d="M37.95,0c8.97,4.97,14.18,15.94,12.38,26.03-1.1,6.14-4.5,11.93-4.07,18.15.25,3.59,1.77,6.96,2.5,10.49,2.85,13.75-6.48,28.24-2.33,41.65-.9,2.18-4.32,2.2-5.94.48-1.62-1.72-1.79-4.34-1.48-6.68.3-2.34.99-4.67.76-7.02-.43-4.32-3.91-7.94-4.11-12.28-.24-5.21,4.3-9.74,4.1-14.95-.18-4.71-4.1-8.35-5.81-12.75-2.62-6.74.22-14.22,2.85-20.96,2.62-6.73,5.01-14.53,1.64-20.92"/>
    </g>
    <g>
      <path class="cls-3" d="M28.34,106.22s9.77,13.27,20.77,13.27c0,0,6,0,11-1,0,0,8,6,16,0,0,0,9,6,13-1,0,0,18.24-2.64,19.62-13.32l-80.39,2.05Z"/>
      <path class="cls-4" d="M55.12,88.49s-40-18-20-26c0,0-4.6-15.28,7.2-14.14,0,0,2.8-11.86,15.8-3.86,0,0,8-11,18,2,0,0,12-5,15,8,0,0,11.37-2.35,11.19,9.83,0,0,11.81,1.17,6.81,14.17,0,0,6.42,7-5.79,10,0,0-15.21,1-19.21,4,0,0,8,8,19,7,0,0,10,4,1,7,0,0,3,6-12,4,0,0-1,7-14,3,0,0-9,6-16-3,0,0-7,6-15,0,0,0-9,5-13-4-3.28,1.93-7.23.49-8.38-2.26-.91-2.19-.01-5.11,2.38-6.74,2.86-2,5.86-3.33,9-4,3.61-.77,5.41-.24,9-1,3.14-.67,6.14-2,9-4Z"/>
    </g>
  </g>
</svg>