<?xml version="1.0" encoding="UTF-8"?>
<svg id="Calque_2" data-name="Calque 2" xmlns="http://www.w3.org/2000/svg" viewBox="0 0 999 94.5">
  <defs>
    <style>
      .cls-1 {
        fill: #fff;
        stroke: #000;
        stroke-linecap: round;
        stroke-linejoin: round;
        stroke-width: 2px;
      }

      .cls-2 {
        letter-spacing: 0em;
      }

      .cls-3 {
        font-family: Kopik-Regular, Kopik;
        font-size: 20px;
      }

      .cls-4 {
        letter-spacing: -.16em;
      }

      .cls-5 {
        letter-spacing: -.02em;
      }

      .cls-6 {
        letter-spacing: -.02em;
      }

      .cls-7 {
        letter-spacing: -.04em;
      }

      .cls-8 {
        letter-spacing: 0em;
      }

      .cls-9 {
        letter-spacing: -.01em;
      }

      .cls-10 {
        letter-spacing: 0em;
      }

      .cls-11 {
        letter-spacing: .03em;
      }

      .cls-12 {
        letter-spacing: 0em;
      }
    </style>
  </defs>
  <g id="Calque_1-2" data-name="Calque 1">
    <polygon class="cls-1" points="1 1 985 11.12 916.31 55.92 998 93.5 21.42 84.83 97.54 41.47 1 1"/>
    <text class="cls-3" transform="translate(264.47 39.5)"><tspan class="cls-6" x="0" y="0">C</tspan><tspan class="cls-4" x="13.3" y="0">’</tspan><tspan class="cls-2" x="17.16" y="0">est </tspan><tspan class="cls-5" x="52.88" y="0">r</tspan><tspan x="60.46" y="0">epa</tspan><tspan class="cls-12" x="96.28" y="0">r</tspan><tspan x="104.46" y="0">ti pour un nou</tspan><tspan class="cls-10" x="241.58" y="0">v</tspan><tspan x="251.58" y="0">eau jour </tspan><tspan class="cls-6" x="336.04" y="0">d</tspan><tspan class="cls-4" x="348.34" y="0">’</tspan><tspan x="352.2" y="0">écol</tspan><tspan class="cls-7" x="393.52" y="0">e</tspan><tspan x="404.46" y="0">. </tspan><tspan class="cls-6" x="416.42" y="0">R</tspan><tspan class="cls-8" x="430.48" y="0">e</tspan><tspan class="cls-10" x="442.12" y="0">g</tspan><tspan x="453.48" y="0">a</tspan><tspan class="cls-6" x="465.16" y="0">r</tspan><tspan x="472.74" y="0">de le sac </tspan><tspan x="88.7" y="27">de Lila </tspan><tspan class="cls-11" x="157.52" y="27">ç</tspan><tspan x="169.04" y="27">a ne </tspan><tspan class="cls-9" x="215" y="27">t</tspan><tspan x="222.94" y="27">e dit pas </tspan><tspan class="cls-8" x="310.8" y="27">q</tspan><tspan x="323.06" y="27">uel</tspan><tspan class="cls-8" x="352.38" y="27">q</tspan><tspan x="364.64" y="27">ue chose ?</tspan></text>
  </g>
</svg>