<?xml version="1.0" encoding="UTF-8"?>
<svg id="Calque_2" data-name="Calque 2" xmlns="http://www.w3.org/2000/svg" viewBox="0 0 999 94.5">
  <defs>
    <style>
      .cls-1 {
        fill: #fff;
        stroke: #000;
        stroke-linecap: round;
        stroke-linejoin: round;
        stroke-width: 2px;
      }

      .cls-2 {
        letter-spacing: 0em;
      }

      .cls-3 {
        letter-spacing: 0em;
      }

      .cls-4 {
        font-family: Kopik-Regular, Kopik;
        font-size: 20px;
      }

      .cls-5 {
        letter-spacing: -.15em;
      }

      .cls-6 {
        letter-spacing: -.02em;
      }

      .cls-7 {
        letter-spacing: -.02em;
      }

      .cls-8 {
        letter-spacing: -.05em;
      }

      .cls-9 {
        letter-spacing: -.03em;
      }

      .cls-10 {
        letter-spacing: 0em;
      }

      .cls-11 {
        letter-spacing: -.01em;
      }

      .cls-12 {
        letter-spacing: 0em;
      }

      .cls-13 {
        letter-spacing: .03em;
      }
    </style>
  </defs>
  <g id="Calque_1-2" data-name="Calque 1">
    <polygon class="cls-1" points="1 1 985 11.12 916.31 55.92 998 93.5 21.42 84.83 97.54 41.47 1 1"/>
    <text class="cls-4" transform="translate(261.49 38.34)"><tspan x="0" y="0">At</tspan><tspan class="cls-12" x="22.96" y="0">t</tspan><tspan x="30.9" y="0">ention les </tspan><tspan class="cls-11" x="132.46" y="0">g</tspan><tspan x="143.82" y="0">a</tspan><tspan class="cls-7" x="155.5" y="0">r</tspan><tspan class="cls-3" x="163.08" y="0">des du châ</tspan><tspan class="cls-12" x="268.38" y="0">t</tspan><tspan x="276.32" y="0">eau sont l</tspan><tspan class="cls-8" x="372.12" y="0">à</tspan><tspan x="382.82" y="0">. Vi</tspan><tspan class="cls-12" x="413.9" y="0">t</tspan><tspan x="421.84" y="0">e aide Lila à se </tspan><tspan class="cls-13" x="66.02" y="27">c</tspan><tspan x="77.54" y="27">acher pour ne pas </tspan><tspan class="cls-10" x="257.44" y="27">q</tspan><tspan class="cls-9" x="269.7" y="27">u</tspan><tspan class="cls-5" x="281.2" y="27">’</tspan><tspan class="cls-2" x="285.06" y="27">elle se </tspan><tspan class="cls-12" x="351.88" y="27">f</tspan><tspan x="359.34" y="27">asse p</tspan><tspan class="cls-7" x="421.84" y="27">r</tspan><tspan x="429.42" y="27">end</tspan><tspan class="cls-6" x="466.4" y="27">r</tspan><tspan x="473.98" y="27">e ! </tspan></text>
  </g>
</svg>