<?xml version="1.0" encoding="UTF-8"?>
<svg id="Calque_2" data-name="Calque 2" xmlns="http://www.w3.org/2000/svg" viewBox="0 0 256.69 287.77">
  <defs>
    <style>
      .cls-1 {
        fill: #fed4bc;
      }

      .cls-2 {
        fill: #3672a3;
      }

      .cls-3 {
        fill: #777;
      }

      .cls-4 {
        fill: #fa0;
      }

      .cls-5 {
        fill: none;
        stroke: #000;
        stroke-linecap: round;
        stroke-miterlimit: 10;
        stroke-width: 1.35px;
      }

      .cls-6 {
        fill: #ff869f;
      }

      .cls-7 {
        fill: #3d83b2;
      }

      .cls-8 {
        fill: #5891c8;
      }

      .cls-9 {
        fill: #7aacce;
      }

      .cls-10 {
        fill: #f99023;
      }

      .cls-11 {
        fill: #f47eb2;
      }

      .cls-12 {
        fill: #fde626;
      }
    </style>
  </defs>
  <g id="Calque_1-2" data-name="Calque 1">
    <g>
      <polygon class="cls-3" points="41.13 142.88 34.67 166.03 47.85 192.8 65.29 206.27 101.49 214.62 153.95 209.25 175.56 200.61 193.13 199.62 213.71 196.71 212.09 180.82 206.73 167.7 180.05 150.35 162.71 145.7 146.37 127.29 120.03 121.15 90.87 126.55 67.02 126.58 41.13 142.88"/>
      <g>
        <path class="cls-2" d="M84.74,3.1s-23.11-8.91-37.02,4.35c-13.91,13.26-11.33,30.53-11.33,30.53,0,0,5.98,34.54-3.85,42.01-9.83,7.47-14.75,10.8-14.75,10.8,0,0-13.12,7.49-4.78,25.55s.97,23.04.97,23.04c0,0-13.11,9.14-13.89,15.73-.78,6.59,3.41,18.91,3.41,18.91,0,0,2.41-9.07,11.47-8.31,9.06.77,16.45-1.75,16.45-1.75l12.3-7.49s11.45-12.42,19.69-10.83c6.78,1.31,13.01.15,18.91-4.24,2.82-2.1,4.47-4.68,5.39-6.45,2.81-6.39,5.62-12.77,8.44-19.16l-.19-29.09L84.74,3.1Z"/>
        <path class="cls-7" d="M42.03,44.85c.99,7.88,1.98,15.75,2.96,23.63.45,3.61.83,7.24-.31,10.76-.89,2.73-2.51,5.19-4.51,7.23-2.1,2.15-4.62,3.87-7.35,5.1-3.03,1.36-6.3,2.11-8.97,4.19-4.62,3.6-7.02,9.58-7.37,15.3-.4,6.48,1.81,13.01,6.18,17.82.8.88,2.09-.42,1.3-1.3-3.97-4.37-5.93-10.28-5.66-16.16s3.02-12.39,8.39-15.35c2.77-1.53,5.91-2.23,8.7-3.75,2.44-1.33,4.7-3.05,6.58-5.1s3.36-4.39,4.3-7c1.14-3.17,1.15-6.49.79-9.81-.93-8.54-2.12-17.06-3.19-25.58-.14-1.16-1.98-1.17-1.83,0h0Z"/>
        <path class="cls-7" d="M57.38,10.48c-2.61-.09-3.56,3-4.26,4.99-1,2.86-1.57,5.86-1.87,8.87-.62,6.21.03,12.47.95,18.62,1.82,12.18,4.88,25.01.49,37-2,5.48-5.53,10.41-10.66,13.33-1.03.58-.1,2.17.93,1.58,8.75-4.98,12.94-15.11,13.68-24.78,1-13.02-3.34-25.67-3.76-38.62-.11-3.47.03-6.98.67-10.4.3-1.59.69-3.17,1.2-4.7.38-1.16,1.05-4.11,2.63-4.06,1.18.04,1.18-1.79,0-1.83h0Z"/>
        <path class="cls-7" d="M60.9,56.69c-1.01,8.03,1.84,16.26-.23,24.19-1.72,6.58-6.64,11.62-11.65,15.92s-11.69,8.2-14.37,14.55.36,13.08.3,19.63c-.04,3.91-1.68,6.93-4.54,9.5-2.66,2.39-5.67,4.35-7.8,7.29-.69.96.9,1.87,1.58.93,3.73-5.16,10.59-7.46,12.18-14.16s-2.15-13.5-.74-20.25,8.84-11.26,13.94-15.56,9.92-9.09,12.24-15.38c3.18-8.64-.19-17.79.92-26.66.15-1.17-1.69-1.16-1.83,0h0Z"/>
        <path class="cls-7" d="M55.17,104.84c-8.38,2.51-13.17,11.6-12.52,20.02.4,5.18,3.68,9.8,3.24,15.06-.41,4.86-3.53,9.45-7.96,11.5-4.77,2.21-12.79,2.28-13.77,8.94-.17,1.15,1.6,1.65,1.77.49.86-5.8,8.58-5.87,12.77-7.77s7.01-5.48,8.34-9.63c.67-2.08.9-4.31.62-6.48-.37-2.88-1.59-5.51-2.42-8.27-1.24-4.15-1.01-8.59.61-12.61,1.76-4.4,5.21-8.1,9.82-9.48,1.13-.34.65-2.11-.49-1.77h0Z"/>
        <path class="cls-7" d="M75.95,106.07c-.45,4.3-.57,8.63-.32,12.95.23,3.93,1.25,7.96.99,11.9s-2.53,6.6-5.86,8.25c-3.64,1.81-7.88,1.86-11.86,1.95-1.18.03-1.18,1.86,0,1.83,4.21-.1,8.57-.23,12.45-2.04,3.18-1.48,5.88-4.13,6.75-7.6,1.05-4.17-.22-8.66-.54-12.86-.37-4.79-.28-9.61.22-14.39.12-1.17-1.71-1.16-1.83,0h0Z"/>
        <path class="cls-7" d="M19.11,132.11c.18,1.72.38,3.51-.01,5.21s-1.64,3.05-2.94,4.25c-2.43,2.22-5.17,4.1-7.42,6.52-4.23,4.54-5.93,10.89-4.6,16.95.25,1.15,2.02.66,1.77-.49-.69-3.13-.48-6.37.59-9.39s3.18-5.63,5.65-7.8,5.24-3.95,7.23-6.5,1.89-5.68,1.57-8.75c-.12-1.16-1.96-1.17-1.83,0h0Z"/>
        <path class="cls-1" d="M121.3,128.02c-2.12-15.56-4.24-31.12-6.37-46.68l20.43,47.2,10.38-1.9-29.16-65.84-20.45-2.31-4.09-12.2-7.41.05,2.61,14.04-20.73,8.69-8.74,66.7,10.38-1.29,6.4-43.87c4.39,14.79,8.78,29.57,13.16,44.36,11.19-2.31,22.39-4.63,33.58-6.94Z"/>
        <ellipse class="cls-1" cx="87.06" cy="28.47" rx="31.05" ry="28.35" transform="translate(-3.05 12.01) rotate(-7.76)"/>
        <circle class="cls-6" cx="72.08" cy="42.87" r="6.66"/>
        <circle class="cls-6" cx="106.85" cy="38.13" r="6.66"/>
        <circle cx="79.79" cy="30.14" r="2.7"/>
        <circle cx="93.84" cy="28.23" r="2.7"/>
        <path class="cls-5" d="M82.5,39.99c1.29,2.55,4.14,3.87,6.77,3.22,2.3-.57,4.07-2.57,4.42-5.02"/>
        <path class="cls-6" d="M86.84,31.91c1.1,0,2.04.74,2.28,1.73.28,1.14-.44,2.39-1.67,2.76"/>
        <path class="cls-10" d="M86.63,135.85s-24.8,39.64,38.88,47.56c63.68,7.91,59.44,26.9,59.44,26.9,0,0-45.33,30.41-11.66,77.47,0,0-1.96-9.08,15.44-30.44,0,0,9.47-8.18,8.4-28.69,0,0,14.17,37.72,59.55,27.92,0,0-13.99-5.78-19.14-25.87s-37.4-22.97-37.4-22.97c0,0,2.49-26.02-42.25-50.3,0,0-35.33-12.88-37.81-27.05l-33.45,5.49Z"/>
        <path class="cls-11" d="M79.61,109.95c12.62-2.53,25.24-5.05,37.86-7.58-.84-7.01-1.69-14.02-2.53-21.03,0,0-13.61-3.91-18.61,4.43,0,0-14.02-6.23-21.77,4.83,1.69,6.45,3.37,12.9,5.06,19.35Z"/>
        <path class="cls-8" d="M58.28,42.79s-3.27-8.18,9.37-15.66c12.65-7.48,14.32-16.33,14.32-16.33,0,0,9.63,7.32,21.02,6.49,0,0,11.07,2.09,15.05,10.18,0,0,.91-23.24-25.39-27.04-26.3-3.79-34.89,19.4-34.89,19.4,0,0-4.28,8.58.51,22.97Z"/>
        <path class="cls-12" d="M96.94,127.85l-.66.11c.2-.24.33-.36.33-.36.11.09.23.17.34.25Z"/>
        <path class="cls-12" d="M110.58,125.61l-.11.02s.06-.06.06-.06c.02.01.03.03.05.04Z"/>
        <path class="cls-12" d="M132.04,139.81c-3.25-.66-5.63-1.73-7.37-3.04.12,3.67-1.15,6.64-1.15,6.64-3.68-1.71-5.94-3.73-7.27-5.79-.52,4.1-2.77,7.18-2.77,7.18-1.83-1.43-3.19-2.85-4.16-4.24-.79,3.25-2.46,5.53-2.46,5.53-2.22-1.74-3.75-3.47-4.75-5.14-.75,3.44-2.54,5.88-2.54,5.88-2.1-1.64-3.59-3.28-4.58-4.87-1.48,3.81-4.35,6.23-4.35,6.23-2.19-2.76-3.32-5.25-3.75-7.46-2.75,4.39-7.74,6.09-7.74,6.09-4.65-15.08,8.58-17.47,8.58-17.47l8.56-1.41.66-.11,13.53-2.23.11-.02,10.21-1.68c13.57,2.32,11.26,15.88,11.26,15.88Z"/>
        <path class="cls-9" d="M59.72,31.85c-1.5-5.77,2.17-11,6.05-14.86s8.27-7.19,10.95-12.02c.57-1.03-1.01-1.96-1.58-.93-2.96,5.34-8.14,8.78-12.16,13.22-3.69,4.08-6.48,9.47-5.02,15.08.3,1.14,2.07.66,1.77-.49h0Z"/>
        <path class="cls-9" d="M67.91,24.51c.87-4.28,4.65-6.88,7.63-9.7,2.73-2.59,5.92-6.67,3.51-10.51-.62-1-2.21-.08-1.58.93,2.35,3.76-2.53,7.7-4.98,9.89-2.75,2.45-5.58,5.16-6.34,8.91-.23,1.15,1.53,1.65,1.77.49h0Z"/>
        <path class="cls-9" d="M82.71,3.57c5.36.07,11.02.13,16,2.36,2.6,1.17,4.75,2.98,6.87,4.85,2.24,1.98,4.44,4.01,6.61,6.08.85.81,2.15-.48,1.3-1.3-2.28-2.17-4.6-4.31-6.97-6.39-2.23-1.96-4.52-3.81-7.27-4.99-5.2-2.24-10.97-2.37-16.54-2.44-1.18-.02-1.18,1.82,0,1.83h0Z"/>
        <path class="cls-9" d="M81.81,6c2.29,4,6.67,5.77,10.99,6.66,2.51.52,5.05.9,7.58,1.33,2.25.38,5.71.54,6.63,3.09.4,1.1,2.17.63,1.77-.49-.7-1.96-2.35-3.1-4.3-3.67-2.58-.75-5.38-1-8.02-1.45-4.8-.82-10.41-1.77-13.05-6.39-.59-1.02-2.17-.1-1.58.93h0Z"/>
        <path class="cls-7" d="M66.99,2.09c-8.58-2.26-15.67,4.55-19.62,11.38-4.25,7.35-5.99,16.06-4.9,24.48.15,1.15,1.99,1.17,1.83,0-1-7.69.38-15.6,4.04-22.45,3.46-6.47,9.96-13.8,18.16-11.64,1.14.3,1.63-1.47.49-1.77h0Z"/>
        <path class="cls-7" d="M68.03,55.58c-.19,3.77-.99,7.47-2.32,11-.17.46.19,1.01.64,1.13.51.14.95-.18,1.13-.64,1.39-3.68,2.18-7.56,2.38-11.48.06-1.18-1.77-1.18-1.83,0h0Z"/>
        <path class="cls-7" d="M74.88,57.7c.32,2,.07,4.16-.73,6.04-.19.46-.14.98.33,1.25.39.23,1.06.13,1.25-.33,1.01-2.37,1.33-4.9.92-7.45-.08-.49-.69-.76-1.13-.64-.52.14-.72.64-.64,1.13h0Z"/>
        <path class="cls-4" d="M94.04,162.29c2.69,2.77,6.77,4.86,10.69,3.7,3.44-1.02,5.93-4.32,5.4-7.93l-1.35,1.04c2.65,1.17,5.81,2.06,8.6.78,2.38-1.1,3.94-3.54,3.46-6.17l-1.35,1.04c3.18,1.49,7.16,2.68,10.19.18,2.31-1.91,2.44-5.88-.38-7.4-1.04-.56-1.97,1.02-.93,1.58,2.2,1.18,1.17,4.02-.67,4.93-2.37,1.17-5.06.16-7.28-.88-.75-.35-1.5.22-1.35,1.04.36,1.98-1.29,3.71-3.08,4.25-2.09.63-4.38-.09-6.29-.93-.77-.34-1.47.22-1.35,1.04.42,2.88-2.19,5.43-4.89,5.85-3.1.47-6.05-1.26-8.13-3.4-.82-.85-2.12.45-1.3,1.3h0Z"/>
        <path class="cls-4" d="M112.37,176.06c2.97-.98,6.25.15,9.11-1.39,2.86-1.53,2.72-4.6,2.07-7.36l-1.13,1.13c2.84.88,6.1,1.76,8.96.47,2.15-.97,3.97-3.75,2.38-5.97l-.33,1.25c1.63-1.12,3.94.23,5.77.09,1.51-.12,2.92-.93,3.85-2.11,2.04-2.6,1.07-6.36-1.71-7.98-1.02-.59-1.95.99-.93,1.58,2.62,1.52,2.47,5.38-.45,6.48-2.47.93-5.06-1.29-7.46.35-.38.26-.64.83-.33,1.25,1.43,2-1.53,3.61-3.13,3.81-2.07.26-4.18-.4-6.13-1.01-.69-.22-1.28.47-1.13,1.13.3,1.27.72,2.84.06,4.07-.53.99-1.61,1.46-2.65,1.7-2.41.56-4.91-.07-7.31.72-1.12.37-.64,2.14.49,1.77h0Z"/>
        <path class="cls-4" d="M135.99,177.96c2.63-.11,5.53-.28,7.69-1.97,1.79-1.41,2.92-3.81,2.14-6.05l-.88,1.16c1.53-.2,3.07.19,4.59-.1,1.08-.2,2.1-.76,2.88-1.53,1.82-1.8,2.09-4.58.89-6.78-.57-1.04-2.15-.11-1.58.93.9,1.65.55,3.71-.95,4.88-1.7,1.32-3.87.53-5.82.78-.54.07-1.1.54-.88,1.16.6,1.71-.42,3.47-1.87,4.4-1.81,1.15-4.11,1.22-6.19,1.31-1.18.05-1.18,1.89,0,1.83h0Z"/>
        <path class="cls-4" d="M153.11,181.97c3.85-.06,6.63-3.91,5.27-7.58l-.42,1.04c1.52-.65,3.27-.51,4.87-.76,1.37-.22,2.84-.73,3.79-1.8.87-.98,1.19-2.27.78-3.53s-1.38-2.13-2.69-2.13c-1.18,0-1.18,1.83,0,1.83.69,0,1.01.76,1.03,1.36.05.95-.75,1.61-1.55,1.98-1.01.47-2.14.56-3.24.65-1.36.11-2.66.27-3.92.81-.34.15-.55.69-.42,1.04.93,2.52-.76,5.21-3.5,5.26-1.18.02-1.18,1.85,0,1.83h0Z"/>
        <path class="cls-4" d="M168.76,188.99l-.36-2.78c-.05-.4-.12-.8-.12-1.2,0,.26-.2.01.08.12.14.06.38.04.54.05,1.64.16,3.33-.03,4.86-.68,2.89-1.22,4.89-4.23,4.21-7.41l-.88,1.16c.78,0,1.52.1,2.27.33,1.13.33,1.62-1.43.49-1.77-.9-.26-1.82-.39-2.76-.39-.62,0-1.01.58-.88,1.16.66,3.09-2.27,5.37-5.02,5.74-.75.1-1.52.09-2.28.02s-1.52-.09-2.05.55-.38,1.53-.27,2.31l.36,2.78c.06.49.38.92.92.92.45,0,.98-.42.92-.92h0Z"/>
        <path class="cls-4" d="M177.23,192.97c2.62.41,5.65.48,7.89-1.18,1.9-1.41,3.18-3.98,2.28-6.32-.18-.46-.62-.78-1.13-.64-.44.12-.82.66-.64,1.13.63,1.63-.25,3.45-1.65,4.4-1.81,1.22-4.19,1.18-6.26.85-.49-.08-.99.13-1.13.64-.12.44.15,1.05.64,1.13h0Z"/>
        <path class="cls-4" d="M172.52,278.26c-1.25-4.38-3.32-8.47-4.38-12.92s-1.29-8.84-.87-13.28c.79-8.53,4.23-16.69,9.48-23.43,2.84-3.65,6.19-6.91,9.89-9.68.93-.7.02-2.29-.93-1.58-14.17,10.61-22.84,27.99-19.86,45.84.91,5.44,3.4,10.29,4.9,15.54.32,1.13,2.09.65,1.77-.49h0Z"/>
        <path class="cls-4" d="M175.65,267.49c-3.09-14.69,1.92-30.57,12.81-40.88.86-.81-.44-2.11-1.3-1.3-11.38,10.77-16.5,27.35-13.28,42.67.24,1.15,2.01.67,1.77-.49h0Z"/>
        <path class="cls-4" d="M183.25,260.43c-1.65-10.19,1.66-20.91,8.72-28.44.81-.86-.49-2.16-1.3-1.3-7.54,8.04-10.95,19.35-9.19,30.22.19,1.16,1.96.67,1.77-.49h0Z"/>
        <path class="cls-4" d="M189.87,251.59c-.88-4.92.37-10.04,3.29-14.08.69-.96-.9-1.87-1.58-.93-3.22,4.45-4.44,10.1-3.48,15.5.21,1.16,1.98.67,1.77-.49h0Z"/>
        <path class="cls-4" d="M200.22,212.7c4.07,1.46,8.08,3.06,12.03,4.82,3.72,1.65,7.62,3.3,11.08,5.47,1.68,1.06,2.99,2.41,3.83,4.22.77,1.66,1.15,3.48,1.61,5.23.89,3.36,2.27,6.56,4.2,9.45,2.19,3.28,4.98,6.09,8.21,8.35.97.68,1.89-.91.93-1.58-3.02-2.1-5.64-4.77-7.66-7.85s-3.28-6.44-4.21-10.01-2.1-6.62-5.12-8.81c-3.31-2.39-7.38-4-11.08-5.67-4.37-1.97-8.82-3.76-13.33-5.39-1.11-.4-1.59,1.37-.49,1.77h0Z"/>
        <path class="cls-4" d="M200.15,220.59c2.34-.41,4.61.62,6.73,1.48,1.83.74,3.66,1.51,5.42,2.41,3.45,1.77,6.42,4.09,8.55,7.37,3.74,5.76,5.24,12.99,10.38,17.81,3.17,2.96,7.4,4.53,11.72,4.46,1.18-.02,1.18-1.85,0-1.83-4.17.06-8.16-1.55-11.06-4.56-2.46-2.55-4-5.83-5.47-9.01s-2.89-6.45-5.02-9.27c-2.28-3.01-5.35-5.17-8.72-6.83-1.91-.95-3.9-1.75-5.88-2.55-2.32-.93-4.61-1.69-7.13-1.25-1.16.2-.67,1.97.49,1.77h0Z"/>
        <path class="cls-4" d="M202.21,227.32c3.16-.3,5.99,1.66,8.43,3.44,2.29,1.66,4.38,3.6,6.25,5.71,3.76,4.24,6.56,9.28,8.21,14.7.34,1.13,2.11.65,1.77-.49-1.78-5.85-4.84-11.25-8.94-15.79-2-2.22-4.25-4.2-6.68-5.94-2.63-1.88-5.68-3.79-9.05-3.47-1.16.11-1.18,1.95,0,1.83h0Z"/>
        <path class="cls-4" d="M203.25,234c2.68,1.74,4.99,3.95,7.16,6.29,2.32,2.49,4.54,5.08,6.8,7.62.78.89,2.08-.42,1.3-1.3-4.42-4.99-8.67-10.53-14.33-14.2-.99-.64-1.91.94-.93,1.58h0Z"/>
        <path class="cls-1" d="M59.42,134.31c-2.13.93-3.69,3.04-3.96,5.35-.03.29-.05.58.06.85.31.82,1.54.9,2.23.35s.95-1.45,1.18-2.29c.15.82.3,1.65.45,2.47.08.46.26,1.03.73,1.1.38.06.72-.26.94-.58.63-.91.96-2.03.9-3.14.89,1.35,1.77,2.7,2.66,4.06.24.37.66.8,1.06.6.17-.09.27-.27.35-.45.35-.84.47-1.77.33-2.67.96.75,1.93,1.5,2.89,2.25.26.2.64.41.89.19.14-.12.17-.32.18-.5.06-1.01-.14-2.03-.58-2.94.53.46,1.09.94,1.77,1.13s1.52,0,1.85-.63c.49-.92-.34-1.96-1.11-2.66-1.02-.94-2.09-1.91-3.41-2.33-.92-.29-1.91-.3-2.87-.28-2.21.06-4.41.29-6.61.53"/>
        <path class="cls-1" d="M135.5,127.83c-.97,1.24-1.97,2.52-2.35,4.05-.14.55-.18,1.16.1,1.65.45.77,1.62.9,2.37.41s1.1-1.44,1.12-2.33c.46.67.93,1.33,1.39,2,.16.23.35.48.63.54.2.04.4-.03.57-.13.7-.41,1.03-1.36.73-2.11.66.79,1.44,1.48,2.3,2.04.4.26.86.5,1.33.42.63-.09,1.06-.74,1.09-1.37s-.25-1.24-.59-1.77c.86.33,1.62.91,2.52,1.08s2.04-.28,2.12-1.19c.08-.96-.97-1.57-1.86-1.93.9.04,1.79.08,2.69.12.28.01.6,0,.77-.22.21-.28.02-.68-.21-.95-.87-1.03-2.2-1.58-3.53-1.77s-2.69-.05-4.03.09c-2.32.24-4.63.48-6.95.72"/>
      </g>
    </g>
  </g>
</svg>