<?xml version="1.0" encoding="UTF-8"?>
<svg id="Calque_2" xmlns="http://www.w3.org/2000/svg" viewBox="0 0 391.72 749.97">
  <defs>
    <style>
      .cls-1 {
        fill: #17161b;
      }

      .cls-2 {
        fill: #5aa670;
      }
    </style>
  </defs>
  <g id="Calque_1-2" data-name="Calque_1">
    <path class="cls-2" d="M88.32,578.17c-30.33-14.24-70.5-41.35-74.8-86.2,0,0-9-49,27-64,0,0-74-52-22-196,0,0,34-62,72-55,0,0-24.19-169.41,69.4-176.7,93.6-7.3,91.6,137.7,91.6,137.7,0,0,67-40,107,16s-31,124-31,124c1.34-.27,32.63-6.07,52,16,16.08,18.33,11.99,42.25,11,48-1.97,11.47-6.7,20.02-10,25-2.82,10.32-10.99,34.77-34,56-24.53,22.63-51.54,28.34-62,30,0,0,37.69,122.95-131.78,136.75-22.11,1.8-44.33-2.12-64.42-11.55Z"/>
    <polygon class="cls-1" points="135.52 749.97 135.52 530.78 59.52 432.97 70.52 420.97 135.52 482.45 135.52 381.39 52.17 227.61 93.85 227.61 149.52 345.97 157.52 140.97 173.52 147.06 173.52 359.42 275.52 209.97 291.52 221.97 218.52 341.85 334.52 313.97 334.52 338.92 218.52 379.93 193.35 409.22 224.59 749.97 135.52 749.97"/>
  </g>
</svg>