<?xml version="1.0" encoding="UTF-8"?>
<svg id="Calque_2" xmlns="http://www.w3.org/2000/svg" viewBox="0 0 650.37 774.88">
  <defs>
    <style>
      .cls-1 {
        fill: #1a191e;
      }

      .cls-2 {
        fill: #39835a;
      }
    </style>
  </defs>
  <g id="Calque_1-2" data-name="Calque_1">
    <path class="cls-2" d="M221.41,513.73s-59.12-8.45-68.33-73.71c0,0-109.03,28.41-142.81-115.17,0,0-47.6-164.31,62.19-189.65s148.95,26.67,148.95,26.67c0,0-56.05-148.75,82.92-161.03,138.97-12.28,140.51,114.4,140.51,114.4,0,0,52.21-69.1,121.31-27.64s18.43,109.03,18.43,109.03c0,0,113.63,63.73,42.23,179.66s-179.66,63.73-179.66,63.73c0,0,3.35,56.82-54.76,73.71-58.11,16.89-170.98,0-170.98,0Z"/>
    <polygon class="cls-1" points="375.74 771.04 252.12 774.88 272.85 413.25 183.02 355.66 80.14 366.41 80.14 340.2 153.28 340.2 49.42 265.06 80.14 233.58 272.09 370.25 193 221.3 245.21 209.78 325.83 368.72 347.33 142.98 401.07 135.31 364.99 370.25 484 232.05 519.32 275.81 451.75 328.02 559.24 321.88 559.24 364.52 420.27 360.27 359.61 446.26 375.74 771.04"/>
  </g>
</svg>