<?xml version="1.0" encoding="UTF-8"?>
<svg id="Calque_2" data-name="Calque 2" xmlns="http://www.w3.org/2000/svg" viewBox="0 0 1281.6 720">
  <defs>
    <style>
      .cls-1 {
        fill: #1a191e;
      }

      .cls-2 {
        fill: #162913;
      }

      .cls-3 {
        fill: #233b21;
      }

      .cls-4 {
        fill: #345327;
      }

      .cls-5 {
        fill: #233c1f;
      }

      .cls-6 {
        fill: #375227;
      }

      .cls-7 {
        fill: #365327;
      }
    </style>
  </defs>
  <g id="Calque_2-2" data-name="Calque 2">
    <path class="cls-1" d="M313.53,615.63c.71-67.64.73-136.28,0-205.88-.38-36.51-.96-72.74-1.73-108.7-7.27-5.13-16.12-12.6-24.26-23.06-16.96-21.8-21.24-44.28-22.53-56h17.33c1.4,5.77,3.56,12.52,6.93,19.76,5.33,11.44,11.87,20.19,17.33,26.35v-51.06c16.17-12.08,32.35-24.16,48.52-36.23-.18,30.11-.12,55.36,0,74.12.31,49.23,1.01,63.28,1.73,74.12,1.78,26.51,4.69,48.15,6.93,62.59,7-18.34,13.93-37,20.79-56,7.23-20.01,14.15-39.77,20.79-59.29-4.1-4.04-8.3-8.94-12.13-14.82-15.07-23.18-14.91-47.33-13.86-59.29,4.62-1.1,9.24-2.2,13.86-3.29-.76,5.39-1.26,14.31,1.73,24.71,3.83,13.31,11.41,22.12,15.6,26.35,2.89-5.02,7.24-14.36,6.93-26.35-.11-4.43-.84-8.32-1.73-11.53,4.62-.55,9.24-1.1,13.86-1.65.47,8.85.79,21.33,0,36.23-2.33,44.04-12.62,76.49-22.53,107.06-8.01,24.7-20,56.45-38.12,92.23,2.94,23.77,4.41,43.14,5.2,56,.95,15.47,1.58,32.37,1.73,98.82.05,21.51.03,39.2,0,51.06-22.53.55-45.05,1.1-67.58,1.65,1.73-12.63,3.47-25.25,5.2-37.88Z"/>
    <path class="cls-1" d="M590.39,538.54c.5-4,1.5-9.95,3.73-16.95,5.72-17.97,15.1-29.05,20.51-36.99,8.08-11.85,10.98-25.36,16.78-52.4,7.17-33.4,13.28-95.66,13.05-175.69-2.59-3.42-6.82-8.49-13.05-13.87-9.46-8.17-14.99-9.69-20.51-15.41-4.3-4.46-9.02-11.91-9.32-24.66,4.35-2.06,8.7-4.11,13.05-6.16.43,4.57,2.05,13.67,9.32,23.12,6.33,8.22,14.1,13.01,18.65,15.41v-46.23c8.08-2.57,16.16-5.14,24.24-7.71,1.07,7.42,2.47,18.04,3.73,30.82,3.11,31.48,8.39,88.55-1.86,155.65-2.48,16.23-12.86,78.75-20.51,107.88-.65,2.46-2.82,10.55-3.73,21.58-1.21,14.55.42,26.44,1.86,33.9-18.65,2.57-37.3,5.14-55.94,7.71Z"/>
    <path class="cls-3" d="M1129.62,666H28.38c-7.73-4.57-15.48-9.13-23.21-13.7-.77-.45-1.55-.91-2.32-1.36-.75-.45-1.5-.89-2.24-1.33v-101.68c72.15-9.9,101.18-20.95,110.26-31.15,2.64-2.96,16.28-20.06,37.89-22.55,9.9-1.15,19.36.99,22.3,1.73,19.37,4.84,24.79,15.85,33.44,13.88,8.17-1.86,7-12.53,15.61-13.88,6.73-1.05,9.6,5.15,20.06,5.21,6.84.03,7.08-2.62,15.61-3.47,10.9-1.1,14.5,2.83,22.28,1.73,9.01-1.27,13.5-7.82,17.84-12.14,14.84-14.81,42-17.82,53.5-19.09,47.09-5.21,87.32,34.56,89.17,36.44,4.2-3.05,11.6-7.62,22.3-10.41,4.95-1.3,27.17-6.53,49.04,3.47,19.97,9.12,25.66,24.55,26.75,27.76,6.35-.97,13.84-1.7,22.28-1.74,16.71-.07,30.51,2.62,40.14,5.21,2.47-4.89,7.58-13.14,17.83-20.82,3.35-2.52,17.59-12.73,40.12-15.62,31.76-4.08,55.71,9.5,60.19,12.15,4.03-3.3,9.95-7.71,17.84-12.15,2.8-1.58,22.83-12.69,42.36-15.62,22.27-3.34,36.02,5.16,69.1,15.62,17.15,5.42,42.61,12.36,75.79,17.35,3.93-2.66,11.46-6.97,22.29-8.67,22.24-3.51,39.6,6.95,42.36,8.67,4.22-3.45,10.82-8.13,20.06-12.14,26.95-11.72,54.15-8.13,62.42-6.94,32.44,4.65,51.92,20.63,57.95,26.02.23,15.66.47,31.31.7,46.97v.23c.37,25.13.75,50.25,1.13,75.38.13,8.88.27,17.76.4,26.64Z"/>
    <path class="cls-2" d="M1133.6,716H32.36c-10.15-5.99-20.29-11.97-30.44-17.96-.27-.16-.53-.31-.8-.47-.17-.1-.35-.21-.52-.31v-98.79c1.41-.19,2.81-.38,4.2-.57,72-9.89,100.97-20.93,110.04-31.12.74-.83,2.35-2.77,4.74-5.19,6.16-6.2,17.61-15.57,33.16-17.36,9.89-1.15,19.35.99,22.3,1.73,19.37,4.84,24.78,15.85,33.44,13.88,8.17-1.86,7-12.53,15.6-13.88,6.74-1.05,9.61,5.15,20.06,5.21,6.85.03,7.09-2.62,15.61-3.47,10.9-1.1,14.5,2.83,22.29,1.73,8.99-1.27,13.5-7.82,17.83-12.14,14.84-14.81,42-17.82,53.5-19.09,47.09-5.21,87.32,34.56,89.17,36.44,4.2-3.05,11.61-7.62,22.3-10.41,4.96-1.3,27.17-6.53,49.04,3.47,19.97,9.12,25.66,24.55,26.75,27.76,6.35-.97,13.86-1.7,22.3-1.74,16.71-.07,30.5,2.62,40.12,5.21,2.47-4.89,7.6-13.14,17.83-20.82,3.35-2.52,17.59-12.73,40.12-15.62,31.77-4.08,55.71,9.5,60.2,12.15,4.02-3.3,9.95-7.71,17.83-12.15,2.81-1.58,22.83-12.69,42.36-15.62,22.28-3.34,36.02,5.16,69.11,15.62,10.38,3.29,23.83,7.13,40.21,10.76,8.92,1.97,18.73,3.89,29.37,5.62,2.04.33,4.11.65,6.22.97,3.92-2.66,11.46-6.97,22.28-8.67,22.25-3.51,39.6,6.95,42.36,8.67,4.23-3.45,10.82-8.13,20.06-12.14,26.96-11.72,54.15-8.13,62.42-6.94,27.71,3.97,45.97,16.21,54.47,23.06.06.05.14.1.2.16,1.36,1.1,2.46,2.05,3.29,2.8.35,23.99.72,47.99,1.07,71.98.38,25.75.77,51.49,1.15,77.24Z"/>
    <path class="cls-1" d="M840.25,627c1.08-15.79,2.95-39.83,6.15-69.05,5.38-49.09,10.28-74.31,18.46-128.23,6.9-45.51,13.49-88.87,18.46-138.1,3.32-32.83,6.98-78.64,8.21-134.15,14.36-3.29,28.72-6.58,43.08-9.86-2.74,49.32-5.47,98.64-8.21,147.96,5.41-5.98,10.93-12.55,16.41-19.73,11.09-14.52,19.8-28.6,26.67-41.43,2.74,1.97,5.47,3.95,8.21,5.92-5.26,14.02-12.76,30.63-23.59,48.33-10.27,16.78-21.06,30.54-30.77,41.43.55,41.77.37,77.26,0,104.56-.36,26.43-.69,49.87-2.05,80.88-1.65,37.54-4.06,69.18-6.15,92.72-24.96,6.25-49.92,12.49-74.88,18.74Z"/>
    <path class="cls-5" d="M971.22,108.68c-4.97,16.38-11.25,26.43-20.86,40.6-.98,1.44-1.99,2.93-3.04,4.47-5.71,8.37-10.32,13.96-14.02,17.68-8.17,8.23-11.89,7.31-13.08,6.9-3.02-1.03-5.09-3.88-6.37-6.15-.97,1.59-2.53,3.89-4.78,6.15-.6.6-8.89,8.66-18.42,8.21-2.31-.11-4.7-.72-7.08-2.07-1.83-1.03-4.99-3.27-7.97-8.19-2.3,5.04-9.52,19.34-23.91,26.63-2.49,1.26-21,10.21-38.25-2.05-2.36-1.68-14.28-10.15-19.12-26.63-2.15-7.31-1.61-11.77-4.78-14.34-5.82-4.7-11.9,6.86-22.32,4.1-6.09-1.61-15.02-8.48-17.53-18.44-.8-3.18-1-6.89-3.19-8.19-2.17-1.29-3.93,1.21-7.96,2.05-5.52,1.15-6.35-2.66-11.16-2.05-6.39.81-6.55,7.76-14.34,10.24-5.18,1.65-7.47-.66-9.57,2.05-2.63,3.41.31,7.95-1.59,14.34-2.29,7.69-10.18,13.36-17.53,12.29-3.76-.55-6.52-2.73-7.97-4.1-.18,2.58-1.16,12.97-7.97,20.49-7.36,8.11-17.83,8.8-25.5,4.1-.1-.06-.21-.13-.31-.2-3.74-2.38-6.21-5.68-7.66-8-1.35,1.89-8.11,11-19.07,14.76-2.92,1-6.13,1.63-9.62,1.63-.84,0-2.48-.04-4.59-.33-5.56-.78-14.45-3.38-20.91-11.96-4.65-6.18-3.78-9.8-7.97-12.29-7.18-4.28-13.01,4.45-22.31,0-4.8-2.3-4.03-5-7.97-6.15-8.14-2.36-11.63,9.12-22.31,10.24-5.62.6-13.25-1.67-17.53-8.19-4.03-6.13-2.74-12.43-6.38-14.34-4.13-2.17-7.64,5-12.75,4.1-1.26-.23-2.61-.94-4.01-2.48-2.33-2.55-4.78-7.37-7.14-15.96-.4-49.19-.8-98.4-1.21-147.6h506.43v59.52c.34,11.39-.33,29.27-6.38,49.16Z"/>
    <g>
      <path class="cls-6" d="M1280.6,599.93v120.07H0v-139.32c.19-.15.4-.29.6-.44,8.37-6.07,21.51-13.75,39.26-17.83,1.46-.34,2.95-.66,4.47-.94,3.91-.73,32.45-5.71,60.21,4.12.48.17.96.34,1.44.52,2.36.89,4.72,1.88,7.05,3,1.94.92,3.87,1.93,5.77,3.04,14.68,8.53,15.24,15.23,29.79,19.23,5.89,1.62,10.02,1.68,15.58,1.31,1.88-.13,3.92-.3,6.25-.49,5.04-.39,11.41-.81,20.37-.82,22.87-.02,34.3-.03,42.2,4.28,19.57,10.64,15.13,33.24,29.79,36.32,8.6,1.81,11.53-5.67,27.31-10.68,7.7-2.45,16.27-3.62,24.86-3.58,18.55.09,37.16,5.81,47.13,16.4,6.84,7.26,8.09,15.21,12.42,14.96,1.51-.09,2.56-1.14,3.48-2.83v-.14c2.22-4.04,3.66-11.73,8.93-18.4,13.15-17,42.78-18.98,50.52-19.2.76-.03,1.32-.03,1.62-.03,37.53-.17,55.31,25.19,71.99,17.09,9.54-4.63,4.34-13.23,17.37-25.64,9.79-9.34,26.88-17.94,44.68-17.1,21.82,1.04,24.62,15.33,44.68,14.96,19.88-.37,27.08-14.59,39.72-10.68,12.64,3.91,9.17,19.28,22.34,23.5,12.23,3.92,19.13-8.08,39.72-6.41,12.89,1.05,16.11,6.23,24.83,4.28,10.7-2.4,14.85-12.24,19.86-19.24,5.49-7.68,13.56-14.12,22.62-19.16,14.06-7.82,30.51-12.28,43.48-12.83,1.17-.06,2.3-.07,3.41-.06,6.07.08,11.74,1.14,17.06,2.87,2.46.8,4.86,1.75,7.17,2.81,26.72,12.16,44.49,39.35,63.03,35.49.69-.14,1.4-.33,2.1-.57,10.84-3.65,11.11-14.71,24.83-17.09,12.26-2.13,17.89,5.7,32.28,8.54,14.08,2.79,22.58-1.95,62.06-17.09,4-1.53,7.76-2.97,11.3-4.33.06-.02.13-.04.19-.07,24.64-9.4,38.59-14.45,50.57-16.97,1.99-.42,3.98-.84,5.95-1.24h.01c2.61-.54,5.21-1.05,7.79-1.53,5.33-.97,10.62-1.76,15.92-2.17,9.82-.76,19.68-.24,29.9,2.81,9.38,2.79,15.2,6.53,20.8,11.03,2.4,1.92,4.76,3.97,7.33,6.14,3.89,3.28,8.29,6.83,14.07,10.6,6.65,4.32,15.02,8.86,25.59,12.83,4.34,1.65,9.07,3.19,14.19,4.58,1.95.54,3.97,1.05,6.04,1.54,2.05.49,4.17.95,6.34,1.38,4.5.89,9.26,1.67,14.3,2.3,2.59.34,5.27.63,8.01.88Z"/>
      <path class="cls-5" d="M1280.6,660.33v59.67H0v-69.69c.19-.07.4-.15.6-.22.16-.07.32-.13.49-.19,9.09-3.4,23.58-7.68,43.25-9.6,4.6-.45,43.1-3.94,74.47,5.57,1.4.42,2.65.83,3.82,1.23,11.09,3.86,12.8,6.9,25.97,8.78,1.27.18,2.44.33,3.58.44,9.81.97,15.9-.43,38.62-.44,11.85,0,20.64,0,27.45.31,6.32.28,10.95.84,14.75,1.92,6.43,1.82,10.26,4.31,13.02,6.89.36.33.7.67,1.03,1,1.33,1.36,2.41,2.72,3.48,4,2.85,3.42,5.55,6.29,12.27,7.03,6.97.76,10.22-1.66,19.6-3.98,2.19-.55,4.73-1.1,7.71-1.59.56-.09,1.14-.18,1.71-.26,3.55-.54,7.28-.94,11.1-1.2,7.7-.54,15.76-.52,23.5,0,14.43.99,27.77,3.76,35.67,8.14,6.84,3.79,8.09,7.93,12.42,7.79,3.91-.12,4.74-3.56,8.14-7.41,1.1-1.23,2.45-2.5,4.26-3.72,2.92-1.96,6.64-3.54,10.75-4.8,6.52-2.01,14-3.25,20.81-4,10.26-1.15,18.99-1.21,20.57-1.21,7.23-.02,13.72.46,19.63,1.21,7.97,1.01,14.86,2.53,20.96,4,12.83,3.09,22.28,6,31.4,3.69,3.67-.93,5.16-2.16,6.34-3.69.89-1.15,1.62-2.49,2.99-4,1.51-1.68,3.81-3.57,8.04-5.67,9.79-4.86,26.88-9.34,44.68-8.9,21.82.54,24.62,7.98,44.68,7.79,19.88-.19,27.08-7.6,39.72-5.56,12.64,2.03,9.17,10.04,22.34,12.24.23.04.45.07.67.1,3.15.46,5.96.37,8.77,0,7.73-1,15.46-4.07,30.28-3.44,12.89.55,16.11,3.25,24.83,2.23,10.7-1.25,14.85-6.37,19.86-10.02,14.79-10.77,48.19-16.84,69.51-16.7,42.46.3,64.93,25.44,89.37,21.15,6.16-1.08,8.91-3.41,12.65-5.44,2.85-1.55,6.25-2.92,12.18-3.46,12.26-1.11,17.89,2.97,32.28,4.45,11.97,1.23,19.91-.37,46.26-5.71,4.66-.95,9.87-2.01,15.8-3.19,4.48-.9,8.66-1.73,12.56-2.51,1.04-.2,2.04-.4,3.04-.6,22.12-4.38,35.16-6.79,46.46-8.02.26-.03.51-.06.77-.08,2.69-.3,5.36-.59,8.01-.87,2.55-.26,5.1-.51,7.63-.74,4.23-.37,8.44-.68,12.65-.86.36-.02.72-.03,1.1-.05.26-.01.53-.02.8-.02,1.09-.04,2.17-.07,3.26-.08.87-.03,1.76-.04,2.63-.03,3.3-.02,6.62.06,9.96.26,4.2.25,8.45.68,12.75,1.35,9.62,1.49,15.49,3.5,21.24,5.93,5.86,2.47,11.57,5.36,20.96,8.54,14.69,4.98,37.87,10.5,74.48,12.24Z"/>
    </g>
    <path class="cls-1" d="M1253.73,208.3c-3.07,1.64-6.44,3.55-10.01,5.77-16.27,10.09-36.65,26.52-51.47,52.15-1.64,2.84-9.41,14.26-13.65,31.92-1.01,4.19-2.05,9.08-3.01,14.65-2.93,16.95-5.07,40.19-2.84,69.14,2.6,53.41,4.43,108.51,5.32,165.2.07,4.17.13,8.36.18,12.55.04,2.21.06,4.41.09,6.63.11,9.64.2,19.33.26,29.07.09,14.83.12,29.55.08,44.17-.03,11.77-.1,23.47-.21,35.1-.14,14.95-.35,29.78-.63,44.5,0,.28-.01.57-.02.85h-76.51c.02-.28.05-.56.07-.85.09-1.04.18-2.09.27-3.15,1.11-13.27,2.09-27.63,3.47-50,.52-8.53,1.1-18.23,1.77-29.48.05-.9.1-1.81.16-2.73.68-11.45,1.44-24.46,2.32-39.41.39-6.68,1.24-21.07,2.34-41.2.09-1.68.19-3.41.28-5.17.48-8.59.99-18.12,1.52-28.44.21-4.1.43-8.32.65-12.66h0c.96-18.77,1.99-39.71,3.01-62.15.12-2.59,1.9-43.68,0-97.74-.47-13.44-1.04-23.69-1.87-32.38-.92-9.66-2.16-17.4-3.98-25.48-5.03-22.37-18.04-60.26-57.73-101.14-.12-.13-.25-.27-.38-.4,6.6-5.99,13.19-11.99,19.78-17.98.56.48,1.12.98,1.69,1.48,12.71,11.25,28.07,27.06,42.49,48.22,13.01,19.1,21.59,37.2,27.3,51.87,1.6-5.09,3.53-10.43,5.85-15.96,4.99-11.89,10.79-22.13,16.56-30.79,1.68-2.52,3.36-4.91,5.02-7.17.73-1.47,12.46-24.21,38.67-26.97,25.93-2.73,42.06,16.62,43.16,17.98Z"/>
    <path class="cls-1" d="M118.41,649.2c-.12-44,1.02-91.36,4.03-141.61,3.82-63.8,10.06-122.57,17.47-175.66-1.3-4.21-3.68-10.45-8.06-16.13-3.82-4.94-8.62-8.77-28.23-16.13-17.76-6.67-25.25-7.81-28.23-16.13-2.17-6.07-1.34-12.55-1.34-12.55.71-5.53,2.96-9.21,4.03-10.76,2.22.56,4.46,1.15,6.72,1.79,7.53,2.13,14.71,4.55,21.51,7.17-13.13-31.87-26.27-63.74-39.4-95.61,3.77-4.16,7.55-8.33,11.32-12.49,21.91,42.01,43.82,84.02,65.72,126.03,1.83-31.88,5.23-65.47,10.75-100.38.86-5.44,1.76-10.82,2.69-16.13,10.75-5.38,21.51-10.76,32.26-16.13-.9,21.51-1.79,43.02-2.69,64.53,10.93-16.37,21.87-32.73,32.8-49.1,11.43-5.63,22.86-11.27,34.29-16.9-14.97,22.89-26.08,44.15-34.17,61.52-13.36,28.69-21.1,52.04-25.54,66.32-5.58,17.94-11.57,39.37-14.79,53.77-15.5,69.48-6.75,156.78-4.03,181.04,4.78-8.4,7.64-15.92,9.41-21.51,2.12-6.7,3.03-11.74,6.72-14.34,2.83-2,6.52-2.01,9.41,0,4.31,3,6.64,10.34,5.38,17.92-3.09,14.71-8.23,39.1-14.79,69.91-5.27,24.77-6.73,31.5-8.06,41.23-2.48,18.09-4.28,44.71,0,78.87v30.47c-20.61.6-41.22,1.19-61.83,1.79-1.12-23.6-2.24-47.2-3.36-70.8Z"/>
    <path class="cls-4" d="M1281.6,0v192.76c-2.5.77-5.01,1.54-7.51,2.3-3.37,4.83-9.48,12.06-18.79,16.13-4.05,1.77-7.96,2.61-11.58,2.88-7.96.59-14.58-1.6-18.47-2.88-7.51-2.48-13.22-6.31-16.91-9.22-1.15,1.39-18.43,21.77-41.46,22.49-4.17.14-8.52-.37-13.01-1.76-21.47-6.63-33.04-29.33-35.69-34.55-4.06-7.96-6.27-15.4-7.52-20.72-2.42,1.64-7.8,4.76-15.02,4.6-8.64-.19-14.7-4.97-16.91-6.91-.53.91-1.89,3.17-4.05,6-4.16,5.46-11.29,13.01-21.09,16.9-3.23,1.28-6.75,2.16-10.55,2.44-3.76.27-20.85,1.52-31.93-13.82-4.81-6.65-6.7-13.94-7.52-18.43-2.46.99-9.18,3.22-16.9,0-4.48-1.86-7.59-4.85-9.39-6.9-3.91,1.39-12.56,3.74-22.55,0-1.58-.59-3.05-1.28-4.39-2.03-2.82-1.55-5.12-3.32-6.88-4.88-3.09,1.25-22.42,8.67-39.44-4.61-11.45-8.93-19.56-25.44-20.67-41.46-.89-12.88,2.97-22.16-1.87-27.63-4.03-4.54-8.73-.46-15.03-4.61-7.4-4.87-9.54-16.17-11.27-25.33-3.04-16.03-1.23-30.51,1.14-40.76h425.26Z"/>
    <path class="cls-7" d="M538.8,87.97c-12.17,25.88-29.57,40.45-29.57,40.45-8.88,7.44-17.33,11.76-23.23,14.28-.12,2.11-.82,11.63-6.48,20.86-1.62,2.65-3.65,5.27-6.19,7.69-9.54,9.07-20.23,9.51-23.23,9.52-1.16,3.1-6.88,17.48-21.12,23.79-8.03,3.56-15.26,2.99-19.01,2.38-1.7,2.72-6.56,10.22-14.62,17.94-3.78,3.63-8.27,7.3-13.47,10.54-6.96,4.35-15.19,7.92-24.7,9.59-.71.12-1.42.24-2.12.33-22.38,3.18-39.66-6.08-46.45-9.85-.68-.38-1.35-.76-2.01-1.15-21.17-12.52-32-31.41-36.01-39.3-6.53.61-24.83,1.31-42.23-11.89-2.95-2.24-5.54-4.63-7.79-7.01-4.04-4.27-7.01-8.55-9.11-12.03-2.2,1.84-6.27,4.79-11.96,6.45-.9.27-1.84.5-2.82.69-8.92,1.72-16.02-1-19.01-2.38-.46.6-1.19,1.52-2.16,2.63-4.92,5.66-16.17,16.37-31.63,16.4-1.5.01-2.94-.09-4.31-.27-3.14-.38-5.95-1.18-8.36-2.1-8.96,20.1-20.44,28.49-26.86,31.97h-.01c-1.05.57-1.95,1-2.69,1.34-5.99,2.7-12.56,4.01-19.32,4.12h-.01c-26.2.49-55.3-16.84-65.15-39.81-2.82-6.59-5.96-18.07-12.67-19.04-1.41-.2-2.67.1-3.9.71V0h550.73c1.8,24.65.96,59.27-12.53,87.97Z"/>
  </g>
</svg>