<?xml version="1.0" encoding="UTF-8"?>
<svg id="Calque_2" data-name="Calque 2" xmlns="http://www.w3.org/2000/svg" viewBox="0 0 300.35 217">
  <defs>
    <style>
      .cls-1 {
        fill: #c17cd8;
      }

      .cls-2 {
        fill: #b2a8ef;
      }

      .cls-3 {
        fill: #a0972d;
      }

      .cls-4 {
        fill: #9593ce;
      }

      .cls-5 {
        fill: #385424;
      }

      .cls-6 {
        fill: #4a6d11;
      }
    </style>
  </defs>
  <g id="Calque_2-2" data-name="Calque 2">
    <g>
      <g>
        <path class="cls-6" d="M.39,216.15c-.23-1.09-1.97-10.22,4.41-17.65,4.81-5.6,12.43-8.12,19.85-6.62.83-8.06,2.94-19.94,8.82-33.08,5.28-11.81,10.95-24.47,24.26-33.08,21.88-14.16,47.71-6.58,52.94-2.21,5.21,4.36,8.24,9.91,8.24,9.91.26.48.46.88.58,1.12,8.82-1.47,17.65-2.94,26.47-4.41-.07-6.59.68-18.22,6.62-30.88,3.02-6.44,11.79-25.16,33.08-33.08,21.09-7.85,39.95.29,44.11,2.21.94-8.02,3.74-21.73,13.23-35.29C262.53,5.2,294.42.72,300.35,0v216.15H.39Z"/>
        <path class="cls-5" d="M300.35,178.53v38.47h-150.04c.11-.26.23-.55.37-.85.88-1.95,2.5-4.66,5.4-6.84,8.09-6.09,18.41-2.25,19.24-1.93-.79-2.41-2.72-9.33,0-17.31,3.29-9.66,11.08-14.08,13.46-15.39,2.86-1.56,5.71-2.5,8.42-3.03,7.88-1.52,14.56.47,16.59,1.11,11.96,3.76,17.81,12.98,19.24,15.39,1.74.94,4.44,2.06,7.69,1.92,2.03-.09,5.83-.73,13.46-7.69,8.06-7.35,7.91-10.35,11.55-11.54,3.48-1.15,9.28-.26,19.23,9.61.54-.54,3.26-3.19,7.37-3.75.71-.1,1.46-.14,2.25-.09,2,.12,3.62.74,4.75,1.34.4.2.74.4,1.02.58Z"/>
      </g>
      <path class="cls-2" d="M285.74,90.01c-.69-4.15-4.27-6.8-8.04-6.8-1.33,0-2.68.32-3.94,1.03.45-1.04.66-2.12.66-3.19,0-3.78-2.67-7.37-6.83-8.04-4.79-.78-8.93,2.72-9.4,7.16-2.76-3.6-8.01-4.2-11.52-1.37-.44.35-.85.76-1.23,1.22-1.25,1.54-1.82,3.34-1.82,5.1,0,.38.03.76.09,1.13.31,2.33,1.65,4.51,3.75,5.81-4.73.87-7.88,5.85-6.17,10.7,1.22,3.47,4.42,5.43,7.69,5.43,1.48,0,2.96-.4,4.29-1.23-.37.94-.54,1.93-.54,2.9,0,3.54,2.32,6.96,6.16,7.92,5.07,1.26,9.8-2.46,10.1-7.37,1.55,1.63,3.71,2.51,5.9,2.51,2.01,0,4.05-.75,5.67-2.33.87-.86,1.5-1.84,1.9-2.88,1.16-3,.42-6.48-1.89-8.74,1.53-.57,2.85-1.6,3.79-2.92,1.18-1.66,1.75-3.78,1.38-6.04Z"/>
      <path class="cls-1" d="M167.02,122.76c-.52-3.11-3.2-5.1-6.02-5.1-1,0-2.01.24-2.95.77.34-.77.49-1.59.49-2.38,0-2.84-2-5.53-5.12-6.04-.92-.15-1.8-.09-2.62.14-1.03.29-1.94.84-2.67,1.58-.19.19-.37.39-.54.61-.66.87-1.09,1.91-1.21,3.04-2.33-3.03-7.02-3.23-9.56-.11-.93,1.15-1.36,2.5-1.36,3.82,0,2.07,1.05,4.07,2.88,5.2-2.8.52-4.87,2.96-4.97,5.76-.03.69.06,1.41.3,2.13.01.04.02.09.04.13.92,2.6,3.32,4.07,5.77,4.07,1.1,0,2.22-.3,3.21-.92-.27.71-.41,1.44-.41,2.17,0,2.66,1.74,5.21,4.63,5.93.39.1.77.16,1.15.18,1.16.06,2.27-.21,3.23-.73,1.79-.97,3.05-2.82,3.18-4.97,1.17,1.22,2.78,1.88,4.42,1.88,1.51,0,3.04-.55,4.25-1.74,2.54-2.49,2.34-6.43.01-8.71.16-.06.31-.13.46-.2,2.33-1.11,3.89-3.66,3.41-6.51Z"/>
      <ellipse class="cls-3" cx="150.32" cy="126.72" rx="4.24" ry="3.81"/>
      <g>
        <path class="cls-4" d="M101.03,165.78c-.18-1.05-.58-1.99-1.15-2.78-1.26-1.8-3.35-2.86-5.52-2.86-1.1,0-2.22.27-3.27.86.38-.86.55-1.76.55-2.65,0-3.14-2.22-6.12-5.67-6.68-3.97-.64-7.41,2.26-7.8,5.95-2.58-3.36-7.77-3.58-10.58-.12-1.03,1.27-1.51,2.76-1.51,4.23,0,.43.04.85.12,1.27.35,1.81,1.42,3.46,3.07,4.48-3.93.72-6.54,4.86-5.12,8.88,1.01,2.88,3.67,4.51,6.38,4.51,1.22,0,2.46-.33,3.56-1.03-.31.79-.45,1.6-.45,2.41,0,2.94,1.92,5.77,5.11,6.57,4.21,1.05,8.13-2.04,8.38-6.11,1.29,1.35,3.08,2.08,4.9,2.08,1.67,0,3.36-.62,4.7-1.93,2.82-2.76,2.59-7.12.01-9.64,2.86-1.08,4.85-4.07,4.29-7.44Z"/>
        <ellipse class="cls-3" cx="81.38" cy="170.38" rx="5.65" ry="5.09"/>
      </g>
      <ellipse class="cls-3" cx="262.96" cy="95.79" rx="7.53" ry="6.78"/>
    </g>
  </g>
</svg>