<?xml version="1.0" encoding="UTF-8"?>
<svg id="Calque_2" data-name="Calque 2" xmlns="http://www.w3.org/2000/svg" viewBox="0 0 460 214.54">
  <defs>
    <style>
      .cls-1 {
        fill: #c17cd8;
      }

      .cls-2 {
        fill: #b2a8ef;
      }

      .cls-3 {
        fill: #a0972d;
      }

      .cls-4 {
        fill: #eacec1;
      }

      .cls-5 {
        fill: #9593ce;
      }

      .cls-6 {
        fill: #385424;
      }

      .cls-7 {
        fill: #dd865b;
      }

      .cls-8 {
        fill: #4a6d11;
      }
    </style>
  </defs>
  <g id="Calque_2-2" data-name="Calque 2">
    <g>
      <g>
        <path class="cls-8" d="M459.76,209.21c-.19,1.64-.52,3.42-1.04,5.33H0V0c6.38,7.17,15.4,14.82,25.04,13.22,5.56-.93,6.64-4.16,13.47-6.61,3.74-1.35,8.57-2.23,13.53-2.07,6.2.17,12.58,1.96,17.3,6.48,8.41,8.06,6.98,20.51,10.66,28.02,1.05,2.15,2.52,3.88,4.74,5.01,6.21,3.16,11.09-2.16,15.4,2.2,3.41,3.46,2.45,8.89,3.09,13.66.29,2.31.96,4.46,2.69,6.17,4.14,4.13,8.69,0,13.47,4.41,4.04,3.72,2.68,8.38,4.85,13.57.25.61.56,1.23.93,1.85,5.34,9.04,14.67,3.61,25.04,11.01,8.01,5.72,8.34,13.15,11.5,20.48,1.52,3.54,3.72,7.06,7.76,10.37,8.13,6.62,21.07,10.15,28.89,4.4,1.05-.77,1.85-1.6,2.52-2.48,3.02-3.98,2.97-8.82,9.03-12.94,5.93-4.01,9.58-1.83,15.4-6.61,4.34-3.56,5.41-7.32,7.7-11.01,7.45-11.98,23.09-15.63,32.74-15.42,13.22.28,25.55,8.05,33.55,17.88,1.09,1.35,2.12,2.73,3.04,4.14,2.33,3.54,4.01,7.1,5.48,10.43,2.13,4.84,3.81,9.17,6.41,12.22,1.45,1.71,3.18,3,5.45,3.77,1.89.65,1.88.13,11.55,0,1.23-.01,2.39-.03,3.49-.04,10.21-.12,15.55.08,17.7,2.25,2.17,2.21,2.73,5.2,2.93,8.21.29,4.6-.24,9.3,2.84,11.61,4.08,3.05,7.65-3.18,15.24-2.21.05,0,.11,0,.16.01,5.16.72,8.42,4.26,11.47,7.98,3.74,4.52,7.22,9.31,13.57,9.65,4.58.24,6.57-2.07,9.63,0,4.7,3.16,3.4,10.86,7.7,13.21,2.96,1.63,5.73-.84,9.62-2.2,11.15-3.88,27.66,2.73,32.74,15.42.68,1.71,2.25,6.24,1.41,13.17Z"/>
        <path class="cls-6" d="M178.56,214.54H0v-47.71c2.52-1.29,6.41-2.79,10.89-2.17,4.6.61,6.42,2.99,8.71,2.17,3.57-1.27,3.01-8.42,4.36-15.25.93-4.76,2.81-9.38,5.32-13.58,3.68-6.14,8.74-11.35,14.27-14.72,2.31-1.4,14.34-8.37,28.32-4.36,10.94,3.14,19.68,12.06,23.88,23.65,1.04,2.85,1.8,5.88,2.25,9.01,1.48-.87,6.89-3.81,13.06-2.17,7.52,2,13.13,9.97,13.07,19.6,2.25-1.07,6.12-2.48,10.89-2.18,11.91.73,18.58,11.43,19.59,13.07,4.41,7.06,4.52,14.21,4.36,17.42,2.09.16,5.22.64,8.71,2.17,2.85,1.27,6.36,2.8,8.7,6.54.67,1.05,1.15,2.13,1.47,3.17.67,2.08.76,4,.72,5.33Z"/>
      </g>
      <g>
        <path class="cls-1" d="M127.18,69.51c-.55-3.21-3.32-5.28-6.25-5.28-1.03,0-2.08.25-3.05.8.35-.8.51-1.64.51-2.48,0-2.93-2.07-5.72-5.3-6.24-3.72-.61-6.93,2.11-7.29,5.56-.69-.89-1.57-1.56-2.56-1.96-2.44-1.03-5.46-.47-7.34,1.84-.97,1.2-1.43,2.59-1.43,3.96,0,2.15,1.09,4.22,2.98,5.4-3.66.67-6.12,4.54-4.78,8.3.95,2.69,3.42,4.22,5.97,4.22,1.15,0,2.31-.32,3.33-.96-.28.73-.43,1.49-.43,2.25,0,2.75,1.8,5.4,4.8,6.14,3.93.99,7.6-1.91,7.84-5.72,1.2,1.27,2.88,1.95,4.58,1.95,1.56,0,3.14-.57,4.4-1.81.45-.44.81-.92,1.09-1.43,1.41-2.48.92-5.62-1.09-7.6,2.68-1.01,4.54-3.8,4.02-6.96Z"/>
        <ellipse class="cls-3" cx="108.78" cy="73.81" rx="5.29" ry="4.76"/>
      </g>
      <g>
        <path class="cls-2" d="M337.78,115.93c-.76-4.58-4.72-7.52-8.9-7.52-1.47,0-2.96.36-4.34,1.13.49-1.15.73-2.34.73-3.52,0-1.29-.28-2.56-.8-3.72-1.17-2.61-3.58-4.66-6.77-5.18-.64-.11-1.27-.13-1.87-.11-4.46.19-8.08,3.7-8.53,8.02-1.95-2.53-5.01-3.73-7.98-3.45-2.28.21-4.5,1.28-6.13,3.29-1.37,1.71-2.01,3.69-2.01,5.64,0,3.05,1.55,6.01,4.25,7.68-5.06.95-8.49,6.12-6.98,11.31.04.17.09.36.16.53,1.35,3.84,4.89,6.01,8.51,6.01,1.63,0,3.26-.44,4.74-1.37-.41,1.05-.61,2.13-.61,3.21,0,1.65.45,3.29,1.31,4.69,1.16,1.93,3.06,3.46,5.52,4.08,4.08,1.01,7.96-.88,9.89-4.08.73-1.2,1.19-2.59,1.28-4.08,1.6,1.67,3.77,2.63,6.01,2.75.17.03.36.03.53.03,2.23,0,4.48-.83,6.26-2.57,1.89-1.85,2.76-4.24,2.69-6.58-.04-2.32-.96-4.6-2.68-6.28,3.81-1.44,6.46-5.42,5.72-9.91Z"/>
        <ellipse class="cls-3" cx="311.57" cy="122.07" rx="7.53" ry="6.78"/>
      </g>
      <g>
        <path class="cls-5" d="M51.22,47.19c-.15-.87-.45-1.63-.88-2.31-1.16-1.87-3.22-2.97-5.37-2.97-1.03,0-2.08.25-3.05.8.35-.8.51-1.64.51-2.46,0-2.94-2.07-5.73-5.3-6.25-3.72-.6-6.93,2.11-7.29,5.56-2.41-3.15-7.28-3.35-9.9-.11-.97,1.19-1.43,2.59-1.43,3.96,0,2.13,1.09,4.21,2.98,5.38-.97.17-1.87.59-2.63,1.16-2.08,1.57-3.13,4.38-2.16,7.14.95,2.71,3.44,4.22,5.97,4.22,1.15,0,2.31-.31,3.33-.96-.28.73-.43,1.49-.43,2.25,0,2.75,1.8,5.4,4.8,6.14,3.93.99,7.6-1.91,7.84-5.72,1.2,1.27,2.88,1.95,4.58,1.95,1.56,0,3.14-.57,4.4-1.8,2.64-2.59,2.43-6.66,0-9.04,2.68-1,4.54-3.8,4.02-6.96Z"/>
        <ellipse class="cls-3" cx="32.83" cy="51.49" rx="5.29" ry="4.76"/>
      </g>
    </g>
    <g>
      <path class="cls-7" d="M253.88,75.88c5.93.38,10.87-.11,14.46-.7,2.57-.42,10.69-1.9,19.91-6.95,5.71-3.13,9.09-5.05,10.17-8.97.9-3.26-.06-6.92-1.97-9.41-4.63-6.03-14.61-4.89-19.65-4.31-14.41,1.65-23.7,10.52-26.25,13.02-6.18,6.07-8.79,12.05-10.04,15-2.71,6.39-2.36,9.56-2.2,10.62.23,1.53,1.48,8.25,7.28,10.51.49.19,5.73,2.14,9.94-1.17,3.96-3.11,3.62-8.2,3.52-9.2-.5-5.27-4.61-8.09-5.17-8.46Z"/>
      <path class="cls-7" d="M223.07,63.38c-2.62-5.33-4.06-10.09-4.89-13.62-.6-2.54-2.33-10.61-1.2-21.06.7-6.48,1.18-10.33,4.39-12.83,2.67-2.07,6.42-2.59,9.45-1.78,7.34,1.97,10.11,11.63,11.5,16.51,3.99,13.95-.65,25.92-1.99,29.24-3.24,8.03-7.77,12.73-10.02,15.02-4.86,4.95-7.92,5.84-8.97,6.1-1.5.38-8.18,1.79-12.5-2.71-.36-.38-4.17-4.47-2.72-9.63,1.36-4.85,6.19-6.48,7.15-6.78,5.06-1.56,9.23,1.16,9.8,1.54Z"/>
      <ellipse class="cls-4" cx="241.83" cy="64.5" rx="16.46" ry="1.98" transform="translate(64.74 241.37) rotate(-59.9)"/>
      <path class="cls-4" d="M267.7,38.56c-.05.17-.25.95.18,1.71.38.68,1.18,1.23,2.03,1.1,1.08-.16,1.74-1.36,1.66-2.32-.1-1.34-1.61-2.07-2.62-2.23-1.28-.2-2.29.44-2.56.63-2.62,1.42-4.84,2.75-6.64,3.87-2.63,1.64-3.9,2.55-5.06,4.12-.86,1.15-1.36,2.26-1.65,3.04.13.18.32.39.58.42.64.07,1.21-.99,1.75-1.83.75-1.17,1.8-2.11,2.65-3.2,1-1.3,3.41-3.12,9.68-5.29Z"/>
      <path class="cls-4" d="M253.87,30.07c-.14.11-.76.61-1.64.54-.77-.07-1.6-.58-1.83-1.4-.29-1.05.53-2.14,1.44-2.47,1.26-.46,2.55.62,3.11,1.48.71,1.09.53,2.27.47,2.59-.23,2.97-.53,5.54-.81,7.64-.42,3.07-.73,4.6-1.68,6.3-.7,1.25-1.51,2.16-2.1,2.75-.21-.04-.48-.13-.62-.36-.33-.56.41-1.51.95-2.34.76-1.16,1.18-2.51,1.84-3.73.78-1.45,1.45-4.39.86-11Z"/>
      <path class="cls-4" d="M259.14,60.58c2.64-4.8,7.83-6.17,13.35-7.62,4.79-1.26,14.51-3.82,17.64.66,1.49,2.13,1.04,5.22.13,7.18-1.15,2.48-3.45,4.04-13.44,6.91-10.85,3.11-16.32,4.63-18.28,2.44-2.09-2.32-.83-6.97.6-9.57Z"/>
      <path class="cls-4" d="M235.01,52.88c3.7-4.04,3.32-9.4,2.92-15.09-.35-4.94-1.05-14.97-6.29-16.49-2.5-.73-5.28.69-6.84,2.19-1.97,1.89-2.72,4.57-2.23,14.95.54,11.28.86,16.94,3.56,18.1,2.87,1.23,6.87-1.45,8.87-3.64Z"/>
      <path class="cls-4" d="M248.11,76.99c-.12-.04-.27-.08-.44-.09-1.65-.07-3.15,2.83-3.67,4.32-1.12,3.25-.7,8.98,2.94,10.31,2.96,1.08,6.9-1.18,8.01-4.11,1.89-5-5.23-9.84-6.84-10.42Z"/>
      <path class="cls-4" d="M224.11,73.24c.09-.1.18-.22.25-.38.67-1.51-1.49-3.97-2.68-4.99-2.62-2.23-8.11-3.93-10.67-1.02-2.08,2.36-1.42,6.85.9,8.96,3.96,3.59,11.07-1.27,12.2-2.56Z"/>
    </g>
  </g>
</svg>