<?xml version="1.0" encoding="UTF-8"?>
<svg id="Calque_2" data-name="Calque 2" xmlns="http://www.w3.org/2000/svg" viewBox="0 0 1280.6 375.54">
  <defs>
    <style>
      .cls-1 {
        fill: #92c48f;
      }

      .cls-2 {
        fill: #b4b663;
      }

      .cls-3 {
        fill: #879e34;
      }
    </style>
  </defs>
  <g id="Calque_2-2" data-name="Calque 2">
    <g>
      <path class="cls-1" d="M1280.6,100.25v275.29H.6V102.17c5.97-12.31,17.76-20.54,30.67-21.11,9.9-.43,17.37,3.77,20.45,5.76,4.13-11.12,10.15-16.45,14.31-19.19,4.55-3,14.41-7.84,52.44-1.56,9.82,1.63,21.51,3.99,35.48,7.32,1.37.32,2.68.64,3.93.95,23.61,5.76,27.92,7.98,34.92,4.8,19.93-9.04,18.71-42.24,34.76-44.15,6.3-.75,8.14,4.16,16.36,3.84,12.79-.49,20.56-12.82,26.58-19.19,5.92-6.26,14.05-10.93,23.42-14.13,18.19-6.24,41.05-6.98,61.45-3.24,9.25,1.69,17.98,4.32,25.55,7.77,6.75,3.07,11.42,6.29,15.57,9.65,6.26,5.07,11.34,10.47,20.62,16.26,4.48,2.79,9.93,5.67,16.97,8.64,17.24,7.28,23.47,6.46,36.81,11.51,17,6.45,39.84,20.3,61.34,53.74,11.14-1.3,22.86-1.01,34.76,1.92,13.42,3.3,18.61,7.84,26.58,5.77,11.51-3.01,10.01-14.93,20.45-23.04,7.25-5.64,15.45-5.69,24.51-4.15,8.1,1.38,16.89,4.03,26.33,5.11,8.45.98,17.42.69,26.86-2.89,19.35-7.32,15.13-18.79,40.89-32.62,5.88-3.16,27.95-14.69,55.21-13.44,45.65,2.09,73.56,38.56,77.7,44.15,1.91-.64,4.01-1.25,6.28-1.8,5.77-1.39,12.63-2.33,20.3-2.04,12.24.48,22.84,3.97,31.58,8.47,15.42,7.96,25.06,19.07,27.72,22.24,3.54-3.87,8.97-8.42,16.36-9.6,9.51-1.52,17.13,3.36,20.44,0,2.13-2.16.19-5.42,0-9.6-.65-14.37,19.72-31.3,38.85-32.63,10.21-.71,10.6,3.67,20.45,3.84,21.09.36,30.06-19.53,53.16-32.63,4.82-2.73,9.75-4.88,14.64-6.57,17.87-6.14,35.21-5.99,44.66-4.95,5.49.6,10.7,1.77,15.63,3.37,39.74,12.94,61.3,54.37,64.12,59.97,3.24-.93,12.02-3.01,22.49,0,10.25,2.94,16.22,9.04,18.4,11.51Z"/>
      <path class="cls-2" d="M1280.6,294.75v80.79H.6v-228.72c3.38-3.07,8.77-7.04,16.36-9.36,21.23-6.49,40.43,5.82,42.94,7.49,3.21.61,7.94,1.46,13.7,2.34,19.13,2.96,28.84,3.17,35.25,3.91,2.45.27,4.42.63,6.25,1.24,8.12,2.72,15.9,11.27,17.97,34.79.13,1.38.23,2.81.31,4.29.14-1.5.32-3.04.56-4.64h0c1.08-7.13,3.36-15.11,7.75-23.21.36-.66.72-1.3,1.1-1.95,4.72-8.08,11.02-15.22,18.44-21.26,3.54-2.9,7.35-5.54,11.35-7.91h.01c5.31-3.14,10.97-5.82,16.88-7.98,15.2-5.57,31.99-7.74,48.32-5.83,42.78,5,65.87,36.1,69.52,41.19,1.89-.6,4.12-1.2,6.64-1.65,4.52-.83,9.94-1.18,15.85-.22,4.46.72,8.49,2.07,12.1,3.82h.01c18.46,8.96,26.23,28.53,26.74,29.88,1.69.56,3.64,1.25,5.8,2.1,5.26,2.03,11.77,4.97,18.74,9.14,6.8,4.06,11.17,7.58,14.4,10.52,5.88,5.36,8,8.79,14.22,10.08,1.86.39,3.77.51,5.7.41,18.89-.99,40.37-23.81,53.6-37.86,1.69-1.79,3.16-3.42,4.46-4.91,10.1-11.59,9.57-14.57,18.03-19.44,25.61-14.74,59.17-4.01,65.43-1.87,14.44,4.93,23.4,11.76,30.51,17.09.76.56,1.49,1.11,2.21,1.63,2.04,1.5,4.12,2.96,6.26,4.39,4.64,3.11,9.5,6.05,14.52,8.82,7.03,3.88,14.38,7.42,21.88,10.57,31.66,13.28,66,19.67,90.5,15.98,10.02-1.51,18.4-4.7,24.28-9.8,7.65-6.63,5.09-11.31,16.36-20.59,12.52-10.32,27.46-14.26,37.9-15.81,5.02-.75,9-.95,11.18-1.04,7.05-.3,17.88.04,30.67,3.74.42-1.54,1.06-3.47,2.05-5.59t.01-.02c.56-1.19,1.22-2.45,2.03-3.75,12.83-20.64,45.17-25.25,63.38-24.35.14,0,.28.02.42.03,42.23,2.32,66.39,37.13,69.1,41.17,2.6-1.94,6.74-4.49,12.27-5.62,7.97-1.63,14.23.63,20.61,4.5,10.15,6.17,20.6,16.44,38.69,21.72,22.12,6.47,35.81-.31,49.65,1.86,4.47.69,8.95,2.32,13.74,5.63.09.07.19.13.28.2,6.25,4.4,9.95,9.48,20.16,12.92,10.3,3.46,15.73,1.39,26.58,3.74,1.33.29,2.57.61,3.8.99,5.71,1.75,11.06,4.82,22.79,12.13,3.59,2.24,7.09,4.45,10.48,6.61,5.87,3.75,11.41,7.36,16.6,10.79,4.84,3.2,9.37,6.25,13.54,9.09,1.24.84,2.45,1.67,3.62,2.47,2.25,1.55,4.38,3.02,6.39,4.41,4.85,3.38,8.96,6.3,12.24,8.65,2.89,2.06,5.13,3.69,6.65,4.79,1.13.83,2.21,1.61,3.22,2.36,3,2.18,5.42,3.96,7,5.13Z"/>
      <path class="cls-3" d="M973.59,366.82c-.08,1.77-.16,3.55-.24,5.32-.06,1.13-.11,2.27-.16,3.41H381.3c.08-1.13.16-2.27.23-3.41.46-6.69.92-13.38,1.38-20.07-.95-2.24-2.49-6.57-2.35-11.85.04-1.51.21-3.1.58-4.74.49-2.18,1.24-4.15,2.2-5.92,4.68-8.84,13.96-12.92,17.25-14.36,10.68-4.68,20.54-2.9,24.76-1.85,1.02-5.38,3.07-14.72,7.07-25.8.5-1.39,1.37-3.8,2.62-6.95,5.26-13.18,17.18-39.21,36.32-55.92,8.12-7.08,17.52-12.49,28.27-14.55,3.98-.77,14.45-2.64,26.53,1.84,13.89,5.15,21.73,15.69,24.75,20.28,3.58-6.34,8.82-14.7,16.14-23.69,1.06-1.31,2.17-2.63,3.32-3.96,7.67-8.85,16.74-19.32,29.17-27.57,5.48-3.64,11.62-6.85,18.58-9.3.57-.2,1.13-.39,1.7-.57,10.92-3.59,21.16-4.42,29.61-4.14,9.41.31,16.6,2.02,19.98,2.86,18.13,4.5,32.37,13.98,43.11,24.1,10.98,10.36,18.3,21.37,22.39,28.44,1.65,2.85,2.78,5.05,3.4,6.31.03.04.05.09.07.14,3.96.49,9.52,1.48,15.91,3.69,7.07,2.44,15.45,5.33,22.99,12.91,2.06,2.07,3.81,4.23,5.29,6.41,3.88,5.67,5.95,11.42,7.09,15.71,8.27-5.84,15.32-7.1,19.46-7.37,13.37-.9,25.19,6.51,33.52,13.92,6.87,6.11,11.37,12.22,12.46,13.73,2.3,3.2,3.86,5.91,5.07,8.23,3.09,5.97,3.9,9.41,9.08,12.04,9.05,4.61,14.53-1.88,31.83,0,7.21.78,16.88,1.84,24.76,9.21,1.94,1.81,3.53,3.79,4.82,5.8,2.31,3.57,3.72,7.26,4.59,10.41.65,2.37,1,4.43,1.2,5.92,7.85-6.37,14.21-5.77,15.92-5.53,11.41,1.61,21.79,16.57,21.22,36.87Z"/>
      <path class="cls-3" d="M297.6,340.04c-2.35,0-5.09.15-8.02.63-2.86.47-5.91,1.25-8.98,2.5-1.72.7-8.18,3.4-13,8.62-1.48,1.59-2.84,3.47-6,6.27-.83.73-2.7,2.38-5,3.92-4.29,2.88-8.41,4.29-12,5.48-6.39,2.13-10.76,3.59-14.34,4.68-2.07.63-3.88,1.14-5.66,1.59-2.65.66-5.19,1.27-7.57,1.81H0v-228.3c.19-.17.38-.36.6-.55,3.43-3.09,10.3-8.26,20.88-10.67,23.83-5.43,43.86,8.29,45.36,9.35,5.84-2.53,16-6,28.65-5.61,4.8.15,9.55.85,14.12,2,13.6,3.42,25.65,10.88,33.18,19.96,2.12,2.55,3.88,5.21,5.22,7.96,2.35,4.81,3.77,8.91,4.71,13.34,1.48,7.03,1.74,14.89,2.45,27.8.24,4.37.6,9.32,1.16,14.79,1.19,11.61,3.27,25.59,6.95,41.5.41,1.81.86,3.66,1.32,5.53,1.98.54,3.98,1.1,6,1.69,20.87,6.02,43.88,14.37,67.01,26.1,2.16,1.1,4.32,2.23,6.48,3.38,11.95,6.4,23.88,13.72,35.51,22.12,1.67,1.2,3.31,2.41,4.91,3.62,1.95,1.47,3.85,2.95,5.71,4.43,2.54,2.01,5,4.03,7.38,6.05Z"/>
    </g>
  </g>
</svg>