<?xml version="1.0" encoding="UTF-8"?>
<svg id="Calque_2" data-name="Calque 2" xmlns="http://www.w3.org/2000/svg" viewBox="0 0 52.98 56.31">
  <defs>
    <style>
      .cls-1 {
        fill: #a1ace2;
      }

      .cls-2 {
        fill: #6375e3;
      }
    </style>
  </defs>
  <g id="Calque_2-2" data-name="Calque 2">
    <g>
      <path class="cls-2" d="M43.05,31.57c2.26-3.01,3.72-5.79,4.65-7.89.67-1.51,2.71-6.32,3.24-12.95.33-4.11.49-6.56-1.21-8.5-1.41-1.6-3.68-2.37-5.66-2.23-4.8.35-7.66,6.03-9.1,8.9-4.13,8.2-2.66,16.19-2.23,18.41,1.06,5.37,3.32,8.83,4.45,10.52,2.44,3.65,4.23,4.57,4.85,4.85.89.41,4.87,2.08,8.09-.2.27-.19,3.12-2.29,2.83-5.66-.27-3.18-3.08-4.76-3.64-5.06-2.96-1.57-5.88-.37-6.27-.2Z"/>
      <path class="cls-2" d="M25.74,43.53c-3.73-.47-6.74-1.36-8.9-2.14-1.55-.56-6.42-2.45-11.55-6.68C2.1,32.09.23,30.5.02,27.93c-.17-2.13.86-4.3,2.34-5.62,3.59-3.2,9.66-1.31,12.73-.35,8.76,2.73,13.49,9.34,14.77,11.2,3.12,4.5,4.04,8.53,4.46,10.51.93,4.29.34,6.22.11,6.86-.32.92-1.89,4.95-5.77,5.67-.32.06-3.81.65-6.04-1.9-2.09-2.4-1.28-5.53-1.1-6.13.93-3.22,3.82-4.48,4.22-4.65Z"/>
      <ellipse class="cls-1" cx="32.85" cy="34" rx="1.25" ry="10.42" transform="translate(-11.75 18.32) rotate(-26.61)"/>
      <path class="cls-1" d="M28.11,11.31c.07.08.41.46.97.5.49.03,1.06-.2,1.29-.69.29-.63-.12-1.39-.65-1.69-.74-.41-1.66.13-2.09.61-.55.61-.56,1.36-.56,1.57-.15,1.88-.23,3.52-.26,4.85-.05,1.96,0,2.95.42,4.1.31.85.72,1.5,1.04,1.93.14,0,.32-.03.42-.16.26-.31-.1-.99-.36-1.56-.36-.8-.49-1.68-.78-2.51-.34-.98-.47-2.89.56-6.96Z"/>
      <path class="cls-1" d="M18.81,15.67c.01.11.06.62-.28,1.05-.31.39-.86.65-1.38.48-.66-.21-.95-1.03-.81-1.62.2-.83,1.21-1.13,1.86-1.13.82,0,1.38.5,1.54.65,1.49,1.15,2.75,2.2,3.76,3.08,1.48,1.29,2.18,1.99,2.75,3.08.42.81.62,1.55.73,2.06-.1.1-.24.21-.4.2-.41-.02-.66-.74-.91-1.32-.35-.8-.92-1.5-1.33-2.27-.49-.91-1.82-2.29-5.52-4.28Z"/>
      <path class="cls-1" d="M36.78,23.48c-1.62-3.06-.54-6.28.61-9.71,1-2.97,3.02-9,6.47-9.1,1.64-.05,3.12,1.26,3.84,2.43.91,1.47.94,3.23-1.01,9.51-2.12,6.82-3.22,10.24-5.06,10.52-1.95.3-3.98-1.98-4.85-3.64Z"/>
      <path class="cls-1" d="M24.33,33.57c-.86-3.36-3.82-5.02-6.97-6.79-2.73-1.53-8.28-4.64-10.91-2.4-1.25,1.07-1.47,3.03-1.22,4.38.31,1.7,1.47,3.02,7.13,6.37,6.15,3.63,9.26,5.43,10.81,4.4,1.65-1.09,1.62-4.14,1.15-5.96Z"/>
      <path class="cls-1" d="M41.63,35.01c-.07.05-.14.11-.2.2-.61.85.4,2.65,1.01,3.44,1.33,1.72,4.51,3.49,6.47,2.02,1.6-1.19,1.77-4.06.61-5.66-1.99-2.74-7.02-.65-7.89,0Z"/>
      <path class="cls-1" d="M31.31,46.4c-.02-.08-.06-.17-.11-.26-.57-.88-2.62-.59-3.57-.31-2.09.61-4.89,2.92-4.25,5.29.53,1.92,3.13,3.13,5.05,2.63,3.27-.85,3.17-6.3,2.88-7.34Z"/>
    </g>
  </g>
</svg>